<svg xmlns="http://www.w3.org/2000/svg" xmlns:xlink="http://www.w3.org/1999/xlink" width="500" zoomAndPan="magnify" viewBox="0 0 375 112.499997" height="150" preserveAspectRatio="xMidYMid meet" version="1.0"><defs><g/><clipPath id="0ab8ab6099"><path d="M 78 55 L 107 55 L 107 98 L 78 98 Z M 78 55 " clip-rule="nonzero"/></clipPath><clipPath id="da48e93c03"><path d="M 58.679688 115.644531 L 8.644531 48.632812 L 73.261719 0.386719 L 123.296875 67.398438 Z M 58.679688 115.644531 " clip-rule="nonzero"/></clipPath><clipPath id="8beaf43e87"><path d="M 58.679688 115.644531 L 8.644531 48.632812 L 73.261719 0.386719 L 123.296875 67.398438 Z M 58.679688 115.644531 " clip-rule="nonzero"/></clipPath><clipPath id="f9cfb5d0a4"><path d="M 61 17 L 107 17 L 107 55 L 61 55 Z M 61 17 " clip-rule="nonzero"/></clipPath><clipPath id="48e6f2e215"><path d="M 58.679688 115.644531 L 8.644531 48.632812 L 73.261719 0.386719 L 123.296875 67.398438 Z M 58.679688 115.644531 " clip-rule="nonzero"/></clipPath><clipPath id="401d1534b5"><path d="M 58.679688 115.644531 L 8.644531 48.632812 L 73.261719 0.386719 L 123.296875 67.398438 Z M 58.679688 115.644531 " clip-rule="nonzero"/></clipPath><clipPath id="91b3358fb5"><path d="M 30 17 L 61 17 L 61 38 L 30 38 Z M 30 17 " clip-rule="nonzero"/></clipPath><clipPath id="7f97ac19fb"><path d="M 58.679688 115.644531 L 8.644531 48.632812 L 73.261719 0.386719 L 123.296875 67.398438 Z M 58.679688 115.644531 " clip-rule="nonzero"/></clipPath><clipPath id="51f52afb05"><path d="M 58.679688 115.644531 L 8.644531 48.632812 L 73.261719 0.386719 L 123.296875 67.398438 Z M 58.679688 115.644531 " clip-rule="nonzero"/></clipPath><clipPath id="8c307528d7"><path d="M 66 96 L 78 96 L 78 100 L 66 100 Z M 66 96 " clip-rule="nonzero"/></clipPath><clipPath id="11748da71a"><path d="M 58.679688 115.644531 L 8.644531 48.632812 L 73.261719 0.386719 L 123.296875 67.398438 Z M 58.679688 115.644531 " clip-rule="nonzero"/></clipPath><clipPath id="adbcae0409"><path d="M 58.679688 115.644531 L 8.644531 48.632812 L 73.261719 0.386719 L 123.296875 67.398438 Z M 58.679688 115.644531 " clip-rule="nonzero"/></clipPath><clipPath id="27d9db3aaa"><path d="M 24 53 L 26 53 L 26 63 L 24 63 Z M 24 53 " clip-rule="nonzero"/></clipPath><clipPath id="2581e4a6a7"><path d="M 58.679688 115.644531 L 8.644531 48.632812 L 73.261719 0.386719 L 123.296875 67.398438 Z M 58.679688 115.644531 " clip-rule="nonzero"/></clipPath><clipPath id="e8b226b364"><path d="M 58.679688 115.644531 L 8.644531 48.632812 L 73.261719 0.386719 L 123.296875 67.398438 Z M 58.679688 115.644531 " clip-rule="nonzero"/></clipPath><clipPath id="65b65c36d1"><path d="M 26 69 L 28 69 L 28 74 L 26 74 Z M 26 69 " clip-rule="nonzero"/></clipPath><clipPath id="0b57602a4f"><path d="M 58.679688 115.644531 L 8.644531 48.632812 L 73.261719 0.386719 L 123.296875 67.398438 Z M 58.679688 115.644531 " clip-rule="nonzero"/></clipPath><clipPath id="7ca9ff145f"><path d="M 58.679688 115.644531 L 8.644531 48.632812 L 73.261719 0.386719 L 123.296875 67.398438 Z M 58.679688 115.644531 " clip-rule="nonzero"/></clipPath><clipPath id="e20724f9ce"><path d="M 24 48 L 27 48 L 27 53 L 24 53 Z M 24 48 " clip-rule="nonzero"/></clipPath><clipPath id="d334c71deb"><path d="M 58.679688 115.644531 L 8.644531 48.632812 L 73.261719 0.386719 L 123.296875 67.398438 Z M 58.679688 115.644531 " clip-rule="nonzero"/></clipPath><clipPath id="34d9ac2130"><path d="M 58.679688 115.644531 L 8.644531 48.632812 L 73.261719 0.386719 L 123.296875 67.398438 Z M 58.679688 115.644531 " clip-rule="nonzero"/></clipPath><clipPath id="43c4e403c2"><path d="M 24 64 L 26 64 L 26 66 L 24 66 Z M 24 64 " clip-rule="nonzero"/></clipPath><clipPath id="3526491b46"><path d="M 58.679688 115.644531 L 8.644531 48.632812 L 73.261719 0.386719 L 123.296875 67.398438 Z M 58.679688 115.644531 " clip-rule="nonzero"/></clipPath><clipPath id="a5f7ed5abd"><path d="M 58.679688 115.644531 L 8.644531 48.632812 L 73.261719 0.386719 L 123.296875 67.398438 Z M 58.679688 115.644531 " clip-rule="nonzero"/></clipPath><clipPath id="6b50418aa1"><path d="M 28 41 L 29 41 L 29 43 L 28 43 Z M 28 41 " clip-rule="nonzero"/></clipPath><clipPath id="d39ad7fbb5"><path d="M 58.679688 115.644531 L 8.644531 48.632812 L 73.261719 0.386719 L 123.296875 67.398438 Z M 58.679688 115.644531 " clip-rule="nonzero"/></clipPath><clipPath id="212e5ed61b"><path d="M 58.679688 115.644531 L 8.644531 48.632812 L 73.261719 0.386719 L 123.296875 67.398438 Z M 58.679688 115.644531 " clip-rule="nonzero"/></clipPath><clipPath id="10861b9ffd"><path d="M 102 77 L 104 77 L 104 79 L 102 79 Z M 102 77 " clip-rule="nonzero"/></clipPath><clipPath id="1ece9d1c6e"><path d="M 58.679688 115.644531 L 8.644531 48.632812 L 73.261719 0.386719 L 123.296875 67.398438 Z M 58.679688 115.644531 " clip-rule="nonzero"/></clipPath><clipPath id="9ad24b5ee8"><path d="M 58.679688 115.644531 L 8.644531 48.632812 L 73.261719 0.386719 L 123.296875 67.398438 Z M 58.679688 115.644531 " clip-rule="nonzero"/></clipPath><clipPath id="22e0ec2cf5"><path d="M 25 67 L 27 67 L 27 69 L 25 69 Z M 25 67 " clip-rule="nonzero"/></clipPath><clipPath id="92b690fc1b"><path d="M 58.679688 115.644531 L 8.644531 48.632812 L 73.261719 0.386719 L 123.296875 67.398438 Z M 58.679688 115.644531 " clip-rule="nonzero"/></clipPath><clipPath id="f43b03ef14"><path d="M 58.679688 115.644531 L 8.644531 48.632812 L 73.261719 0.386719 L 123.296875 67.398438 Z M 58.679688 115.644531 " clip-rule="nonzero"/></clipPath><clipPath id="d09cffaa3a"><path d="M 32.035156 3.085938 L 93 3.085938 L 93 84 L 32.035156 84 Z M 32.035156 3.085938 " clip-rule="nonzero"/></clipPath><clipPath id="29cad74f1e"><path d="M 33 72 L 99.984375 72 L 99.984375 91.195312 L 33 91.195312 Z M 33 72 " clip-rule="nonzero"/></clipPath></defs><g clip-path="url(#0ab8ab6099)"><g clip-path="url(#da48e93c03)"><g clip-path="url(#8beaf43e87)"><path fill="#a6a6a6" d="M 91.09375 91.179688 C 89.527344 92.214844 88.140625 93.542969 86.304688 94.144531 C 86.171875 94.1875 86.035156 94.25 85.925781 94.335938 C 84.0625 95.832031 81.734375 96.1875 79.5625 96.929688 C 78.894531 97.15625 78.324219 96.996094 78.335938 96.664062 C 78.359375 96.140625 78.792969 95.953125 79.1875 95.847656 C 80.53125 95.476562 81.636719 94.648438 82.832031 94 C 83.414062 93.683594 83.964844 93.320312 84.546875 93.015625 C 86.058594 92.214844 87.386719 91.171875 88.675781 90.070312 C 88.855469 89.917969 89.023438 89.746094 89.21875 89.617188 C 91.007812 88.417969 92.363281 86.773438 93.679688 85.117188 C 94.878906 83.613281 95.863281 81.933594 97.074219 80.441406 C 98.304688 78.925781 99.113281 77.167969 100.175781 75.558594 C 101.683594 73.273438 102.789062 70.785156 103.535156 68.125 C 104.484375 64.746094 104.960938 61.308594 105.261719 57.828125 C 105.324219 57.097656 105.128906 56.425781 105.019531 55.730469 C 104.976562 55.472656 105.121094 55.277344 105.351562 55.167969 C 105.605469 55.042969 105.96875 55.160156 106.085938 55.40625 C 106.164062 55.574219 106.242188 55.753906 106.265625 55.9375 C 106.375 56.777344 106.523438 57.617188 106.546875 58.460938 C 106.59375 60.300781 106.472656 62.132812 106.191406 63.957031 C 106.132812 64.328125 106.039062 64.703125 106.039062 65.078125 C 106.046875 67.136719 105.34375 69.054688 104.890625 71.023438 C 104.773438 71.53125 104.605469 72.015625 104.371094 72.484375 C 104.160156 72.90625 103.980469 73.347656 103.859375 73.800781 C 103.476562 75.210938 103.113281 76.625 102.328125 77.878906 C 101.4375 80.515625 99.945312 82.773438 98.074219 84.816406 C 96.542969 86.484375 95.003906 88.140625 93.242188 89.570312 C 92.546875 90.132812 91.8125 90.644531 91.09375 91.179688 " fill-opacity="1" fill-rule="nonzero"/></g></g></g><g clip-path="url(#f9cfb5d0a4)"><g clip-path="url(#48e6f2e215)"><g clip-path="url(#401d1534b5)"><path fill="#a6a6a6" d="M 98.617188 34.496094 C 100.214844 36.492188 101.496094 38.507812 102.429688 40.75 C 102.863281 41.789062 103.433594 42.773438 103.917969 43.796875 C 104.410156 44.824219 104.75 45.898438 104.90625 47.03125 C 104.941406 47.3125 104.984375 47.601562 105.082031 47.859375 C 105.628906 49.28125 105.753906 50.789062 106.054688 52.261719 C 106.183594 52.890625 106.105469 53.480469 105.972656 54.078125 C 105.945312 54.1875 105.804688 54.324219 105.695312 54.347656 C 105.585938 54.371094 105.382812 54.304688 105.332031 54.21875 C 105.015625 53.644531 104.597656 53.089844 104.539062 52.421875 C 104.46875 51.652344 104.160156 50.96875 103.925781 50.253906 C 103.316406 48.375 102.714844 46.496094 102.109375 44.617188 C 102.078125 44.527344 102.058594 44.425781 102.003906 44.355469 C 100.984375 43.019531 100.714844 41.320312 99.84375 39.917969 C 99.613281 39.550781 99.460938 39.152344 99.417969 38.726562 C 99.351562 38.03125 99.011719 37.476562 98.574219 36.972656 C 98.140625 36.472656 97.792969 35.921875 97.441406 35.359375 C 96.890625 34.484375 96.292969 33.625 95.46875 32.964844 C 95.324219 32.847656 95.179688 32.714844 95.074219 32.5625 C 94.144531 31.234375 92.890625 30.203125 91.722656 29.128906 C 89.714844 27.277344 87.65625 25.417969 85.1875 24.203125 C 83.675781 23.457031 82.175781 22.65625 80.566406 22.101562 C 79.5 21.734375 78.472656 21.257812 77.429688 20.832031 C 77.167969 20.726562 76.917969 20.582031 76.644531 20.515625 C 73.574219 19.769531 70.496094 19.070312 67.339844 18.769531 C 66.621094 18.699219 65.929688 18.695312 65.242188 18.914062 C 64.246094 19.230469 63.285156 18.976562 62.324219 18.730469 C 62.191406 18.695312 62.0625 18.621094 61.945312 18.546875 C 61.628906 18.355469 61.46875 18.007812 61.542969 17.710938 C 61.625 17.410156 61.929688 17.164062 62.292969 17.179688 C 62.761719 17.195312 63.230469 17.277344 63.703125 17.289062 C 65.253906 17.328125 66.804688 17.328125 68.355469 17.382812 C 69.578125 17.425781 70.804688 17.472656 72.015625 17.628906 C 72.996094 17.757812 73.960938 18.011719 74.910156 18.292969 C 76.578125 18.789062 78.285156 19.160156 79.90625 19.828125 C 81.167969 20.347656 82.367188 21.035156 83.714844 21.328125 C 83.894531 21.367188 84.0625 21.484375 84.210938 21.597656 C 86.203125 23.101562 88.488281 24.203125 90.277344 25.988281 C 90.476562 26.1875 90.722656 26.351562 90.972656 26.46875 C 91.984375 26.9375 92.757812 27.699219 93.488281 28.5 C 94.378906 29.476562 95.230469 30.484375 96.097656 31.480469 C 96.28125 31.691406 96.441406 31.945312 96.667969 32.105469 C 97.144531 32.445312 97.457031 32.894531 97.75 33.386719 C 98.011719 33.832031 98.277344 34.289062 98.617188 34.496094 " fill-opacity="1" fill-rule="nonzero"/></g></g></g><g clip-path="url(#91b3358fb5)"><g clip-path="url(#7f97ac19fb)"><g clip-path="url(#51f52afb05)"><path fill="#a6a6a6" d="M 40.835938 25.210938 C 40.886719 25.175781 41.011719 25.105469 41.109375 25.003906 C 42.820312 23.242188 45.113281 22.386719 47.136719 21.109375 C 47.367188 20.964844 47.660156 20.910156 47.925781 20.816406 C 48.328125 20.679688 48.75 20.585938 49.132812 20.410156 C 50.800781 19.625 52.589844 19.175781 54.292969 18.484375 C 54.597656 18.359375 54.921875 18.238281 55.242188 18.21875 C 56.234375 18.152344 57.195312 17.910156 58.164062 17.71875 C 58.871094 17.578125 59.570312 17.597656 60.238281 17.925781 C 60.839844 18.226562 60.902344 18.914062 60.339844 19.277344 C 60.105469 19.425781 59.832031 19.527344 59.5625 19.582031 C 58.871094 19.722656 58.175781 19.84375 57.480469 19.964844 C 56.328125 20.164062 55.207031 20.550781 54.070312 20.859375 C 51.601562 21.53125 49.285156 22.59375 47.023438 23.765625 C 45.898438 24.347656 44.824219 25.039062 43.777344 25.761719 C 42.34375 26.75 40.964844 27.820312 39.554688 28.84375 C 37.824219 30.09375 36.332031 31.59375 34.910156 33.167969 C 34.308594 33.832031 33.722656 34.503906 33.109375 35.15625 C 32.570312 35.730469 32.210938 36.472656 31.78125 37.148438 C 31.628906 37.390625 31.453125 37.601562 31.183594 37.722656 C 30.871094 37.859375 30.449219 37.617188 30.46875 37.277344 C 30.488281 37 30.523438 36.707031 30.636719 36.460938 C 31.015625 35.644531 31.457031 34.859375 32.160156 34.273438 C 32.527344 33.960938 32.8125 33.609375 33.039062 33.183594 C 33.460938 32.390625 33.957031 31.636719 34.59375 31.003906 C 36.058594 29.546875 37.265625 27.832031 39.027344 26.679688 C 39.652344 26.265625 40.042969 25.550781 40.835938 25.210938 " fill-opacity="1" fill-rule="nonzero"/></g></g></g><g clip-path="url(#8c307528d7)"><g clip-path="url(#11748da71a)"><g clip-path="url(#adbcae0409)"><path fill="#a6a6a6" d="M 67.199219 98.402344 C 67.359375 98.355469 67.664062 98.222656 67.984375 98.175781 C 68.953125 98.023438 69.933594 97.894531 70.910156 97.777344 C 71.792969 97.667969 72.679688 97.570312 73.566406 97.496094 C 74.136719 97.445312 74.652344 97.226562 75.179688 97.035156 C 75.667969 96.859375 76.179688 96.734375 76.695312 96.914062 C 76.867188 96.976562 77.023438 97.089844 77.167969 97.203125 C 77.339844 97.339844 77.316406 97.714844 77.128906 97.820312 C 76.964844 97.914062 76.796875 98 76.617188 98.050781 C 74.632812 98.589844 72.648438 99.171875 70.609375 99.449219 C 69.5 99.597656 68.363281 99.527344 67.238281 99.53125 C 66.992188 99.535156 66.800781 99.363281 66.769531 99.089844 C 66.742188 98.835938 66.855469 98.636719 67.199219 98.402344 " fill-opacity="1" fill-rule="nonzero"/></g></g></g><g clip-path="url(#27d9db3aaa)"><g clip-path="url(#2581e4a6a7)"><g clip-path="url(#e8b226b364)"><path fill="#a6a6a6" d="M 24.738281 53.878906 C 24.855469 53.898438 24.957031 53.890625 25.023438 53.9375 C 25.09375 53.984375 25.175781 54.089844 25.171875 54.160156 C 25.015625 55.59375 25.644531 57.054688 25.015625 58.472656 C 24.878906 58.78125 24.984375 59.117188 24.988281 59.445312 C 25.007812 60.332031 24.96875 61.222656 24.941406 62.113281 C 24.933594 62.246094 24.84375 62.386719 24.683594 62.378906 C 24.523438 62.371094 24.4375 62.234375 24.425781 62.09375 C 24.359375 61.355469 24.074219 60.621094 24.382812 59.871094 C 24.535156 59.503906 24.402344 59.132812 24.347656 58.761719 C 24.175781 57.503906 24.046875 56.246094 24.269531 54.980469 C 24.316406 54.707031 24.378906 54.429688 24.472656 54.167969 C 24.515625 54.050781 24.652344 53.96875 24.738281 53.878906 " fill-opacity="1" fill-rule="nonzero"/></g></g></g><g clip-path="url(#65b65c36d1)"><g clip-path="url(#0b57602a4f)"><g clip-path="url(#7ca9ff145f)"><path fill="#a6a6a6" d="M 27.0625 73.300781 C 26.78125 72.574219 26.484375 71.839844 26.222656 71.09375 C 26.148438 70.886719 26.144531 70.640625 26.15625 70.414062 C 26.167969 70.222656 26.28125 70.054688 26.480469 70.003906 C 26.6875 69.949219 26.851562 70.042969 26.941406 70.222656 C 27.402344 71.152344 27.703125 72.121094 27.652344 73.175781 C 27.644531 73.316406 27.613281 73.488281 27.445312 73.488281 C 27.328125 73.488281 27.214844 73.378906 27.0625 73.300781 " fill-opacity="1" fill-rule="nonzero"/></g></g></g><g clip-path="url(#e20724f9ce)"><g clip-path="url(#d334c71deb)"><g clip-path="url(#34d9ac2130)"><path fill="#a6a6a6" d="M 25.816406 48.21875 C 25.921875 48.257812 26.042969 48.269531 26.074219 48.324219 C 26.242188 48.628906 26.195312 48.960938 26.113281 49.277344 C 25.964844 49.863281 25.855469 50.445312 25.921875 51.0625 C 25.960938 51.4375 25.859375 51.8125 25.574219 52.089844 C 25.488281 52.175781 25.328125 52.246094 25.214844 52.230469 C 25.105469 52.210938 24.964844 52.09375 24.914062 51.984375 C 24.730469 51.589844 24.6875 51.160156 24.914062 50.773438 C 25.316406 50.082031 25.582031 49.355469 25.601562 48.542969 C 25.601562 48.433594 25.746094 48.324219 25.816406 48.21875 " fill-opacity="1" fill-rule="nonzero"/></g></g></g><g clip-path="url(#43c4e403c2)"><g clip-path="url(#3526491b46)"><g clip-path="url(#a5f7ed5abd)"><path fill="#a6a6a6" d="M 25.0625 64.644531 C 25.167969 64.667969 25.324219 64.65625 25.410156 64.730469 C 25.726562 65 25.777344 65.351562 25.5625 65.722656 C 25.449219 65.914062 25.253906 65.925781 25.085938 65.824219 C 24.746094 65.625 24.660156 65.261719 24.84375 64.863281 C 24.878906 64.789062 24.96875 64.738281 25.0625 64.644531 " fill-opacity="1" fill-rule="nonzero"/></g></g></g><g clip-path="url(#6b50418aa1)"><g clip-path="url(#d39ad7fbb5)"><g clip-path="url(#212e5ed61b)"><path fill="#a6a6a6" d="M 28.191406 42.042969 C 27.96875 41.777344 27.996094 41.46875 28.277344 41.195312 C 28.425781 41.054688 28.605469 41.03125 28.761719 41.164062 C 29.046875 41.40625 29.007812 41.878906 28.679688 42.105469 C 28.515625 42.214844 28.339844 42.1875 28.191406 42.042969 " fill-opacity="1" fill-rule="nonzero"/></g></g></g><g clip-path="url(#10861b9ffd)"><g clip-path="url(#1ece9d1c6e)"><g clip-path="url(#9ad24b5ee8)"><path fill="#a6a6a6" d="M 103.496094 78.398438 C 103.300781 78.492188 103.132812 78.441406 103.023438 78.265625 C 102.882812 78.046875 102.894531 77.820312 103.101562 77.648438 C 103.261719 77.519531 103.457031 77.539062 103.597656 77.679688 C 103.796875 77.875 103.734375 78.246094 103.496094 78.398438 " fill-opacity="1" fill-rule="nonzero"/></g></g></g><g clip-path="url(#22e0ec2cf5)"><g clip-path="url(#92b690fc1b)"><g clip-path="url(#f43b03ef14)"><path fill="#a6a6a6" d="M 25.785156 67.78125 C 25.941406 67.765625 26.042969 67.851562 26.09375 67.984375 C 26.152344 68.125 26.128906 68.273438 25.980469 68.320312 C 25.828125 68.371094 25.722656 68.261719 25.671875 68.125 C 25.621094 67.988281 25.644531 67.863281 25.785156 67.78125 " fill-opacity="1" fill-rule="nonzero"/></g></g></g><g clip-path="url(#d09cffaa3a)"><path fill="#d2a113" d="M 35.484375 78.074219 C 36.746094 75.453125 37.839844 71.980469 38.429688 68.816406 C 38.574219 68.058594 38.277344 67.300781 37.664062 66.851562 C 36.972656 66.320312 35.972656 65.714844 34.871094 65.539062 C 34.871094 65.539062 36.289062 64.761719 38.0625 65.519531 C 35.226562 63.503906 36.042969 48.890625 41.296875 39.746094 C 41.273438 40.523438 41.265625 41.273438 41.246094 42.050781 C 42.582031 37.71875 45.488281 33.847656 49.332031 31.257812 C 47.597656 33.960938 46.648438 37.136719 46.617188 40.328125 C 47.445312 36.59375 49.023438 32.894531 51.707031 30.089844 C 57.976562 23.527344 68.632812 22.984375 75.792969 17.363281 C 75.667969 18.128906 75.140625 21.621094 75.015625 22.390625 C 76.382812 18.285156 82.828125 15.078125 85.570312 11.679688 C 85.519531 12.539062 85.457031 13.398438 85.425781 14.257812 C 85.925781 12.097656 87.863281 10.5625 89.546875 9.035156 C 91.21875 7.5 92.832031 5.421875 92.339844 3.261719 C 93.777344 8.636719 91.136719 14.800781 88.039062 19.265625 C 85.652344 22.695312 77.515625 25.492188 73.332031 24.796875 C 74.191406 24.96875 79.328125 25.535156 80.175781 25.707031 C 73.078125 25.859375 59.355469 65.480469 42.824219 66.144531 C 45.628906 66.1875 47.902344 68.785156 47.902344 68.785156 C 47.902344 68.785156 43.550781 67.230469 41.671875 67.433594 C 41.203125 67.476562 45.84375 48.226562 63.625 30.007812 C 44.660156 46.515625 40.417969 68.488281 40.277344 68.917969 C 38.746094 73.957031 37.023438 79.097656 33.789062 83.234375 C 33.34375 83.808594 32.300781 84.308594 32.058594 83.644531 C 33.402344 81.882812 34.566406 80.03125 35.503906 78.074219 Z M 35.484375 78.074219 " fill-opacity="1" fill-rule="evenodd"/></g><g clip-path="url(#29cad74f1e)"><path fill="#d2a113" d="M 77.882812 75.636719 C 77.882812 73.425781 72.570312 72.964844 70.011719 72.964844 L 69.367188 72.964844 C 62.738281 72.964844 53.886719 75.195312 48.953125 77.019531 C 45.894531 78.144531 42.949219 79.148438 40.011719 80.316406 C 39.113281 80.675781 36.21875 81.851562 34.054688 82.824219 C 33.953125 82.957031 33.863281 83.082031 33.761719 83.214844 C 33.699219 83.296875 33.617188 83.378906 33.535156 83.460938 C 34.3125 83.171875 35.105469 82.855469 35.820312 82.609375 C 37.296875 82.117188 38.59375 81.71875 40.070312 81.21875 C 42.558594 80.378906 46.109375 79.199219 48.6875 78.65625 C 54.765625 77.378906 60.578125 75.410156 67.890625 75.410156 L 68.734375 75.410156 C 70.03125 75.410156 74.046875 75.585938 74.046875 76.589844 C 74.046875 77.652344 69.460938 80.808594 68.542969 81.738281 C 67.265625 83.03125 64.585938 85.988281 64.585938 88.335938 C 64.585938 90.585938 67.132812 90.402344 67.992188 91.007812 L 71.609375 91.007812 C 71.660156 90.976562 75.363281 90.25 75.902344 90.085938 C 77.289062 89.664062 78.542969 89.195312 79.808594 88.773438 C 82.398438 87.925781 84.746094 86.714844 87.191406 85.734375 C 91.953125 83.808594 96.574219 80.941406 101.058594 78.730469 C 102.027344 78.25 103.25 77.613281 104.464844 76.949219 C 95.960938 79.160156 81.847656 87.914062 71.722656 87.914062 L 71.082031 87.914062 C 70.273438 87.914062 68.417969 87.515625 68.417969 86.847656 L 68.417969 86.53125 C 68.417969 84.226562 77.882812 78.953125 77.882812 75.636719 Z M 77.882812 75.636719 " fill-opacity="1" fill-rule="evenodd"/></g><g fill="#060b37" fill-opacity="1"><g transform="translate(49.8952, 64.766519)"><g><path d="M 8.839844 0.320312 C 13.605469 0.320312 16.746094 -3.023438 16.746094 -8.140625 C 16.746094 -12.910156 13.605469 -16.019531 8.839844 -16.019531 C 4.070312 -16.019531 0.929688 -12.675781 0.929688 -7.558594 C 0.929688 -2.792969 4.070312 0.320312 8.839844 0.320312 Z M 8.867188 -1.714844 C 6.046875 -1.714844 4.246094 -4.097656 4.246094 -7.734375 C 4.246094 -11.511719 6.019531 -13.957031 8.78125 -13.957031 C 11.601562 -13.957031 13.460938 -11.601562 13.460938 -7.9375 C 13.460938 -4.1875 11.628906 -1.714844 8.867188 -1.714844 Z M 8.867188 -1.714844 "/></g></g></g><g fill="#060b37" fill-opacity="1"><g transform="translate(67.56422, 64.766519)"><g><path d="M 13.839844 -2.90625 C 12.472656 -2.238281 11.078125 -1.917969 9.683594 -1.917969 C 6.222656 -1.917969 4.246094 -4.128906 4.246094 -7.9375 C 4.246094 -11.601562 6.222656 -13.957031 9.246094 -13.957031 C 10.089844 -13.957031 10.875 -13.839844 11.457031 -13.664062 L 12.035156 -10.613281 L 13.578125 -10.613281 L 13.578125 -15.46875 C 12.472656 -15.789062 10.816406 -16.019531 9.304688 -16.019531 C 4.273438 -16.019531 0.929688 -12.675781 0.929688 -7.558594 C 0.929688 -2.792969 4.070312 0.320312 8.808594 0.320312 C 10.234375 0.320312 11.570312 0.0585938 12.707031 -0.4375 L 14.1875 -2.324219 Z M 13.839844 -2.90625 "/></g></g></g><g fill="#060b37" fill-opacity="1"><g transform="translate(82.356205, 64.766519)"><g><path d="M 16.367188 -13.867188 L 18.054688 -14.332031 L 18.054688 -15.699219 L 11.195312 -15.699219 L 11.195312 -14.332031 L 13.199219 -14.21875 L 13.199219 -8.75 L 5.988281 -8.75 L 5.988281 -13.839844 L 7.734375 -14.332031 L 7.734375 -15.699219 L 0.8125 -15.699219 L 0.8125 -14.332031 L 2.820312 -14.21875 L 2.820312 -1.859375 L 1.046875 -1.367188 L 1.046875 0 L 7.9375 0 L 7.9375 -1.367188 L 5.988281 -1.484375 L 5.988281 -6.949219 L 13.199219 -6.949219 L 13.199219 -1.859375 L 11.425781 -1.367188 L 11.425781 0 L 18.289062 0 L 18.289062 -1.367188 L 16.367188 -1.484375 Z M 16.367188 -13.867188 "/></g></g></g><g fill="#060b37" fill-opacity="1"><g transform="translate(101.449198, 64.766519)"><g><path d="M 8.839844 0.320312 C 13.605469 0.320312 16.746094 -3.023438 16.746094 -8.140625 C 16.746094 -12.910156 13.605469 -16.019531 8.839844 -16.019531 C 4.070312 -16.019531 0.929688 -12.675781 0.929688 -7.558594 C 0.929688 -2.792969 4.070312 0.320312 8.839844 0.320312 Z M 8.867188 -1.714844 C 6.046875 -1.714844 4.246094 -4.097656 4.246094 -7.734375 C 4.246094 -11.511719 6.019531 -13.957031 8.78125 -13.957031 C 11.601562 -13.957031 13.460938 -11.601562 13.460938 -7.9375 C 13.460938 -4.1875 11.628906 -1.714844 8.867188 -1.714844 Z M 8.867188 -1.714844 "/></g></g></g><g fill="#060b37" fill-opacity="1"><g transform="translate(119.118219, 64.766519)"><g><path d="M 9.945312 -15.960938 L 6.949219 -15.351562 L 1.746094 -1.800781 L 0.175781 -1.367188 L 0.175781 0 L 6.191406 0 L 6.191406 -1.367188 L 3.75 -1.539062 L 4.941406 -4.796875 L 10.757812 -4.796875 L 11.980469 -1.511719 L 9.535156 -1.367188 L 9.535156 0 L 16.921875 0 L 16.921875 -1.367188 L 15.410156 -1.800781 Z M 7.820312 -12.648438 L 10.058594 -6.601562 L 5.613281 -6.601562 Z M 7.820312 -12.648438 "/></g></g></g><g fill="#060b37" fill-opacity="1"><g transform="translate(136.206009, 64.766519)"><g><path d="M 1.277344 -12.007812 L 3.140625 -12.007812 L 3.578125 -17.996094 L 0.871094 -17.996094 Z M 1.277344 -12.007812 "/></g></g></g><g fill="#060b37" fill-opacity="1"><g transform="translate(140.623264, 64.766519)"><g><path d="M 7.328125 -9.652344 C 5.089844 -10.496094 4.535156 -11.046875 4.535156 -12.066406 C 4.535156 -13.519531 5.960938 -14.160156 7.558594 -14.160156 C 8.402344 -14.160156 9.363281 -14.015625 10.234375 -13.753906 L 10.875 -11.105469 L 12.386719 -11.105469 L 12.386719 -15.46875 C 10.640625 -15.816406 9.246094 -16.019531 7.761719 -16.019531 C 3.953125 -16.019531 1.570312 -14.363281 1.570312 -11.222656 C 1.570312 -9.070312 2.644531 -7.996094 5.785156 -6.832031 L 7.792969 -6.046875 C 9.796875 -5.261719 10.292969 -4.738281 10.292969 -3.835938 C 10.292969 -2.558594 9.160156 -1.628906 7.066406 -1.628906 C 5.929688 -1.628906 4.449219 -2.007812 3.257812 -2.675781 L 3.257812 -5.234375 L 1.6875 -5.234375 L 0.988281 -1.222656 C 2.820312 -0.203125 5.117188 0.320312 7.179688 0.320312 C 10.960938 0.320312 13.289062 -1.628906 13.289062 -4.566406 C 13.289062 -6.570312 12.296875 -7.792969 9.304688 -8.839844 Z M 7.328125 -9.652344 "/></g></g></g><g fill="#060b37" fill-opacity="1"><g transform="translate(154.688724, 64.766519)"><g/></g></g><g fill="#060b37" fill-opacity="1"><g transform="translate(159.600012, 64.766519)"><g><path d="M 19.597656 -13.898438 L 21.339844 -14.332031 L 21.339844 -15.699219 L 16.515625 -15.699219 L 11.367188 -6.367188 L 6.078125 -15.699219 L 0.8125 -15.699219 L 0.8125 -14.332031 L 2.792969 -14.160156 L 2.792969 -1.832031 L 1.019531 -1.367188 L 1.019531 0 L 6.6875 0 L 6.6875 -1.367188 L 4.769531 -1.539062 L 4.769531 -11.890625 L 9.796875 -3.082031 L 11.367188 -3.082031 L 16.425781 -12.035156 L 16.425781 -1.859375 L 14.480469 -1.367188 L 14.480469 0 L 21.574219 0 L 21.574219 -1.367188 L 19.597656 -1.484375 Z M 19.597656 -13.898438 "/></g></g></g><g fill="#060b37" fill-opacity="1"><g transform="translate(181.976889, 64.766519)"><g><path d="M 8.839844 0.320312 C 13.605469 0.320312 16.746094 -3.023438 16.746094 -8.140625 C 16.746094 -12.910156 13.605469 -16.019531 8.839844 -16.019531 C 4.070312 -16.019531 0.929688 -12.675781 0.929688 -7.558594 C 0.929688 -2.792969 4.070312 0.320312 8.839844 0.320312 Z M 8.867188 -1.714844 C 6.046875 -1.714844 4.246094 -4.097656 4.246094 -7.734375 C 4.246094 -11.511719 6.019531 -13.957031 8.78125 -13.957031 C 11.601562 -13.957031 13.460938 -11.601562 13.460938 -7.9375 C 13.460938 -4.1875 11.628906 -1.714844 8.867188 -1.714844 Z M 8.867188 -1.714844 "/></g></g></g><g fill="#060b37" fill-opacity="1"><g transform="translate(199.645909, 64.766519)"><g><path d="M 10.730469 -8.257812 C 12.765625 -8.867188 13.957031 -10.089844 13.957031 -11.804688 C 13.957031 -14.246094 11.890625 -15.699219 7.851562 -15.699219 L 0.8125 -15.699219 L 0.8125 -14.332031 L 2.878906 -14.21875 L 2.878906 -1.800781 L 1.105469 -1.367188 L 1.105469 0 L 8.023438 0 C 12.617188 0 15.0625 -1.714844 15.0625 -4.417969 C 15.0625 -6.484375 13.664062 -7.761719 10.730469 -8.257812 Z M 7.878906 -13.867188 C 9.683594 -13.867188 10.671875 -13.027344 10.671875 -11.570312 C 10.671875 -9.914062 9.421875 -8.808594 7.53125 -8.808594 L 6.046875 -8.808594 L 6.046875 -13.867188 Z M 6.046875 -1.832031 L 6.046875 -6.976562 L 7.878906 -6.976562 C 10.496094 -6.976562 11.773438 -6.105469 11.773438 -4.449219 C 11.773438 -2.878906 10.46875 -1.832031 7.792969 -1.832031 Z M 6.046875 -1.832031 "/></g></g></g><g fill="#060b37" fill-opacity="1"><g transform="translate(215.077234, 64.766519)"><g><path d="M 5.988281 -13.839844 L 7.734375 -14.332031 L 7.734375 -15.699219 L 0.8125 -15.699219 L 0.8125 -14.332031 L 2.820312 -14.21875 L 2.820312 -1.859375 L 1.046875 -1.367188 L 1.046875 0 L 7.996094 0 L 7.996094 -1.367188 L 5.988281 -1.484375 Z M 5.988281 -13.839844 "/></g></g></g><g fill="#060b37" fill-opacity="1"><g transform="translate(223.853621, 64.766519)"><g><path d="M 11.601562 -1.832031 L 6.046875 -1.832031 L 6.046875 -13.839844 L 7.792969 -14.332031 L 7.792969 -15.699219 L 0.8125 -15.699219 L 0.8125 -14.332031 L 2.878906 -14.21875 L 2.878906 -1.800781 L 1.164062 -1.367188 L 1.164062 0 L 13.460938 0 L 13.460938 -4.304688 L 12.066406 -4.304688 Z M 11.601562 -1.832031 "/></g></g></g><g fill="#060b37" fill-opacity="1"><g transform="translate(238.006266, 64.766519)"><g><path d="M 12.125 -1.832031 L 5.988281 -1.832031 L 5.988281 -6.976562 L 10.058594 -6.976562 L 10.496094 -5.351562 L 11.832031 -5.351562 L 11.832031 -10.378906 L 10.496094 -10.378906 L 10.058594 -8.78125 L 5.988281 -8.78125 L 5.988281 -13.867188 L 11.511719 -13.867188 L 12.035156 -11.542969 L 13.546875 -11.542969 L 13.546875 -15.699219 L 0.8125 -15.699219 L 0.8125 -14.332031 L 2.820312 -14.21875 L 2.820312 -1.800781 L 1.046875 -1.367188 L 1.046875 0 L 14.128906 0 L 14.128906 -4.273438 L 12.617188 -4.273438 Z M 12.125 -1.832031 "/></g></g></g><g fill="#060b37" fill-opacity="1"><g transform="translate(257.912968, 64.766519)"><g><path d="M 17.300781 -15.699219 L 11.601562 -15.699219 L 11.601562 -14.332031 L 13.605469 -14.160156 L 13.605469 -4.738281 L 4.738281 -15.699219 L 0.8125 -15.699219 L 0.8125 -14.332031 L 2.761719 -14.160156 L 2.761719 -1.832031 L 1.019531 -1.367188 L 1.019531 0 L 6.714844 0 L 6.714844 -1.367188 L 4.738281 -1.539062 L 4.738281 -10.960938 L 13.605469 0 L 15.585938 0 L 15.585938 -13.867188 L 17.300781 -14.332031 Z M 17.300781 -15.699219 "/></g></g></g><g fill="#060b37" fill-opacity="1"><g transform="translate(275.988836, 64.766519)"><g><path d="M 8.839844 0.320312 C 13.605469 0.320312 16.746094 -3.023438 16.746094 -8.140625 C 16.746094 -12.910156 13.605469 -16.019531 8.839844 -16.019531 C 4.070312 -16.019531 0.929688 -12.675781 0.929688 -7.558594 C 0.929688 -2.792969 4.070312 0.320312 8.839844 0.320312 Z M 8.867188 -1.714844 C 6.046875 -1.714844 4.246094 -4.097656 4.246094 -7.734375 C 4.246094 -11.511719 6.019531 -13.957031 8.78125 -13.957031 C 11.601562 -13.957031 13.460938 -11.601562 13.460938 -7.9375 C 13.460938 -4.1875 11.628906 -1.714844 8.867188 -1.714844 Z M 8.867188 -1.714844 "/></g></g></g><g fill="#060b37" fill-opacity="1"><g transform="translate(293.657856, 64.766519)"><g><path d="M 13.78125 -15.699219 L 0.667969 -15.699219 L 0.667969 -11.511719 L 2.007812 -11.511719 L 2.5 -13.867188 L 5.640625 -13.867188 L 5.640625 -1.859375 L 3.894531 -1.367188 L 3.894531 0 L 10.640625 0 L 10.640625 -1.367188 L 8.808594 -1.484375 L 8.808594 -13.867188 L 11.921875 -13.867188 L 12.414062 -11.511719 L 13.78125 -11.511719 Z M 13.78125 -15.699219 "/></g></g></g><g fill="#060b37" fill-opacity="1"><g transform="translate(308.101116, 64.766519)"><g><path d="M 9.945312 -15.960938 L 6.949219 -15.351562 L 1.746094 -1.800781 L 0.175781 -1.367188 L 0.175781 0 L 6.191406 0 L 6.191406 -1.367188 L 3.75 -1.539062 L 4.941406 -4.796875 L 10.757812 -4.796875 L 11.980469 -1.511719 L 9.535156 -1.367188 L 9.535156 0 L 16.921875 0 L 16.921875 -1.367188 L 15.410156 -1.800781 Z M 7.820312 -12.648438 L 10.058594 -6.601562 L 5.613281 -6.601562 Z M 7.820312 -12.648438 "/></g></g></g><g fill="#060b37" fill-opacity="1"><g transform="translate(325.188906, 64.766519)"><g><path d="M 10.730469 -6.890625 C 13.054688 -7.617188 14.390625 -9.214844 14.390625 -11.28125 C 14.390625 -14.21875 12.355469 -15.699219 8.082031 -15.699219 L 0.8125 -15.699219 L 0.8125 -14.332031 L 2.761719 -14.21875 L 2.761719 -1.859375 L 0.988281 -1.367188 L 0.988281 0 L 8.140625 0 L 8.140625 -1.367188 L 5.84375 -1.511719 L 5.84375 -6.484375 L 7.675781 -6.484375 L 11.484375 0 L 16.515625 0 L 16.515625 -1.367188 L 14.332031 -1.484375 Z M 7.996094 -13.867188 C 10.175781 -13.867188 11.222656 -12.96875 11.222656 -11.25 C 11.222656 -9.363281 9.769531 -8.171875 7.328125 -8.171875 L 5.84375 -8.171875 L 5.84375 -13.867188 Z M 7.996094 -13.867188 "/></g></g></g><g fill="#060b37" fill-opacity="1"><g transform="translate(341.811739, 64.766519)"><g><path d="M 16.949219 -14.332031 L 16.949219 -15.699219 L 10.960938 -15.699219 L 10.960938 -14.332031 L 13.027344 -14.160156 L 9.304688 -7.328125 L 5.523438 -14.21875 L 7.820312 -14.332031 L 7.820312 -15.699219 L 0.203125 -15.699219 L 0.203125 -14.332031 L 1.917969 -13.898438 L 7.007812 -5.320312 L 7.007812 -1.859375 L 5.261719 -1.367188 L 5.261719 0 L 12.269531 0 L 12.269531 -1.367188 L 10.292969 -1.484375 L 10.292969 -5.613281 L 15.148438 -13.898438 Z M 16.949219 -14.332031 "/></g></g></g><g fill="#d2a113" fill-opacity="1"><g transform="translate(260.491435, 83.946535)"><g><path d="M 10.066406 -9.136719 L 6.75 -9.136719 L 6.75 -8.339844 L 7.917969 -8.238281 L 7.917969 -2.757812 L 2.757812 -9.136719 L 0.472656 -9.136719 L 0.472656 -8.339844 L 1.605469 -8.238281 L 1.605469 -1.066406 L 0.59375 -0.796875 L 0.59375 0 L 3.910156 0 L 3.910156 -0.796875 L 2.757812 -0.898438 L 2.757812 -6.378906 L 7.917969 0 L 9.070312 0 L 9.070312 -8.070312 L 10.066406 -8.339844 Z M 10.066406 -9.136719 "/></g></g></g><g fill="#d2a113" fill-opacity="1"><g transform="translate(272.773969, 83.946535)"><g><path d="M 5.144531 0.1875 C 7.917969 0.1875 9.746094 -1.757812 9.746094 -4.738281 C 9.746094 -7.511719 7.917969 -9.324219 5.144531 -9.324219 C 2.367188 -9.324219 0.542969 -7.378906 0.542969 -4.398438 C 0.542969 -1.625 2.367188 0.1875 5.144531 0.1875 Z M 5.160156 -1 C 3.519531 -1 2.46875 -2.386719 2.46875 -4.5 C 2.46875 -6.699219 3.503906 -8.121094 5.109375 -8.121094 C 6.75 -8.121094 7.832031 -6.75 7.832031 -4.617188 C 7.832031 -2.4375 6.769531 -1 5.160156 -1 Z M 5.160156 -1 "/></g></g></g><g fill="#d2a113" fill-opacity="1"><g transform="translate(284.819668, 83.946535)"><g><path d="M 6.242188 -4.011719 C 7.597656 -4.433594 8.375 -5.363281 8.375 -6.566406 C 8.375 -8.273438 7.191406 -9.136719 4.703125 -9.136719 L 0.472656 -9.136719 L 0.472656 -8.339844 L 1.605469 -8.273438 L 1.605469 -1.082031 L 0.574219 -0.796875 L 0.574219 0 L 4.738281 0 L 4.738281 -0.796875 L 3.402344 -0.878906 L 3.402344 -3.773438 L 4.46875 -3.773438 L 6.683594 0 L 9.609375 0 L 9.609375 -0.796875 L 8.339844 -0.863281 Z M 4.652344 -8.070312 C 5.921875 -8.070312 6.53125 -7.546875 6.53125 -6.546875 C 6.53125 -5.449219 5.683594 -4.753906 4.265625 -4.753906 L 3.402344 -4.753906 L 3.402344 -8.070312 Z M 4.652344 -8.070312 "/></g></g></g><g fill="#d2a113" fill-opacity="1"><g transform="translate(296.256354, 83.946535)"><g><path d="M 8.019531 -9.136719 L 0.390625 -9.136719 L 0.390625 -6.699219 L 1.167969 -6.699219 L 1.457031 -8.070312 L 3.28125 -8.070312 L 3.28125 -1.082031 L 2.265625 -0.796875 L 2.265625 0 L 6.191406 0 L 6.191406 -0.796875 L 5.125 -0.863281 L 5.125 -8.070312 L 6.9375 -8.070312 L 7.226562 -6.699219 L 8.019531 -6.699219 Z M 8.019531 -9.136719 "/></g></g></g><g fill="#d2a113" fill-opacity="1"><g transform="translate(306.424265, 83.946535)"><g><path d="M 9.527344 -8.070312 L 10.507812 -8.339844 L 10.507812 -9.136719 L 6.515625 -9.136719 L 6.515625 -8.339844 L 7.679688 -8.273438 L 7.679688 -5.09375 L 3.484375 -5.09375 L 3.484375 -8.054688 L 4.5 -8.339844 L 4.5 -9.136719 L 0.472656 -9.136719 L 0.472656 -8.339844 L 1.640625 -8.273438 L 1.640625 -1.082031 L 0.609375 -0.796875 L 0.609375 0 L 4.617188 0 L 4.617188 -0.796875 L 3.484375 -0.863281 L 3.484375 -4.042969 L 7.679688 -4.042969 L 7.679688 -1.082031 L 6.648438 -0.796875 L 6.648438 0 L 10.640625 0 L 10.640625 -0.796875 L 9.527344 -0.863281 Z M 9.527344 -8.070312 "/></g></g></g><g fill="#d2a113" fill-opacity="1"><g transform="translate(319.298893, 83.946535)"><g/></g></g><g fill="#d2a113" fill-opacity="1"><g transform="translate(323.918044, 83.946535)"><g><path d="M 6.242188 -4.804688 C 7.429688 -5.160156 8.121094 -5.871094 8.121094 -6.871094 C 8.121094 -8.289062 6.921875 -9.136719 4.566406 -9.136719 L 0.472656 -9.136719 L 0.472656 -8.339844 L 1.675781 -8.273438 L 1.675781 -1.050781 L 0.644531 -0.796875 L 0.644531 0 L 4.667969 0 C 7.34375 0 8.765625 -1 8.765625 -2.570312 C 8.765625 -3.773438 7.953125 -4.519531 6.242188 -4.804688 Z M 4.585938 -8.070312 C 5.632812 -8.070312 6.210938 -7.578125 6.210938 -6.734375 C 6.210938 -5.769531 5.480469 -5.125 4.382812 -5.125 L 3.519531 -5.125 L 3.519531 -8.070312 Z M 3.519531 -1.066406 L 3.519531 -4.0625 L 4.585938 -4.0625 C 6.109375 -4.0625 6.851562 -3.554688 6.851562 -2.589844 C 6.851562 -1.675781 6.089844 -1.066406 4.535156 -1.066406 Z M 3.519531 -1.066406 "/></g></g></g><g fill="#d2a113" fill-opacity="1"><g transform="translate(334.66113, 83.946535)"><g><path d="M 5.785156 -9.289062 L 4.042969 -8.933594 L 1.015625 -1.050781 L 0.101562 -0.796875 L 0.101562 0 L 3.605469 0 L 3.605469 -0.796875 L 2.183594 -0.898438 L 2.875 -2.792969 L 6.261719 -2.792969 L 6.972656 -0.878906 L 5.550781 -0.796875 L 5.550781 0 L 9.847656 0 L 9.847656 -0.796875 L 8.96875 -1.050781 Z M 4.550781 -7.359375 L 5.855469 -3.839844 L 3.265625 -3.839844 Z M 4.550781 -7.359375 "/></g></g></g><g fill="#d2a113" fill-opacity="1"><g transform="translate(346.36849, 83.946535)"><g><path d="M 9.863281 -8.339844 L 9.863281 -9.136719 L 6.378906 -9.136719 L 6.378906 -8.339844 L 7.578125 -8.238281 L 5.414062 -4.265625 L 3.214844 -8.273438 L 4.550781 -8.339844 L 4.550781 -9.136719 L 0.117188 -9.136719 L 0.117188 -8.339844 L 1.117188 -8.085938 L 4.078125 -3.097656 L 4.078125 -1.082031 L 3.0625 -0.796875 L 3.0625 0 L 7.140625 0 L 7.140625 -0.796875 L 5.988281 -0.863281 L 5.988281 -3.265625 L 8.816406 -8.085938 Z M 9.863281 -8.339844 "/></g></g></g></svg>