<svg xmlns="http://www.w3.org/2000/svg" xmlns:xlink="http://www.w3.org/1999/xlink" width="500" zoomAndPan="magnify" viewBox="0 0 375 112.499997" height="150" preserveAspectRatio="xMidYMid meet" version="1.0"><defs><g/><clipPath id="817a903b07"><path d="M 0.828125 0 L 374.167969 0 L 374.167969 112.003906 L 0.828125 112.003906 Z M 0.828125 0 " clip-rule="nonzero"/></clipPath><clipPath id="6964985194"><path d="M 79 55 L 109 55 L 109 98 L 79 98 Z M 79 55 " clip-rule="nonzero"/></clipPath><clipPath id="be51bc2316"><path d="M 60.222656 115.644531 L 10.1875 48.632812 L 74.804688 0.386719 L 124.839844 67.398438 Z M 60.222656 115.644531 " clip-rule="nonzero"/></clipPath><clipPath id="e8fd07e50d"><path d="M 60.222656 115.644531 L 10.1875 48.632812 L 74.804688 0.386719 L 124.839844 67.398438 Z M 60.222656 115.644531 " clip-rule="nonzero"/></clipPath><clipPath id="ed46f92348"><path d="M 63 17 L 108 17 L 108 55 L 63 55 Z M 63 17 " clip-rule="nonzero"/></clipPath><clipPath id="d32fdd183b"><path d="M 60.222656 115.644531 L 10.1875 48.632812 L 74.804688 0.386719 L 124.839844 67.398438 Z M 60.222656 115.644531 " clip-rule="nonzero"/></clipPath><clipPath id="41ff1b42a2"><path d="M 60.222656 115.644531 L 10.1875 48.632812 L 74.804688 0.386719 L 124.839844 67.398438 Z M 60.222656 115.644531 " clip-rule="nonzero"/></clipPath><clipPath id="b035655f80"><path d="M 32 17 L 63 17 L 63 38 L 32 38 Z M 32 17 " clip-rule="nonzero"/></clipPath><clipPath id="0622f7c419"><path d="M 60.222656 115.644531 L 10.1875 48.632812 L 74.804688 0.386719 L 124.839844 67.398438 Z M 60.222656 115.644531 " clip-rule="nonzero"/></clipPath><clipPath id="d2729ec4ca"><path d="M 60.222656 115.644531 L 10.1875 48.632812 L 74.804688 0.386719 L 124.839844 67.398438 Z M 60.222656 115.644531 " clip-rule="nonzero"/></clipPath><clipPath id="a39dfc090f"><path d="M 68 96 L 79 96 L 79 100 L 68 100 Z M 68 96 " clip-rule="nonzero"/></clipPath><clipPath id="c13af5252f"><path d="M 60.222656 115.644531 L 10.1875 48.632812 L 74.804688 0.386719 L 124.839844 67.398438 Z M 60.222656 115.644531 " clip-rule="nonzero"/></clipPath><clipPath id="c5f08022e2"><path d="M 60.222656 115.644531 L 10.1875 48.632812 L 74.804688 0.386719 L 124.839844 67.398438 Z M 60.222656 115.644531 " clip-rule="nonzero"/></clipPath><clipPath id="19d384994a"><path d="M 25 53 L 27 53 L 27 63 L 25 63 Z M 25 53 " clip-rule="nonzero"/></clipPath><clipPath id="e360e7f3eb"><path d="M 60.222656 115.644531 L 10.1875 48.632812 L 74.804688 0.386719 L 124.839844 67.398438 Z M 60.222656 115.644531 " clip-rule="nonzero"/></clipPath><clipPath id="f52d549e02"><path d="M 60.222656 115.644531 L 10.1875 48.632812 L 74.804688 0.386719 L 124.839844 67.398438 Z M 60.222656 115.644531 " clip-rule="nonzero"/></clipPath><clipPath id="5fecaf3afb"><path d="M 27 69 L 30 69 L 30 74 L 27 74 Z M 27 69 " clip-rule="nonzero"/></clipPath><clipPath id="78930759b4"><path d="M 60.222656 115.644531 L 10.1875 48.632812 L 74.804688 0.386719 L 124.839844 67.398438 Z M 60.222656 115.644531 " clip-rule="nonzero"/></clipPath><clipPath id="34805e7ef2"><path d="M 60.222656 115.644531 L 10.1875 48.632812 L 74.804688 0.386719 L 124.839844 67.398438 Z M 60.222656 115.644531 " clip-rule="nonzero"/></clipPath><clipPath id="4d50779758"><path d="M 26 48 L 28 48 L 28 53 L 26 53 Z M 26 48 " clip-rule="nonzero"/></clipPath><clipPath id="2a20e05d51"><path d="M 60.222656 115.644531 L 10.1875 48.632812 L 74.804688 0.386719 L 124.839844 67.398438 Z M 60.222656 115.644531 " clip-rule="nonzero"/></clipPath><clipPath id="a243a4d304"><path d="M 60.222656 115.644531 L 10.1875 48.632812 L 74.804688 0.386719 L 124.839844 67.398438 Z M 60.222656 115.644531 " clip-rule="nonzero"/></clipPath><clipPath id="41d34342c2"><path d="M 26 64 L 28 64 L 28 66 L 26 66 Z M 26 64 " clip-rule="nonzero"/></clipPath><clipPath id="3a5430c620"><path d="M 60.222656 115.644531 L 10.1875 48.632812 L 74.804688 0.386719 L 124.839844 67.398438 Z M 60.222656 115.644531 " clip-rule="nonzero"/></clipPath><clipPath id="95533f6e04"><path d="M 60.222656 115.644531 L 10.1875 48.632812 L 74.804688 0.386719 L 124.839844 67.398438 Z M 60.222656 115.644531 " clip-rule="nonzero"/></clipPath><clipPath id="a830c41026"><path d="M 29 41 L 31 41 L 31 43 L 29 43 Z M 29 41 " clip-rule="nonzero"/></clipPath><clipPath id="7277684cf3"><path d="M 60.222656 115.644531 L 10.1875 48.632812 L 74.804688 0.386719 L 124.839844 67.398438 Z M 60.222656 115.644531 " clip-rule="nonzero"/></clipPath><clipPath id="ae74584a9e"><path d="M 60.222656 115.644531 L 10.1875 48.632812 L 74.804688 0.386719 L 124.839844 67.398438 Z M 60.222656 115.644531 " clip-rule="nonzero"/></clipPath><clipPath id="04288f4edf"><path d="M 104 77 L 106 77 L 106 79 L 104 79 Z M 104 77 " clip-rule="nonzero"/></clipPath><clipPath id="9c3c4bb17d"><path d="M 60.222656 115.644531 L 10.1875 48.632812 L 74.804688 0.386719 L 124.839844 67.398438 Z M 60.222656 115.644531 " clip-rule="nonzero"/></clipPath><clipPath id="db4698619c"><path d="M 60.222656 115.644531 L 10.1875 48.632812 L 74.804688 0.386719 L 124.839844 67.398438 Z M 60.222656 115.644531 " clip-rule="nonzero"/></clipPath><clipPath id="a879107a64"><path d="M 27 67 L 28 67 L 28 69 L 27 69 Z M 27 67 " clip-rule="nonzero"/></clipPath><clipPath id="7daf3d39af"><path d="M 60.222656 115.644531 L 10.1875 48.632812 L 74.804688 0.386719 L 124.839844 67.398438 Z M 60.222656 115.644531 " clip-rule="nonzero"/></clipPath><clipPath id="f8bc8918bd"><path d="M 60.222656 115.644531 L 10.1875 48.632812 L 74.804688 0.386719 L 124.839844 67.398438 Z M 60.222656 115.644531 " clip-rule="nonzero"/></clipPath><clipPath id="3854ea60e8"><path d="M 33.46875 0 L 97 0 L 97 85 L 33.46875 85 Z M 33.46875 0 " clip-rule="nonzero"/></clipPath><clipPath id="db0b803a92"><path d="M 35 72 L 108.882812 72 L 108.882812 91.84375 L 35 91.84375 Z M 35 72 " clip-rule="nonzero"/></clipPath></defs><g clip-path="url(#817a903b07)"><path fill="#ffffff" d="M 0.828125 0 L 374.171875 0 L 374.171875 119.46875 L 0.828125 119.46875 Z M 0.828125 0 " fill-opacity="1" fill-rule="nonzero"/><path fill="#ffffff" d="M 0.828125 0 L 374.171875 0 L 374.171875 112.003906 L 0.828125 112.003906 Z M 0.828125 0 " fill-opacity="1" fill-rule="nonzero"/><path fill="#ffffff" d="M 0.828125 0 L 374.171875 0 L 374.171875 112.003906 L 0.828125 112.003906 Z M 0.828125 0 " fill-opacity="1" fill-rule="nonzero"/></g><g clip-path="url(#6964985194)"><g clip-path="url(#be51bc2316)"><g clip-path="url(#e8fd07e50d)"><path fill="#a6a6a6" d="M 92.636719 91.179688 C 91.070312 92.214844 89.683594 93.542969 87.847656 94.144531 C 87.714844 94.1875 87.578125 94.25 87.46875 94.335938 C 85.605469 95.832031 83.277344 96.1875 81.105469 96.929688 C 80.433594 97.15625 79.863281 96.996094 79.878906 96.664062 C 79.902344 96.140625 80.335938 95.953125 80.730469 95.847656 C 82.074219 95.476562 83.179688 94.648438 84.375 94 C 84.953125 93.683594 85.507812 93.320312 86.089844 93.015625 C 87.597656 92.214844 88.929688 91.171875 90.21875 90.070312 C 90.398438 89.917969 90.566406 89.746094 90.761719 89.617188 C 92.550781 88.417969 93.90625 86.773438 95.222656 85.117188 C 96.421875 83.613281 97.40625 81.933594 98.617188 80.441406 C 99.847656 78.925781 100.65625 77.167969 101.71875 75.558594 C 103.226562 73.273438 104.328125 70.785156 105.078125 68.125 C 106.027344 64.746094 106.503906 61.308594 106.804688 57.828125 C 106.867188 57.097656 106.671875 56.425781 106.5625 55.730469 C 106.519531 55.472656 106.664062 55.277344 106.894531 55.167969 C 107.148438 55.042969 107.511719 55.160156 107.628906 55.40625 C 107.707031 55.574219 107.785156 55.753906 107.808594 55.9375 C 107.917969 56.777344 108.066406 57.617188 108.089844 58.460938 C 108.136719 60.300781 108.015625 62.132812 107.734375 63.957031 C 107.675781 64.328125 107.582031 64.703125 107.582031 65.078125 C 107.589844 67.136719 106.886719 69.054688 106.429688 71.023438 C 106.3125 71.53125 106.148438 72.015625 105.914062 72.484375 C 105.703125 72.90625 105.523438 73.347656 105.398438 73.800781 C 105.019531 75.210938 104.65625 76.625 103.871094 77.878906 C 102.980469 80.515625 101.488281 82.773438 99.617188 84.816406 C 98.085938 86.484375 96.542969 88.140625 94.785156 89.570312 C 94.089844 90.132812 93.355469 90.644531 92.636719 91.179688 " fill-opacity="1" fill-rule="nonzero"/></g></g></g><g clip-path="url(#ed46f92348)"><g clip-path="url(#d32fdd183b)"><g clip-path="url(#41ff1b42a2)"><path fill="#a6a6a6" d="M 100.160156 34.496094 C 101.757812 36.492188 103.039062 38.507812 103.972656 40.75 C 104.40625 41.789062 104.976562 42.773438 105.460938 43.796875 C 105.949219 44.824219 106.292969 45.898438 106.449219 47.03125 C 106.484375 47.3125 106.527344 47.601562 106.625 47.859375 C 107.167969 49.28125 107.296875 50.789062 107.597656 52.261719 C 107.726562 52.890625 107.648438 53.480469 107.515625 54.078125 C 107.488281 54.1875 107.347656 54.324219 107.238281 54.347656 C 107.125 54.371094 106.921875 54.304688 106.875 54.21875 C 106.558594 53.644531 106.140625 53.089844 106.082031 52.421875 C 106.011719 51.652344 105.703125 50.96875 105.46875 50.253906 C 104.855469 48.375 104.257812 46.496094 103.652344 44.617188 C 103.621094 44.527344 103.601562 44.425781 103.546875 44.355469 C 102.527344 43.019531 102.257812 41.320312 101.386719 39.917969 C 101.15625 39.550781 101.003906 39.152344 100.960938 38.726562 C 100.894531 38.03125 100.554688 37.476562 100.117188 36.972656 C 99.683594 36.472656 99.335938 35.921875 98.984375 35.359375 C 98.433594 34.484375 97.835938 33.625 97.011719 32.964844 C 96.867188 32.847656 96.722656 32.714844 96.617188 32.5625 C 95.6875 31.234375 94.433594 30.203125 93.265625 29.128906 C 91.257812 27.277344 89.199219 25.417969 86.730469 24.203125 C 85.21875 23.457031 83.714844 22.65625 82.105469 22.101562 C 81.042969 21.734375 80.015625 21.257812 78.972656 20.832031 C 78.710938 20.726562 78.460938 20.582031 78.1875 20.515625 C 75.117188 19.769531 72.039062 19.070312 68.882812 18.769531 C 68.164062 18.699219 67.472656 18.695312 66.785156 18.914062 C 65.789062 19.230469 64.828125 18.976562 63.867188 18.730469 C 63.730469 18.695312 63.605469 18.621094 63.484375 18.546875 C 63.171875 18.355469 63.007812 18.007812 63.085938 17.710938 C 63.167969 17.410156 63.472656 17.164062 63.835938 17.179688 C 64.304688 17.195312 64.773438 17.277344 65.246094 17.289062 C 66.796875 17.328125 68.347656 17.328125 69.894531 17.382812 C 71.121094 17.425781 72.347656 17.472656 73.558594 17.628906 C 74.535156 17.757812 75.503906 18.011719 76.453125 18.292969 C 78.121094 18.789062 79.828125 19.160156 81.449219 19.828125 C 82.710938 20.347656 83.910156 21.035156 85.257812 21.328125 C 85.4375 21.367188 85.605469 21.484375 85.753906 21.597656 C 87.746094 23.101562 90.03125 24.203125 91.820312 25.988281 C 92.015625 26.1875 92.265625 26.351562 92.515625 26.46875 C 93.523438 26.9375 94.300781 27.699219 95.03125 28.5 C 95.921875 29.476562 96.769531 30.484375 97.640625 31.480469 C 97.824219 31.691406 97.984375 31.945312 98.210938 32.105469 C 98.683594 32.445312 99 32.894531 99.292969 33.386719 C 99.554688 33.832031 99.820312 34.289062 100.160156 34.496094 " fill-opacity="1" fill-rule="nonzero"/></g></g></g><g clip-path="url(#b035655f80)"><g clip-path="url(#0622f7c419)"><g clip-path="url(#d2729ec4ca)"><path fill="#a6a6a6" d="M 42.378906 25.210938 C 42.425781 25.175781 42.554688 25.105469 42.652344 25.003906 C 44.359375 23.242188 46.65625 22.386719 48.675781 21.109375 C 48.910156 20.964844 49.203125 20.910156 49.46875 20.816406 C 49.871094 20.679688 50.292969 20.585938 50.671875 20.410156 C 52.34375 19.625 54.132812 19.175781 55.835938 18.484375 C 56.136719 18.359375 56.464844 18.238281 56.785156 18.21875 C 57.777344 18.152344 58.738281 17.910156 59.707031 17.71875 C 60.414062 17.578125 61.113281 17.597656 61.78125 17.925781 C 62.382812 18.226562 62.445312 18.914062 61.878906 19.277344 C 61.648438 19.425781 61.375 19.527344 61.101562 19.582031 C 60.414062 19.722656 59.71875 19.84375 59.023438 19.964844 C 57.871094 20.164062 56.75 20.550781 55.613281 20.859375 C 53.144531 21.53125 50.828125 22.59375 48.566406 23.765625 C 47.441406 24.347656 46.367188 25.039062 45.320312 25.761719 C 43.886719 26.75 42.507812 27.820312 41.097656 28.84375 C 39.367188 30.09375 37.875 31.59375 36.453125 33.167969 C 35.851562 33.832031 35.265625 34.503906 34.652344 35.15625 C 34.113281 35.730469 33.753906 36.472656 33.324219 37.148438 C 33.167969 37.390625 32.996094 37.601562 32.722656 37.722656 C 32.414062 37.859375 31.992188 37.617188 32.011719 37.277344 C 32.03125 37 32.066406 36.707031 32.179688 36.460938 C 32.558594 35.644531 33 34.859375 33.703125 34.273438 C 34.070312 33.960938 34.355469 33.609375 34.582031 33.183594 C 35.003906 32.390625 35.5 31.636719 36.136719 31.003906 C 37.597656 29.546875 38.808594 27.832031 40.570312 26.679688 C 41.195312 26.265625 41.582031 25.550781 42.378906 25.210938 " fill-opacity="1" fill-rule="nonzero"/></g></g></g><g clip-path="url(#a39dfc090f)"><g clip-path="url(#c13af5252f)"><g clip-path="url(#c5f08022e2)"><path fill="#a6a6a6" d="M 68.742188 98.402344 C 68.902344 98.355469 69.207031 98.222656 69.523438 98.175781 C 70.496094 98.023438 71.472656 97.894531 72.453125 97.777344 C 73.335938 97.667969 74.21875 97.570312 75.105469 97.496094 C 75.679688 97.445312 76.195312 97.226562 76.722656 97.035156 C 77.210938 96.859375 77.71875 96.734375 78.238281 96.914062 C 78.40625 96.976562 78.566406 97.089844 78.710938 97.203125 C 78.882812 97.339844 78.855469 97.714844 78.671875 97.820312 C 78.507812 97.914062 78.339844 98 78.160156 98.050781 C 76.175781 98.589844 74.191406 99.171875 72.152344 99.449219 C 71.042969 99.597656 69.90625 99.527344 68.78125 99.53125 C 68.535156 99.535156 68.34375 99.363281 68.3125 99.089844 C 68.285156 98.835938 68.394531 98.636719 68.742188 98.402344 " fill-opacity="1" fill-rule="nonzero"/></g></g></g><g clip-path="url(#19d384994a)"><g clip-path="url(#e360e7f3eb)"><g clip-path="url(#f52d549e02)"><path fill="#a6a6a6" d="M 26.28125 53.878906 C 26.394531 53.898438 26.5 53.890625 26.566406 53.9375 C 26.636719 53.984375 26.71875 54.089844 26.710938 54.160156 C 26.558594 55.59375 27.1875 57.054688 26.558594 58.472656 C 26.421875 58.78125 26.527344 59.117188 26.53125 59.445312 C 26.550781 60.332031 26.511719 61.222656 26.484375 62.113281 C 26.476562 62.246094 26.386719 62.386719 26.226562 62.378906 C 26.066406 62.371094 25.980469 62.234375 25.964844 62.09375 C 25.902344 61.355469 25.617188 60.621094 25.925781 59.871094 C 26.078125 59.503906 25.945312 59.132812 25.890625 58.761719 C 25.71875 57.503906 25.589844 56.246094 25.8125 54.980469 C 25.859375 54.707031 25.921875 54.429688 26.015625 54.167969 C 26.058594 54.050781 26.195312 53.96875 26.28125 53.878906 " fill-opacity="1" fill-rule="nonzero"/></g></g></g><g clip-path="url(#5fecaf3afb)"><g clip-path="url(#78930759b4)"><g clip-path="url(#34805e7ef2)"><path fill="#a6a6a6" d="M 28.605469 73.300781 C 28.324219 72.574219 28.027344 71.839844 27.765625 71.09375 C 27.691406 70.886719 27.6875 70.640625 27.699219 70.414062 C 27.710938 70.222656 27.824219 70.054688 28.023438 70.003906 C 28.226562 69.949219 28.394531 70.042969 28.484375 70.222656 C 28.945312 71.152344 29.246094 72.121094 29.195312 73.175781 C 29.1875 73.316406 29.15625 73.488281 28.988281 73.488281 C 28.871094 73.488281 28.757812 73.378906 28.605469 73.300781 " fill-opacity="1" fill-rule="nonzero"/></g></g></g><g clip-path="url(#4d50779758)"><g clip-path="url(#2a20e05d51)"><g clip-path="url(#a243a4d304)"><path fill="#a6a6a6" d="M 27.359375 48.21875 C 27.464844 48.257812 27.585938 48.269531 27.617188 48.324219 C 27.78125 48.628906 27.734375 48.960938 27.65625 49.277344 C 27.507812 49.863281 27.398438 50.445312 27.464844 51.0625 C 27.503906 51.4375 27.402344 51.8125 27.117188 52.089844 C 27.03125 52.175781 26.871094 52.246094 26.757812 52.230469 C 26.644531 52.210938 26.507812 52.09375 26.457031 51.984375 C 26.273438 51.589844 26.230469 51.160156 26.453125 50.773438 C 26.859375 50.082031 27.125 49.355469 27.140625 48.542969 C 27.144531 48.433594 27.285156 48.324219 27.359375 48.21875 " fill-opacity="1" fill-rule="nonzero"/></g></g></g><g clip-path="url(#41d34342c2)"><g clip-path="url(#3a5430c620)"><g clip-path="url(#95533f6e04)"><path fill="#a6a6a6" d="M 26.605469 64.644531 C 26.707031 64.667969 26.867188 64.65625 26.953125 64.730469 C 27.269531 65 27.320312 65.351562 27.105469 65.722656 C 26.992188 65.914062 26.796875 65.925781 26.625 65.824219 C 26.289062 65.625 26.203125 65.261719 26.386719 64.863281 C 26.421875 64.789062 26.511719 64.738281 26.605469 64.644531 " fill-opacity="1" fill-rule="nonzero"/></g></g></g><g clip-path="url(#a830c41026)"><g clip-path="url(#7277684cf3)"><g clip-path="url(#ae74584a9e)"><path fill="#a6a6a6" d="M 29.734375 42.042969 C 29.511719 41.777344 29.539062 41.46875 29.820312 41.195312 C 29.96875 41.054688 30.144531 41.03125 30.304688 41.164062 C 30.589844 41.40625 30.550781 41.878906 30.222656 42.105469 C 30.058594 42.214844 29.878906 42.1875 29.734375 42.042969 " fill-opacity="1" fill-rule="nonzero"/></g></g></g><g clip-path="url(#04288f4edf)"><g clip-path="url(#9c3c4bb17d)"><g clip-path="url(#db4698619c)"><path fill="#a6a6a6" d="M 105.039062 78.398438 C 104.839844 78.492188 104.675781 78.441406 104.566406 78.265625 C 104.425781 78.046875 104.4375 77.820312 104.644531 77.648438 C 104.804688 77.519531 105 77.539062 105.140625 77.679688 C 105.339844 77.875 105.277344 78.246094 105.039062 78.398438 " fill-opacity="1" fill-rule="nonzero"/></g></g></g><g clip-path="url(#a879107a64)"><g clip-path="url(#7daf3d39af)"><g clip-path="url(#f8bc8918bd)"><path fill="#a6a6a6" d="M 27.328125 67.78125 C 27.484375 67.765625 27.585938 67.851562 27.636719 67.984375 C 27.695312 68.125 27.671875 68.273438 27.519531 68.320312 C 27.371094 68.371094 27.265625 68.261719 27.214844 68.125 C 27.164062 67.988281 27.1875 67.863281 27.328125 67.78125 " fill-opacity="1" fill-rule="nonzero"/></g></g></g><g clip-path="url(#3854ea60e8)"><path fill="#d2a113" d="M 37.058594 78.167969 C 38.375 75.433594 39.511719 71.816406 40.125 68.519531 C 40.273438 67.726562 39.96875 66.9375 39.328125 66.46875 C 38.609375 65.914062 37.566406 65.285156 36.421875 65.101562 C 36.421875 65.101562 37.898438 64.289062 39.742188 65.082031 C 36.792969 62.976562 37.640625 47.746094 43.109375 38.214844 C 43.089844 39.027344 43.078125 39.804688 43.054688 40.617188 C 44.449219 36.101562 47.472656 32.066406 51.476562 29.367188 C 49.671875 32.183594 48.683594 35.492188 48.652344 38.824219 C 49.511719 34.925781 51.15625 31.074219 53.949219 28.148438 C 60.480469 21.308594 71.574219 20.742188 79.027344 14.882812 C 78.902344 15.683594 78.347656 19.320312 78.222656 20.121094 C 79.644531 15.839844 86.355469 12.5 89.210938 8.957031 C 89.15625 9.855469 89.09375 10.75 89.0625 11.648438 C 89.582031 9.394531 91.597656 7.792969 93.351562 6.203125 C 95.09375 4.601562 96.769531 2.433594 96.261719 0.183594 C 97.757812 5.785156 95.007812 12.210938 91.78125 16.867188 C 89.296875 20.441406 80.824219 23.355469 76.46875 22.628906 C 77.359375 22.8125 82.710938 23.398438 83.59375 23.582031 C 76.203125 23.742188 61.914062 65.039062 44.703125 65.730469 C 47.621094 65.773438 49.988281 68.484375 49.988281 68.484375 C 49.988281 68.484375 45.457031 66.863281 43.503906 67.078125 C 43.015625 67.121094 47.84375 47.050781 66.363281 28.0625 C 46.613281 45.269531 42.195312 68.175781 42.046875 68.625 C 40.457031 73.875 38.660156 79.234375 35.296875 83.546875 C 34.828125 84.144531 33.746094 84.667969 33.492188 83.972656 C 34.890625 82.136719 36.101562 80.207031 37.078125 78.167969 Z M 37.058594 78.167969 " fill-opacity="1" fill-rule="evenodd"/></g><g clip-path="url(#db0b803a92)"><path fill="#d2a113" d="M 81.203125 75.625 C 81.203125 73.320312 75.671875 72.839844 73.007812 72.839844 L 72.339844 72.839844 C 65.4375 72.839844 56.222656 75.167969 51.082031 77.066406 C 47.898438 78.242188 44.828125 79.289062 41.773438 80.503906 C 40.835938 80.878906 37.820312 82.105469 35.570312 83.121094 C 35.464844 83.257812 35.371094 83.386719 35.261719 83.523438 C 35.199219 83.609375 35.113281 83.695312 35.03125 83.78125 C 35.835938 83.484375 36.664062 83.152344 37.40625 82.894531 C 38.949219 82.382812 40.296875 81.964844 41.835938 81.445312 C 44.425781 80.570312 48.121094 79.339844 50.808594 78.773438 C 57.136719 77.441406 63.1875 75.390625 70.800781 75.390625 L 71.679688 75.390625 C 73.027344 75.390625 77.210938 75.574219 77.210938 76.617188 C 77.210938 77.730469 72.433594 81.015625 71.480469 81.988281 C 70.152344 83.332031 67.359375 86.417969 67.359375 88.863281 C 67.359375 91.210938 70.015625 91.019531 70.90625 91.648438 L 74.675781 91.648438 C 74.726562 91.617188 78.582031 90.859375 79.144531 90.6875 C 80.589844 90.25 81.894531 89.757812 83.210938 89.320312 C 85.90625 88.433594 88.351562 87.175781 90.898438 86.152344 C 95.855469 84.144531 100.667969 81.15625 105.335938 78.851562 C 106.347656 78.347656 107.621094 77.6875 108.882812 76.992188 C 100.027344 79.296875 85.335938 88.425781 74.792969 88.425781 L 74.121094 88.425781 C 73.285156 88.425781 71.351562 88.007812 71.351562 87.3125 L 71.351562 86.984375 C 71.351562 84.582031 81.203125 79.085938 81.203125 75.625 Z M 81.203125 75.625 " fill-opacity="1" fill-rule="evenodd"/></g><g fill="#060b37" fill-opacity="1"><g transform="translate(53.876822, 63.312053)"><g><path d="M 7.765625 0.28125 C 11.957031 0.28125 14.714844 -2.65625 14.714844 -7.152344 C 14.714844 -11.34375 11.957031 -14.078125 7.765625 -14.078125 C 3.578125 -14.078125 0.816406 -11.140625 0.816406 -6.644531 C 0.816406 -2.453125 3.578125 0.28125 7.765625 0.28125 Z M 7.792969 -1.507812 C 5.3125 -1.507812 3.730469 -3.601562 3.730469 -6.796875 C 3.730469 -10.117188 5.289062 -12.261719 7.714844 -12.261719 C 10.195312 -12.261719 11.828125 -10.195312 11.828125 -6.976562 C 11.828125 -3.679688 10.21875 -1.507812 7.792969 -1.507812 Z M 7.792969 -1.507812 "/></g></g></g><g fill="#060b37" fill-opacity="1"><g transform="translate(69.403031, 63.312053)"><g><path d="M 12.160156 -2.554688 C 10.960938 -1.96875 9.734375 -1.6875 8.507812 -1.6875 C 5.46875 -1.6875 3.730469 -3.628906 3.730469 -6.976562 C 3.730469 -10.195312 5.46875 -12.261719 8.125 -12.261719 C 8.867188 -12.261719 9.554688 -12.160156 10.066406 -12.007812 L 10.578125 -9.324219 L 11.929688 -9.324219 L 11.929688 -13.59375 C 10.960938 -13.871094 9.503906 -14.078125 8.175781 -14.078125 C 3.753906 -14.078125 0.816406 -11.140625 0.816406 -6.644531 C 0.816406 -2.453125 3.578125 0.28125 7.742188 0.28125 C 8.992188 0.28125 10.167969 0.0507812 11.164062 -0.382812 L 12.46875 -2.042969 Z M 12.160156 -2.554688 "/></g></g></g><g fill="#060b37" fill-opacity="1"><g transform="translate(82.401116, 63.312053)"><g><path d="M 14.382812 -12.1875 L 15.867188 -12.59375 L 15.867188 -13.796875 L 9.835938 -13.796875 L 9.835938 -12.59375 L 11.597656 -12.492188 L 11.597656 -7.691406 L 5.261719 -7.691406 L 5.261719 -12.160156 L 6.796875 -12.59375 L 6.796875 -13.796875 L 0.714844 -13.796875 L 0.714844 -12.59375 L 2.476562 -12.492188 L 2.476562 -1.636719 L 0.917969 -1.199219 L 0.917969 0 L 6.976562 0 L 6.976562 -1.199219 L 5.261719 -1.304688 L 5.261719 -6.105469 L 11.597656 -6.105469 L 11.597656 -1.636719 L 10.039062 -1.199219 L 10.039062 0 L 16.070312 0 L 16.070312 -1.199219 L 14.382812 -1.304688 Z M 14.382812 -12.1875 "/></g></g></g><g fill="#060b37" fill-opacity="1"><g transform="translate(99.178606, 63.312053)"><g><path d="M 7.765625 0.28125 C 11.957031 0.28125 14.714844 -2.65625 14.714844 -7.152344 C 14.714844 -11.34375 11.957031 -14.078125 7.765625 -14.078125 C 3.578125 -14.078125 0.816406 -11.140625 0.816406 -6.644531 C 0.816406 -2.453125 3.578125 0.28125 7.765625 0.28125 Z M 7.792969 -1.507812 C 5.3125 -1.507812 3.730469 -3.601562 3.730469 -6.796875 C 3.730469 -10.117188 5.289062 -12.261719 7.714844 -12.261719 C 10.195312 -12.261719 11.828125 -10.195312 11.828125 -6.976562 C 11.828125 -3.679688 10.21875 -1.507812 7.792969 -1.507812 Z M 7.792969 -1.507812 "/></g></g></g><g fill="#060b37" fill-opacity="1"><g transform="translate(114.704814, 63.312053)"><g><path d="M 8.738281 -14.027344 L 6.105469 -13.488281 L 1.53125 -1.585938 L 0.152344 -1.199219 L 0.152344 0 L 5.441406 0 L 5.441406 -1.199219 L 3.296875 -1.355469 L 4.34375 -4.214844 L 9.453125 -4.214844 L 10.527344 -1.328125 L 8.378906 -1.199219 L 8.378906 0 L 14.871094 0 L 14.871094 -1.199219 L 13.539062 -1.585938 Z M 6.871094 -11.113281 L 8.839844 -5.800781 L 4.929688 -5.800781 Z M 6.871094 -11.113281 "/></g></g></g><g fill="#060b37" fill-opacity="1"><g transform="translate(129.720281, 63.312053)"><g><path d="M 1.125 -10.550781 L 2.757812 -10.550781 L 3.140625 -15.816406 L 0.765625 -15.816406 Z M 1.125 -10.550781 "/></g></g></g><g fill="#060b37" fill-opacity="1"><g transform="translate(133.601833, 63.312053)"><g><path d="M 6.4375 -8.480469 C 4.472656 -9.222656 3.984375 -9.707031 3.984375 -10.601562 C 3.984375 -11.878906 5.238281 -12.441406 6.644531 -12.441406 C 7.382812 -12.441406 8.226562 -12.3125 8.992188 -12.085938 L 9.554688 -9.757812 L 10.882812 -9.757812 L 10.882812 -13.59375 C 9.351562 -13.898438 8.125 -14.078125 6.820312 -14.078125 C 3.476562 -14.078125 1.378906 -12.621094 1.378906 -9.863281 C 1.378906 -7.972656 2.324219 -7.027344 5.085938 -6.003906 L 6.847656 -5.3125 C 8.609375 -4.625 9.042969 -4.164062 9.042969 -3.371094 C 9.042969 -2.25 8.046875 -1.429688 6.207031 -1.429688 C 5.210938 -1.429688 3.910156 -1.761719 2.863281 -2.351562 L 2.863281 -4.597656 L 1.480469 -4.597656 L 0.867188 -1.074219 C 2.476562 -0.179688 4.496094 0.28125 6.308594 0.28125 C 9.632812 0.28125 11.675781 -1.429688 11.675781 -4.011719 C 11.675781 -5.773438 10.808594 -6.847656 8.175781 -7.765625 Z M 6.4375 -8.480469 "/></g></g></g><g fill="#060b37" fill-opacity="1"><g transform="translate(145.961504, 63.312053)"><g/></g></g><g fill="#060b37" fill-opacity="1"><g transform="translate(150.277174, 63.312053)"><g><path d="M 17.21875 -12.210938 L 18.753906 -12.59375 L 18.753906 -13.796875 L 14.511719 -13.796875 L 9.988281 -5.59375 L 5.339844 -13.796875 L 0.714844 -13.796875 L 0.714844 -12.59375 L 2.453125 -12.441406 L 2.453125 -1.609375 L 0.894531 -1.199219 L 0.894531 0 L 5.875 0 L 5.875 -1.199219 L 4.191406 -1.355469 L 4.191406 -10.449219 L 8.609375 -2.707031 L 9.988281 -2.707031 L 14.433594 -10.578125 L 14.433594 -1.636719 L 12.722656 -1.199219 L 12.722656 0 L 18.957031 0 L 18.957031 -1.199219 L 17.21875 -1.304688 Z M 17.21875 -12.210938 "/></g></g></g><g fill="#060b37" fill-opacity="1"><g transform="translate(169.940294, 63.312053)"><g><path d="M 7.765625 0.28125 C 11.957031 0.28125 14.714844 -2.65625 14.714844 -7.152344 C 14.714844 -11.34375 11.957031 -14.078125 7.765625 -14.078125 C 3.578125 -14.078125 0.816406 -11.140625 0.816406 -6.644531 C 0.816406 -2.453125 3.578125 0.28125 7.765625 0.28125 Z M 7.792969 -1.507812 C 5.3125 -1.507812 3.730469 -3.601562 3.730469 -6.796875 C 3.730469 -10.117188 5.289062 -12.261719 7.714844 -12.261719 C 10.195312 -12.261719 11.828125 -10.195312 11.828125 -6.976562 C 11.828125 -3.679688 10.21875 -1.507812 7.792969 -1.507812 Z M 7.792969 -1.507812 "/></g></g></g><g fill="#060b37" fill-opacity="1"><g transform="translate(185.466502, 63.312053)"><g><path d="M 9.425781 -7.253906 C 11.214844 -7.792969 12.261719 -8.867188 12.261719 -10.371094 C 12.261719 -12.519531 10.449219 -13.796875 6.898438 -13.796875 L 0.714844 -13.796875 L 0.714844 -12.59375 L 2.53125 -12.492188 L 2.53125 -1.585938 L 0.972656 -1.199219 L 0.972656 0 L 7.050781 0 C 11.089844 0 13.234375 -1.507812 13.234375 -3.882812 C 13.234375 -5.699219 12.007812 -6.820312 9.425781 -7.253906 Z M 6.921875 -12.1875 C 8.507812 -12.1875 9.375 -11.445312 9.375 -10.167969 C 9.375 -8.710938 8.277344 -7.742188 6.617188 -7.742188 L 5.3125 -7.742188 L 5.3125 -12.1875 Z M 5.3125 -1.609375 L 5.3125 -6.132812 L 6.921875 -6.132812 C 9.222656 -6.132812 10.347656 -5.363281 10.347656 -3.910156 C 10.347656 -2.53125 9.199219 -1.609375 6.847656 -1.609375 Z M 5.3125 -1.609375 "/></g></g></g><g fill="#060b37" fill-opacity="1"><g transform="translate(199.026392, 63.312053)"><g><path d="M 5.261719 -12.160156 L 6.796875 -12.59375 L 6.796875 -13.796875 L 0.714844 -13.796875 L 0.714844 -12.59375 L 2.476562 -12.492188 L 2.476562 -1.636719 L 0.917969 -1.199219 L 0.917969 0 L 7.027344 0 L 7.027344 -1.199219 L 5.261719 -1.304688 Z M 5.261719 -12.160156 "/></g></g></g><g fill="#060b37" fill-opacity="1"><g transform="translate(206.738422, 63.312053)"><g><path d="M 10.195312 -1.609375 L 5.3125 -1.609375 L 5.3125 -12.160156 L 6.847656 -12.59375 L 6.847656 -13.796875 L 0.714844 -13.796875 L 0.714844 -12.59375 L 2.53125 -12.492188 L 2.53125 -1.585938 L 1.023438 -1.199219 L 1.023438 0 L 11.828125 0 L 11.828125 -3.78125 L 10.601562 -3.78125 Z M 10.195312 -1.609375 "/></g></g></g><g fill="#060b37" fill-opacity="1"><g transform="translate(219.174703, 63.312053)"><g><path d="M 10.652344 -1.609375 L 5.261719 -1.609375 L 5.261719 -6.132812 L 8.839844 -6.132812 L 9.222656 -4.699219 L 10.398438 -4.699219 L 10.398438 -9.121094 L 9.222656 -9.121094 L 8.839844 -7.714844 L 5.261719 -7.714844 L 5.261719 -12.1875 L 10.117188 -12.1875 L 10.578125 -10.144531 L 11.90625 -10.144531 L 11.90625 -13.796875 L 0.714844 -13.796875 L 0.714844 -12.59375 L 2.476562 -12.492188 L 2.476562 -1.585938 L 0.917969 -1.199219 L 0.917969 0 L 12.417969 0 L 12.417969 -3.753906 L 11.089844 -3.753906 Z M 10.652344 -1.609375 "/></g></g></g><g fill="#060b37" fill-opacity="1"><g transform="translate(232.351548, 63.312053)"><g/></g></g><g fill="#060b37" fill-opacity="1"><g transform="translate(236.667219, 63.312053)"><g><path d="M 15.203125 -13.796875 L 10.195312 -13.796875 L 10.195312 -12.59375 L 11.957031 -12.441406 L 11.957031 -4.164062 L 4.164062 -13.796875 L 0.714844 -13.796875 L 0.714844 -12.59375 L 2.425781 -12.441406 L 2.425781 -1.609375 L 0.894531 -1.199219 L 0.894531 0 L 5.902344 0 L 5.902344 -1.199219 L 4.164062 -1.355469 L 4.164062 -9.632812 L 11.957031 0 L 13.695312 0 L 13.695312 -12.1875 L 15.203125 -12.59375 Z M 15.203125 -13.796875 "/></g></g></g><g fill="#060b37" fill-opacity="1"><g transform="translate(252.550934, 63.312053)"><g><path d="M 7.765625 0.28125 C 11.957031 0.28125 14.714844 -2.65625 14.714844 -7.152344 C 14.714844 -11.34375 11.957031 -14.078125 7.765625 -14.078125 C 3.578125 -14.078125 0.816406 -11.140625 0.816406 -6.644531 C 0.816406 -2.453125 3.578125 0.28125 7.765625 0.28125 Z M 7.792969 -1.507812 C 5.3125 -1.507812 3.730469 -3.601562 3.730469 -6.796875 C 3.730469 -10.117188 5.289062 -12.261719 7.714844 -12.261719 C 10.195312 -12.261719 11.828125 -10.195312 11.828125 -6.976562 C 11.828125 -3.679688 10.21875 -1.507812 7.792969 -1.507812 Z M 7.792969 -1.507812 "/></g></g></g><g fill="#060b37" fill-opacity="1"><g transform="translate(268.077143, 63.312053)"><g><path d="M 12.109375 -13.796875 L 0.585938 -13.796875 L 0.585938 -10.117188 L 1.761719 -10.117188 L 2.195312 -12.1875 L 4.957031 -12.1875 L 4.957031 -1.636719 L 3.421875 -1.199219 L 3.421875 0 L 9.351562 0 L 9.351562 -1.199219 L 7.742188 -1.304688 L 7.742188 -12.1875 L 10.476562 -12.1875 L 10.910156 -10.117188 L 12.109375 -10.117188 Z M 12.109375 -13.796875 "/></g></g></g><g fill="#060b37" fill-opacity="1"><g transform="translate(280.768795, 63.312053)"><g><path d="M 8.738281 -14.027344 L 6.105469 -13.488281 L 1.53125 -1.585938 L 0.152344 -1.199219 L 0.152344 0 L 5.441406 0 L 5.441406 -1.199219 L 3.296875 -1.355469 L 4.34375 -4.214844 L 9.453125 -4.214844 L 10.527344 -1.328125 L 8.378906 -1.199219 L 8.378906 0 L 14.871094 0 L 14.871094 -1.199219 L 13.539062 -1.585938 Z M 6.871094 -11.113281 L 8.839844 -5.800781 L 4.929688 -5.800781 Z M 6.871094 -11.113281 "/></g></g></g><g fill="#060b37" fill-opacity="1"><g transform="translate(295.784262, 63.312053)"><g><path d="M 9.425781 -6.054688 C 11.472656 -6.695312 12.648438 -8.097656 12.648438 -9.914062 C 12.648438 -12.492188 10.859375 -13.796875 7.101562 -13.796875 L 0.714844 -13.796875 L 0.714844 -12.59375 L 2.425781 -12.492188 L 2.425781 -1.636719 L 0.867188 -1.199219 L 0.867188 0 L 7.152344 0 L 7.152344 -1.199219 L 5.136719 -1.328125 L 5.136719 -5.699219 L 6.746094 -5.699219 L 10.089844 0 L 14.511719 0 L 14.511719 -1.199219 L 12.59375 -1.304688 Z M 7.027344 -12.1875 C 8.941406 -12.1875 9.863281 -11.394531 9.863281 -9.886719 C 9.863281 -8.226562 8.585938 -7.179688 6.4375 -7.179688 L 5.136719 -7.179688 L 5.136719 -12.1875 Z M 7.027344 -12.1875 "/></g></g></g><g fill="#060b37" fill-opacity="1"><g transform="translate(310.39116, 63.312053)"><g><path d="M 14.894531 -12.59375 L 14.894531 -13.796875 L 9.632812 -13.796875 L 9.632812 -12.59375 L 11.445312 -12.441406 L 8.175781 -6.4375 L 4.855469 -12.492188 L 6.871094 -12.59375 L 6.871094 -13.796875 L 0.179688 -13.796875 L 0.179688 -12.59375 L 1.6875 -12.210938 L 6.15625 -4.675781 L 6.15625 -1.636719 L 4.625 -1.199219 L 4.625 0 L 10.78125 0 L 10.78125 -1.199219 L 9.042969 -1.304688 L 9.042969 -4.929688 L 13.3125 -12.210938 Z M 14.894531 -12.59375 "/></g></g></g><g fill="#d2a113" fill-opacity="1"><g transform="translate(146.540112, 88.002405)"><g><path d="M 11.421875 -10.367188 L 7.660156 -10.367188 L 7.660156 -9.464844 L 8.984375 -9.347656 L 8.984375 -3.128906 L 3.128906 -10.367188 L 0.539062 -10.367188 L 0.539062 -9.464844 L 1.824219 -9.347656 L 1.824219 -1.210938 L 0.671875 -0.902344 L 0.671875 0 L 4.433594 0 L 4.433594 -0.902344 L 3.128906 -1.015625 L 3.128906 -7.238281 L 8.984375 0 L 10.289062 0 L 10.289062 -9.15625 L 11.421875 -9.464844 Z M 11.421875 -10.367188 "/></g></g></g><g fill="#d2a113" fill-opacity="1"><g transform="translate(160.472962, 88.002405)"><g><path d="M 6.566406 -10.539062 L 4.585938 -10.136719 L 1.152344 -1.191406 L 0.113281 -0.902344 L 0.113281 0 L 4.089844 0 L 4.089844 -0.902344 L 2.476562 -1.015625 L 3.261719 -3.167969 L 7.101562 -3.167969 L 7.910156 -1 L 6.296875 -0.902344 L 6.296875 0 L 11.171875 0 L 11.171875 -0.902344 L 10.171875 -1.191406 Z M 5.164062 -8.351562 L 6.640625 -4.355469 L 3.703125 -4.355469 Z M 5.164062 -8.351562 "/></g></g></g><g fill="#d2a113" fill-opacity="1"><g transform="translate(173.753351, 88.002405)"><g><path d="M 4.835938 -3.839844 C 7.945312 -3.839844 9.730469 -5.203125 9.730469 -7.21875 C 9.730469 -9.269531 8.273438 -10.367188 5.453125 -10.367188 L 0.539062 -10.367188 L 0.539062 -9.464844 L 1.824219 -9.386719 L 1.824219 -1.226562 L 0.652344 -0.902344 L 0.652344 0 L 5.566406 0 L 5.566406 -0.902344 L 3.933594 -1 L 3.933594 -3.839844 Z M 5.277344 -9.15625 C 6.796875 -9.15625 7.582031 -8.445312 7.582031 -7.101562 C 7.582031 -5.875 6.640625 -5.027344 4.835938 -5.027344 L 3.933594 -5.027344 L 3.933594 -9.15625 Z M 5.277344 -9.15625 "/></g></g></g><g fill="#d2a113" fill-opacity="1"><g transform="translate(185.920704, 88.002405)"><g><path d="M 6.566406 -10.539062 L 4.585938 -10.136719 L 1.152344 -1.191406 L 0.113281 -0.902344 L 0.113281 0 L 4.089844 0 L 4.089844 -0.902344 L 2.476562 -1.015625 L 3.261719 -3.167969 L 7.101562 -3.167969 L 7.910156 -1 L 6.296875 -0.902344 L 6.296875 0 L 11.171875 0 L 11.171875 -0.902344 L 10.171875 -1.191406 Z M 5.164062 -8.351562 L 6.640625 -4.355469 L 3.703125 -4.355469 Z M 5.164062 -8.351562 "/></g></g></g><g fill="#d2a113" fill-opacity="1"><g transform="translate(199.201095, 88.002405)"><g><path d="M 1.402344 2.035156 C 2.246094 1.152344 2.609375 0.363281 2.609375 -0.558594 C 2.609375 -0.980469 2.535156 -1.421875 2.359375 -1.957031 L 0.730469 -1.957031 L 1.054688 -0.210938 L 0.460938 2.035156 Z M 1.402344 2.035156 "/></g></g></g><g fill="#d2a113" fill-opacity="1"><g transform="translate(204.479216, 88.002405)"><g/></g></g><g fill="#d2a113" fill-opacity="1"><g transform="translate(209.718965, 88.002405)"><g><path d="M 9.136719 -1.917969 C 8.234375 -1.476562 7.3125 -1.265625 6.390625 -1.265625 C 4.109375 -1.265625 2.800781 -2.726562 2.800781 -5.242188 C 2.800781 -7.660156 4.109375 -9.214844 6.105469 -9.214844 C 6.660156 -9.214844 7.179688 -9.136719 7.5625 -9.023438 L 7.945312 -7.007812 L 8.964844 -7.007812 L 8.964844 -10.210938 C 8.234375 -10.421875 7.140625 -10.578125 6.140625 -10.578125 C 2.820312 -10.578125 0.613281 -8.371094 0.613281 -4.992188 C 0.613281 -1.84375 2.6875 0.210938 5.816406 0.210938 C 6.757812 0.210938 7.640625 0.0390625 8.386719 -0.289062 L 9.367188 -1.535156 Z M 9.136719 -1.917969 "/></g></g></g><g fill="#d2a113" fill-opacity="1"><g transform="translate(221.483336, 88.002405)"><g><path d="M 6.566406 -10.539062 L 4.585938 -10.136719 L 1.152344 -1.191406 L 0.113281 -0.902344 L 0.113281 0 L 4.089844 0 L 4.089844 -0.902344 L 2.476562 -1.015625 L 3.261719 -3.167969 L 7.101562 -3.167969 L 7.910156 -1 L 6.296875 -0.902344 L 6.296875 0 L 11.171875 0 L 11.171875 -0.902344 L 10.171875 -1.191406 Z M 5.164062 -8.351562 L 6.640625 -4.355469 L 3.703125 -4.355469 Z M 5.164062 -8.351562 "/></g></g></g></svg>