<svg xmlns="http://www.w3.org/2000/svg" xmlns:xlink="http://www.w3.org/1999/xlink" width="500" zoomAndPan="magnify" viewBox="0 0 375 112.499997" height="150" preserveAspectRatio="xMidYMid meet" version="1.0"><defs><g/><clipPath id="033b192796"><path d="M 79 55 L 108 55 L 108 98 L 79 98 Z M 79 55 " clip-rule="nonzero"/></clipPath><clipPath id="c2727ff587"><path d="M 59.363281 115.644531 L 9.332031 48.632812 L 73.949219 0.386719 L 123.980469 67.398438 Z M 59.363281 115.644531 " clip-rule="nonzero"/></clipPath><clipPath id="9ace4f1880"><path d="M 59.363281 115.644531 L 9.332031 48.632812 L 73.949219 0.386719 L 123.980469 67.398438 Z M 59.363281 115.644531 " clip-rule="nonzero"/></clipPath><clipPath id="525ca3cd14"><path d="M 62 17 L 107 17 L 107 55 L 62 55 Z M 62 17 " clip-rule="nonzero"/></clipPath><clipPath id="2a5d9da453"><path d="M 59.363281 115.644531 L 9.332031 48.632812 L 73.949219 0.386719 L 123.980469 67.398438 Z M 59.363281 115.644531 " clip-rule="nonzero"/></clipPath><clipPath id="42ed124a19"><path d="M 59.363281 115.644531 L 9.332031 48.632812 L 73.949219 0.386719 L 123.980469 67.398438 Z M 59.363281 115.644531 " clip-rule="nonzero"/></clipPath><clipPath id="fef318cc7f"><path d="M 31 17 L 62 17 L 62 38 L 31 38 Z M 31 17 " clip-rule="nonzero"/></clipPath><clipPath id="54fc5f32f8"><path d="M 59.363281 115.644531 L 9.332031 48.632812 L 73.949219 0.386719 L 123.980469 67.398438 Z M 59.363281 115.644531 " clip-rule="nonzero"/></clipPath><clipPath id="9eb301daf6"><path d="M 59.363281 115.644531 L 9.332031 48.632812 L 73.949219 0.386719 L 123.980469 67.398438 Z M 59.363281 115.644531 " clip-rule="nonzero"/></clipPath><clipPath id="258dc4e74d"><path d="M 67 96 L 78 96 L 78 100 L 67 100 Z M 67 96 " clip-rule="nonzero"/></clipPath><clipPath id="a5933d9bb6"><path d="M 59.363281 115.644531 L 9.332031 48.632812 L 73.949219 0.386719 L 123.980469 67.398438 Z M 59.363281 115.644531 " clip-rule="nonzero"/></clipPath><clipPath id="72f68b7629"><path d="M 59.363281 115.644531 L 9.332031 48.632812 L 73.949219 0.386719 L 123.980469 67.398438 Z M 59.363281 115.644531 " clip-rule="nonzero"/></clipPath><clipPath id="c42c382692"><path d="M 24 53 L 26 53 L 26 63 L 24 63 Z M 24 53 " clip-rule="nonzero"/></clipPath><clipPath id="459a0d6ebb"><path d="M 59.363281 115.644531 L 9.332031 48.632812 L 73.949219 0.386719 L 123.980469 67.398438 Z M 59.363281 115.644531 " clip-rule="nonzero"/></clipPath><clipPath id="6d59131ec6"><path d="M 59.363281 115.644531 L 9.332031 48.632812 L 73.949219 0.386719 L 123.980469 67.398438 Z M 59.363281 115.644531 " clip-rule="nonzero"/></clipPath><clipPath id="287f8b3d91"><path d="M 26 69 L 29 69 L 29 74 L 26 74 Z M 26 69 " clip-rule="nonzero"/></clipPath><clipPath id="36812e711d"><path d="M 59.363281 115.644531 L 9.332031 48.632812 L 73.949219 0.386719 L 123.980469 67.398438 Z M 59.363281 115.644531 " clip-rule="nonzero"/></clipPath><clipPath id="c90bea35a0"><path d="M 59.363281 115.644531 L 9.332031 48.632812 L 73.949219 0.386719 L 123.980469 67.398438 Z M 59.363281 115.644531 " clip-rule="nonzero"/></clipPath><clipPath id="5c89eff6e4"><path d="M 25 48 L 27 48 L 27 53 L 25 53 Z M 25 48 " clip-rule="nonzero"/></clipPath><clipPath id="13ee92abb2"><path d="M 59.363281 115.644531 L 9.332031 48.632812 L 73.949219 0.386719 L 123.980469 67.398438 Z M 59.363281 115.644531 " clip-rule="nonzero"/></clipPath><clipPath id="69f3a49ad4"><path d="M 59.363281 115.644531 L 9.332031 48.632812 L 73.949219 0.386719 L 123.980469 67.398438 Z M 59.363281 115.644531 " clip-rule="nonzero"/></clipPath><clipPath id="9c0e349647"><path d="M 25 64 L 27 64 L 27 66 L 25 66 Z M 25 64 " clip-rule="nonzero"/></clipPath><clipPath id="4c01b5d67b"><path d="M 59.363281 115.644531 L 9.332031 48.632812 L 73.949219 0.386719 L 123.980469 67.398438 Z M 59.363281 115.644531 " clip-rule="nonzero"/></clipPath><clipPath id="d857a77694"><path d="M 59.363281 115.644531 L 9.332031 48.632812 L 73.949219 0.386719 L 123.980469 67.398438 Z M 59.363281 115.644531 " clip-rule="nonzero"/></clipPath><clipPath id="d806af3864"><path d="M 28 41 L 30 41 L 30 43 L 28 43 Z M 28 41 " clip-rule="nonzero"/></clipPath><clipPath id="f3d34b531e"><path d="M 59.363281 115.644531 L 9.332031 48.632812 L 73.949219 0.386719 L 123.980469 67.398438 Z M 59.363281 115.644531 " clip-rule="nonzero"/></clipPath><clipPath id="03a4133250"><path d="M 59.363281 115.644531 L 9.332031 48.632812 L 73.949219 0.386719 L 123.980469 67.398438 Z M 59.363281 115.644531 " clip-rule="nonzero"/></clipPath><clipPath id="9dc6d6c5c9"><path d="M 103 77 L 105 77 L 105 79 L 103 79 Z M 103 77 " clip-rule="nonzero"/></clipPath><clipPath id="0033f88e39"><path d="M 59.363281 115.644531 L 9.332031 48.632812 L 73.949219 0.386719 L 123.980469 67.398438 Z M 59.363281 115.644531 " clip-rule="nonzero"/></clipPath><clipPath id="4722a1c6b0"><path d="M 59.363281 115.644531 L 9.332031 48.632812 L 73.949219 0.386719 L 123.980469 67.398438 Z M 59.363281 115.644531 " clip-rule="nonzero"/></clipPath><clipPath id="20f9130ed6"><path d="M 26 67 L 27 67 L 27 69 L 26 69 Z M 26 67 " clip-rule="nonzero"/></clipPath><clipPath id="fa8b926202"><path d="M 59.363281 115.644531 L 9.332031 48.632812 L 73.949219 0.386719 L 123.980469 67.398438 Z M 59.363281 115.644531 " clip-rule="nonzero"/></clipPath><clipPath id="afd7b05fc5"><path d="M 59.363281 115.644531 L 9.332031 48.632812 L 73.949219 0.386719 L 123.980469 67.398438 Z M 59.363281 115.644531 " clip-rule="nonzero"/></clipPath><clipPath id="9daaa70e4f"><path d="M 32.722656 3.085938 L 94 3.085938 L 94 84 L 32.722656 84 Z M 32.722656 3.085938 " clip-rule="nonzero"/></clipPath><clipPath id="d0feec13fc"><path d="M 34 72 L 100.671875 72 L 100.671875 91.195312 L 34 91.195312 Z M 34 72 " clip-rule="nonzero"/></clipPath></defs><g clip-path="url(#033b192796)"><g clip-path="url(#c2727ff587)"><g clip-path="url(#9ace4f1880)"><path fill="#a6a6a6" d="M 91.78125 91.179688 C 90.214844 92.214844 88.824219 93.542969 86.992188 94.144531 C 86.859375 94.1875 86.722656 94.25 86.613281 94.335938 C 84.75 95.832031 82.417969 96.1875 80.25 96.929688 C 79.578125 97.15625 79.007812 96.996094 79.023438 96.664062 C 79.046875 96.140625 79.480469 95.953125 79.875 95.847656 C 81.21875 95.476562 82.320312 94.648438 83.519531 94 C 84.097656 93.683594 84.652344 93.320312 85.234375 93.015625 C 86.742188 92.214844 88.070312 91.171875 89.359375 90.070312 C 89.539062 89.917969 89.707031 89.746094 89.902344 89.617188 C 91.691406 88.417969 93.050781 86.773438 94.367188 85.117188 C 95.566406 83.613281 96.550781 81.933594 97.761719 80.441406 C 98.988281 78.925781 99.800781 77.167969 100.859375 75.558594 C 102.367188 73.273438 103.472656 70.785156 104.21875 68.125 C 105.167969 64.746094 105.648438 61.308594 105.949219 57.828125 C 106.011719 57.097656 105.816406 56.425781 105.703125 55.730469 C 105.664062 55.472656 105.808594 55.277344 106.039062 55.167969 C 106.292969 55.042969 106.65625 55.160156 106.769531 55.40625 C 106.851562 55.574219 106.929688 55.753906 106.953125 55.9375 C 107.058594 56.777344 107.210938 57.617188 107.230469 58.460938 C 107.277344 60.300781 107.15625 62.132812 106.878906 63.957031 C 106.820312 64.328125 106.722656 64.703125 106.726562 65.078125 C 106.734375 67.136719 106.027344 69.054688 105.574219 71.023438 C 105.457031 71.53125 105.292969 72.015625 105.058594 72.484375 C 104.847656 72.90625 104.664062 73.347656 104.542969 73.800781 C 104.164062 75.210938 103.800781 76.625 103.011719 77.878906 C 102.125 80.515625 100.628906 82.773438 98.757812 84.816406 C 97.230469 86.484375 95.6875 88.140625 93.925781 89.570312 C 93.234375 90.132812 92.496094 90.644531 91.78125 91.179688 " fill-opacity="1" fill-rule="nonzero"/></g></g></g><g clip-path="url(#525ca3cd14)"><g clip-path="url(#2a5d9da453)"><g clip-path="url(#42ed124a19)"><path fill="#a6a6a6" d="M 99.304688 34.496094 C 100.902344 36.492188 102.179688 38.507812 103.117188 40.75 C 103.550781 41.789062 104.117188 42.773438 104.605469 43.796875 C 105.09375 44.824219 105.433594 45.898438 105.589844 47.03125 C 105.628906 47.3125 105.667969 47.601562 105.769531 47.859375 C 106.3125 49.28125 106.441406 50.789062 106.742188 52.261719 C 106.871094 52.890625 106.792969 53.480469 106.65625 54.078125 C 106.632812 54.1875 106.488281 54.324219 106.378906 54.347656 C 106.269531 54.371094 106.066406 54.304688 106.019531 54.21875 C 105.703125 53.644531 105.285156 53.089844 105.222656 52.421875 C 105.152344 51.652344 104.847656 50.96875 104.613281 50.253906 C 104 48.375 103.402344 46.496094 102.792969 44.617188 C 102.765625 44.527344 102.746094 44.425781 102.691406 44.355469 C 101.671875 43.019531 101.402344 41.320312 100.527344 39.917969 C 100.300781 39.550781 100.148438 39.152344 100.105469 38.726562 C 100.035156 38.03125 99.699219 37.476562 99.261719 36.972656 C 98.828125 36.472656 98.480469 35.921875 98.125 35.359375 C 97.574219 34.484375 96.980469 33.625 96.15625 32.964844 C 96.007812 32.847656 95.867188 32.714844 95.761719 32.5625 C 94.828125 31.234375 93.574219 30.203125 92.40625 29.128906 C 90.402344 27.277344 88.34375 25.417969 85.875 24.203125 C 84.363281 23.457031 82.859375 22.65625 81.25 22.101562 C 80.1875 21.734375 79.15625 21.257812 78.113281 20.832031 C 77.855469 20.726562 77.601562 20.582031 77.332031 20.515625 C 74.261719 19.769531 71.179688 19.070312 68.023438 18.769531 C 67.308594 18.699219 66.613281 18.695312 65.929688 18.914062 C 64.929688 19.230469 63.96875 18.976562 63.007812 18.730469 C 62.875 18.695312 62.75 18.621094 62.628906 18.546875 C 62.3125 18.355469 62.152344 18.007812 62.230469 17.710938 C 62.308594 17.410156 62.617188 17.164062 62.980469 17.179688 C 63.449219 17.195312 63.917969 17.277344 64.386719 17.289062 C 65.9375 17.328125 67.488281 17.328125 69.039062 17.382812 C 70.261719 17.425781 71.492188 17.472656 72.703125 17.628906 C 73.679688 17.757812 74.648438 18.011719 75.59375 18.292969 C 77.265625 18.789062 78.96875 19.160156 80.59375 19.828125 C 81.855469 20.347656 83.050781 21.035156 84.402344 21.328125 C 84.578125 21.367188 84.746094 21.484375 84.894531 21.597656 C 86.890625 23.101562 89.171875 24.203125 90.964844 25.988281 C 91.160156 26.1875 91.40625 26.351562 91.660156 26.46875 C 92.667969 26.9375 93.445312 27.699219 94.175781 28.5 C 95.0625 29.476562 95.914062 30.484375 96.78125 31.480469 C 96.96875 31.691406 97.128906 31.945312 97.351562 32.105469 C 97.828125 32.445312 98.144531 32.894531 98.433594 33.386719 C 98.699219 33.832031 98.964844 34.289062 99.304688 34.496094 " fill-opacity="1" fill-rule="nonzero"/></g></g></g><g clip-path="url(#fef318cc7f)"><g clip-path="url(#54fc5f32f8)"><g clip-path="url(#9eb301daf6)"><path fill="#a6a6a6" d="M 41.519531 25.210938 C 41.570312 25.175781 41.699219 25.105469 41.796875 25.003906 C 43.503906 23.242188 45.796875 22.386719 47.820312 21.109375 C 48.054688 20.964844 48.34375 20.910156 48.613281 20.816406 C 49.011719 20.679688 49.433594 20.585938 49.816406 20.410156 C 51.484375 19.625 53.277344 19.175781 54.980469 18.484375 C 55.28125 18.359375 55.605469 18.238281 55.925781 18.21875 C 56.921875 18.152344 57.878906 17.910156 58.851562 17.71875 C 59.558594 17.578125 60.257812 17.597656 60.921875 17.925781 C 61.527344 18.226562 61.589844 18.914062 61.023438 19.277344 C 60.792969 19.425781 60.515625 19.527344 60.246094 19.582031 C 59.554688 19.722656 58.859375 19.84375 58.167969 19.964844 C 57.011719 20.164062 55.890625 20.550781 54.757812 20.859375 C 52.285156 21.53125 49.972656 22.59375 47.710938 23.765625 C 46.585938 24.347656 45.507812 25.039062 44.464844 25.761719 C 43.03125 26.75 41.652344 27.820312 40.238281 28.84375 C 38.511719 30.09375 37.019531 31.59375 35.59375 33.167969 C 34.996094 33.832031 34.40625 34.503906 33.792969 35.15625 C 33.257812 35.730469 32.898438 36.472656 32.46875 37.148438 C 32.3125 37.390625 32.140625 37.601562 31.867188 37.722656 C 31.558594 37.859375 31.136719 37.617188 31.15625 37.277344 C 31.171875 37 31.210938 36.707031 31.324219 36.460938 C 31.699219 35.644531 32.144531 34.859375 32.847656 34.273438 C 33.214844 33.960938 33.496094 33.609375 33.722656 33.183594 C 34.144531 32.390625 34.644531 31.636719 35.28125 31.003906 C 36.742188 29.546875 37.953125 27.832031 39.710938 26.679688 C 40.339844 26.265625 40.726562 25.550781 41.519531 25.210938 " fill-opacity="1" fill-rule="nonzero"/></g></g></g><g clip-path="url(#258dc4e74d)"><g clip-path="url(#a5933d9bb6)"><g clip-path="url(#72f68b7629)"><path fill="#a6a6a6" d="M 67.886719 98.402344 C 68.046875 98.355469 68.351562 98.222656 68.667969 98.175781 C 69.640625 98.023438 70.617188 97.894531 71.59375 97.777344 C 72.476562 97.667969 73.363281 97.570312 74.25 97.496094 C 74.824219 97.445312 75.335938 97.226562 75.867188 97.035156 C 76.355469 96.859375 76.863281 96.734375 77.378906 96.914062 C 77.550781 96.976562 77.707031 97.089844 77.851562 97.203125 C 78.027344 97.339844 78 97.714844 77.8125 97.820312 C 77.652344 97.914062 77.480469 98 77.304688 98.050781 C 75.316406 98.589844 73.335938 99.171875 71.292969 99.449219 C 70.1875 99.597656 69.050781 99.527344 67.925781 99.53125 C 67.679688 99.535156 67.488281 99.363281 67.457031 99.089844 C 67.429688 98.835938 67.539062 98.636719 67.886719 98.402344 " fill-opacity="1" fill-rule="nonzero"/></g></g></g><g clip-path="url(#c42c382692)"><g clip-path="url(#459a0d6ebb)"><g clip-path="url(#6d59131ec6)"><path fill="#a6a6a6" d="M 25.421875 53.878906 C 25.539062 53.898438 25.644531 53.890625 25.710938 53.9375 C 25.777344 53.984375 25.863281 54.089844 25.855469 54.160156 C 25.703125 55.59375 26.328125 57.054688 25.699219 58.472656 C 25.5625 58.78125 25.667969 59.117188 25.675781 59.445312 C 25.691406 60.332031 25.65625 61.222656 25.625 62.113281 C 25.621094 62.246094 25.53125 62.386719 25.367188 62.378906 C 25.210938 62.371094 25.121094 62.234375 25.109375 62.09375 C 25.042969 61.355469 24.761719 60.621094 25.070312 59.871094 C 25.222656 59.503906 25.085938 59.132812 25.035156 58.761719 C 24.859375 57.503906 24.734375 56.246094 24.957031 54.980469 C 25.003906 54.707031 25.066406 54.429688 25.160156 54.167969 C 25.203125 54.050781 25.339844 53.96875 25.421875 53.878906 " fill-opacity="1" fill-rule="nonzero"/></g></g></g><g clip-path="url(#287f8b3d91)"><g clip-path="url(#36812e711d)"><g clip-path="url(#c90bea35a0)"><path fill="#a6a6a6" d="M 27.75 73.300781 C 27.46875 72.574219 27.171875 71.839844 26.90625 71.09375 C 26.832031 70.886719 26.832031 70.640625 26.84375 70.414062 C 26.851562 70.222656 26.96875 70.054688 27.167969 70.003906 C 27.371094 69.949219 27.535156 70.042969 27.625 70.222656 C 28.085938 71.152344 28.390625 72.121094 28.339844 73.175781 C 28.332031 73.316406 28.296875 73.488281 28.128906 73.488281 C 28.015625 73.488281 27.898438 73.378906 27.75 73.300781 " fill-opacity="1" fill-rule="nonzero"/></g></g></g><g clip-path="url(#5c89eff6e4)"><g clip-path="url(#13ee92abb2)"><g clip-path="url(#69f3a49ad4)"><path fill="#a6a6a6" d="M 26.503906 48.21875 C 26.609375 48.257812 26.726562 48.269531 26.757812 48.324219 C 26.925781 48.628906 26.878906 48.960938 26.800781 49.277344 C 26.652344 49.863281 26.539062 50.445312 26.605469 51.0625 C 26.648438 51.4375 26.542969 51.8125 26.261719 52.089844 C 26.171875 52.175781 26.011719 52.246094 25.902344 52.230469 C 25.789062 52.210938 25.652344 52.09375 25.601562 51.984375 C 25.417969 51.589844 25.375 51.160156 25.597656 50.773438 C 26 50.082031 26.265625 49.355469 26.285156 48.542969 C 26.289062 48.433594 26.429688 48.324219 26.503906 48.21875 " fill-opacity="1" fill-rule="nonzero"/></g></g></g><g clip-path="url(#9c0e349647)"><g clip-path="url(#4c01b5d67b)"><g clip-path="url(#d857a77694)"><path fill="#a6a6a6" d="M 25.75 64.644531 C 25.851562 64.667969 26.011719 64.65625 26.097656 64.730469 C 26.414062 65 26.460938 65.351562 26.25 65.722656 C 26.136719 65.914062 25.941406 65.925781 25.769531 65.824219 C 25.433594 65.625 25.347656 65.261719 25.53125 64.863281 C 25.566406 64.789062 25.652344 64.738281 25.75 64.644531 " fill-opacity="1" fill-rule="nonzero"/></g></g></g><g clip-path="url(#d806af3864)"><g clip-path="url(#f3d34b531e)"><g clip-path="url(#03a4133250)"><path fill="#a6a6a6" d="M 28.875 42.042969 C 28.652344 41.777344 28.683594 41.46875 28.960938 41.195312 C 29.113281 41.054688 29.289062 41.03125 29.449219 41.164062 C 29.730469 41.40625 29.691406 41.878906 29.367188 42.105469 C 29.203125 42.214844 29.023438 42.1875 28.875 42.042969 " fill-opacity="1" fill-rule="nonzero"/></g></g></g><g clip-path="url(#9dc6d6c5c9)"><g clip-path="url(#0033f88e39)"><g clip-path="url(#4722a1c6b0)"><path fill="#a6a6a6" d="M 104.183594 78.398438 C 103.984375 78.492188 103.820312 78.441406 103.707031 78.265625 C 103.570312 78.046875 103.578125 77.820312 103.789062 77.648438 C 103.945312 77.519531 104.140625 77.539062 104.285156 77.679688 C 104.484375 77.875 104.417969 78.246094 104.183594 78.398438 " fill-opacity="1" fill-rule="nonzero"/></g></g></g><g clip-path="url(#20f9130ed6)"><g clip-path="url(#fa8b926202)"><g clip-path="url(#afd7b05fc5)"><path fill="#a6a6a6" d="M 26.472656 67.78125 C 26.628906 67.765625 26.726562 67.851562 26.78125 67.984375 C 26.835938 68.125 26.816406 68.273438 26.664062 68.320312 C 26.515625 68.371094 26.410156 68.261719 26.359375 68.125 C 26.308594 67.988281 26.328125 67.863281 26.472656 67.78125 " fill-opacity="1" fill-rule="nonzero"/></g></g></g><g clip-path="url(#9daaa70e4f)"><path fill="#d2a113" d="M 36.167969 78.074219 C 37.433594 75.453125 38.523438 71.980469 39.117188 68.816406 C 39.257812 68.058594 38.960938 67.300781 38.351562 66.851562 C 37.65625 66.320312 36.660156 65.714844 35.558594 65.539062 C 35.558594 65.539062 36.972656 64.761719 38.75 65.519531 C 35.914062 63.503906 36.730469 48.890625 41.980469 39.746094 C 41.960938 40.523438 41.949219 41.273438 41.929688 42.050781 C 43.265625 37.71875 46.171875 33.847656 50.015625 31.257812 C 48.28125 33.960938 47.335938 37.136719 47.304688 40.328125 C 48.128906 36.59375 49.710938 32.894531 52.390625 30.089844 C 58.664062 23.527344 69.320312 22.984375 76.476562 17.363281 C 76.355469 18.128906 75.824219 21.621094 75.703125 22.390625 C 77.070312 18.285156 83.511719 15.078125 86.253906 11.679688 C 86.203125 12.539062 86.144531 13.398438 86.113281 14.257812 C 86.613281 12.097656 88.550781 10.5625 90.234375 9.035156 C 91.90625 7.5 93.515625 5.421875 93.027344 3.261719 C 94.464844 8.636719 91.824219 14.800781 88.722656 19.265625 C 86.335938 22.695312 78.199219 25.492188 74.019531 24.796875 C 74.875 24.96875 80.015625 25.535156 80.863281 25.707031 C 73.765625 25.859375 60.039062 65.480469 43.511719 66.144531 C 46.316406 66.1875 48.589844 68.785156 48.589844 68.785156 C 48.589844 68.785156 44.234375 67.230469 42.359375 67.433594 C 41.890625 67.476562 46.527344 48.226562 64.3125 30.007812 C 45.347656 46.515625 41.105469 68.488281 40.960938 68.917969 C 39.433594 73.957031 37.707031 79.097656 34.476562 83.234375 C 34.027344 83.808594 32.988281 84.308594 32.742188 83.644531 C 34.089844 81.882812 35.25 80.03125 36.1875 78.074219 Z M 36.167969 78.074219 " fill-opacity="1" fill-rule="evenodd"/></g><g clip-path="url(#d0feec13fc)"><path fill="#d2a113" d="M 78.566406 75.636719 C 78.566406 73.425781 73.253906 72.964844 70.695312 72.964844 L 70.054688 72.964844 C 63.425781 72.964844 54.574219 75.195312 49.640625 77.019531 C 46.578125 78.144531 43.632812 79.148438 40.695312 80.316406 C 39.800781 80.675781 36.902344 81.851562 34.742188 82.824219 C 34.640625 82.957031 34.546875 83.082031 34.445312 83.214844 C 34.382812 83.296875 34.304688 83.378906 34.222656 83.460938 C 34.996094 83.171875 35.792969 82.855469 36.503906 82.609375 C 37.984375 82.117188 39.277344 81.71875 40.757812 81.21875 C 43.246094 80.378906 46.792969 79.199219 49.375 78.65625 C 55.449219 77.378906 61.261719 75.410156 68.574219 75.410156 L 69.421875 75.410156 C 70.714844 75.410156 74.734375 75.585938 74.734375 76.589844 C 74.734375 77.652344 70.144531 80.808594 69.226562 81.738281 C 67.953125 83.03125 65.269531 85.988281 65.269531 88.335938 C 65.269531 90.585938 67.820312 90.402344 68.675781 91.007812 L 72.296875 91.007812 C 72.347656 90.976562 76.046875 90.25 76.589844 90.085938 C 77.976562 89.664062 79.230469 89.195312 80.496094 88.773438 C 83.085938 87.925781 85.429688 86.714844 87.878906 85.734375 C 92.640625 83.808594 97.257812 80.941406 101.746094 78.730469 C 102.714844 78.25 103.9375 77.613281 105.152344 76.949219 C 96.644531 79.160156 82.535156 87.914062 72.410156 87.914062 L 71.765625 87.914062 C 70.960938 87.914062 69.105469 87.515625 69.105469 86.847656 L 69.105469 86.53125 C 69.105469 84.226562 78.566406 78.953125 78.566406 75.636719 Z M 78.566406 75.636719 " fill-opacity="1" fill-rule="evenodd"/></g><g fill="#060b37" fill-opacity="1"><g transform="translate(50.25576, 64.401982)"><g><path d="M 8.695312 0.316406 C 13.386719 0.316406 16.476562 -2.976562 16.476562 -8.007812 C 16.476562 -12.699219 13.386719 -15.761719 8.695312 -15.761719 C 4.003906 -15.761719 0.914062 -12.472656 0.914062 -7.4375 C 0.914062 -2.746094 4.003906 0.316406 8.695312 0.316406 Z M 8.726562 -1.6875 C 5.949219 -1.6875 4.175781 -4.035156 4.175781 -7.609375 C 4.175781 -11.328125 5.921875 -13.730469 8.640625 -13.730469 C 11.414062 -13.730469 13.246094 -11.414062 13.246094 -7.808594 C 13.246094 -4.121094 11.441406 -1.6875 8.726562 -1.6875 Z M 8.726562 -1.6875 "/></g></g></g><g fill="#060b37" fill-opacity="1"><g transform="translate(67.640035, 64.401982)"><g><path d="M 13.617188 -2.859375 C 12.273438 -2.203125 10.898438 -1.886719 9.527344 -1.886719 C 6.121094 -1.886719 4.175781 -4.0625 4.175781 -7.808594 C 4.175781 -11.414062 6.121094 -13.730469 9.097656 -13.730469 C 9.925781 -13.730469 10.699219 -13.617188 11.269531 -13.445312 L 11.84375 -10.441406 L 13.359375 -10.441406 L 13.359375 -15.21875 C 12.273438 -15.53125 10.640625 -15.761719 9.152344 -15.761719 C 4.207031 -15.761719 0.914062 -12.472656 0.914062 -7.4375 C 0.914062 -2.746094 4.003906 0.316406 8.667969 0.316406 C 10.070312 0.316406 11.386719 0.0585938 12.5 -0.429688 L 13.960938 -2.289062 Z M 13.617188 -2.859375 "/></g></g></g><g fill="#060b37" fill-opacity="1"><g transform="translate(82.19364, 64.401982)"><g><path d="M 16.105469 -13.644531 L 17.765625 -14.101562 L 17.765625 -15.449219 L 11.011719 -15.449219 L 11.011719 -14.101562 L 12.988281 -13.988281 L 12.988281 -8.609375 L 5.894531 -8.609375 L 5.894531 -13.617188 L 7.609375 -14.101562 L 7.609375 -15.449219 L 0.800781 -15.449219 L 0.800781 -14.101562 L 2.773438 -13.988281 L 2.773438 -1.832031 L 1.03125 -1.34375 L 1.03125 0 L 7.808594 0 L 7.808594 -1.34375 L 5.894531 -1.457031 L 5.894531 -6.835938 L 12.988281 -6.835938 L 12.988281 -1.832031 L 11.242188 -1.34375 L 11.242188 0 L 17.992188 0 L 17.992188 -1.34375 L 16.105469 -1.457031 Z M 16.105469 -13.644531 "/></g></g></g><g fill="#060b37" fill-opacity="1"><g transform="translate(100.97894, 64.401982)"><g><path d="M 8.695312 0.316406 C 13.386719 0.316406 16.476562 -2.976562 16.476562 -8.007812 C 16.476562 -12.699219 13.386719 -15.761719 8.695312 -15.761719 C 4.003906 -15.761719 0.914062 -12.472656 0.914062 -7.4375 C 0.914062 -2.746094 4.003906 0.316406 8.695312 0.316406 Z M 8.726562 -1.6875 C 5.949219 -1.6875 4.175781 -4.035156 4.175781 -7.609375 C 4.175781 -11.328125 5.921875 -13.730469 8.640625 -13.730469 C 11.414062 -13.730469 13.246094 -11.414062 13.246094 -7.808594 C 13.246094 -4.121094 11.441406 -1.6875 8.726562 -1.6875 Z M 8.726562 -1.6875 "/></g></g></g><g fill="#060b37" fill-opacity="1"><g transform="translate(118.363215, 64.401982)"><g><path d="M 9.785156 -15.703125 L 6.835938 -15.105469 L 1.714844 -1.773438 L 0.171875 -1.34375 L 0.171875 0 L 6.09375 0 L 6.09375 -1.34375 L 3.691406 -1.515625 L 4.863281 -4.71875 L 10.585938 -4.71875 L 11.785156 -1.488281 L 9.382812 -1.34375 L 9.382812 0 L 16.648438 0 L 16.648438 -1.34375 L 15.160156 -1.773438 Z M 7.695312 -12.445312 L 9.898438 -6.492188 L 5.519531 -6.492188 Z M 7.695312 -12.445312 "/></g></g></g><g fill="#060b37" fill-opacity="1"><g transform="translate(135.175627, 64.401982)"><g><path d="M 1.257812 -11.8125 L 3.089844 -11.8125 L 3.519531 -17.707031 L 0.859375 -17.707031 Z M 1.257812 -11.8125 "/></g></g></g><g fill="#060b37" fill-opacity="1"><g transform="translate(139.521696, 64.401982)"><g><path d="M 7.207031 -9.496094 C 5.007812 -10.328125 4.460938 -10.871094 4.460938 -11.871094 C 4.460938 -13.300781 5.863281 -13.929688 7.4375 -13.929688 C 8.265625 -13.929688 9.210938 -13.789062 10.070312 -13.53125 L 10.699219 -10.925781 L 12.1875 -10.925781 L 12.1875 -15.21875 C 10.46875 -15.5625 9.097656 -15.761719 7.636719 -15.761719 C 3.890625 -15.761719 1.542969 -14.132812 1.542969 -11.042969 C 1.542969 -8.925781 2.601562 -7.867188 5.691406 -6.722656 L 7.667969 -5.949219 C 9.640625 -5.175781 10.125 -4.664062 10.125 -3.777344 C 10.125 -2.515625 9.011719 -1.601562 6.953125 -1.601562 C 5.835938 -1.601562 4.375 -1.972656 3.203125 -2.632812 L 3.203125 -5.148438 L 1.660156 -5.148438 L 0.972656 -1.203125 C 2.773438 -0.199219 5.035156 0.316406 7.066406 0.316406 C 10.785156 0.316406 13.074219 -1.601562 13.074219 -4.492188 C 13.074219 -6.464844 12.101562 -7.667969 9.152344 -8.695312 Z M 7.207031 -9.496094 "/></g></g></g><g fill="#060b37" fill-opacity="1"><g transform="translate(153.360484, 64.401982)"><g/></g></g><g fill="#060b37" fill-opacity="1"><g transform="translate(158.192623, 64.401982)"><g><path d="M 19.28125 -13.671875 L 20.996094 -14.101562 L 20.996094 -15.449219 L 16.25 -15.449219 L 11.183594 -6.265625 L 5.980469 -15.449219 L 0.800781 -15.449219 L 0.800781 -14.101562 L 2.746094 -13.929688 L 2.746094 -1.800781 L 1 -1.34375 L 1 0 L 6.578125 0 L 6.578125 -1.34375 L 4.691406 -1.515625 L 4.691406 -11.699219 L 9.640625 -3.03125 L 11.183594 -3.03125 L 16.164062 -11.84375 L 16.164062 -1.832031 L 14.246094 -1.34375 L 14.246094 0 L 21.226562 0 L 21.226562 -1.34375 L 19.28125 -1.457031 Z M 19.28125 -13.671875 "/></g></g></g><g fill="#060b37" fill-opacity="1"><g transform="translate(180.208886, 64.401982)"><g><path d="M 8.695312 0.316406 C 13.386719 0.316406 16.476562 -2.976562 16.476562 -8.007812 C 16.476562 -12.699219 13.386719 -15.761719 8.695312 -15.761719 C 4.003906 -15.761719 0.914062 -12.472656 0.914062 -7.4375 C 0.914062 -2.746094 4.003906 0.316406 8.695312 0.316406 Z M 8.726562 -1.6875 C 5.949219 -1.6875 4.175781 -4.035156 4.175781 -7.609375 C 4.175781 -11.328125 5.921875 -13.730469 8.640625 -13.730469 C 11.414062 -13.730469 13.246094 -11.414062 13.246094 -7.808594 C 13.246094 -4.121094 11.441406 -1.6875 8.726562 -1.6875 Z M 8.726562 -1.6875 "/></g></g></g><g fill="#060b37" fill-opacity="1"><g transform="translate(197.593161, 64.401982)"><g><path d="M 10.554688 -8.125 C 12.558594 -8.726562 13.730469 -9.925781 13.730469 -11.613281 C 13.730469 -14.015625 11.699219 -15.449219 7.722656 -15.449219 L 0.800781 -15.449219 L 0.800781 -14.101562 L 2.832031 -13.988281 L 2.832031 -1.773438 L 1.085938 -1.34375 L 1.085938 0 L 7.894531 0 C 12.414062 0 14.816406 -1.6875 14.816406 -4.347656 C 14.816406 -6.378906 13.445312 -7.636719 10.554688 -8.125 Z M 7.753906 -13.644531 C 9.527344 -13.644531 10.5 -12.816406 10.5 -11.386719 C 10.5 -9.753906 9.269531 -8.667969 7.410156 -8.667969 L 5.949219 -8.667969 L 5.949219 -13.644531 Z M 5.949219 -1.800781 L 5.949219 -6.867188 L 7.753906 -6.867188 C 10.328125 -6.867188 11.585938 -6.007812 11.585938 -4.375 C 11.585938 -2.832031 10.296875 -1.800781 7.667969 -1.800781 Z M 5.949219 -1.800781 "/></g></g></g><g fill="#060b37" fill-opacity="1"><g transform="translate(212.775802, 64.401982)"><g><path d="M 5.894531 -13.617188 L 7.609375 -14.101562 L 7.609375 -15.449219 L 0.800781 -15.449219 L 0.800781 -14.101562 L 2.773438 -13.988281 L 2.773438 -1.832031 L 1.03125 -1.34375 L 1.03125 0 L 7.867188 0 L 7.867188 -1.34375 L 5.894531 -1.457031 Z M 5.894531 -13.617188 "/></g></g></g><g fill="#060b37" fill-opacity="1"><g transform="translate(221.410753, 64.401982)"><g><path d="M 11.414062 -1.800781 L 5.949219 -1.800781 L 5.949219 -13.617188 L 7.667969 -14.101562 L 7.667969 -15.449219 L 0.800781 -15.449219 L 0.800781 -14.101562 L 2.832031 -13.988281 L 2.832031 -1.773438 L 1.144531 -1.34375 L 1.144531 0 L 13.246094 0 L 13.246094 -4.234375 L 11.871094 -4.234375 Z M 11.414062 -1.800781 "/></g></g></g><g fill="#060b37" fill-opacity="1"><g transform="translate(235.335321, 64.401982)"><g><path d="M 11.929688 -1.800781 L 5.894531 -1.800781 L 5.894531 -6.867188 L 9.898438 -6.867188 L 10.328125 -5.261719 L 11.644531 -5.261719 L 11.644531 -10.210938 L 10.328125 -10.210938 L 9.898438 -8.640625 L 5.894531 -8.640625 L 5.894531 -13.644531 L 11.328125 -13.644531 L 11.84375 -11.355469 L 13.332031 -11.355469 L 13.332031 -15.449219 L 0.800781 -15.449219 L 0.800781 -14.101562 L 2.773438 -13.988281 L 2.773438 -1.773438 L 1.03125 -1.34375 L 1.03125 0 L 13.902344 0 L 13.902344 -4.207031 L 12.414062 -4.207031 Z M 11.929688 -1.800781 "/></g></g></g><g fill="#060b37" fill-opacity="1"><g transform="translate(250.089077, 64.401982)"><g/></g></g><g fill="#060b37" fill-opacity="1"><g transform="translate(254.921217, 64.401982)"><g><path d="M 17.019531 -15.449219 L 11.414062 -15.449219 L 11.414062 -14.101562 L 13.386719 -13.929688 L 13.386719 -4.664062 L 4.664062 -15.449219 L 0.800781 -15.449219 L 0.800781 -14.101562 L 2.71875 -13.929688 L 2.71875 -1.800781 L 1 -1.34375 L 1 0 L 6.609375 0 L 6.609375 -1.34375 L 4.664062 -1.515625 L 4.664062 -10.785156 L 13.386719 0 L 15.332031 0 L 15.332031 -13.644531 L 17.019531 -14.101562 Z M 17.019531 -15.449219 "/></g></g></g><g fill="#060b37" fill-opacity="1"><g transform="translate(272.705783, 64.401982)"><g><path d="M 8.695312 0.316406 C 13.386719 0.316406 16.476562 -2.976562 16.476562 -8.007812 C 16.476562 -12.699219 13.386719 -15.761719 8.695312 -15.761719 C 4.003906 -15.761719 0.914062 -12.472656 0.914062 -7.4375 C 0.914062 -2.746094 4.003906 0.316406 8.695312 0.316406 Z M 8.726562 -1.6875 C 5.949219 -1.6875 4.175781 -4.035156 4.175781 -7.609375 C 4.175781 -11.328125 5.921875 -13.730469 8.640625 -13.730469 C 11.414062 -13.730469 13.246094 -11.414062 13.246094 -7.808594 C 13.246094 -4.121094 11.441406 -1.6875 8.726562 -1.6875 Z M 8.726562 -1.6875 "/></g></g></g><g fill="#060b37" fill-opacity="1"><g transform="translate(290.090058, 64.401982)"><g><path d="M 13.558594 -15.449219 L 0.65625 -15.449219 L 0.65625 -11.328125 L 1.972656 -11.328125 L 2.460938 -13.644531 L 5.550781 -13.644531 L 5.550781 -1.832031 L 3.832031 -1.34375 L 3.832031 0 L 10.46875 0 L 10.46875 -1.34375 L 8.667969 -1.457031 L 8.667969 -13.644531 L 11.726562 -13.644531 L 12.214844 -11.328125 L 13.558594 -11.328125 Z M 13.558594 -15.449219 "/></g></g></g><g fill="#060b37" fill-opacity="1"><g transform="translate(304.300558, 64.401982)"><g><path d="M 9.785156 -15.703125 L 6.835938 -15.105469 L 1.714844 -1.773438 L 0.171875 -1.34375 L 0.171875 0 L 6.09375 0 L 6.09375 -1.34375 L 3.691406 -1.515625 L 4.863281 -4.71875 L 10.585938 -4.71875 L 11.785156 -1.488281 L 9.382812 -1.34375 L 9.382812 0 L 16.648438 0 L 16.648438 -1.34375 L 15.160156 -1.773438 Z M 7.695312 -12.445312 L 9.898438 -6.492188 L 5.519531 -6.492188 Z M 7.695312 -12.445312 "/></g></g></g><g fill="#060b37" fill-opacity="1"><g transform="translate(321.112969, 64.401982)"><g><path d="M 10.554688 -6.78125 C 12.84375 -7.496094 14.160156 -9.066406 14.160156 -11.097656 C 14.160156 -13.988281 12.15625 -15.449219 7.953125 -15.449219 L 0.800781 -15.449219 L 0.800781 -14.101562 L 2.71875 -13.988281 L 2.71875 -1.832031 L 0.972656 -1.34375 L 0.972656 0 L 8.007812 0 L 8.007812 -1.34375 L 5.75 -1.488281 L 5.75 -6.378906 L 7.550781 -6.378906 L 11.300781 0 L 16.25 0 L 16.25 -1.34375 L 14.101562 -1.457031 Z M 7.867188 -13.644531 C 10.011719 -13.644531 11.042969 -12.757812 11.042969 -11.070312 C 11.042969 -9.210938 9.613281 -8.039062 7.207031 -8.039062 L 5.75 -8.039062 L 5.75 -13.644531 Z M 7.867188 -13.644531 "/></g></g></g><g fill="#060b37" fill-opacity="1"><g transform="translate(337.467917, 64.401982)"><g><path d="M 16.675781 -14.101562 L 16.675781 -15.449219 L 10.785156 -15.449219 L 10.785156 -14.101562 L 12.816406 -13.929688 L 9.152344 -7.207031 L 5.433594 -13.988281 L 7.695312 -14.101562 L 7.695312 -15.449219 L 0.199219 -15.449219 L 0.199219 -14.101562 L 1.886719 -13.671875 L 6.894531 -5.234375 L 6.894531 -1.832031 L 5.175781 -1.34375 L 5.175781 0 L 12.070312 0 L 12.070312 -1.34375 L 10.125 -1.457031 L 10.125 -5.519531 L 14.902344 -13.671875 Z M 16.675781 -14.101562 "/></g></g></g><g fill="#d2a113" fill-opacity="1"><g transform="translate(155.12007, 82.804751)"><g><path d="M 8.125 -7.375 L 5.449219 -7.375 L 5.449219 -6.730469 L 6.390625 -6.648438 L 6.390625 -2.226562 L 2.226562 -7.375 L 0.382812 -7.375 L 0.382812 -6.730469 L 1.296875 -6.648438 L 1.296875 -0.859375 L 0.476562 -0.640625 L 0.476562 0 L 3.15625 0 L 3.15625 -0.640625 L 2.226562 -0.722656 L 2.226562 -5.148438 L 6.390625 0 L 7.320312 0 L 7.320312 -6.515625 L 8.125 -6.730469 Z M 8.125 -7.375 "/></g></g></g><g fill="#d2a113" fill-opacity="1"><g transform="translate(165.033454, 82.804751)"><g><path d="M 4.152344 0.148438 C 6.390625 0.148438 7.867188 -1.421875 7.867188 -3.824219 C 7.867188 -6.0625 6.390625 -7.523438 4.152344 -7.523438 C 1.910156 -7.523438 0.4375 -5.953125 0.4375 -3.550781 C 0.4375 -1.3125 1.910156 0.148438 4.152344 0.148438 Z M 4.164062 -0.804688 C 2.839844 -0.804688 1.992188 -1.925781 1.992188 -3.632812 C 1.992188 -5.40625 2.828125 -6.554688 4.125 -6.554688 C 5.449219 -6.554688 6.324219 -5.449219 6.324219 -3.726562 C 6.324219 -1.964844 5.460938 -0.804688 4.164062 -0.804688 Z M 4.164062 -0.804688 "/></g></g></g><g fill="#d2a113" fill-opacity="1"><g transform="translate(174.755685, 82.804751)"><g><path d="M 5.039062 -3.238281 C 6.132812 -3.578125 6.757812 -4.328125 6.757812 -5.296875 C 6.757812 -6.675781 5.804688 -7.375 3.796875 -7.375 L 0.382812 -7.375 L 0.382812 -6.730469 L 1.296875 -6.675781 L 1.296875 -0.875 L 0.464844 -0.640625 L 0.464844 0 L 3.824219 0 L 3.824219 -0.640625 L 2.746094 -0.710938 L 2.746094 -3.046875 L 3.605469 -3.046875 L 5.394531 0 L 7.757812 0 L 7.757812 -0.640625 L 6.730469 -0.695312 Z M 3.753906 -6.515625 C 4.78125 -6.515625 5.269531 -6.089844 5.269531 -5.285156 C 5.269531 -4.398438 4.589844 -3.835938 3.441406 -3.835938 L 2.746094 -3.835938 L 2.746094 -6.515625 Z M 3.753906 -6.515625 "/></g></g></g><g fill="#d2a113" fill-opacity="1"><g transform="translate(183.986365, 82.804751)"><g><path d="M 6.472656 -7.375 L 0.3125 -7.375 L 0.3125 -5.40625 L 0.941406 -5.40625 L 1.175781 -6.515625 L 2.648438 -6.515625 L 2.648438 -0.875 L 1.828125 -0.640625 L 1.828125 0 L 4.996094 0 L 4.996094 -0.640625 L 4.136719 -0.695312 L 4.136719 -6.515625 L 5.597656 -6.515625 L 5.832031 -5.40625 L 6.472656 -5.40625 Z M 6.472656 -7.375 "/></g></g></g><g fill="#d2a113" fill-opacity="1"><g transform="translate(192.192974, 82.804751)"><g><path d="M 7.6875 -6.515625 L 8.480469 -6.730469 L 8.480469 -7.375 L 5.257812 -7.375 L 5.257812 -6.730469 L 6.199219 -6.675781 L 6.199219 -4.109375 L 2.8125 -4.109375 L 2.8125 -6.5 L 3.632812 -6.730469 L 3.632812 -7.375 L 0.382812 -7.375 L 0.382812 -6.730469 L 1.324219 -6.675781 L 1.324219 -0.875 L 0.492188 -0.640625 L 0.492188 0 L 3.726562 0 L 3.726562 -0.640625 L 2.8125 -0.695312 L 2.8125 -3.265625 L 6.199219 -3.265625 L 6.199219 -0.875 L 5.367188 -0.640625 L 5.367188 0 L 8.589844 0 L 8.589844 -0.640625 L 7.6875 -0.695312 Z M 7.6875 -6.515625 "/></g></g></g><g fill="#d2a113" fill-opacity="1"><g transform="translate(202.58425, 82.804751)"><g/></g></g><g fill="#d2a113" fill-opacity="1"><g transform="translate(206.312282, 82.804751)"><g><path d="M 5.039062 -3.878906 C 5.996094 -4.164062 6.554688 -4.738281 6.554688 -5.542969 C 6.554688 -6.691406 5.585938 -7.375 3.6875 -7.375 L 0.382812 -7.375 L 0.382812 -6.730469 L 1.351562 -6.675781 L 1.351562 -0.847656 L 0.519531 -0.640625 L 0.519531 0 L 3.769531 0 C 5.925781 0 7.074219 -0.804688 7.074219 -2.074219 C 7.074219 -3.046875 6.417969 -3.644531 5.039062 -3.878906 Z M 3.699219 -6.515625 C 4.546875 -6.515625 5.011719 -6.117188 5.011719 -5.433594 C 5.011719 -4.65625 4.425781 -4.136719 3.535156 -4.136719 L 2.839844 -4.136719 L 2.839844 -6.515625 Z M 2.839844 -0.859375 L 2.839844 -3.277344 L 3.699219 -3.277344 C 4.929688 -3.277344 5.53125 -2.867188 5.53125 -2.089844 C 5.53125 -1.351562 4.917969 -0.859375 3.660156 -0.859375 Z M 2.839844 -0.859375 "/></g></g></g><g fill="#d2a113" fill-opacity="1"><g transform="translate(214.983141, 82.804751)"><g><path d="M 4.671875 -7.496094 L 3.265625 -7.210938 L 0.820312 -0.847656 L 0.0820312 -0.640625 L 0.0820312 0 L 2.910156 0 L 2.910156 -0.640625 L 1.761719 -0.722656 L 2.320312 -2.253906 L 5.050781 -2.253906 L 5.625 -0.710938 L 4.480469 -0.640625 L 4.480469 0 L 7.949219 0 L 7.949219 -0.640625 L 7.238281 -0.847656 Z M 3.671875 -5.941406 L 4.726562 -3.101562 L 2.636719 -3.101562 Z M 3.671875 -5.941406 "/></g></g></g><g fill="#d2a113" fill-opacity="1"><g transform="translate(224.43228, 82.804751)"><g><path d="M 7.960938 -6.730469 L 7.960938 -7.375 L 5.148438 -7.375 L 5.148438 -6.730469 L 6.117188 -6.648438 L 4.371094 -3.441406 L 2.59375 -6.675781 L 3.671875 -6.730469 L 3.671875 -7.375 L 0.09375 -7.375 L 0.09375 -6.730469 L 0.902344 -6.527344 L 3.292969 -2.5 L 3.292969 -0.875 L 2.472656 -0.640625 L 2.472656 0 L 5.761719 0 L 5.761719 -0.640625 L 4.835938 -0.695312 L 4.835938 -2.636719 L 7.113281 -6.527344 Z M 7.960938 -6.730469 "/></g></g></g></svg>