<svg xmlns="http://www.w3.org/2000/svg" xmlns:xlink="http://www.w3.org/1999/xlink" width="250" zoomAndPan="magnify" viewBox="0 0 187.5 187.499992" height="250" preserveAspectRatio="xMidYMid meet" version="1.0"><defs><g/><clipPath id="25f92d3632"><path d="M 25.359375 25.085938 L 162.304688 25.085938 L 162.304688 162.304688 L 25.359375 162.304688 Z M 25.359375 25.085938 " clip-rule="nonzero"/></clipPath><clipPath id="204c74aa86"><path d="M 93.75 162.140625 C 75.492188 162.140625 58.296875 155.035156 45.394531 142.105469 C 32.464844 129.203125 25.359375 112.007812 25.359375 93.75 C 25.359375 75.492188 32.464844 58.296875 45.394531 45.394531 C 58.296875 32.464844 75.492188 25.359375 93.75 25.359375 C 112.007812 25.359375 129.203125 32.464844 142.105469 45.394531 C 155.035156 58.324219 162.140625 75.492188 162.140625 93.75 C 162.140625 112.007812 155.035156 129.203125 142.105469 142.105469 C 129.203125 155.035156 112.007812 162.140625 93.75 162.140625 Z M 93.75 29.460938 C 76.582031 29.460938 60.429688 36.15625 48.292969 48.292969 C 36.15625 60.429688 29.460938 76.582031 29.460938 93.75 C 29.460938 110.917969 36.15625 127.070312 48.292969 139.207031 C 60.429688 151.34375 76.582031 158.039062 93.75 158.039062 C 110.917969 158.039062 127.070312 151.34375 139.207031 139.207031 C 151.34375 127.070312 158.039062 110.917969 158.039062 93.75 C 158.039062 76.582031 151.34375 60.429688 139.207031 48.292969 C 127.070312 36.15625 110.917969 29.460938 93.75 29.460938 Z M 93.75 29.460938 " clip-rule="nonzero"/></clipPath><clipPath id="73b7ee50ee"><path d="M 32.242188 32.242188 L 155.242188 32.242188 L 155.242188 155.242188 L 32.242188 155.242188 Z M 32.242188 32.242188 " clip-rule="nonzero"/></clipPath><clipPath id="9f1e4602e6"><path d="M 118 77 L 132 77 L 132 122 L 118 122 Z M 118 77 " clip-rule="nonzero"/></clipPath><clipPath id="a839857caf"><path d="M 110.25 144.910156 L 43.761719 110.210938 L 77.421875 45.714844 L 143.910156 80.417969 Z M 110.25 144.910156 " clip-rule="nonzero"/></clipPath><clipPath id="f0469db72b"><path d="M 110.25 144.910156 L 43.761719 110.210938 L 77.421875 45.714844 L 143.910156 80.417969 Z M 110.25 144.910156 " clip-rule="nonzero"/></clipPath><clipPath id="7e46275554"><path d="M 74 58 L 125 58 L 125 77 L 74 77 Z M 74 58 " clip-rule="nonzero"/></clipPath><clipPath id="4de98c3f80"><path d="M 110.25 144.910156 L 43.761719 110.210938 L 77.421875 45.714844 L 143.910156 80.417969 Z M 110.25 144.910156 " clip-rule="nonzero"/></clipPath><clipPath id="aa5e0bfa95"><path d="M 110.25 144.910156 L 43.761719 110.210938 L 77.421875 45.714844 L 143.910156 80.417969 Z M 110.25 144.910156 " clip-rule="nonzero"/></clipPath><clipPath id="7a93350b89"><path d="M 56 65 L 75 65 L 75 93 L 56 93 Z M 56 65 " clip-rule="nonzero"/></clipPath><clipPath id="efbae5a74d"><path d="M 110.25 144.910156 L 43.761719 110.210938 L 77.421875 45.714844 L 143.910156 80.417969 Z M 110.25 144.910156 " clip-rule="nonzero"/></clipPath><clipPath id="10ff573930"><path d="M 110.25 144.910156 L 43.761719 110.210938 L 77.421875 45.714844 L 143.910156 80.417969 Z M 110.25 144.910156 " clip-rule="nonzero"/></clipPath><clipPath id="10b7c55886"><path d="M 110 122 L 119 122 L 119 129 L 110 129 Z M 110 122 " clip-rule="nonzero"/></clipPath><clipPath id="7746e95a5c"><path d="M 110.25 144.910156 L 43.761719 110.210938 L 77.421875 45.714844 L 143.910156 80.417969 Z M 110.25 144.910156 " clip-rule="nonzero"/></clipPath><clipPath id="6539a9ebdf"><path d="M 110.25 144.910156 L 43.761719 110.210938 L 77.421875 45.714844 L 143.910156 80.417969 Z M 110.25 144.910156 " clip-rule="nonzero"/></clipPath><clipPath id="62dfda840f"><path d="M 58 108 L 63 108 L 63 116 L 58 116 Z M 58 108 " clip-rule="nonzero"/></clipPath><clipPath id="314d9ef430"><path d="M 110.25 144.910156 L 43.761719 110.210938 L 77.421875 45.714844 L 143.910156 80.417969 Z M 110.25 144.910156 " clip-rule="nonzero"/></clipPath><clipPath id="fed3564a42"><path d="M 110.25 144.910156 L 43.761719 110.210938 L 77.421875 45.714844 L 143.910156 80.417969 Z M 110.25 144.910156 " clip-rule="nonzero"/></clipPath><clipPath id="6fb8e10091"><path d="M 66 120 L 69 120 L 69 124 L 66 124 Z M 66 120 " clip-rule="nonzero"/></clipPath><clipPath id="540fc555d5"><path d="M 110.25 144.910156 L 43.761719 110.210938 L 77.421875 45.714844 L 143.910156 80.417969 Z M 110.25 144.910156 " clip-rule="nonzero"/></clipPath><clipPath id="c74f634312"><path d="M 110.25 144.910156 L 43.761719 110.210938 L 77.421875 45.714844 L 143.910156 80.417969 Z M 110.25 144.910156 " clip-rule="nonzero"/></clipPath><clipPath id="6fb66ee619"><path d="M 57 103 L 59 103 L 59 107 L 57 107 Z M 57 103 " clip-rule="nonzero"/></clipPath><clipPath id="5fd2d9561a"><path d="M 110.25 144.910156 L 43.761719 110.210938 L 77.421875 45.714844 L 143.910156 80.417969 Z M 110.25 144.910156 " clip-rule="nonzero"/></clipPath><clipPath id="48cd611a94"><path d="M 110.25 144.910156 L 43.761719 110.210938 L 77.421875 45.714844 L 143.910156 80.417969 Z M 110.25 144.910156 " clip-rule="nonzero"/></clipPath><clipPath id="d5c68ccf3a"><path d="M 63 116 L 65 116 L 65 118 L 63 118 Z M 63 116 " clip-rule="nonzero"/></clipPath><clipPath id="b74340c6f7"><path d="M 110.25 144.910156 L 43.761719 110.210938 L 77.421875 45.714844 L 143.910156 80.417969 Z M 110.25 144.910156 " clip-rule="nonzero"/></clipPath><clipPath id="39902d5bc4"><path d="M 110.25 144.910156 L 43.761719 110.210938 L 77.421875 45.714844 L 143.910156 80.417969 Z M 110.25 144.910156 " clip-rule="nonzero"/></clipPath><clipPath id="5e4999177e"><path d="M 56 96 L 58 96 L 58 98 L 56 98 Z M 56 96 " clip-rule="nonzero"/></clipPath><clipPath id="ff8a74d04d"><path d="M 110.25 144.910156 L 43.761719 110.210938 L 77.421875 45.714844 L 143.910156 80.417969 Z M 110.25 144.910156 " clip-rule="nonzero"/></clipPath><clipPath id="94c339454c"><path d="M 110.25 144.910156 L 43.761719 110.210938 L 77.421875 45.714844 L 143.910156 80.417969 Z M 110.25 144.910156 " clip-rule="nonzero"/></clipPath><clipPath id="f11edc181c"><path d="M 131 96 L 133 96 L 133 98 L 131 98 Z M 131 96 " clip-rule="nonzero"/></clipPath><clipPath id="fabfcf5127"><path d="M 110.25 144.910156 L 43.761719 110.210938 L 77.421875 45.714844 L 143.910156 80.417969 Z M 110.25 144.910156 " clip-rule="nonzero"/></clipPath><clipPath id="5da3985a39"><path d="M 110.25 144.910156 L 43.761719 110.210938 L 77.421875 45.714844 L 143.910156 80.417969 Z M 110.25 144.910156 " clip-rule="nonzero"/></clipPath><clipPath id="39a0f7f35f"><path d="M 65 118 L 66 118 L 66 120 L 65 120 Z M 65 118 " clip-rule="nonzero"/></clipPath><clipPath id="a1a6235471"><path d="M 110.25 144.910156 L 43.761719 110.210938 L 77.421875 45.714844 L 143.910156 80.417969 Z M 110.25 144.910156 " clip-rule="nonzero"/></clipPath><clipPath id="fe93348cf6"><path d="M 110.25 144.910156 L 43.761719 110.210938 L 77.421875 45.714844 L 143.910156 80.417969 Z M 110.25 144.910156 " clip-rule="nonzero"/></clipPath><clipPath id="22df3f056d"><path d="M 72.9375 69 L 111 69 L 111 119 L 72.9375 119 Z M 72.9375 69 " clip-rule="nonzero"/></clipPath><clipPath id="d7bfe26f12"><path d="M 73 111 L 117.9375 111 L 117.9375 122.90625 L 73 122.90625 Z M 73 111 " clip-rule="nonzero"/></clipPath><clipPath id="1b3b75b5f7"><path d="M 43.761719 98.242188 L 48.542969 98.242188 L 48.542969 103.023438 L 43.761719 103.023438 Z M 43.761719 98.242188 " clip-rule="nonzero"/></clipPath><clipPath id="7bb8f71686"><path d="M 46.152344 98.242188 L 48.542969 100.632812 L 46.152344 103.023438 L 43.761719 100.632812 L 46.152344 98.242188 " clip-rule="nonzero"/></clipPath><clipPath id="a7e44bf628"><path d="M 138.957031 98.242188 L 143.738281 98.242188 L 143.738281 103.023438 L 138.957031 103.023438 Z M 138.957031 98.242188 " clip-rule="nonzero"/></clipPath><clipPath id="539bace3c1"><path d="M 141.347656 98.242188 L 143.738281 100.632812 L 141.347656 103.023438 L 138.957031 100.632812 L 141.347656 98.242188 " clip-rule="nonzero"/></clipPath></defs><g clip-path="url(#25f92d3632)"><g clip-path="url(#204c74aa86)"><path fill="#d2a113" d="M 25.359375 25.359375 L 162.03125 25.359375 L 162.03125 162.03125 L 25.359375 162.03125 Z M 25.359375 25.359375 " fill-opacity="1" fill-rule="nonzero"/></g></g><g clip-path="url(#73b7ee50ee)"><path fill="#060b37" d="M 151.4375 110.140625 C 149.878906 115.449219 147.496094 120.484375 144.542969 125.125 C 142.101562 128.898438 139.328125 132.449219 136.210938 135.675781 C 135.808594 136.117188 135.359375 136.511719 134.929688 136.925781 C 134.496094 137.335938 134.074219 137.757812 133.628906 138.15625 L 132.277344 139.332031 L 131.601562 139.917969 L 129.503906 141.59375 C 129.027344 141.957031 128.539062 142.296875 128.058594 142.652344 C 127.109375 143.378906 126.101562 144.019531 125.113281 144.691406 C 124.96875 144.785156 124.820312 144.886719 124.664062 144.992188 C 124.503906 145.089844 124.335938 145.1875 124.160156 145.292969 C 123.8125 145.503906 123.4375 145.726562 123.039062 145.964844 C 122.246094 146.460938 121.3125 146.929688 120.304688 147.464844 C 120.050781 147.59375 119.796875 147.738281 119.527344 147.867188 C 119.257812 147.992188 118.984375 148.121094 118.703125 148.25 C 118.144531 148.507812 117.5625 148.777344 116.960938 149.054688 C 115.734375 149.535156 114.453125 150.113281 113.054688 150.558594 C 107.539062 152.558594 100.652344 153.796875 93.742188 153.824219 C 86.832031 153.796875 79.945312 152.558594 74.429688 150.558594 C 73.03125 150.113281 71.75 149.535156 70.519531 149.054688 C 69.921875 148.777344 69.339844 148.507812 68.78125 148.25 C 68.5 148.121094 68.226562 147.992188 67.957031 147.867188 C 67.6875 147.738281 67.433594 147.59375 67.179688 147.464844 C 66.171875 146.929688 65.234375 146.460938 64.445312 145.964844 C 64.046875 145.726562 63.671875 145.503906 63.324219 145.292969 C 63.148438 145.1875 62.980469 145.089844 62.820312 144.992188 C 62.664062 144.886719 62.515625 144.785156 62.371094 144.691406 C 58.617188 142.230469 55.089844 139.4375 51.886719 136.296875 C 48.503906 132.917969 45.546875 129.136719 42.941406 125.125 C 39.988281 120.484375 37.605469 115.449219 36.046875 110.140625 C 34.421875 104.847656 33.671875 99.296875 33.625 93.742188 C 33.671875 88.1875 34.421875 82.636719 36.046875 77.34375 C 37.605469 72.035156 39.988281 67 42.941406 62.359375 C 45.378906 58.585938 48.15625 55.035156 51.269531 51.808594 C 51.675781 51.367188 52.125 50.972656 52.550781 50.558594 C 52.988281 50.148438 53.410156 49.726562 53.855469 49.328125 L 55.207031 48.152344 L 55.882812 47.566406 L 57.980469 45.890625 C 58.457031 45.527344 58.945312 45.1875 59.425781 44.832031 C 60.371094 44.105469 61.382812 43.464844 62.371094 42.792969 C 62.511719 42.699219 62.664062 42.597656 62.820312 42.492188 C 62.980469 42.394531 63.148438 42.296875 63.324219 42.191406 C 63.671875 41.980469 64.046875 41.757812 64.445312 41.519531 C 65.234375 41.023438 66.171875 40.554688 67.179688 40.019531 C 67.433594 39.886719 67.6875 39.746094 67.957031 39.617188 C 68.226562 39.492188 68.5 39.363281 68.78125 39.234375 C 69.339844 38.976562 69.921875 38.707031 70.519531 38.429688 C 71.75 37.949219 73.03125 37.371094 74.429688 36.925781 C 79.945312 34.925781 86.832031 33.6875 93.742188 33.660156 C 100.652344 33.6875 107.539062 34.925781 113.054688 36.925781 C 114.453125 37.371094 115.734375 37.949219 116.960938 38.429688 C 117.5625 38.707031 118.140625 38.976562 118.703125 39.234375 C 118.984375 39.363281 119.257812 39.492188 119.527344 39.617188 C 119.796875 39.746094 120.050781 39.886719 120.304688 40.019531 C 121.3125 40.554688 122.246094 41.023438 123.035156 41.519531 C 123.4375 41.757812 123.8125 41.980469 124.160156 42.191406 C 124.335938 42.292969 124.503906 42.394531 124.664062 42.492188 C 124.820312 42.597656 124.96875 42.699219 125.113281 42.792969 C 128.867188 45.253906 132.390625 48.046875 135.597656 51.1875 C 138.980469 54.5625 141.933594 58.347656 144.542969 62.359375 C 147.496094 66.996094 149.878906 72.035156 151.4375 77.34375 C 153.058594 82.636719 153.8125 88.1875 153.859375 93.742188 C 153.8125 99.296875 153.058594 104.847656 151.4375 110.140625 Z M 155.242188 93.699219 L 155.238281 93.695312 C 155.191406 88.027344 154.425781 82.351562 152.773438 76.941406 C 151.1875 71.515625 148.753906 66.363281 145.71875 61.632812 L 144.261719 59.441406 C 144.261719 59.441406 143.839844 58.851562 143.207031 57.964844 C 142.597656 57.0625 141.667969 55.953125 140.777344 54.808594 C 139.816406 53.722656 138.898438 52.601562 138.125 51.835938 C 137.375 51.050781 136.875 50.53125 136.875 50.53125 C 136.875 50.53125 136.746094 50.402344 136.519531 50.179688 C 136.292969 49.960938 135.964844 49.648438 135.574219 49.269531 C 134.8125 48.492188 133.707031 47.558594 132.625 46.597656 C 132.066406 46.136719 131.492188 45.695312 130.964844 45.269531 C 130.699219 45.058594 130.441406 44.851562 130.199219 44.660156 C 129.945312 44.476562 129.707031 44.304688 129.488281 44.144531 C 128.605469 43.511719 128.019531 43.085938 128.019531 43.085938 C 128.019531 43.085938 127.890625 42.984375 127.683594 42.847656 C 127.480469 42.710938 127.207031 42.53125 126.933594 42.347656 C 126.386719 41.980469 125.839844 41.613281 125.839844 41.613281 C 125.695312 41.515625 125.542969 41.414062 125.382812 41.304688 C 125.21875 41.207031 125.046875 41.101562 124.871094 40.996094 C 124.511719 40.78125 124.128906 40.550781 123.722656 40.304688 C 122.914062 39.796875 121.957031 39.316406 120.925781 38.765625 C 120.667969 38.632812 120.40625 38.484375 120.132812 38.351562 C 119.855469 38.222656 119.574219 38.09375 119.289062 37.960938 C 118.714844 37.695312 118.121094 37.417969 117.507812 37.132812 C 116.25 36.640625 114.9375 36.050781 113.507812 35.589844 C 107.863281 33.539062 100.8125 32.269531 93.742188 32.242188 C 86.671875 32.269531 79.621094 33.539062 73.972656 35.589844 C 72.542969 36.050781 71.234375 36.640625 69.976562 37.136719 C 69.363281 37.417969 68.769531 37.695312 68.195312 37.960938 C 67.90625 38.09375 67.625 38.226562 67.351562 38.351562 C 67.078125 38.484375 66.816406 38.632812 66.554688 38.765625 C 65.523438 39.316406 64.570312 39.796875 63.761719 40.304688 C 63.355469 40.550781 62.972656 40.78125 62.613281 40.996094 C 62.4375 41.101562 62.265625 41.207031 62.101562 41.304688 C 61.941406 41.414062 61.789062 41.515625 61.640625 41.613281 C 61.640625 41.613281 61.097656 41.980469 60.550781 42.347656 C 60.277344 42.53125 60.003906 42.710938 59.796875 42.847656 C 59.59375 42.984375 59.464844 43.085938 59.464844 43.085938 C 59.464844 43.085938 58.875 43.511719 57.996094 44.144531 C 57.777344 44.304688 57.539062 44.476562 57.285156 44.660156 C 57.042969 44.851562 56.785156 45.058594 56.519531 45.269531 C 55.988281 45.695312 55.417969 46.136719 54.859375 46.597656 C 53.777344 47.558594 52.671875 48.492188 51.910156 49.269531 C 51.519531 49.648438 51.191406 49.960938 50.964844 50.179688 C 50.738281 50.402344 50.609375 50.53125 50.609375 50.53125 C 50.609375 50.53125 50.109375 51.050781 49.359375 51.835938 C 48.585938 52.601562 47.664062 53.722656 46.707031 54.808594 C 45.816406 55.953125 44.886719 57.0625 44.277344 57.964844 C 43.644531 58.851562 43.222656 59.441406 43.222656 59.441406 L 41.765625 61.632812 C 38.730469 66.363281 36.296875 71.515625 34.707031 76.941406 C 33.054688 82.351562 32.292969 88.027344 32.242188 93.695312 L 32.242188 93.789062 C 32.292969 99.457031 33.054688 105.132812 34.707031 110.542969 C 36.296875 115.96875 38.730469 121.121094 41.765625 125.851562 L 43.222656 128.042969 C 43.222656 128.042969 43.644531 128.632812 44.277344 129.515625 C 44.886719 130.421875 45.816406 131.53125 46.707031 132.675781 C 47.664062 133.761719 48.585938 134.882812 49.359375 135.648438 C 50.109375 136.429688 50.609375 136.953125 50.609375 136.953125 C 50.609375 136.953125 50.738281 137.082031 50.964844 137.300781 C 51.191406 137.523438 51.519531 137.835938 51.910156 138.214844 C 52.671875 138.988281 53.777344 139.925781 54.859375 140.882812 C 55.417969 141.347656 55.988281 141.789062 56.519531 142.214844 C 56.785156 142.425781 57.042969 142.632812 57.285156 142.824219 C 57.539062 143.007812 57.777344 143.179688 57.996094 143.335938 C 58.875 143.972656 59.464844 144.398438 59.464844 144.398438 C 59.464844 144.398438 59.59375 144.5 59.796875 144.632812 C 60.003906 144.773438 60.277344 144.953125 60.550781 145.136719 C 61.097656 145.503906 61.644531 145.867188 61.644531 145.867188 C 61.789062 145.96875 61.941406 146.070312 62.101562 146.179688 C 62.265625 146.277344 62.4375 146.382812 62.613281 146.488281 C 62.972656 146.703125 63.355469 146.933594 63.761719 147.179688 C 64.570312 147.6875 65.523438 148.167969 66.558594 148.71875 C 66.816406 148.851562 67.078125 149 67.351562 149.128906 C 67.628906 149.257812 67.910156 149.390625 68.195312 149.523438 C 68.769531 149.789062 69.363281 150.066406 69.976562 150.347656 C 71.234375 150.84375 72.542969 151.433594 73.976562 151.894531 C 79.621094 153.945312 86.671875 155.214844 93.742188 155.242188 C 100.8125 155.214844 107.863281 153.945312 113.507812 151.890625 C 114.9375 151.433594 116.25 150.84375 117.507812 150.347656 C 118.121094 150.066406 118.714844 149.789062 119.289062 149.523438 C 119.574219 149.390625 119.855469 149.257812 120.132812 149.128906 C 120.40625 149 120.667969 148.851562 120.925781 148.71875 C 121.957031 148.167969 122.914062 147.6875 123.722656 147.179688 C 124.128906 146.933594 124.511719 146.703125 124.871094 146.488281 C 125.046875 146.382812 125.21875 146.277344 125.382812 146.179688 C 125.542969 146.070312 125.695312 145.96875 125.839844 145.867188 C 125.839844 145.867188 126.386719 145.503906 126.933594 145.136719 C 127.207031 144.953125 127.480469 144.773438 127.683594 144.632812 C 127.890625 144.5 128.019531 144.398438 128.019531 144.398438 C 128.019531 144.398438 128.605469 143.972656 129.488281 143.335938 C 129.707031 143.179688 129.945312 143.007812 130.199219 142.824219 C 130.441406 142.632812 130.699219 142.425781 130.964844 142.214844 C 131.492188 141.789062 132.066406 141.347656 132.625 140.882812 C 133.707031 139.925781 134.8125 138.988281 135.574219 138.214844 C 135.964844 137.835938 136.292969 137.523438 136.519531 137.300781 C 136.746094 137.082031 136.875 136.953125 136.875 136.953125 C 136.875 136.953125 137.375 136.429688 138.125 135.648438 C 138.898438 134.882812 139.816406 133.761719 140.777344 132.675781 C 141.667969 131.53125 142.597656 130.417969 143.207031 129.515625 C 143.839844 128.632812 144.261719 128.042969 144.261719 128.042969 L 145.71875 125.851562 C 148.753906 121.121094 151.1875 115.96875 152.773438 110.542969 C 154.425781 105.132812 155.191406 99.457031 155.238281 93.785156 L 155.242188 93.78125 L 155.242188 93.699219 " fill-opacity="1" fill-rule="nonzero"/></g><g clip-path="url(#9f1e4602e6)"><g clip-path="url(#a839857caf)"><g clip-path="url(#f0469db72b)"><path fill="#060b37" d="M 127.039062 112.347656 C 126.171875 113.800781 125.558594 115.425781 124.308594 116.632812 C 124.214844 116.71875 124.128906 116.824219 124.074219 116.9375 C 123.140625 118.878906 121.394531 120.085938 119.921875 121.539062 C 119.46875 121.984375 118.945312 122.078125 118.828125 121.804688 C 118.644531 121.371094 118.921875 121.046875 119.199219 120.804688 C 120.144531 119.976562 120.71875 118.875 121.4375 117.878906 C 121.785156 117.394531 122.09375 116.882812 122.445312 116.40625 C 123.359375 115.164062 124.03125 113.796875 124.648438 112.398438 C 124.734375 112.203125 124.804688 112 124.914062 111.816406 C 125.898438 110.140625 126.359375 108.277344 126.785156 106.417969 C 127.171875 104.722656 127.320312 102.976562 127.722656 101.289062 C 128.132812 99.578125 128.105469 97.835938 128.34375 96.113281 C 128.679688 93.667969 128.609375 91.21875 128.183594 88.765625 C 127.644531 85.652344 126.703125 82.675781 125.597656 79.734375 C 125.363281 79.121094 124.945312 78.652344 124.585938 78.132812 C 124.453125 77.9375 124.496094 77.722656 124.636719 77.542969 C 124.796875 77.34375 125.136719 77.296875 125.324219 77.449219 C 125.453125 77.554688 125.589844 77.671875 125.679688 77.808594 C 126.089844 78.449219 126.535156 79.070312 126.882812 79.746094 C 127.632812 81.21875 128.246094 82.753906 128.722656 84.34375 C 128.820312 84.667969 128.890625 85.007812 129.035156 85.308594 C 129.839844 86.976562 130.011719 88.808594 130.40625 90.585938 C 130.507812 91.042969 130.5625 91.5 130.550781 91.976562 C 130.546875 92.398438 130.570312 92.828125 130.644531 93.242188 C 130.882812 94.535156 131.136719 95.824219 130.988281 97.152344 C 131.289062 99.640625 130.953125 102.058594 130.226562 104.445312 C 129.632812 106.402344 129.027344 108.347656 128.152344 110.199219 C 127.808594 110.929688 127.410156 111.632812 127.039062 112.347656 " fill-opacity="1" fill-rule="nonzero"/></g></g></g><g clip-path="url(#7e46275554)"><g clip-path="url(#4de98c3f80)"><g clip-path="url(#aa5e0bfa95)"><path fill="#060b37" d="M 111.175781 63.421875 C 113.242188 64.414062 115.0625 65.550781 116.6875 66.996094 C 117.441406 67.671875 118.285156 68.246094 119.074219 68.882812 C 119.867188 69.527344 120.5625 70.265625 121.125 71.121094 C 121.265625 71.335938 121.410156 71.550781 121.589844 71.722656 C 122.582031 72.664062 123.269531 73.835938 124.082031 74.910156 C 124.429688 75.371094 124.597656 75.878906 124.71875 76.417969 C 124.742188 76.515625 124.679688 76.683594 124.597656 76.746094 C 124.519531 76.808594 124.328125 76.835938 124.253906 76.78125 C 123.777344 76.441406 123.222656 76.152344 122.917969 75.636719 C 122.5625 75.039062 122.046875 74.605469 121.582031 74.121094 C 120.359375 72.835938 119.144531 71.546875 117.925781 70.261719 C 117.867188 70.199219 117.808594 70.125 117.738281 70.089844 C 116.394531 69.40625 115.519531 68.136719 114.269531 67.339844 C 113.941406 67.128906 113.660156 66.867188 113.464844 66.539062 C 113.140625 66.003906 112.652344 65.6875 112.101562 65.449219 C 111.554688 65.214844 111.058594 64.902344 110.558594 64.585938 C 109.769531 64.09375 108.957031 63.628906 108.03125 63.417969 C 107.867188 63.378906 107.703125 63.328125 107.554688 63.246094 C 106.289062 62.535156 104.871094 62.191406 103.507812 61.777344 C 101.167969 61.0625 98.777344 60.363281 96.308594 60.347656 C 94.792969 60.335938 93.265625 60.277344 91.746094 60.457031 C 90.742188 60.578125 89.726562 60.597656 88.714844 60.660156 C 88.464844 60.675781 88.203125 60.65625 87.960938 60.710938 C 85.183594 61.308594 82.417969 61.953125 79.742188 62.945312 C 79.136719 63.171875 78.570312 63.441406 78.101562 63.886719 C 77.417969 64.539062 76.539062 64.707031 75.664062 64.886719 C 75.542969 64.910156 75.410156 64.898438 75.285156 64.886719 C 74.957031 64.855469 74.691406 64.636719 74.640625 64.367188 C 74.585938 64.089844 74.738281 63.769531 75.039062 63.636719 C 75.425781 63.46875 75.835938 63.351562 76.222656 63.175781 C 77.496094 62.597656 78.75 61.988281 80.027344 61.425781 C 81.035156 60.980469 82.046875 60.535156 83.09375 60.1875 C 83.933594 59.910156 84.816406 59.734375 85.691406 59.589844 C 87.238281 59.335938 88.761719 58.96875 90.335938 58.871094 C 91.558594 58.800781 92.792969 58.886719 94.003906 58.59375 C 94.160156 58.558594 94.34375 58.585938 94.507812 58.617188 C 96.703125 59.054688 98.980469 59.054688 101.125 59.796875 C 101.359375 59.882812 101.625 59.917969 101.875 59.914062 C 102.871094 59.898438 103.796875 60.210938 104.699219 60.574219 C 105.796875 61.015625 106.875 61.5 107.964844 61.964844 C 108.199219 62.066406 108.425781 62.207031 108.667969 62.25 C 109.1875 62.339844 109.613281 62.582031 110.042969 62.867188 C 110.429688 63.121094 110.820312 63.386719 111.175781 63.421875 " fill-opacity="1" fill-rule="nonzero"/></g></g></g><g clip-path="url(#7a93350b89)"><g clip-path="url(#efbae5a74d)"><g clip-path="url(#10ff573930)"><path fill="#060b37" d="M 60.765625 78.578125 C 60.792969 78.527344 60.867188 78.421875 60.90625 78.300781 C 61.609375 76.203125 63.136719 74.605469 64.28125 72.777344 C 64.414062 72.566406 64.628906 72.410156 64.808594 72.230469 C 65.082031 71.960938 65.386719 71.71875 65.625 71.425781 C 66.675781 70.136719 67.953125 69.066406 69.0625 67.835938 C 69.261719 67.617188 69.476562 67.390625 69.726562 67.25 C 70.507812 66.808594 71.191406 66.234375 71.902344 65.695312 C 72.421875 65.304688 72.996094 65.046875 73.664062 65.054688 C 74.269531 65.058594 74.585938 65.59375 74.265625 66.109375 C 74.136719 66.320312 73.953125 66.511719 73.757812 66.664062 C 73.253906 67.046875 72.734375 67.417969 72.21875 67.789062 C 71.363281 68.402344 70.605469 69.15625 69.804688 69.851562 C 68.0625 71.367188 66.597656 73.136719 65.21875 74.972656 C 64.535156 75.886719 63.929688 76.875 63.363281 77.867188 C 62.585938 79.234375 61.882812 80.644531 61.136719 82.027344 C 60.21875 83.71875 59.589844 85.519531 59.046875 87.355469 C 58.820312 88.128906 58.601562 88.90625 58.359375 89.675781 C 58.144531 90.351562 58.140625 91.097656 58.054688 91.8125 C 58.023438 92.070312 57.964844 92.308594 57.792969 92.515625 C 57.59375 92.746094 57.15625 92.714844 57.042969 92.433594 C 56.949219 92.203125 56.867188 91.949219 56.863281 91.703125 C 56.851562 90.894531 56.90625 90.085938 57.25 89.332031 C 57.425781 88.933594 57.519531 88.535156 57.539062 88.101562 C 57.570312 87.292969 57.683594 86.488281 57.953125 85.722656 C 58.574219 83.96875 58.890625 82.105469 59.867188 80.476562 C 60.21875 79.898438 60.253906 79.164062 60.765625 78.578125 " fill-opacity="1" fill-rule="nonzero"/></g></g></g><g clip-path="url(#10b7c55886)"><g clip-path="url(#7746e95a5c)"><g clip-path="url(#6539a9ebdf)"><path fill="#060b37" d="M 110.480469 127.585938 C 110.589844 127.484375 110.785156 127.257812 111.023438 127.09375 C 111.753906 126.589844 112.496094 126.101562 113.238281 125.621094 C 113.914062 125.1875 114.59375 124.761719 115.28125 124.351562 C 115.726562 124.085938 116.058594 123.707031 116.414062 123.34375 C 116.742188 123.007812 117.105469 122.710938 117.59375 122.652344 C 117.753906 122.632812 117.925781 122.664062 118.085938 122.699219 C 118.28125 122.742188 118.40625 123.058594 118.296875 123.214844 C 118.199219 123.355469 118.097656 123.492188 117.96875 123.601562 C 116.570312 124.820312 115.191406 126.070312 113.644531 127.09375 C 112.804688 127.652344 111.855469 128.042969 110.945312 128.488281 C 110.75 128.582031 110.527344 128.519531 110.398438 128.3125 C 110.273438 128.117188 110.289062 127.910156 110.480469 127.585938 " fill-opacity="1" fill-rule="nonzero"/></g></g></g><g clip-path="url(#62dfda840f)"><g clip-path="url(#314d9ef430)"><g clip-path="url(#fed3564a42)"><path fill="#060b37" d="M 58.828125 108.148438 C 58.929688 108.117188 59.011719 108.070312 59.082031 108.082031 C 59.160156 108.089844 59.265625 108.144531 59.289062 108.203125 C 59.71875 109.425781 60.792969 110.367188 60.832031 111.761719 C 60.84375 112.066406 61.058594 112.296875 61.1875 112.5625 C 61.546875 113.273438 61.863281 114.011719 62.183594 114.746094 C 62.230469 114.855469 62.210938 115.003906 62.078125 115.0625 C 61.945312 115.117188 61.820312 115.039062 61.757812 114.933594 C 61.417969 114.359375 60.902344 113.875 60.863281 113.144531 C 60.84375 112.785156 60.59375 112.539062 60.40625 112.257812 C 59.777344 111.308594 59.1875 110.335938 58.878906 109.222656 C 58.808594 108.980469 58.753906 108.734375 58.726562 108.484375 C 58.71875 108.371094 58.796875 108.25 58.828125 108.148438 " fill-opacity="1" fill-rule="nonzero"/></g></g></g><g clip-path="url(#6fb8e10091)"><g clip-path="url(#540fc555d5)"><g clip-path="url(#c74f634312)"><path fill="#060b37" d="M 68.238281 122.984375 C 67.726562 122.503906 67.203125 122.027344 66.699219 121.523438 C 66.558594 121.382812 66.460938 121.1875 66.382812 120.996094 C 66.320312 120.839844 66.347656 120.660156 66.488281 120.539062 C 66.632812 120.414062 66.800781 120.425781 66.945312 120.535156 C 67.679688 121.109375 68.300781 121.777344 68.667969 122.652344 C 68.714844 122.769531 68.753906 122.917969 68.617188 122.984375 C 68.523438 123.03125 68.390625 122.988281 68.238281 122.984375 " fill-opacity="1" fill-rule="nonzero"/></g></g></g><g clip-path="url(#6fb66ee619)"><g clip-path="url(#5fd2d9561a)"><g clip-path="url(#48cd611a94)"><path fill="#060b37" d="M 57.511719 103.128906 C 57.613281 103.121094 57.714844 103.082031 57.761719 103.117188 C 58.015625 103.300781 58.105469 103.585938 58.164062 103.871094 C 58.269531 104.410156 58.40625 104.925781 58.699219 105.398438 C 58.875 105.6875 58.9375 106.03125 58.816406 106.367188 C 58.777344 106.46875 58.675781 106.589844 58.578125 106.621094 C 58.480469 106.652344 58.324219 106.609375 58.242188 106.542969 C 57.9375 106.292969 57.738281 105.960938 57.769531 105.558594 C 57.824219 104.839844 57.761719 104.148438 57.460938 103.480469 C 57.421875 103.390625 57.492188 103.246094 57.511719 103.128906 " fill-opacity="1" fill-rule="nonzero"/></g></g></g><g clip-path="url(#d5c68ccf3a)"><g clip-path="url(#b74340c6f7)"><g clip-path="url(#39902d5bc4)"><path fill="#060b37" d="M 63.261719 116.75 C 63.355469 116.726562 63.480469 116.65625 63.578125 116.683594 C 63.941406 116.777344 64.113281 117.042969 64.085938 117.425781 C 64.070312 117.625 63.914062 117.710938 63.738281 117.699219 C 63.386719 117.667969 63.175781 117.40625 63.171875 117.011719 C 63.171875 116.9375 63.222656 116.863281 63.261719 116.75 " fill-opacity="1" fill-rule="nonzero"/></g></g></g><g clip-path="url(#5e4999177e)"><g clip-path="url(#ff8a74d04d)"><g clip-path="url(#94c339454c)"><path fill="#060b37" d="M 57.042969 97.191406 C 56.757812 97.0625 56.660156 96.800781 56.785156 96.472656 C 56.847656 96.296875 56.984375 96.207031 57.164062 96.253906 C 57.488281 96.339844 57.640625 96.738281 57.464844 97.046875 C 57.375 97.203125 57.21875 97.25 57.042969 97.191406 " fill-opacity="1" fill-rule="nonzero"/></g></g></g><g clip-path="url(#f11edc181c)"><g clip-path="url(#fabfcf5127)"><g clip-path="url(#5da3985a39)"><path fill="#060b37" d="M 132.136719 97.113281 C 132.011719 97.269531 131.855469 97.289062 131.699219 97.191406 C 131.503906 97.070312 131.421875 96.878906 131.523438 96.660156 C 131.601562 96.492188 131.769531 96.433594 131.9375 96.492188 C 132.175781 96.570312 132.269531 96.898438 132.136719 97.113281 " fill-opacity="1" fill-rule="nonzero"/></g></g></g><g clip-path="url(#39a0f7f35f)"><g clip-path="url(#a1a6235471)"><g clip-path="url(#fe93348cf6)"><path fill="#060b37" d="M 65.0625 119.011719 C 65.183594 118.9375 65.300781 118.96875 65.394531 119.054688 C 65.492188 119.144531 65.53125 119.273438 65.429688 119.371094 C 65.328125 119.46875 65.199219 119.421875 65.105469 119.335938 C 65.011719 119.242188 64.980469 119.132812 65.0625 119.011719 " fill-opacity="1" fill-rule="nonzero"/></g></g></g><g fill="#060b37" fill-opacity="1"><g transform="translate(50.099527, 80.330625)"><g><path d="M -5.5625 -6.96875 C -5.332031 -7.507812 -5.03125 -7.976562 -4.65625 -8.375 C -4.289062 -8.78125 -3.875 -9.082031 -3.40625 -9.28125 C -2.9375 -9.476562 -2.429688 -9.578125 -1.890625 -9.578125 C -1.359375 -9.578125 -0.816406 -9.460938 -0.265625 -9.234375 C 0.046875 -9.097656 0.335938 -8.929688 0.609375 -8.734375 C 0.878906 -8.535156 1.125 -8.3125 1.34375 -8.0625 C 1.5625 -7.8125 1.738281 -7.535156 1.875 -7.234375 C 2.007812 -6.929688 2.109375 -6.613281 2.171875 -6.28125 C 2.234375 -5.945312 2.242188 -5.601562 2.203125 -5.25 C 2.171875 -4.894531 2.078125 -4.535156 1.921875 -4.171875 C 1.691406 -3.617188 1.390625 -3.144531 1.015625 -2.75 C 0.648438 -2.351562 0.234375 -2.050781 -0.234375 -1.84375 C -0.710938 -1.644531 -1.210938 -1.539062 -1.734375 -1.53125 C -2.265625 -1.53125 -2.8125 -1.648438 -3.375 -1.890625 C -3.6875 -2.015625 -3.976562 -2.175781 -4.25 -2.375 C -4.53125 -2.582031 -4.773438 -2.8125 -4.984375 -3.0625 C -5.203125 -3.320312 -5.382812 -3.597656 -5.53125 -3.890625 C -5.675781 -4.191406 -5.78125 -4.507812 -5.84375 -4.84375 C -5.90625 -5.175781 -5.910156 -5.519531 -5.859375 -5.875 C -5.816406 -6.238281 -5.71875 -6.601562 -5.5625 -6.96875 Z M 1.484375 -4.359375 C 1.640625 -4.722656 1.710938 -5.082031 1.703125 -5.4375 C 1.691406 -5.800781 1.609375 -6.144531 1.453125 -6.46875 C 1.296875 -6.800781 1.0625 -7.097656 0.75 -7.359375 C 0.445312 -7.628906 0.0625 -7.863281 -0.40625 -8.0625 C -0.914062 -8.269531 -1.410156 -8.40625 -1.890625 -8.46875 C -2.378906 -8.539062 -2.832031 -8.53125 -3.25 -8.4375 C -3.664062 -8.34375 -4.035156 -8.15625 -4.359375 -7.875 C -4.679688 -7.601562 -4.9375 -7.238281 -5.125 -6.78125 C -5.28125 -6.414062 -5.351562 -6.054688 -5.34375 -5.703125 C -5.34375 -5.347656 -5.265625 -5.003906 -5.109375 -4.671875 C -4.960938 -4.347656 -4.734375 -4.046875 -4.421875 -3.765625 C -4.109375 -3.492188 -3.722656 -3.265625 -3.265625 -3.078125 C -2.753906 -2.859375 -2.253906 -2.710938 -1.765625 -2.640625 C -1.285156 -2.578125 -0.835938 -2.597656 -0.421875 -2.703125 C -0.00390625 -2.804688 0.367188 -2.992188 0.703125 -3.265625 C 1.035156 -3.535156 1.296875 -3.898438 1.484375 -4.359375 Z M 1.484375 -4.359375 "/></g></g></g><g fill="#060b37" fill-opacity="1"><g transform="translate(54.295412, 70.886914)"><g><path d="M -1.34375 -9.46875 L -1.375 -9.40625 C -1.738281 -9.332031 -2.09375 -9.175781 -2.4375 -8.9375 C -2.789062 -8.707031 -3.101562 -8.398438 -3.375 -8.015625 C -3.632812 -7.640625 -3.8125 -7.253906 -3.90625 -6.859375 C -4.007812 -6.472656 -4.03125 -6.09375 -3.96875 -5.71875 C -3.90625 -5.351562 -3.753906 -4.992188 -3.515625 -4.640625 C -3.273438 -4.296875 -2.953125 -3.984375 -2.546875 -3.703125 C -2.085938 -3.378906 -1.625 -3.140625 -1.15625 -2.984375 C -0.6875 -2.835938 -0.234375 -2.78125 0.203125 -2.8125 C 0.648438 -2.84375 1.078125 -2.976562 1.484375 -3.21875 C 1.898438 -3.457031 2.269531 -3.804688 2.59375 -4.265625 C 2.707031 -4.429688 2.800781 -4.613281 2.875 -4.8125 C 2.957031 -5.007812 3.015625 -5.207031 3.046875 -5.40625 C 3.085938 -5.613281 3.109375 -5.816406 3.109375 -6.015625 C 3.109375 -6.222656 3.082031 -6.425781 3.03125 -6.625 L 3.09375 -6.65625 L 3.75 -5.671875 C 3.675781 -5.390625 3.570312 -5.097656 3.4375 -4.796875 C 3.300781 -4.503906 3.140625 -4.222656 2.953125 -3.953125 C 2.578125 -3.410156 2.148438 -2.96875 1.671875 -2.625 C 1.203125 -2.28125 0.707031 -2.046875 0.1875 -1.921875 C -0.320312 -1.796875 -0.835938 -1.78125 -1.359375 -1.875 C -1.890625 -1.976562 -2.40625 -2.203125 -2.90625 -2.546875 C -3.175781 -2.742188 -3.421875 -2.972656 -3.640625 -3.234375 C -3.867188 -3.492188 -4.054688 -3.773438 -4.203125 -4.078125 C -4.359375 -4.390625 -4.46875 -4.71875 -4.53125 -5.0625 C -4.59375 -5.414062 -4.609375 -5.773438 -4.578125 -6.140625 C -4.546875 -6.503906 -4.457031 -6.867188 -4.3125 -7.234375 C -4.175781 -7.609375 -3.984375 -7.972656 -3.734375 -8.328125 C -3.335938 -8.898438 -2.882812 -9.375 -2.375 -9.75 Z M -1.34375 -9.46875 "/></g></g></g><g fill="#060b37" fill-opacity="1"><g transform="translate(59.503886, 63.610802)"><g><path d="M 1.875 -6.875 C 1.757812 -6.769531 1.625 -6.644531 1.46875 -6.5 C 1.320312 -6.363281 1.15625 -6.207031 0.96875 -6.03125 C 0.789062 -5.863281 0.597656 -5.679688 0.390625 -5.484375 C 0.191406 -5.296875 0 -5.113281 -0.1875 -4.9375 C -0.382812 -4.757812 -0.5625 -4.585938 -0.71875 -4.421875 C -0.882812 -4.265625 -1.035156 -4.125 -1.171875 -4 L -0.0625 -2.828125 C 0.144531 -2.609375 0.328125 -2.421875 0.484375 -2.265625 C 0.640625 -2.109375 0.78125 -1.972656 0.90625 -1.859375 C 1.03125 -1.753906 1.140625 -1.671875 1.234375 -1.609375 C 1.328125 -1.546875 1.410156 -1.488281 1.484375 -1.4375 L 1.5 -1.421875 L 0.546875 -0.53125 L 0.53125 -0.546875 C 0.5 -0.617188 0.453125 -0.703125 0.390625 -0.796875 C 0.328125 -0.890625 0.242188 -1 0.140625 -1.125 C 0.0351562 -1.257812 -0.0859375 -1.410156 -0.234375 -1.578125 C -0.378906 -1.742188 -0.554688 -1.9375 -0.765625 -2.15625 L -3.1875 -4.6875 C -3.394531 -4.90625 -3.578125 -5.09375 -3.734375 -5.25 C -3.898438 -5.414062 -4.046875 -5.550781 -4.171875 -5.65625 C -4.296875 -5.769531 -4.40625 -5.859375 -4.5 -5.921875 C -4.59375 -5.992188 -4.675781 -6.050781 -4.75 -6.09375 L -4.765625 -6.109375 L -3.8125 -7 L -3.796875 -6.984375 C -3.765625 -6.921875 -3.71875 -6.835938 -3.65625 -6.734375 C -3.59375 -6.640625 -3.507812 -6.523438 -3.40625 -6.390625 C -3.300781 -6.265625 -3.171875 -6.113281 -3.015625 -5.9375 C -2.867188 -5.769531 -2.691406 -5.578125 -2.484375 -5.359375 L -1.53125 -4.375 C -1.394531 -4.507812 -1.238281 -4.65625 -1.0625 -4.8125 C -0.882812 -4.96875 -0.703125 -5.132812 -0.515625 -5.3125 C -0.335938 -5.488281 -0.15625 -5.671875 0.03125 -5.859375 C 0.226562 -6.046875 0.410156 -6.222656 0.578125 -6.390625 C 0.753906 -6.566406 0.921875 -6.734375 1.078125 -6.890625 C 1.234375 -7.054688 1.367188 -7.191406 1.484375 -7.296875 L 0.5625 -8.25 C 0.351562 -8.46875 0.164062 -8.65625 0 -8.8125 C -0.164062 -8.96875 -0.304688 -9.101562 -0.421875 -9.21875 C -0.546875 -9.332031 -0.65625 -9.421875 -0.75 -9.484375 C -0.84375 -9.554688 -0.925781 -9.613281 -1 -9.65625 L -1.015625 -9.671875 L -0.078125 -10.5625 L -0.0625 -10.546875 C -0.0195312 -10.484375 0.03125 -10.398438 0.09375 -10.296875 C 0.15625 -10.203125 0.238281 -10.085938 0.34375 -9.953125 C 0.445312 -9.828125 0.570312 -9.675781 0.71875 -9.5 C 0.875 -9.332031 1.054688 -9.140625 1.265625 -8.921875 L 3.6875 -6.390625 C 3.894531 -6.171875 4.078125 -5.984375 4.234375 -5.828125 C 4.390625 -5.671875 4.53125 -5.535156 4.65625 -5.421875 C 4.78125 -5.316406 4.890625 -5.234375 4.984375 -5.171875 C 5.078125 -5.109375 5.15625 -5.050781 5.21875 -5 L 5.234375 -4.984375 L 4.296875 -4.09375 L 4.28125 -4.109375 C 4.25 -4.179688 4.203125 -4.265625 4.140625 -4.359375 C 4.078125 -4.453125 3.988281 -4.5625 3.875 -4.6875 C 3.769531 -4.8125 3.644531 -4.957031 3.5 -5.125 C 3.363281 -5.300781 3.191406 -5.5 2.984375 -5.71875 Z M 1.875 -6.875 "/></g></g></g><g fill="#060b37" fill-opacity="1"><g transform="translate(66.431583, 57.173598)"><g><path d="M -0.375 -8.921875 C 0.125 -9.222656 0.640625 -9.421875 1.171875 -9.515625 C 1.710938 -9.617188 2.226562 -9.613281 2.71875 -9.5 C 3.21875 -9.382812 3.679688 -9.171875 4.109375 -8.859375 C 4.546875 -8.546875 4.921875 -8.132812 5.234375 -7.625 C 5.410156 -7.332031 5.550781 -7.023438 5.65625 -6.703125 C 5.757812 -6.378906 5.820312 -6.050781 5.84375 -5.71875 C 5.875 -5.382812 5.851562 -5.054688 5.78125 -4.734375 C 5.71875 -4.410156 5.613281 -4.097656 5.46875 -3.796875 C 5.320312 -3.492188 5.128906 -3.207031 4.890625 -2.9375 C 4.648438 -2.675781 4.363281 -2.441406 4.03125 -2.234375 C 3.507812 -1.921875 2.984375 -1.710938 2.453125 -1.609375 C 1.921875 -1.515625 1.398438 -1.519531 0.890625 -1.625 C 0.390625 -1.738281 -0.0703125 -1.953125 -0.5 -2.265625 C -0.925781 -2.578125 -1.296875 -2.992188 -1.609375 -3.515625 C -1.785156 -3.796875 -1.925781 -4.097656 -2.03125 -4.421875 C -2.132812 -4.753906 -2.195312 -5.085938 -2.21875 -5.421875 C -2.238281 -5.765625 -2.21875 -6.097656 -2.15625 -6.421875 C -2.101562 -6.742188 -2 -7.054688 -1.84375 -7.359375 C -1.695312 -7.660156 -1.5 -7.941406 -1.25 -8.203125 C -1.007812 -8.472656 -0.71875 -8.710938 -0.375 -8.921875 Z M 3.78125 -2.640625 C 4.113281 -2.847656 4.378906 -3.097656 4.578125 -3.390625 C 4.785156 -3.679688 4.921875 -4.003906 4.984375 -4.359375 C 5.046875 -4.722656 5.035156 -5.101562 4.953125 -5.5 C 4.867188 -5.90625 4.695312 -6.320312 4.4375 -6.75 C 4.144531 -7.21875 3.820312 -7.617188 3.46875 -7.953125 C 3.125 -8.285156 2.753906 -8.539062 2.359375 -8.71875 C 1.960938 -8.894531 1.554688 -8.960938 1.140625 -8.921875 C 0.722656 -8.890625 0.300781 -8.75 -0.125 -8.5 C -0.46875 -8.289062 -0.742188 -8.039062 -0.953125 -7.75 C -1.160156 -7.457031 -1.296875 -7.140625 -1.359375 -6.796875 C -1.429688 -6.453125 -1.425781 -6.070312 -1.34375 -5.65625 C -1.257812 -5.25 -1.085938 -4.832031 -0.828125 -4.40625 C -0.546875 -3.9375 -0.226562 -3.53125 0.125 -3.1875 C 0.476562 -2.851562 0.851562 -2.601562 1.25 -2.4375 C 1.65625 -2.269531 2.070312 -2.195312 2.5 -2.21875 C 2.925781 -2.238281 3.351562 -2.378906 3.78125 -2.640625 Z M 3.78125 -2.640625 "/></g></g></g><g fill="#060b37" fill-opacity="1"><g transform="translate(75.393569, 52.029924)"><g><path d="M 5.765625 -1.984375 L 5.765625 -2 C 5.765625 -2.019531 5.757812 -2.046875 5.75 -2.078125 C 5.75 -2.117188 5.742188 -2.15625 5.734375 -2.1875 C 5.703125 -2.289062 5.644531 -2.398438 5.5625 -2.515625 C 5.488281 -2.628906 5.375 -2.765625 5.21875 -2.921875 L 4.140625 -4.09375 C 3.953125 -4.039062 3.695312 -3.957031 3.375 -3.84375 C 3.0625 -3.738281 2.722656 -3.625 2.359375 -3.5 C 2.085938 -3.40625 1.828125 -3.316406 1.578125 -3.234375 C 1.328125 -3.148438 1.109375 -3.066406 0.921875 -2.984375 L 0.796875 -1.4375 C 0.785156 -1.300781 0.773438 -1.144531 0.765625 -0.96875 C 0.765625 -0.800781 0.789062 -0.644531 0.84375 -0.5 C 0.851562 -0.457031 0.867188 -0.421875 0.890625 -0.390625 C 0.910156 -0.367188 0.925781 -0.351562 0.9375 -0.34375 L 0.9375 -0.328125 L -0.109375 0.03125 L -0.109375 0.015625 C -0.078125 -0.078125 -0.0390625 -0.21875 0 -0.40625 C 0.0390625 -0.601562 0.0703125 -0.835938 0.09375 -1.109375 L 0.78125 -8.59375 L 1.171875 -8.71875 L 6.078125 -3.453125 C 6.203125 -3.328125 6.320312 -3.210938 6.4375 -3.109375 C 6.550781 -3.003906 6.65625 -2.90625 6.75 -2.8125 C 6.84375 -2.726562 6.925781 -2.65625 7 -2.59375 C 7.082031 -2.53125 7.132812 -2.492188 7.15625 -2.484375 L 7.15625 -2.46875 Z M 1.5 -3.6875 C 1.695312 -3.757812 1.894531 -3.832031 2.09375 -3.90625 C 2.300781 -3.976562 2.503906 -4.046875 2.703125 -4.109375 C 2.898438 -4.179688 3.085938 -4.25 3.265625 -4.3125 C 3.453125 -4.375 3.617188 -4.4375 3.765625 -4.5 L 1.234375 -7.234375 L 0.953125 -3.5 Z M 1.5 -3.6875 "/></g></g></g><g fill="#060b37" fill-opacity="1"><g transform="translate(84.146937, 49.348402)"><g><path d="M 0.03125 -7.828125 C 0.0195312 -7.804688 0.015625 -7.773438 0.015625 -7.734375 C 0.015625 -7.691406 0.015625 -7.625 0.015625 -7.53125 C 0.015625 -7.445312 0.015625 -7.335938 0.015625 -7.203125 C 0.0234375 -7.066406 0.0351562 -6.894531 0.046875 -6.6875 C 0.0664062 -6.488281 0.0859375 -6.238281 0.109375 -5.9375 C 0.128906 -5.644531 0.148438 -5.300781 0.171875 -4.90625 L -0.0625 -4.859375 C -0.1875 -5.242188 -0.296875 -5.570312 -0.390625 -5.84375 C -0.484375 -6.125 -0.5625 -6.363281 -0.625 -6.5625 C -0.6875 -6.757812 -0.738281 -6.921875 -0.78125 -7.046875 C -0.832031 -7.171875 -0.867188 -7.273438 -0.890625 -7.359375 C -0.921875 -7.441406 -0.945312 -7.5 -0.96875 -7.53125 C -1 -7.570312 -1.019531 -7.601562 -1.03125 -7.625 L -1.03125 -7.640625 L 0.03125 -7.84375 Z M 0.03125 -7.828125 "/></g></g></g><g fill="#060b37" fill-opacity="1"><g transform="translate(87.837567, 48.653644)"><g><path d="M 3.484375 -6.765625 L 3.359375 -6.75 C 3.328125 -6.820312 3.273438 -6.90625 3.203125 -7 C 3.128906 -7.101562 3.039062 -7.195312 2.9375 -7.28125 C 2.832031 -7.375 2.703125 -7.445312 2.546875 -7.5 C 2.398438 -7.550781 2.234375 -7.566406 2.046875 -7.546875 C 1.867188 -7.535156 1.710938 -7.492188 1.578125 -7.421875 C 1.453125 -7.359375 1.347656 -7.273438 1.265625 -7.171875 C 1.179688 -7.078125 1.117188 -6.957031 1.078125 -6.8125 C 1.046875 -6.675781 1.035156 -6.53125 1.046875 -6.375 C 1.066406 -6.113281 1.15625 -5.867188 1.3125 -5.640625 C 1.46875 -5.421875 1.664062 -5.203125 1.90625 -4.984375 C 2.144531 -4.773438 2.394531 -4.566406 2.65625 -4.359375 C 2.925781 -4.148438 3.175781 -3.929688 3.40625 -3.703125 C 3.644531 -3.472656 3.847656 -3.226562 4.015625 -2.96875 C 4.179688 -2.71875 4.273438 -2.4375 4.296875 -2.125 C 4.316406 -1.882812 4.296875 -1.644531 4.234375 -1.40625 C 4.179688 -1.164062 4.070312 -0.945312 3.90625 -0.75 C 3.75 -0.5625 3.539062 -0.394531 3.28125 -0.25 C 3.03125 -0.113281 2.726562 -0.03125 2.375 0 C 2.175781 0.0078125 1.976562 0.00390625 1.78125 -0.015625 C 1.59375 -0.046875 1.414062 -0.0820312 1.25 -0.125 C 1.09375 -0.164062 0.953125 -0.210938 0.828125 -0.265625 C 0.710938 -0.328125 0.609375 -0.382812 0.515625 -0.4375 L 0.5625 -1.625 L 0.703125 -1.640625 C 0.742188 -1.472656 0.816406 -1.3125 0.921875 -1.15625 C 1.023438 -1.007812 1.144531 -0.882812 1.28125 -0.78125 C 1.425781 -0.675781 1.582031 -0.597656 1.75 -0.546875 C 1.925781 -0.492188 2.113281 -0.472656 2.3125 -0.484375 C 2.5 -0.492188 2.660156 -0.53125 2.796875 -0.59375 C 2.929688 -0.65625 3.046875 -0.738281 3.140625 -0.84375 C 3.234375 -0.957031 3.300781 -1.082031 3.34375 -1.21875 C 3.382812 -1.363281 3.398438 -1.519531 3.390625 -1.6875 C 3.378906 -1.90625 3.320312 -2.101562 3.21875 -2.28125 C 3.125 -2.46875 3.003906 -2.644531 2.859375 -2.8125 C 2.722656 -2.976562 2.5625 -3.128906 2.375 -3.265625 C 2.195312 -3.410156 2.015625 -3.554688 1.828125 -3.703125 C 1.640625 -3.859375 1.453125 -4.015625 1.265625 -4.171875 C 1.078125 -4.328125 0.910156 -4.5 0.765625 -4.6875 C 0.617188 -4.875 0.492188 -5.078125 0.390625 -5.296875 C 0.285156 -5.515625 0.226562 -5.757812 0.21875 -6.03125 C 0.195312 -6.3125 0.226562 -6.566406 0.3125 -6.796875 C 0.40625 -7.035156 0.535156 -7.238281 0.703125 -7.40625 C 0.878906 -7.582031 1.078125 -7.722656 1.296875 -7.828125 C 1.523438 -7.941406 1.757812 -8.003906 2 -8.015625 C 2.175781 -8.035156 2.335938 -8.035156 2.484375 -8.015625 C 2.628906 -7.992188 2.765625 -7.96875 2.890625 -7.9375 C 3.015625 -7.90625 3.125 -7.875 3.21875 -7.84375 C 3.3125 -7.8125 3.390625 -7.785156 3.453125 -7.765625 Z M 3.484375 -6.765625 "/></g></g></g><g fill="#060b37" fill-opacity="1"><g transform="translate(94.575934, 48.322037)"><g/></g></g><g fill="#060b37" fill-opacity="1"><g transform="translate(99.519675, 48.535521)"><g><path d="M 2.6875 -7.28125 L 6.828125 -0.34375 L 7.640625 -4.046875 C 7.703125 -4.335938 7.753906 -4.59375 7.796875 -4.8125 C 7.847656 -5.039062 7.882812 -5.238281 7.90625 -5.40625 C 7.925781 -5.570312 7.9375 -5.707031 7.9375 -5.8125 C 7.945312 -5.925781 7.953125 -6.023438 7.953125 -6.109375 L 7.953125 -6.125 L 8.890625 -5.921875 L 8.890625 -5.90625 C 8.847656 -5.832031 8.804688 -5.742188 8.765625 -5.640625 C 8.722656 -5.535156 8.675781 -5.40625 8.625 -5.25 C 8.570312 -5.09375 8.515625 -4.898438 8.453125 -4.671875 C 8.398438 -4.453125 8.34375 -4.195312 8.28125 -3.90625 L 7.046875 1.671875 L 6.859375 1.625 L 2.75 -5.3125 L 1.953125 -1.71875 C 1.890625 -1.425781 1.832031 -1.171875 1.78125 -0.953125 C 1.738281 -0.734375 1.707031 -0.535156 1.6875 -0.359375 C 1.664062 -0.191406 1.65625 -0.0546875 1.65625 0.046875 C 1.65625 0.160156 1.648438 0.257812 1.640625 0.34375 L 1.640625 0.359375 L 0.703125 0.15625 L 0.703125 0.140625 C 0.742188 0.0546875 0.785156 -0.03125 0.828125 -0.125 C 0.867188 -0.226562 0.914062 -0.359375 0.96875 -0.515625 C 1.019531 -0.679688 1.070312 -0.875 1.125 -1.09375 C 1.1875 -1.3125 1.25 -1.566406 1.3125 -1.859375 L 2.0625 -5.28125 C 2.125 -5.570312 2.175781 -5.828125 2.21875 -6.046875 C 2.269531 -6.273438 2.304688 -6.472656 2.328125 -6.640625 C 2.347656 -6.804688 2.359375 -6.945312 2.359375 -7.0625 C 2.359375 -7.175781 2.359375 -7.269531 2.359375 -7.34375 L 2.359375 -7.359375 Z M 2.6875 -7.28125 "/></g></g></g><g fill="#060b37" fill-opacity="1"><g transform="translate(108.849277, 50.717239)"><g><path d="M 7.1875 -5.28125 C 7.726562 -5.03125 8.1875 -4.710938 8.5625 -4.328125 C 8.945312 -3.941406 9.226562 -3.507812 9.40625 -3.03125 C 9.582031 -2.550781 9.660156 -2.039062 9.640625 -1.5 C 9.628906 -0.96875 9.5 -0.429688 9.25 0.109375 C 9.101562 0.421875 8.925781 0.707031 8.71875 0.96875 C 8.507812 1.226562 8.269531 1.460938 8 1.671875 C 7.738281 1.878906 7.457031 2.046875 7.15625 2.171875 C 6.851562 2.296875 6.535156 2.378906 6.203125 2.421875 C 5.867188 2.472656 5.519531 2.472656 5.15625 2.421875 C 4.800781 2.367188 4.441406 2.257812 4.078125 2.09375 C 3.535156 1.84375 3.078125 1.519531 2.703125 1.125 C 2.328125 0.738281 2.046875 0.3125 1.859375 -0.15625 C 1.679688 -0.632812 1.597656 -1.140625 1.609375 -1.671875 C 1.617188 -2.203125 1.753906 -2.742188 2.015625 -3.296875 C 2.148438 -3.597656 2.320312 -3.882812 2.53125 -4.15625 C 2.75 -4.425781 2.988281 -4.660156 3.25 -4.859375 C 3.519531 -5.066406 3.804688 -5.234375 4.109375 -5.359375 C 4.421875 -5.492188 4.742188 -5.585938 5.078125 -5.640625 C 5.410156 -5.691406 5.753906 -5.6875 6.109375 -5.625 C 6.472656 -5.5625 6.832031 -5.445312 7.1875 -5.28125 Z M 4.28125 1.65625 C 4.644531 1.820312 5.003906 1.90625 5.359375 1.90625 C 5.722656 1.914062 6.070312 1.847656 6.40625 1.703125 C 6.738281 1.554688 7.046875 1.332031 7.328125 1.03125 C 7.609375 0.738281 7.851562 0.367188 8.0625 -0.078125 C 8.300781 -0.578125 8.460938 -1.066406 8.546875 -1.546875 C 8.640625 -2.023438 8.644531 -2.472656 8.5625 -2.890625 C 8.476562 -3.316406 8.304688 -3.695312 8.046875 -4.03125 C 7.785156 -4.363281 7.425781 -4.632812 6.96875 -4.84375 C 6.613281 -5.007812 6.257812 -5.097656 5.90625 -5.109375 C 5.550781 -5.128906 5.207031 -5.066406 4.875 -4.921875 C 4.550781 -4.773438 4.242188 -4.550781 3.953125 -4.25 C 3.671875 -3.957031 3.425781 -3.585938 3.21875 -3.140625 C 2.976562 -2.640625 2.8125 -2.144531 2.71875 -1.65625 C 2.632812 -1.175781 2.632812 -0.726562 2.71875 -0.3125 C 2.800781 0.101562 2.96875 0.484375 3.21875 0.828125 C 3.476562 1.171875 3.832031 1.445312 4.28125 1.65625 Z M 4.28125 1.65625 "/></g></g></g><g fill="#060b37" fill-opacity="1"><g transform="translate(118.12252, 55.334552)"><g><path d="M 6.5625 -4.140625 C 6.21875 -4.398438 5.894531 -4.609375 5.59375 -4.765625 C 5.300781 -4.929688 5.039062 -5.078125 4.8125 -5.203125 C 4.5625 -5.328125 4.320312 -5.429688 4.09375 -5.515625 L 4.75 -6.125 C 4.769531 -6.09375 4.816406 -6.050781 4.890625 -6 C 4.960938 -5.945312 5.035156 -5.890625 5.109375 -5.828125 C 5.191406 -5.765625 5.28125 -5.695312 5.375 -5.625 C 5.46875 -5.550781 5.554688 -5.484375 5.640625 -5.421875 C 5.722656 -5.359375 5.796875 -5.300781 5.859375 -5.25 C 5.929688 -5.195312 5.976562 -5.160156 6 -5.140625 L 8.453125 -3.3125 C 8.484375 -3.289062 8.53125 -3.253906 8.59375 -3.203125 C 8.664062 -3.160156 8.742188 -3.109375 8.828125 -3.046875 C 8.910156 -2.992188 9 -2.929688 9.09375 -2.859375 C 9.1875 -2.785156 9.273438 -2.71875 9.359375 -2.65625 C 9.453125 -2.601562 9.53125 -2.550781 9.59375 -2.5 C 9.664062 -2.445312 9.722656 -2.414062 9.765625 -2.40625 L 9.359375 -1.609375 C 9.222656 -1.796875 9.054688 -1.992188 8.859375 -2.203125 C 8.679688 -2.378906 8.46875 -2.585938 8.21875 -2.828125 C 7.96875 -3.066406 7.671875 -3.3125 7.328125 -3.5625 L 4.265625 0.5625 C 4.085938 0.8125 3.9375 1.023438 3.8125 1.203125 C 3.6875 1.390625 3.578125 1.550781 3.484375 1.6875 C 3.398438 1.832031 3.332031 1.953125 3.28125 2.046875 C 3.226562 2.148438 3.191406 2.242188 3.171875 2.328125 L 3.15625 2.34375 L 2.125 1.578125 L 2.140625 1.5625 C 2.191406 1.507812 2.257812 1.441406 2.34375 1.359375 C 2.4375 1.285156 2.535156 1.1875 2.640625 1.0625 C 2.742188 0.9375 2.867188 0.785156 3.015625 0.609375 C 3.160156 0.441406 3.320312 0.234375 3.5 -0.015625 Z M 6.5625 -4.140625 "/></g></g></g><g fill="#060b37" fill-opacity="1"><g transform="translate(124.579648, 60.256505)"><g><path d="M 4.125 4.484375 L 4.140625 4.46875 C 4.160156 4.46875 4.179688 4.453125 4.203125 4.421875 C 4.234375 4.398438 4.265625 4.378906 4.296875 4.359375 C 4.367188 4.285156 4.441406 4.191406 4.515625 4.078125 C 4.597656 3.972656 4.679688 3.816406 4.765625 3.609375 L 5.40625 2.140625 C 5.289062 1.992188 5.117188 1.796875 4.890625 1.546875 C 4.660156 1.304688 4.414062 1.046875 4.15625 0.765625 C 3.957031 0.546875 3.769531 0.34375 3.59375 0.15625 C 3.414062 -0.03125 3.253906 -0.203125 3.109375 -0.359375 L 1.640625 0.140625 C 1.503906 0.203125 1.359375 0.257812 1.203125 0.3125 C 1.046875 0.375 0.910156 0.457031 0.796875 0.5625 C 0.753906 0.601562 0.722656 0.632812 0.703125 0.65625 C 0.691406 0.6875 0.6875 0.703125 0.6875 0.703125 L 0.671875 0.71875 L -0.078125 -0.078125 L -0.0625 -0.09375 C 0.03125 -0.09375 0.171875 -0.113281 0.359375 -0.15625 C 0.554688 -0.207031 0.796875 -0.28125 1.078125 -0.375 L 8.171875 -2.734375 L 8.453125 -2.421875 L 5.609375 4.1875 C 5.546875 4.34375 5.484375 4.492188 5.421875 4.640625 C 5.367188 4.785156 5.320312 4.921875 5.28125 5.046875 C 5.238281 5.171875 5.203125 5.28125 5.171875 5.375 C 5.148438 5.46875 5.140625 5.523438 5.140625 5.546875 L 5.125 5.5625 Z M 3.96875 -0.109375 C 4.113281 0.046875 4.257812 0.203125 4.40625 0.359375 C 4.5625 0.515625 4.710938 0.671875 4.859375 0.828125 C 5.003906 0.984375 5.140625 1.128906 5.265625 1.265625 C 5.398438 1.410156 5.523438 1.539062 5.640625 1.65625 L 7.109375 -1.765625 L 3.578125 -0.53125 Z M 3.96875 -0.109375 "/></g></g></g><g fill="#060b37" fill-opacity="1"><g transform="translate(130.535335, 67.01407)"><g><path d="M 2.78125 0.515625 C 2.519531 0.679688 2.296875 0.820312 2.109375 0.9375 C 1.929688 1.050781 1.773438 1.160156 1.640625 1.265625 C 1.503906 1.367188 1.394531 1.457031 1.3125 1.53125 C 1.238281 1.601562 1.171875 1.671875 1.109375 1.734375 L 1.09375 1.75 L 0.40625 0.65625 L 0.421875 0.640625 C 0.503906 0.609375 0.59375 0.570312 0.6875 0.53125 C 0.789062 0.5 0.914062 0.441406 1.0625 0.359375 C 1.21875 0.273438 1.390625 0.179688 1.578125 0.078125 C 1.773438 -0.0234375 2.003906 -0.160156 2.265625 -0.328125 L 5.234375 -2.171875 C 5.492188 -2.328125 5.71875 -2.472656 5.90625 -2.609375 C 6.09375 -2.742188 6.253906 -2.851562 6.390625 -2.9375 C 6.523438 -3.03125 6.632812 -3.117188 6.71875 -3.203125 C 6.800781 -3.285156 6.875 -3.351562 6.9375 -3.40625 L 6.953125 -3.40625 L 7.0625 -3.21875 C 7.082031 -3.15625 7.113281 -3.085938 7.15625 -3.015625 C 7.195312 -2.941406 7.242188 -2.863281 7.296875 -2.78125 C 7.367188 -2.664062 7.476562 -2.515625 7.625 -2.328125 C 7.78125 -2.140625 7.957031 -1.890625 8.15625 -1.578125 C 8.332031 -1.285156 8.457031 -0.992188 8.53125 -0.703125 C 8.613281 -0.410156 8.632812 -0.125 8.59375 0.15625 C 8.5625 0.4375 8.460938 0.691406 8.296875 0.921875 C 8.140625 1.160156 7.921875 1.367188 7.640625 1.546875 C 7.429688 1.679688 7.210938 1.78125 6.984375 1.84375 C 6.753906 1.90625 6.535156 1.929688 6.328125 1.921875 C 6.117188 1.921875 5.910156 1.882812 5.703125 1.8125 C 5.492188 1.75 5.300781 1.648438 5.125 1.515625 L 3.84375 4.5 C 3.78125 4.65625 3.726562 4.789062 3.6875 4.90625 C 3.65625 5.03125 3.628906 5.144531 3.609375 5.25 C 3.585938 5.351562 3.570312 5.441406 3.5625 5.515625 C 3.5625 5.597656 3.570312 5.675781 3.59375 5.75 L 3.578125 5.765625 L 2.75 4.4375 C 2.8125 4.382812 2.875 4.300781 2.9375 4.1875 C 3 4.082031 3.054688 3.972656 3.109375 3.859375 L 4.375 0.828125 C 4.332031 0.753906 4.285156 0.6875 4.234375 0.625 C 4.179688 0.5625 4.132812 0.492188 4.09375 0.421875 C 4.039062 0.328125 3.988281 0.234375 3.9375 0.140625 C 3.894531 0.0546875 3.851562 -0.03125 3.8125 -0.125 Z M 4.171875 -0.34375 C 4.203125 -0.257812 4.238281 -0.171875 4.28125 -0.078125 C 4.332031 0.00390625 4.382812 0.0859375 4.4375 0.171875 C 4.582031 0.398438 4.742188 0.585938 4.921875 0.734375 C 5.097656 0.890625 5.296875 0.984375 5.515625 1.015625 C 5.742188 1.054688 5.984375 1.050781 6.234375 1 C 6.492188 0.945312 6.769531 0.832031 7.0625 0.65625 C 7.28125 0.519531 7.460938 0.367188 7.609375 0.203125 C 7.753906 0.0351562 7.863281 -0.140625 7.9375 -0.328125 C 8.007812 -0.515625 8.035156 -0.707031 8.015625 -0.90625 C 7.992188 -1.101562 7.921875 -1.300781 7.796875 -1.5 C 7.660156 -1.71875 7.539062 -1.878906 7.4375 -1.984375 C 7.332031 -2.097656 7.25 -2.175781 7.1875 -2.21875 Z M 4.171875 -0.34375 "/></g></g></g><g fill="#060b37" fill-opacity="1"><g transform="translate(134.687728, 73.9344)"><g><path d="M 4.890625 2.28125 L 3.390625 2.875 C 3.109375 2.988281 2.863281 3.085938 2.65625 3.171875 C 2.445312 3.253906 2.265625 3.332031 2.109375 3.40625 C 1.960938 3.476562 1.835938 3.546875 1.734375 3.609375 C 1.640625 3.671875 1.5625 3.726562 1.5 3.78125 L 1.484375 3.78125 L 1.015625 2.578125 L 1.03125 2.578125 C 1.113281 2.566406 1.207031 2.546875 1.3125 2.515625 C 1.425781 2.492188 1.5625 2.457031 1.71875 2.40625 C 1.882812 2.363281 2.070312 2.304688 2.28125 2.234375 C 2.488281 2.160156 2.734375 2.066406 3.015625 1.953125 L 4.40625 1.40625 L 6.5625 -2.015625 C 6.644531 -2.128906 6.710938 -2.242188 6.765625 -2.359375 C 6.828125 -2.472656 6.878906 -2.570312 6.921875 -2.65625 C 6.960938 -2.75 6.992188 -2.828125 7.015625 -2.890625 C 7.035156 -2.960938 7.046875 -3.023438 7.046875 -3.078125 L 7.0625 -3.09375 L 7.671875 -1.5625 C 7.585938 -1.53125 7.472656 -1.445312 7.328125 -1.3125 C 7.179688 -1.175781 7.019531 -0.976562 6.84375 -0.71875 L 5.234375 1.796875 L 8.21875 2.484375 C 8.320312 2.515625 8.425781 2.535156 8.53125 2.546875 C 8.644531 2.566406 8.75 2.582031 8.84375 2.59375 C 8.945312 2.613281 9.035156 2.625 9.109375 2.625 C 9.191406 2.632812 9.257812 2.628906 9.3125 2.609375 L 9.703125 3.578125 L 9.6875 3.59375 C 9.582031 3.539062 9.441406 3.476562 9.265625 3.40625 C 9.085938 3.34375 8.875 3.28125 8.625 3.21875 Z M 4.890625 2.28125 "/></g></g></g><g clip-path="url(#22df3f056d)"><path fill="#d2a113" d="M 75.082031 114.863281 C 75.867188 113.257812 76.542969 111.128906 76.910156 109.191406 C 77 108.726562 76.816406 108.261719 76.4375 107.984375 C 76.003906 107.660156 75.386719 107.289062 74.699219 107.183594 C 74.699219 107.183594 75.582031 106.703125 76.683594 107.167969 C 74.921875 105.933594 75.429688 96.976562 78.691406 91.375 C 78.679688 91.851562 78.671875 92.308594 78.660156 92.785156 C 79.488281 90.132812 81.296875 87.757812 83.683594 86.171875 C 82.605469 87.828125 82.019531 89.773438 82 91.730469 C 82.511719 89.441406 83.492188 87.175781 85.160156 85.457031 C 89.054688 81.433594 95.675781 81.101562 100.125 77.65625 C 100.046875 78.128906 99.71875 80.265625 99.644531 80.738281 C 100.492188 78.222656 104.496094 76.257812 106.199219 74.171875 C 106.167969 74.699219 106.128906 75.226562 106.109375 75.753906 C 106.421875 74.429688 107.625 73.488281 108.671875 72.554688 C 109.710938 71.613281 110.710938 70.339844 110.40625 69.015625 C 111.300781 72.308594 109.660156 76.085938 107.734375 78.824219 C 106.25 80.925781 101.195312 82.640625 98.597656 82.210938 C 99.128906 82.320312 102.324219 82.664062 102.847656 82.769531 C 98.4375 82.863281 89.910156 107.144531 79.640625 107.550781 C 81.382812 107.578125 82.796875 109.171875 82.796875 109.171875 C 82.796875 109.171875 80.09375 108.21875 78.925781 108.34375 C 78.636719 108.367188 81.515625 96.570312 92.566406 85.40625 C 80.78125 95.523438 78.148438 108.988281 78.058594 109.253906 C 77.109375 112.339844 76.039062 115.492188 74.027344 118.027344 C 73.75 118.378906 73.105469 118.683594 72.953125 118.277344 C 73.789062 117.199219 74.511719 116.0625 75.09375 114.863281 Z M 75.082031 114.863281 " fill-opacity="1" fill-rule="evenodd"/></g><g clip-path="url(#d7bfe26f12)"><path fill="#d2a113" d="M 101.421875 113.371094 C 101.421875 112.015625 98.121094 111.730469 96.53125 111.730469 L 96.132812 111.730469 C 92.015625 111.730469 86.515625 113.097656 83.449219 114.214844 C 81.550781 114.90625 79.71875 115.523438 77.894531 116.238281 C 77.335938 116.457031 75.535156 117.179688 74.195312 117.773438 C 74.128906 117.855469 74.074219 117.929688 74.011719 118.011719 C 73.972656 118.0625 73.921875 118.113281 73.871094 118.164062 C 74.351562 117.988281 74.847656 117.792969 75.289062 117.644531 C 76.207031 117.339844 77.011719 117.097656 77.933594 116.789062 C 79.476562 116.273438 81.683594 115.554688 83.285156 115.21875 C 87.0625 114.4375 90.671875 113.230469 95.214844 113.230469 L 95.742188 113.230469 C 96.546875 113.230469 99.042969 113.339844 99.042969 113.953125 C 99.042969 114.605469 96.191406 116.539062 95.621094 117.109375 C 94.828125 117.898438 93.160156 119.714844 93.160156 121.152344 C 93.160156 122.53125 94.746094 122.417969 95.277344 122.789062 L 97.527344 122.789062 C 97.558594 122.769531 99.859375 122.324219 100.195312 122.222656 C 101.054688 121.964844 101.835938 121.679688 102.621094 121.421875 C 104.230469 120.898438 105.6875 120.160156 107.207031 119.558594 C 110.164062 118.378906 113.035156 116.621094 115.824219 115.265625 C 116.425781 114.96875 117.183594 114.582031 117.9375 114.171875 C 112.65625 115.527344 103.886719 120.894531 97.597656 120.894531 L 97.199219 120.894531 C 96.695312 120.894531 95.542969 120.648438 95.542969 120.242188 L 95.542969 120.046875 C 95.542969 118.632812 101.421875 115.402344 101.421875 113.371094 Z M 101.421875 113.371094 " fill-opacity="1" fill-rule="evenodd"/></g><g clip-path="url(#1b3b75b5f7)"><g clip-path="url(#7bb8f71686)"><path fill="#2e2f38" d="M 43.761719 98.242188 L 48.542969 98.242188 L 48.542969 103.023438 L 43.761719 103.023438 Z M 43.761719 98.242188 " fill-opacity="1" fill-rule="nonzero"/></g></g><g fill="#060b37" fill-opacity="1"><g transform="translate(57.483878, 130.467322)"><g><path d="M 0.203125 0.171875 C 0.242188 0.148438 0.300781 0.125 0.375 0.09375 C 0.457031 0.0703125 0.550781 0.0195312 0.65625 -0.0625 C 0.78125 -0.175781 0.925781 -0.296875 1.09375 -0.421875 C 1.269531 -0.554688 1.445312 -0.695312 1.625 -0.84375 C 1.8125 -0.988281 2 -1.140625 2.1875 -1.296875 C 2.382812 -1.453125 2.578125 -1.601562 2.765625 -1.75 C 2.953125 -1.90625 3.128906 -2.050781 3.296875 -2.1875 C 3.472656 -2.332031 3.628906 -2.46875 3.765625 -2.59375 C 3.910156 -2.71875 4.035156 -2.820312 4.140625 -2.90625 C 4.242188 -2.988281 4.320312 -3.054688 4.375 -3.109375 L 4.71875 -2.78125 L 3.484375 1.9375 L 8.078125 0.3125 L 8.34375 0.5625 L 5.828125 4.15625 C 5.765625 4.269531 5.707031 4.367188 5.65625 4.453125 C 5.601562 4.546875 5.554688 4.625 5.515625 4.6875 C 5.472656 4.75 5.445312 4.800781 5.4375 4.84375 C 5.425781 4.894531 5.410156 4.929688 5.390625 4.953125 L 5.375 4.96875 L 4.703125 4.34375 L 4.71875 4.328125 C 4.757812 4.328125 4.800781 4.304688 4.84375 4.265625 C 4.882812 4.234375 4.9375 4.1875 5 4.125 C 5.019531 4.101562 5.035156 4.078125 5.046875 4.046875 C 5.066406 4.015625 5.09375 3.984375 5.125 3.953125 L 7.15625 1.0625 L 2.828125 2.578125 L 2.65625 2.390625 L 3.796875 -2.078125 C 3.347656 -1.710938 2.9375 -1.367188 2.5625 -1.046875 C 2.40625 -0.921875 2.242188 -0.789062 2.078125 -0.65625 C 1.921875 -0.519531 1.769531 -0.390625 1.625 -0.265625 C 1.488281 -0.140625 1.367188 -0.0351562 1.265625 0.046875 C 1.160156 0.140625 1.085938 0.210938 1.046875 0.265625 C 0.992188 0.328125 0.945312 0.378906 0.90625 0.421875 C 0.875 0.472656 0.84375 0.515625 0.8125 0.546875 C 0.78125 0.597656 0.753906 0.640625 0.734375 0.671875 L 0.1875 0.1875 Z M 0.203125 0.171875 "/></g></g></g><g fill="#060b37" fill-opacity="1"><g transform="translate(64.652394, 136.764356)"><g><path d="M 5.34375 -2.921875 C 5.6875 -2.703125 5.960938 -2.441406 6.171875 -2.140625 C 6.390625 -1.847656 6.539062 -1.535156 6.625 -1.203125 C 6.71875 -0.867188 6.726562 -0.519531 6.65625 -0.15625 C 6.59375 0.207031 6.453125 0.5625 6.234375 0.90625 C 6.109375 1.101562 5.960938 1.28125 5.796875 1.4375 C 5.628906 1.59375 5.445312 1.726562 5.25 1.84375 C 5.0625 1.96875 4.859375 2.054688 4.640625 2.109375 C 4.421875 2.171875 4.191406 2.203125 3.953125 2.203125 C 3.722656 2.203125 3.492188 2.164062 3.265625 2.09375 C 3.035156 2.03125 2.804688 1.925781 2.578125 1.78125 C 2.234375 1.5625 1.953125 1.300781 1.734375 1 C 1.515625 0.707031 1.359375 0.390625 1.265625 0.046875 C 1.179688 -0.285156 1.171875 -0.628906 1.234375 -0.984375 C 1.296875 -1.347656 1.4375 -1.707031 1.65625 -2.0625 C 1.78125 -2.25 1.925781 -2.421875 2.09375 -2.578125 C 2.257812 -2.734375 2.4375 -2.867188 2.625 -2.984375 C 2.820312 -3.109375 3.03125 -3.195312 3.25 -3.25 C 3.46875 -3.3125 3.691406 -3.34375 3.921875 -3.34375 C 4.160156 -3.351562 4.398438 -3.320312 4.640625 -3.25 C 4.878906 -3.175781 5.113281 -3.066406 5.34375 -2.921875 Z M 2.765625 1.5 C 2.992188 1.644531 3.226562 1.734375 3.46875 1.765625 C 3.707031 1.804688 3.941406 1.789062 4.171875 1.71875 C 4.410156 1.65625 4.640625 1.535156 4.859375 1.359375 C 5.085938 1.179688 5.289062 0.953125 5.46875 0.671875 C 5.664062 0.347656 5.8125 0.03125 5.90625 -0.28125 C 6.007812 -0.601562 6.050781 -0.910156 6.03125 -1.203125 C 6.019531 -1.492188 5.941406 -1.765625 5.796875 -2.015625 C 5.660156 -2.265625 5.453125 -2.476562 5.171875 -2.65625 C 4.941406 -2.800781 4.703125 -2.894531 4.453125 -2.9375 C 4.203125 -2.976562 3.960938 -2.960938 3.734375 -2.890625 C 3.503906 -2.828125 3.273438 -2.707031 3.046875 -2.53125 C 2.828125 -2.351562 2.625 -2.117188 2.4375 -1.828125 C 2.238281 -1.515625 2.09375 -1.195312 2 -0.875 C 1.90625 -0.5625 1.863281 -0.265625 1.875 0.015625 C 1.882812 0.304688 1.960938 0.578125 2.109375 0.828125 C 2.265625 1.085938 2.484375 1.3125 2.765625 1.5 Z M 2.765625 1.5 "/></g></g></g><g fill="#060b37" fill-opacity="1"><g transform="translate(71.385721, 140.827905)"><g><path d="M 2.140625 -3.203125 C 2.222656 -3.390625 2.296875 -3.554688 2.359375 -3.703125 C 2.429688 -3.859375 2.488281 -3.988281 2.53125 -4.09375 C 2.570312 -4.195312 2.597656 -4.285156 2.609375 -4.359375 C 2.617188 -4.429688 2.632812 -4.492188 2.65625 -4.546875 L 2.65625 -4.5625 C 2.695312 -4.539062 2.738281 -4.519531 2.78125 -4.5 C 2.832031 -4.476562 2.882812 -4.457031 2.9375 -4.4375 C 2.988281 -4.414062 3.039062 -4.390625 3.09375 -4.359375 C 3.164062 -4.328125 3.273438 -4.285156 3.421875 -4.234375 C 3.566406 -4.191406 3.75 -4.117188 3.96875 -4.015625 C 4.164062 -3.929688 4.335938 -3.820312 4.484375 -3.6875 C 4.628906 -3.5625 4.738281 -3.421875 4.8125 -3.265625 C 4.882812 -3.109375 4.925781 -2.941406 4.9375 -2.765625 C 4.945312 -2.585938 4.910156 -2.410156 4.828125 -2.234375 C 4.753906 -2.078125 4.664062 -1.945312 4.5625 -1.84375 C 4.46875 -1.75 4.359375 -1.671875 4.234375 -1.609375 C 4.117188 -1.554688 3.992188 -1.523438 3.859375 -1.515625 C 3.722656 -1.503906 3.585938 -1.503906 3.453125 -1.515625 C 3.628906 -1.398438 3.78125 -1.273438 3.90625 -1.140625 C 4.03125 -1.003906 4.125 -0.859375 4.1875 -0.703125 C 4.257812 -0.554688 4.296875 -0.398438 4.296875 -0.234375 C 4.296875 -0.078125 4.253906 0.0859375 4.171875 0.265625 C 3.960938 0.722656 3.644531 1 3.21875 1.09375 C 2.800781 1.195312 2.285156 1.113281 1.671875 0.84375 C 1.609375 0.8125 1.535156 0.769531 1.453125 0.71875 C 1.367188 0.675781 1.28125 0.628906 1.1875 0.578125 C 1.101562 0.523438 1.015625 0.472656 0.921875 0.421875 C 0.835938 0.378906 0.765625 0.34375 0.703125 0.3125 L 0.484375 0.21875 L 0.484375 0.203125 C 0.515625 0.160156 0.550781 0.109375 0.59375 0.046875 C 0.644531 -0.00390625 0.695312 -0.0820312 0.75 -0.1875 C 0.800781 -0.289062 0.859375 -0.410156 0.921875 -0.546875 C 0.992188 -0.691406 1.070312 -0.859375 1.15625 -1.046875 Z M 2.875 -1.546875 C 2.71875 -1.617188 2.585938 -1.671875 2.484375 -1.703125 C 2.378906 -1.734375 2.296875 -1.757812 2.234375 -1.78125 L 1.78125 -0.78125 C 1.65625 -0.507812 1.554688 -0.285156 1.484375 -0.109375 C 1.421875 0.0546875 1.367188 0.203125 1.328125 0.328125 C 1.410156 0.359375 1.492188 0.398438 1.578125 0.453125 C 1.660156 0.503906 1.726562 0.539062 1.78125 0.5625 C 2.195312 0.75 2.539062 0.796875 2.8125 0.703125 C 3.09375 0.609375 3.320312 0.363281 3.5 -0.03125 C 3.5625 -0.175781 3.597656 -0.320312 3.609375 -0.46875 C 3.617188 -0.613281 3.597656 -0.753906 3.546875 -0.890625 C 3.492188 -1.023438 3.414062 -1.144531 3.3125 -1.25 C 3.207031 -1.363281 3.0625 -1.460938 2.875 -1.546875 Z M 2.375 -2.09375 C 2.4375 -2.050781 2.488281 -2.019531 2.53125 -2 C 2.582031 -1.976562 2.640625 -1.953125 2.703125 -1.921875 C 2.847656 -1.859375 2.988281 -1.816406 3.125 -1.796875 C 3.269531 -1.785156 3.40625 -1.800781 3.53125 -1.84375 C 3.65625 -1.882812 3.769531 -1.960938 3.875 -2.078125 C 3.988281 -2.191406 4.085938 -2.332031 4.171875 -2.5 C 4.234375 -2.644531 4.269531 -2.785156 4.28125 -2.921875 C 4.300781 -3.054688 4.296875 -3.179688 4.265625 -3.296875 C 4.234375 -3.410156 4.175781 -3.507812 4.09375 -3.59375 C 4.019531 -3.6875 3.914062 -3.765625 3.78125 -3.828125 C 3.695312 -3.867188 3.617188 -3.898438 3.546875 -3.921875 C 3.484375 -3.941406 3.429688 -3.957031 3.390625 -3.96875 C 3.328125 -3.976562 3.273438 -3.988281 3.234375 -4 Z M 2.375 -2.09375 "/></g></g></g><g fill="#060b37" fill-opacity="1"><g transform="translate(76.838561, 143.151885)"><g><path d="M 0.53125 0.171875 C 0.5625 0.117188 0.59375 0.0625 0.625 0 C 0.65625 -0.0625 0.695312 -0.144531 0.75 -0.25 C 0.800781 -0.363281 0.851562 -0.488281 0.90625 -0.625 C 0.957031 -0.769531 1.019531 -0.941406 1.09375 -1.140625 L 1.859375 -3.390625 C 1.921875 -3.585938 1.972656 -3.757812 2.015625 -3.90625 C 2.066406 -4.0625 2.101562 -4.191406 2.125 -4.296875 C 2.15625 -4.410156 2.175781 -4.503906 2.1875 -4.578125 C 2.195312 -4.648438 2.207031 -4.710938 2.21875 -4.765625 L 2.21875 -4.78125 L 3.046875 -4.5 L 3.046875 -4.484375 C 3.003906 -4.441406 2.96875 -4.390625 2.9375 -4.328125 C 2.90625 -4.265625 2.863281 -4.175781 2.8125 -4.0625 C 2.769531 -3.957031 2.71875 -3.832031 2.65625 -3.6875 C 2.601562 -3.550781 2.546875 -3.382812 2.484375 -3.1875 L 1.71875 -0.9375 C 1.644531 -0.738281 1.585938 -0.5625 1.546875 -0.40625 C 1.503906 -0.257812 1.46875 -0.128906 1.4375 -0.015625 C 1.40625 0.0859375 1.382812 0.175781 1.375 0.25 C 1.363281 0.320312 1.359375 0.390625 1.359375 0.453125 L 1.359375 0.46875 L 0.53125 0.1875 Z M 0.53125 0.171875 "/></g></g></g><g fill="#060b37" fill-opacity="1"><g transform="translate(80.347953, 144.300431)"><g><path d="M 1.34375 0 C 1.625 0.0625 1.882812 0.109375 2.125 0.140625 C 2.363281 0.179688 2.570312 0.207031 2.75 0.21875 C 2.976562 0.226562 3.171875 0.234375 3.328125 0.234375 L 3.09375 0.78125 C 3.070312 0.78125 3.03125 0.769531 2.96875 0.75 C 2.914062 0.726562 2.851562 0.707031 2.78125 0.6875 C 2.707031 0.664062 2.628906 0.644531 2.546875 0.625 C 2.472656 0.601562 2.40625 0.582031 2.34375 0.5625 C 2.28125 0.550781 2.21875 0.535156 2.15625 0.515625 C 2.101562 0.503906 2.066406 0.5 2.046875 0.5 L 0.515625 0.125 L 0.515625 0.109375 C 0.535156 0.0546875 0.5625 0 0.59375 -0.0625 C 0.632812 -0.125 0.671875 -0.210938 0.703125 -0.328125 C 0.734375 -0.441406 0.769531 -0.570312 0.8125 -0.71875 C 0.851562 -0.875 0.898438 -1.050781 0.953125 -1.25 L 1.515625 -3.5625 C 1.554688 -3.769531 1.59375 -3.945312 1.625 -4.09375 C 1.65625 -4.25 1.679688 -4.378906 1.703125 -4.484375 C 1.722656 -4.597656 1.734375 -4.691406 1.734375 -4.765625 C 1.742188 -4.847656 1.75 -4.914062 1.75 -4.96875 L 1.75 -4.984375 L 2.59375 -4.78125 L 2.59375 -4.765625 C 2.570312 -4.710938 2.546875 -4.648438 2.515625 -4.578125 C 2.484375 -4.515625 2.445312 -4.425781 2.40625 -4.3125 C 2.375 -4.207031 2.335938 -4.078125 2.296875 -3.921875 C 2.253906 -3.773438 2.210938 -3.597656 2.171875 -3.390625 Z M 1.34375 0 "/></g></g></g><g fill="#060b37" fill-opacity="1"><g transform="translate(85.415748, 145.438914)"><g><path d="M 1.21875 -5.140625 C 1.507812 -5.097656 1.804688 -5.054688 2.109375 -5.015625 C 2.410156 -4.984375 2.6875 -4.953125 2.9375 -4.921875 C 3.1875 -4.890625 3.394531 -4.867188 3.5625 -4.859375 C 3.738281 -4.847656 3.859375 -4.84375 3.921875 -4.84375 L 3.6875 -4.375 C 3.601562 -4.40625 3.507812 -4.4375 3.40625 -4.46875 C 3.332031 -4.5 3.226562 -4.523438 3.09375 -4.546875 C 2.957031 -4.578125 2.804688 -4.601562 2.640625 -4.625 C 2.578125 -4.632812 2.503906 -4.644531 2.421875 -4.65625 C 2.335938 -4.664062 2.257812 -4.671875 2.1875 -4.671875 C 2.101562 -4.679688 2.015625 -4.6875 1.921875 -4.6875 L 1.65625 -2.703125 C 1.90625 -2.679688 2.128906 -2.660156 2.328125 -2.640625 C 2.535156 -2.628906 2.71875 -2.617188 2.875 -2.609375 C 3.039062 -2.597656 3.179688 -2.597656 3.296875 -2.609375 L 3.109375 -2.109375 C 2.953125 -2.148438 2.785156 -2.191406 2.609375 -2.234375 C 2.460938 -2.273438 2.300781 -2.3125 2.125 -2.34375 C 1.957031 -2.382812 1.789062 -2.414062 1.625 -2.4375 L 1.328125 -0.15625 C 1.617188 -0.125 1.882812 -0.101562 2.125 -0.09375 C 2.363281 -0.0820312 2.578125 -0.078125 2.765625 -0.078125 C 2.972656 -0.0976562 3.164062 -0.117188 3.34375 -0.140625 L 3.15625 0.4375 C 3.132812 0.4375 3.09375 0.429688 3.03125 0.421875 C 2.96875 0.410156 2.898438 0.398438 2.828125 0.390625 C 2.765625 0.378906 2.691406 0.363281 2.609375 0.34375 C 2.535156 0.332031 2.460938 0.320312 2.390625 0.3125 C 2.328125 0.300781 2.265625 0.289062 2.203125 0.28125 C 2.148438 0.28125 2.113281 0.273438 2.09375 0.265625 L 0.53125 0.0625 L 0.53125 0.046875 C 0.550781 0.00390625 0.570312 -0.0507812 0.59375 -0.125 C 0.625 -0.195312 0.644531 -0.289062 0.65625 -0.40625 C 0.675781 -0.519531 0.695312 -0.648438 0.71875 -0.796875 C 0.75 -0.953125 0.78125 -1.132812 0.8125 -1.34375 L 1.125 -3.703125 C 1.144531 -3.910156 1.160156 -4.09375 1.171875 -4.25 C 1.191406 -4.40625 1.207031 -4.535156 1.21875 -4.640625 C 1.226562 -4.753906 1.226562 -4.847656 1.21875 -4.921875 C 1.21875 -4.992188 1.210938 -5.0625 1.203125 -5.125 Z M 1.21875 -5.140625 "/></g></g></g><g fill="#060b37" fill-opacity="1"><g transform="translate(90.774535, 146.022179)"><g/></g></g><g fill="#060b37" fill-opacity="1"><g transform="translate(94.785956, 146.154132)"><g><path d="M 0.3125 -5.296875 L 4.390625 -1.59375 L 4.171875 -4.15625 C 4.160156 -4.363281 4.144531 -4.546875 4.125 -4.703125 C 4.101562 -4.859375 4.082031 -4.992188 4.0625 -5.109375 C 4.050781 -5.222656 4.035156 -5.316406 4.015625 -5.390625 C 3.992188 -5.460938 3.972656 -5.523438 3.953125 -5.578125 L 3.953125 -5.59375 L 4.609375 -5.640625 L 4.609375 -5.625 C 4.597656 -5.570312 4.585938 -5.507812 4.578125 -5.4375 C 4.578125 -5.363281 4.570312 -5.269531 4.5625 -5.15625 C 4.5625 -5.039062 4.566406 -4.898438 4.578125 -4.734375 C 4.585938 -4.578125 4.597656 -4.394531 4.609375 -4.1875 L 4.921875 -0.3125 L 4.796875 -0.3125 L 0.734375 -4 L 0.9375 -1.515625 C 0.945312 -1.304688 0.960938 -1.125 0.984375 -0.96875 C 1.003906 -0.8125 1.019531 -0.675781 1.03125 -0.5625 C 1.050781 -0.457031 1.070312 -0.367188 1.09375 -0.296875 C 1.113281 -0.222656 1.128906 -0.160156 1.140625 -0.109375 L 1.140625 -0.09375 L 0.5 -0.046875 L 0.5 -0.0625 C 0.507812 -0.113281 0.515625 -0.175781 0.515625 -0.25 C 0.523438 -0.320312 0.53125 -0.414062 0.53125 -0.53125 C 0.539062 -0.644531 0.535156 -0.78125 0.515625 -0.9375 C 0.503906 -1.09375 0.492188 -1.273438 0.484375 -1.484375 L 0.28125 -3.84375 C 0.269531 -4.050781 0.253906 -4.234375 0.234375 -4.390625 C 0.222656 -4.546875 0.207031 -4.679688 0.1875 -4.796875 C 0.175781 -4.910156 0.15625 -5.003906 0.125 -5.078125 C 0.101562 -5.148438 0.0859375 -5.210938 0.078125 -5.265625 L 0.078125 -5.28125 Z M 0.3125 -5.296875 "/></g></g></g><g fill="#060b37" fill-opacity="1"><g transform="translate(102.14875, 145.433675)"><g><path d="M 1.59375 -5.875 C 1.988281 -5.96875 2.367188 -5.988281 2.734375 -5.9375 C 3.097656 -5.882812 3.429688 -5.769531 3.734375 -5.59375 C 4.046875 -5.425781 4.304688 -5.191406 4.515625 -4.890625 C 4.734375 -4.597656 4.890625 -4.253906 4.984375 -3.859375 C 5.035156 -3.640625 5.054688 -3.414062 5.046875 -3.1875 C 5.046875 -2.957031 5.019531 -2.726562 4.96875 -2.5 C 4.925781 -2.28125 4.847656 -2.070312 4.734375 -1.875 C 4.617188 -1.675781 4.484375 -1.492188 4.328125 -1.328125 C 4.171875 -1.160156 3.988281 -1.015625 3.78125 -0.890625 C 3.570312 -0.773438 3.332031 -0.6875 3.0625 -0.625 C 2.675781 -0.53125 2.296875 -0.503906 1.921875 -0.546875 C 1.554688 -0.585938 1.222656 -0.695312 0.921875 -0.875 C 0.617188 -1.050781 0.359375 -1.28125 0.140625 -1.5625 C -0.078125 -1.851562 -0.234375 -2.203125 -0.328125 -2.609375 C -0.378906 -2.835938 -0.40625 -3.066406 -0.40625 -3.296875 C -0.40625 -3.535156 -0.378906 -3.757812 -0.328125 -3.96875 C -0.273438 -4.1875 -0.191406 -4.394531 -0.078125 -4.59375 C 0.0234375 -4.800781 0.15625 -4.988281 0.3125 -5.15625 C 0.476562 -5.320312 0.664062 -5.46875 0.875 -5.59375 C 1.09375 -5.71875 1.332031 -5.8125 1.59375 -5.875 Z M 2.984375 -0.953125 C 3.253906 -1.015625 3.484375 -1.117188 3.671875 -1.265625 C 3.867188 -1.410156 4.023438 -1.585938 4.140625 -1.796875 C 4.253906 -2.015625 4.320312 -2.265625 4.34375 -2.546875 C 4.375 -2.835938 4.347656 -3.144531 4.265625 -3.46875 C 4.179688 -3.832031 4.054688 -4.160156 3.890625 -4.453125 C 3.734375 -4.742188 3.546875 -4.984375 3.328125 -5.171875 C 3.109375 -5.367188 2.859375 -5.5 2.578125 -5.5625 C 2.296875 -5.632812 1.992188 -5.632812 1.671875 -5.5625 C 1.410156 -5.5 1.179688 -5.394531 0.984375 -5.25 C 0.785156 -5.101562 0.625 -4.921875 0.5 -4.703125 C 0.382812 -4.484375 0.3125 -4.234375 0.28125 -3.953125 C 0.257812 -3.671875 0.289062 -3.363281 0.375 -3.03125 C 0.46875 -2.664062 0.59375 -2.335938 0.75 -2.046875 C 0.914062 -1.753906 1.109375 -1.515625 1.328125 -1.328125 C 1.546875 -1.140625 1.796875 -1.007812 2.078125 -0.9375 C 2.359375 -0.863281 2.660156 -0.867188 2.984375 -0.953125 Z M 2.984375 -0.953125 "/></g></g></g><g fill="#060b37" fill-opacity="1"><g transform="translate(109.755653, 143.408095)"><g><path d="M -0.0625 -5.265625 C -0.332031 -5.160156 -0.570312 -5.054688 -0.78125 -4.953125 C -0.988281 -4.859375 -1.15625 -4.765625 -1.28125 -4.671875 C -1.457031 -4.554688 -1.609375 -4.453125 -1.734375 -4.359375 L -1.875 -4.953125 C -1.84375 -4.960938 -1.796875 -4.972656 -1.734375 -4.984375 C -1.679688 -5.003906 -1.617188 -5.023438 -1.546875 -5.046875 C -1.484375 -5.078125 -1.414062 -5.109375 -1.34375 -5.140625 C -1.269531 -5.171875 -1.195312 -5.195312 -1.125 -5.21875 C -1.0625 -5.238281 -1.003906 -5.257812 -0.953125 -5.28125 C -0.898438 -5.300781 -0.863281 -5.3125 -0.84375 -5.3125 L 1.09375 -6.09375 C 1.125 -6.101562 1.160156 -6.117188 1.203125 -6.140625 C 1.253906 -6.160156 1.3125 -6.1875 1.375 -6.21875 C 1.445312 -6.25 1.519531 -6.28125 1.59375 -6.3125 C 1.664062 -6.34375 1.734375 -6.367188 1.796875 -6.390625 C 1.867188 -6.421875 1.925781 -6.445312 1.96875 -6.46875 C 2.019531 -6.5 2.0625 -6.519531 2.09375 -6.53125 L 2.421875 -6.03125 C 2.265625 -6 2.085938 -5.96875 1.890625 -5.9375 C 1.710938 -5.90625 1.507812 -5.851562 1.28125 -5.78125 C 1.0625 -5.707031 0.820312 -5.617188 0.5625 -5.515625 L 1.859375 -2.28125 C 1.929688 -2.09375 2 -1.925781 2.0625 -1.78125 C 2.125 -1.644531 2.179688 -1.523438 2.234375 -1.421875 C 2.285156 -1.316406 2.332031 -1.234375 2.375 -1.171875 C 2.414062 -1.109375 2.453125 -1.054688 2.484375 -1.015625 L 2.484375 -1 L 1.671875 -0.671875 L 1.671875 -0.6875 C 1.671875 -0.738281 1.660156 -0.800781 1.640625 -0.875 C 1.617188 -0.945312 1.585938 -1.035156 1.546875 -1.140625 C 1.515625 -1.253906 1.472656 -1.382812 1.421875 -1.53125 C 1.367188 -1.675781 1.304688 -1.84375 1.234375 -2.03125 Z M -0.0625 -5.265625 "/></g></g></g><g fill="#060b37" fill-opacity="1"><g transform="translate(115.552066, 140.979859)"><g><path d="M 3.625 -2.046875 L 3.625 -2.0625 C 3.613281 -2.070312 3.601562 -2.085938 3.59375 -2.109375 C 3.582031 -2.128906 3.570312 -2.148438 3.5625 -2.171875 C 3.519531 -2.234375 3.46875 -2.300781 3.40625 -2.375 C 3.34375 -2.457031 3.253906 -2.539062 3.140625 -2.625 L 2.265625 -3.265625 C 2.140625 -3.203125 1.976562 -3.113281 1.78125 -3 C 1.582031 -2.894531 1.367188 -2.773438 1.140625 -2.640625 C 0.960938 -2.546875 0.796875 -2.453125 0.640625 -2.359375 C 0.492188 -2.273438 0.363281 -2.191406 0.25 -2.109375 L 0.34375 -1.078125 C 0.363281 -0.984375 0.382812 -0.878906 0.40625 -0.765625 C 0.425781 -0.648438 0.460938 -0.546875 0.515625 -0.453125 C 0.523438 -0.421875 0.535156 -0.394531 0.546875 -0.375 C 0.554688 -0.363281 0.566406 -0.351562 0.578125 -0.34375 L 0.578125 -0.328125 L -0.0625 0.03125 L -0.0625 0.015625 C -0.0390625 -0.0351562 -0.0351562 -0.128906 -0.046875 -0.265625 C -0.0546875 -0.398438 -0.0664062 -0.566406 -0.078125 -0.765625 L -0.546875 -5.859375 L -0.28125 -6 L 3.640625 -3.09375 C 3.734375 -3.019531 3.820312 -2.953125 3.90625 -2.890625 C 4 -2.828125 4.085938 -2.769531 4.171875 -2.71875 C 4.253906 -2.675781 4.320312 -2.640625 4.375 -2.609375 C 4.425781 -2.578125 4.460938 -2.5625 4.484375 -2.5625 L 4.484375 -2.546875 Z M 0.53125 -2.65625 C 0.65625 -2.726562 0.78125 -2.800781 0.90625 -2.875 C 1.039062 -2.945312 1.171875 -3.019531 1.296875 -3.09375 C 1.421875 -3.164062 1.539062 -3.234375 1.65625 -3.296875 C 1.769531 -3.367188 1.875 -3.429688 1.96875 -3.484375 L -0.0625 -5.015625 L 0.1875 -2.46875 Z M 0.53125 -2.65625 "/></g></g></g><g fill="#060b37" fill-opacity="1"><g transform="translate(121.476556, 137.464045)"><g><path d="M 0.15625 -1.921875 C 0.289062 -1.753906 0.40625 -1.609375 0.5 -1.484375 C 0.601562 -1.367188 0.691406 -1.269531 0.765625 -1.1875 C 0.847656 -1.101562 0.910156 -1.035156 0.953125 -0.984375 C 1.003906 -0.929688 1.054688 -0.890625 1.109375 -0.859375 L 1.125 -0.84375 L 0.421875 -0.328125 L 0.40625 -0.34375 C 0.382812 -0.382812 0.359375 -0.4375 0.328125 -0.5 C 0.296875 -0.570312 0.25 -0.65625 0.1875 -0.75 C 0.125 -0.84375 0.0507812 -0.953125 -0.03125 -1.078125 C -0.125 -1.203125 -0.238281 -1.347656 -0.375 -1.515625 L -1.796875 -3.40625 C -1.921875 -3.570312 -2.035156 -3.71875 -2.140625 -3.84375 C -2.242188 -3.96875 -2.328125 -4.070312 -2.390625 -4.15625 C -2.460938 -4.238281 -2.523438 -4.304688 -2.578125 -4.359375 C -2.640625 -4.410156 -2.691406 -4.457031 -2.734375 -4.5 L -2.75 -4.515625 L -2.625 -4.578125 C -2.582031 -4.609375 -2.535156 -4.640625 -2.484375 -4.671875 C -2.441406 -4.703125 -2.394531 -4.734375 -2.34375 -4.765625 C -2.269531 -4.828125 -2.175781 -4.914062 -2.0625 -5.03125 C -1.945312 -5.144531 -1.789062 -5.28125 -1.59375 -5.4375 C -1.40625 -5.582031 -1.210938 -5.691406 -1.015625 -5.765625 C -0.828125 -5.835938 -0.632812 -5.863281 -0.4375 -5.84375 C -0.238281 -5.832031 -0.0546875 -5.78125 0.109375 -5.6875 C 0.285156 -5.59375 0.4375 -5.460938 0.5625 -5.296875 C 0.664062 -5.148438 0.742188 -5.003906 0.796875 -4.859375 C 0.859375 -4.710938 0.894531 -4.566406 0.90625 -4.421875 C 0.914062 -4.273438 0.898438 -4.128906 0.859375 -3.984375 C 0.828125 -3.835938 0.78125 -3.695312 0.71875 -3.5625 L 2.8125 -2.90625 C 2.925781 -2.863281 3.023438 -2.832031 3.109375 -2.8125 C 3.191406 -2.800781 3.265625 -2.785156 3.328125 -2.765625 C 3.398438 -2.753906 3.460938 -2.753906 3.515625 -2.765625 C 3.566406 -2.773438 3.617188 -2.789062 3.671875 -2.8125 L 3.6875 -2.796875 L 2.84375 -2.15625 C 2.8125 -2.175781 2.753906 -2.207031 2.671875 -2.25 C 2.597656 -2.289062 2.515625 -2.320312 2.421875 -2.34375 L 0.28125 -3.015625 C 0.238281 -2.984375 0.195312 -2.945312 0.15625 -2.90625 C 0.113281 -2.863281 0.0703125 -2.828125 0.03125 -2.796875 C -0.03125 -2.753906 -0.0859375 -2.710938 -0.140625 -2.671875 C -0.191406 -2.640625 -0.253906 -2.609375 -0.328125 -2.578125 Z M -0.5 -2.8125 C -0.4375 -2.832031 -0.378906 -2.863281 -0.328125 -2.90625 C -0.273438 -2.945312 -0.21875 -2.988281 -0.15625 -3.03125 C -0.0195312 -3.132812 0.09375 -3.253906 0.1875 -3.390625 C 0.28125 -3.523438 0.332031 -3.664062 0.34375 -3.8125 C 0.363281 -3.96875 0.347656 -4.128906 0.296875 -4.296875 C 0.242188 -4.472656 0.144531 -4.648438 0 -4.828125 C -0.101562 -4.972656 -0.210938 -5.09375 -0.328125 -5.1875 C -0.453125 -5.28125 -0.578125 -5.34375 -0.703125 -5.375 C -0.835938 -5.40625 -0.972656 -5.40625 -1.109375 -5.375 C -1.242188 -5.34375 -1.378906 -5.273438 -1.515625 -5.171875 C -1.648438 -5.078125 -1.75 -4.992188 -1.8125 -4.921875 C -1.882812 -4.847656 -1.9375 -4.785156 -1.96875 -4.734375 Z M -0.5 -2.8125 "/></g></g></g><g fill="#060b37" fill-opacity="1"><g transform="translate(126.37031, 133.617098)"><g><path d="M 0.125 -3.65625 L 0.875 -2.890625 C 1.019531 -2.734375 1.148438 -2.601562 1.265625 -2.5 C 1.390625 -2.394531 1.492188 -2.300781 1.578125 -2.21875 C 1.660156 -2.144531 1.734375 -2.085938 1.796875 -2.046875 C 1.859375 -2.003906 1.910156 -1.972656 1.953125 -1.953125 L 1.96875 -1.9375 L 1.34375 -1.328125 L 1.328125 -1.34375 C 1.304688 -1.382812 1.273438 -1.4375 1.234375 -1.5 C 1.191406 -1.5625 1.132812 -1.632812 1.0625 -1.71875 C 0.988281 -1.8125 0.894531 -1.914062 0.78125 -2.03125 C 0.675781 -2.144531 0.550781 -2.28125 0.40625 -2.4375 L -0.296875 -3.15625 L -3.03125 -3.578125 C -3.113281 -3.597656 -3.195312 -3.609375 -3.28125 -3.609375 C -3.375 -3.617188 -3.453125 -3.625 -3.515625 -3.625 C -3.578125 -3.632812 -3.632812 -3.632812 -3.6875 -3.625 C -3.738281 -3.613281 -3.78125 -3.609375 -3.8125 -3.609375 L -3.828125 -3.609375 L -3.03125 -4.375 C -2.988281 -4.34375 -2.90625 -4.296875 -2.78125 -4.234375 C -2.664062 -4.179688 -2.5 -4.132812 -2.28125 -4.09375 L -0.265625 -3.765625 L -0.640625 -5.8125 C -0.648438 -5.894531 -0.660156 -5.96875 -0.671875 -6.03125 C -0.691406 -6.101562 -0.707031 -6.171875 -0.71875 -6.234375 C -0.738281 -6.304688 -0.757812 -6.367188 -0.78125 -6.421875 C -0.800781 -6.472656 -0.820312 -6.507812 -0.84375 -6.53125 L -0.34375 -7.015625 L -0.328125 -7.015625 C -0.335938 -6.953125 -0.34375 -6.851562 -0.34375 -6.71875 C -0.34375 -6.59375 -0.328125 -6.441406 -0.296875 -6.265625 Z M 0.125 -3.65625 "/></g></g></g><g clip-path="url(#a7e44bf628)"><g clip-path="url(#539bace3c1)"><path fill="#2e2f38" d="M 138.957031 98.242188 L 143.738281 98.242188 L 143.738281 103.023438 L 138.957031 103.023438 Z M 138.957031 98.242188 " fill-opacity="1" fill-rule="nonzero"/></g></g></svg>