<svg xmlns="http://www.w3.org/2000/svg" xmlns:xlink="http://www.w3.org/1999/xlink" width="500" zoomAndPan="magnify" viewBox="0 0 375 374.999991" height="500" preserveAspectRatio="xMidYMid meet" version="1.0"><defs><g/><clipPath id="68462322dd"><path d="M 50.71875 50.171875 L 324.609375 50.171875 L 324.609375 324.609375 L 50.71875 324.609375 Z M 50.71875 50.171875 " clip-rule="nonzero"/></clipPath><clipPath id="24c2febdf5"><path d="M 187.5 324.28125 C 150.980469 324.28125 116.59375 310.066406 90.789062 284.210938 C 64.933594 258.40625 50.71875 224.019531 50.71875 187.5 C 50.71875 150.980469 64.933594 116.59375 90.789062 90.789062 C 116.59375 64.933594 150.980469 50.71875 187.5 50.71875 C 224.019531 50.71875 258.40625 64.933594 284.210938 90.789062 C 310.066406 116.648438 324.28125 150.980469 324.28125 187.5 C 324.28125 224.019531 310.066406 258.40625 284.210938 284.210938 C 258.40625 310.066406 224.019531 324.28125 187.5 324.28125 Z M 187.5 58.917969 C 153.167969 58.917969 120.859375 72.3125 96.585938 96.585938 C 72.3125 120.859375 58.917969 153.167969 58.917969 187.5 C 58.917969 221.832031 72.3125 254.140625 96.585938 278.414062 C 120.859375 302.6875 153.167969 316.082031 187.5 316.082031 C 221.832031 316.082031 254.140625 302.6875 278.414062 278.414062 C 302.6875 254.140625 316.082031 221.832031 316.082031 187.5 C 316.082031 153.167969 302.6875 120.859375 278.414062 96.585938 C 254.140625 72.3125 221.832031 58.917969 187.5 58.917969 Z M 187.5 58.917969 " clip-rule="nonzero"/></clipPath><clipPath id="ca50925ca3"><path d="M 64.484375 64.484375 L 310.484375 64.484375 L 310.484375 310.484375 L 64.484375 310.484375 Z M 64.484375 64.484375 " clip-rule="nonzero"/></clipPath><clipPath id="b97d248e72"><path d="M 237 155 L 262 155 L 262 245 L 237 245 Z M 237 155 " clip-rule="nonzero"/></clipPath><clipPath id="d9bfdca199"><path d="M 220.5 289.824219 L 87.523438 220.417969 L 154.5 92.09375 L 287.476562 161.5 Z M 220.5 289.824219 " clip-rule="nonzero"/></clipPath><clipPath id="b46430e1e8"><path d="M 220.5 289.824219 L 87.523438 220.417969 L 154.5 92.09375 L 287.476562 161.5 Z M 220.5 289.824219 " clip-rule="nonzero"/></clipPath><clipPath id="340cb7608a"><path d="M 148 117 L 250 117 L 250 155 L 148 155 Z M 148 117 " clip-rule="nonzero"/></clipPath><clipPath id="63ca18f96e"><path d="M 220.5 289.824219 L 87.523438 220.417969 L 154.5 92.09375 L 287.476562 161.5 Z M 220.5 289.824219 " clip-rule="nonzero"/></clipPath><clipPath id="21b9f6135c"><path d="M 220.5 289.824219 L 87.523438 220.417969 L 154.5 92.09375 L 287.476562 161.5 Z M 220.5 289.824219 " clip-rule="nonzero"/></clipPath><clipPath id="f9af1713be"><path d="M 113 130 L 149 130 L 149 186 L 113 186 Z M 113 130 " clip-rule="nonzero"/></clipPath><clipPath id="0cdac0b222"><path d="M 220.5 289.824219 L 87.523438 220.417969 L 154.5 92.09375 L 287.476562 161.5 Z M 220.5 289.824219 " clip-rule="nonzero"/></clipPath><clipPath id="11cd110820"><path d="M 220.5 289.824219 L 87.523438 220.417969 L 154.5 92.09375 L 287.476562 161.5 Z M 220.5 289.824219 " clip-rule="nonzero"/></clipPath><clipPath id="f01c5d4a24"><path d="M 220 245 L 237 245 L 237 258 L 220 258 Z M 220 245 " clip-rule="nonzero"/></clipPath><clipPath id="eebc7b1543"><path d="M 220.5 289.824219 L 87.523438 220.417969 L 154.5 92.09375 L 287.476562 161.5 Z M 220.5 289.824219 " clip-rule="nonzero"/></clipPath><clipPath id="97142d1b02"><path d="M 220.5 289.824219 L 87.523438 220.417969 L 154.5 92.09375 L 287.476562 161.5 Z M 220.5 289.824219 " clip-rule="nonzero"/></clipPath><clipPath id="0c7f39d82c"><path d="M 117 216 L 125 216 L 125 231 L 117 231 Z M 117 216 " clip-rule="nonzero"/></clipPath><clipPath id="0b8128ae6a"><path d="M 220.5 289.824219 L 87.523438 220.417969 L 154.5 92.09375 L 287.476562 161.5 Z M 220.5 289.824219 " clip-rule="nonzero"/></clipPath><clipPath id="493195aef6"><path d="M 220.5 289.824219 L 87.523438 220.417969 L 154.5 92.09375 L 287.476562 161.5 Z M 220.5 289.824219 " clip-rule="nonzero"/></clipPath><clipPath id="dcfb8e9ef6"><path d="M 132 240 L 138 240 L 138 247 L 132 247 Z M 132 240 " clip-rule="nonzero"/></clipPath><clipPath id="31b3fe605a"><path d="M 220.5 289.824219 L 87.523438 220.417969 L 154.5 92.09375 L 287.476562 161.5 Z M 220.5 289.824219 " clip-rule="nonzero"/></clipPath><clipPath id="4bf0198180"><path d="M 220.5 289.824219 L 87.523438 220.417969 L 154.5 92.09375 L 287.476562 161.5 Z M 220.5 289.824219 " clip-rule="nonzero"/></clipPath><clipPath id="25efd8570d"><path d="M 114 206 L 118 206 L 118 214 L 114 214 Z M 114 206 " clip-rule="nonzero"/></clipPath><clipPath id="b38e4dec41"><path d="M 220.5 289.824219 L 87.523438 220.417969 L 154.5 92.09375 L 287.476562 161.5 Z M 220.5 289.824219 " clip-rule="nonzero"/></clipPath><clipPath id="a212530ef3"><path d="M 220.5 289.824219 L 87.523438 220.417969 L 154.5 92.09375 L 287.476562 161.5 Z M 220.5 289.824219 " clip-rule="nonzero"/></clipPath><clipPath id="8863be1afa"><path d="M 126 233 L 129 233 L 129 236 L 126 236 Z M 126 233 " clip-rule="nonzero"/></clipPath><clipPath id="ddf3c6e4b0"><path d="M 220.5 289.824219 L 87.523438 220.417969 L 154.5 92.09375 L 287.476562 161.5 Z M 220.5 289.824219 " clip-rule="nonzero"/></clipPath><clipPath id="00753d05e7"><path d="M 220.5 289.824219 L 87.523438 220.417969 L 154.5 92.09375 L 287.476562 161.5 Z M 220.5 289.824219 " clip-rule="nonzero"/></clipPath><clipPath id="543a4b1ba7"><path d="M 113 192 L 115 192 L 115 195 L 113 195 Z M 113 192 " clip-rule="nonzero"/></clipPath><clipPath id="ae448ccf55"><path d="M 220.5 289.824219 L 87.523438 220.417969 L 154.5 92.09375 L 287.476562 161.5 Z M 220.5 289.824219 " clip-rule="nonzero"/></clipPath><clipPath id="9be0e11098"><path d="M 220.5 289.824219 L 87.523438 220.417969 L 154.5 92.09375 L 287.476562 161.5 Z M 220.5 289.824219 " clip-rule="nonzero"/></clipPath><clipPath id="0b2d77d24b"><path d="M 262 193 L 265 193 L 265 195 L 262 195 Z M 262 193 " clip-rule="nonzero"/></clipPath><clipPath id="fb8177fde8"><path d="M 220.5 289.824219 L 87.523438 220.417969 L 154.5 92.09375 L 287.476562 161.5 Z M 220.5 289.824219 " clip-rule="nonzero"/></clipPath><clipPath id="91cccf3c7a"><path d="M 220.5 289.824219 L 87.523438 220.417969 L 154.5 92.09375 L 287.476562 161.5 Z M 220.5 289.824219 " clip-rule="nonzero"/></clipPath><clipPath id="5816aab092"><path d="M 130 237 L 131 237 L 131 239 L 130 239 Z M 130 237 " clip-rule="nonzero"/></clipPath><clipPath id="a63c4be8b8"><path d="M 220.5 289.824219 L 87.523438 220.417969 L 154.5 92.09375 L 287.476562 161.5 Z M 220.5 289.824219 " clip-rule="nonzero"/></clipPath><clipPath id="2a99eac894"><path d="M 220.5 289.824219 L 87.523438 220.417969 L 154.5 92.09375 L 287.476562 161.5 Z M 220.5 289.824219 " clip-rule="nonzero"/></clipPath><clipPath id="8a65d9a467"><path d="M 145.878906 138 L 221 138 L 221 237 L 145.878906 237 Z M 145.878906 138 " clip-rule="nonzero"/></clipPath><clipPath id="1d5e19e90d"><path d="M 147 223 L 235.128906 223 L 235.128906 245.808594 L 147 245.808594 Z M 147 223 " clip-rule="nonzero"/></clipPath><clipPath id="22027f9c1d"><path d="M 87.523438 196.484375 L 97.082031 196.484375 L 97.082031 206.042969 L 87.523438 206.042969 Z M 87.523438 196.484375 " clip-rule="nonzero"/></clipPath><clipPath id="ddfccde482"><path d="M 92.304688 196.484375 L 97.082031 201.265625 L 92.304688 206.042969 L 87.523438 201.265625 L 92.304688 196.484375 " clip-rule="nonzero"/></clipPath><clipPath id="e0ba77417c"><path d="M 277.917969 196.484375 L 287.476562 196.484375 L 287.476562 206.042969 L 277.917969 206.042969 Z M 277.917969 196.484375 " clip-rule="nonzero"/></clipPath><clipPath id="4d3451d483"><path d="M 282.695312 196.484375 L 287.476562 201.265625 L 282.695312 206.042969 L 277.917969 201.265625 L 282.695312 196.484375 " clip-rule="nonzero"/></clipPath></defs><g clip-path="url(#68462322dd)"><g clip-path="url(#24c2febdf5)"><path fill="#d2a113" d="M 50.71875 50.71875 L 324.0625 50.71875 L 324.0625 324.0625 L 50.71875 324.0625 Z M 50.71875 50.71875 " fill-opacity="1" fill-rule="nonzero"/></g></g><g clip-path="url(#ca50925ca3)"><path fill="#060b37" d="M 302.875 220.28125 C 299.753906 230.898438 294.992188 240.96875 289.085938 250.25 C 284.207031 257.796875 278.660156 264.894531 272.425781 271.347656 C 271.617188 272.230469 270.71875 273.019531 269.863281 273.851562 C 268.992188 274.667969 268.148438 275.511719 267.257812 276.308594 L 264.554688 278.660156 L 263.207031 279.835938 L 261.804688 280.949219 L 259.003906 283.1875 C 258.058594 283.910156 257.078125 284.597656 256.121094 285.304688 C 254.222656 286.757812 252.203125 288.035156 250.226562 289.378906 C 249.941406 289.574219 249.640625 289.773438 249.328125 289.984375 C 249.007812 290.175781 248.671875 290.378906 248.324219 290.585938 C 247.625 291.003906 246.875 291.453125 246.074219 291.929688 C 244.496094 292.921875 242.625 293.855469 240.609375 294.929688 C 240.101562 295.191406 239.59375 295.476562 239.058594 295.734375 C 238.515625 295.984375 237.96875 296.242188 237.40625 296.5 C 236.285156 297.019531 235.125 297.554688 233.925781 298.109375 C 231.46875 299.070312 228.90625 300.222656 226.109375 301.117188 C 215.074219 305.121094 201.304688 307.59375 187.484375 307.652344 C 173.664062 307.59375 159.890625 305.121094 148.859375 301.117188 C 146.0625 300.222656 143.5 299.070312 141.042969 298.109375 C 139.84375 297.554688 138.683594 297.019531 137.5625 296.5 C 137 296.242188 136.449219 295.984375 135.910156 295.734375 C 135.375 295.476562 134.867188 295.191406 134.359375 294.929688 C 132.339844 293.859375 130.472656 292.921875 128.894531 291.933594 C 128.09375 291.453125 127.34375 291.003906 126.644531 290.585938 C 126.296875 290.378906 125.960938 290.175781 125.640625 289.984375 C 125.328125 289.773438 125.027344 289.574219 124.742188 289.382812 C 117.234375 284.460938 110.183594 278.871094 103.769531 272.59375 C 97.007812 265.839844 91.097656 258.273438 85.882812 250.25 C 79.972656 240.972656 75.210938 230.898438 72.09375 220.28125 C 68.847656 209.695312 67.34375 198.589844 67.246094 187.484375 C 67.34375 176.375 68.847656 165.269531 72.09375 154.6875 C 75.210938 144.070312 79.972656 133.996094 85.882812 124.71875 C 90.761719 117.167969 96.308594 110.074219 102.542969 103.617188 C 103.347656 102.738281 104.25 101.949219 105.105469 101.117188 C 105.976562 100.296875 106.820312 99.453125 107.707031 98.65625 L 111.761719 95.128906 L 113.164062 94.015625 L 115.960938 91.78125 C 116.910156 91.054688 117.886719 90.371094 118.847656 89.660156 C 120.746094 88.207031 122.765625 86.929688 124.742188 85.585938 C 125.027344 85.394531 125.328125 85.195312 125.640625 84.984375 C 125.960938 84.792969 126.296875 84.589844 126.644531 84.378906 C 127.34375 83.960938 128.09375 83.515625 128.890625 83.035156 C 130.472656 82.042969 132.339844 81.109375 134.359375 80.039062 C 134.863281 79.777344 135.375 79.488281 135.910156 79.234375 C 136.449219 78.984375 137 78.726562 137.558594 78.46875 C 138.683594 77.949219 139.84375 77.414062 141.042969 76.859375 C 143.5 75.898438 146.0625 74.746094 148.859375 73.847656 C 159.890625 69.847656 173.664062 67.375 187.484375 67.316406 C 201.304688 67.375 215.074219 69.847656 226.109375 73.847656 C 228.90625 74.746094 231.464844 75.898438 233.925781 76.859375 C 235.125 77.414062 236.285156 77.949219 237.40625 78.46875 C 237.96875 78.726562 238.515625 78.984375 239.058594 79.230469 C 239.59375 79.488281 240.101562 79.777344 240.609375 80.039062 C 242.625 81.109375 244.496094 82.042969 246.074219 83.035156 C 246.871094 83.515625 247.625 83.960938 248.320312 84.378906 C 248.667969 84.589844 249.003906 84.789062 249.328125 84.984375 C 249.640625 85.195312 249.9375 85.394531 250.222656 85.585938 C 257.730469 90.507812 264.785156 96.09375 271.195312 102.371094 C 277.957031 109.128906 283.871094 116.695312 289.082031 124.71875 C 294.992188 133.996094 299.753906 144.070312 302.875 154.6875 C 306.121094 165.269531 307.621094 176.375 307.71875 187.484375 C 307.621094 198.589844 306.121094 209.695312 302.875 220.28125 Z M 310.484375 187.402344 L 310.480469 187.390625 C 310.378906 176.050781 308.855469 164.703125 305.550781 153.882812 C 302.371094 143.027344 297.503906 132.726562 291.4375 123.265625 L 288.519531 118.878906 C 288.519531 118.878906 287.679688 117.699219 286.414062 115.933594 C 285.195312 114.125 283.332031 111.902344 281.554688 109.617188 C 279.636719 107.445312 277.796875 105.203125 276.25 103.675781 C 274.75 102.105469 273.746094 101.058594 273.746094 101.058594 C 273.746094 101.058594 273.496094 100.800781 273.039062 100.363281 C 272.582031 99.921875 271.933594 99.292969 271.152344 98.539062 C 269.625 96.988281 267.414062 95.117188 265.246094 93.199219 C 264.132812 92.273438 262.988281 91.386719 261.929688 90.535156 C 261.398438 90.113281 260.882812 89.707031 260.398438 89.316406 C 259.894531 88.953125 259.417969 88.609375 258.976562 88.292969 C 257.214844 87.019531 256.039062 86.171875 256.039062 86.171875 C 256.039062 86.171875 255.785156 85.964844 255.371094 85.699219 C 254.960938 85.425781 254.414062 85.058594 253.867188 84.691406 C 252.777344 83.960938 251.683594 83.230469 251.683594 83.230469 C 251.390625 83.035156 251.085938 82.828125 250.765625 82.613281 C 250.4375 82.410156 250.09375 82.203125 249.738281 81.988281 C 249.027344 81.558594 248.257812 81.101562 247.441406 80.609375 C 245.828125 79.59375 243.917969 78.632812 241.855469 77.53125 C 241.335938 77.261719 240.8125 76.96875 240.265625 76.707031 C 239.714844 76.449219 239.152344 76.1875 238.578125 75.921875 C 237.429688 75.386719 236.242188 74.839844 235.015625 74.269531 C 232.5 73.28125 229.878906 72.101562 227.019531 71.183594 C 215.726562 67.082031 201.625 64.539062 187.484375 64.484375 C 173.34375 64.539062 159.242188 67.082031 147.949219 71.183594 C 145.089844 72.101562 142.464844 73.28125 139.953125 74.269531 C 138.726562 74.839844 137.535156 75.386719 136.390625 75.921875 C 135.816406 76.1875 135.253906 76.449219 134.699219 76.707031 C 134.152344 76.96875 133.632812 77.261719 133.113281 77.53125 C 131.050781 78.632812 129.140625 79.59375 127.523438 80.609375 C 126.707031 81.101562 125.941406 81.5625 125.226562 81.988281 C 124.871094 82.203125 124.527344 82.414062 124.199219 82.613281 C 123.882812 82.828125 123.574219 83.035156 123.285156 83.230469 C 123.285156 83.230469 122.191406 83.960938 121.097656 84.691406 C 120.554688 85.058594 120.007812 85.425781 119.597656 85.699219 C 119.183594 85.964844 118.929688 86.171875 118.929688 86.171875 C 118.929688 86.171875 117.753906 87.019531 115.992188 88.292969 C 115.550781 88.609375 115.074219 88.953125 114.570312 89.316406 C 114.082031 89.707031 113.570312 90.113281 113.039062 90.535156 C 111.980469 91.386719 110.835938 92.273438 109.722656 93.199219 C 107.550781 95.117188 105.339844 96.988281 103.816406 98.539062 C 103.035156 99.292969 102.386719 99.921875 101.929688 100.363281 C 101.472656 100.800781 101.21875 101.058594 101.21875 101.058594 C 101.21875 101.058594 100.21875 102.105469 98.714844 103.675781 C 97.167969 105.203125 95.332031 107.445312 93.414062 109.617188 C 91.632812 111.902344 89.769531 114.128906 88.554688 115.933594 C 87.289062 117.703125 86.445312 118.878906 86.445312 118.878906 L 83.53125 123.265625 C 77.460938 132.726562 72.59375 143.03125 69.417969 153.882812 C 66.113281 164.703125 64.585938 176.050781 64.488281 187.394531 L 64.484375 187.402344 L 64.484375 187.566406 L 64.488281 187.574219 C 64.585938 198.917969 66.113281 210.265625 69.417969 221.085938 C 72.59375 231.9375 77.460938 242.242188 83.53125 251.703125 L 86.445312 256.085938 C 86.445312 256.085938 87.289062 257.265625 88.554688 259.035156 C 89.769531 260.839844 91.632812 263.0625 93.414062 265.351562 C 95.332031 267.523438 97.167969 269.765625 98.714844 271.292969 C 100.21875 272.859375 101.21875 273.90625 101.21875 273.90625 C 101.21875 273.90625 101.472656 274.164062 101.929688 274.605469 C 102.386719 275.042969 103.035156 275.675781 103.816406 276.429688 C 105.339844 277.980469 107.550781 279.851562 109.722656 281.769531 C 110.835938 282.695312 111.980469 283.578125 113.039062 284.429688 C 113.570312 284.855469 114.082031 285.261719 114.570312 285.648438 C 115.074219 286.015625 115.550781 286.355469 115.992188 286.675781 C 117.753906 287.945312 118.929688 288.792969 118.929688 288.792969 C 118.929688 288.792969 119.183594 289 119.597656 289.269531 C 120.007812 289.542969 120.554688 289.910156 121.097656 290.273438 C 122.191406 291.007812 123.285156 291.738281 123.285156 291.738281 C 123.578125 291.933594 123.882812 292.140625 124.199219 292.355469 C 124.53125 292.554688 124.871094 292.761719 125.230469 292.976562 C 125.941406 293.40625 126.710938 293.867188 127.527344 294.359375 C 129.140625 295.375 131.050781 296.335938 133.113281 297.433594 C 133.632812 297.703125 134.152344 297.996094 134.703125 298.261719 C 135.253906 298.519531 135.816406 298.78125 136.390625 299.046875 C 137.535156 299.578125 138.726562 300.128906 139.953125 300.699219 C 142.464844 301.6875 145.089844 302.863281 147.949219 303.785156 C 159.242188 307.886719 173.34375 310.425781 187.484375 310.484375 C 201.625 310.425781 215.726562 307.886719 227.019531 303.785156 C 229.878906 302.863281 232.5 301.683594 235.015625 300.695312 C 236.242188 300.128906 237.429688 299.578125 238.578125 299.046875 C 239.152344 298.78125 239.714844 298.515625 240.265625 298.261719 C 240.816406 297.996094 241.335938 297.703125 241.855469 297.433594 C 243.917969 296.335938 245.828125 295.375 247.441406 294.359375 C 248.257812 293.867188 249.027344 293.40625 249.738281 292.976562 C 250.09375 292.761719 250.4375 292.554688 250.765625 292.355469 C 251.085938 292.140625 251.390625 291.933594 251.683594 291.738281 C 251.683594 291.738281 252.777344 291.007812 253.867188 290.273438 C 254.414062 289.910156 254.960938 289.542969 255.371094 289.269531 C 255.785156 289 256.039062 288.792969 256.039062 288.792969 C 256.039062 288.792969 257.214844 287.945312 258.976562 286.675781 C 259.417969 286.355469 259.894531 286.015625 260.398438 285.648438 C 260.882812 285.261719 261.398438 284.855469 261.929688 284.429688 C 262.988281 283.578125 264.132812 282.695312 265.246094 281.769531 C 267.414062 279.851562 269.625 277.980469 271.152344 276.429688 C 271.933594 275.675781 272.582031 275.042969 273.039062 274.605469 C 273.496094 274.164062 273.746094 273.90625 273.746094 273.90625 C 273.746094 273.90625 274.75 272.859375 276.25 271.292969 C 277.796875 269.765625 279.636719 267.523438 281.554688 265.351562 C 283.332031 263.0625 285.199219 260.839844 286.414062 259.035156 C 287.679688 257.265625 288.519531 256.085938 288.519531 256.085938 L 291.4375 251.703125 C 297.503906 242.242188 302.371094 231.9375 305.550781 221.085938 C 308.855469 210.261719 310.378906 198.914062 310.480469 187.574219 L 310.484375 187.566406 L 310.484375 187.402344 " fill-opacity="1" fill-rule="nonzero"/></g><g clip-path="url(#b97d248e72)"><g clip-path="url(#d9bfdca199)"><g clip-path="url(#b46430e1e8)"><path fill="#060b37" d="M 253.902344 225.03125 C 252.171875 227.921875 250.960938 231.152344 248.460938 233.554688 C 248.28125 233.730469 248.105469 233.933594 248 234.15625 C 246.144531 238.023438 242.660156 240.417969 239.722656 243.304688 C 238.820312 244.195312 237.769531 244.378906 237.535156 243.832031 C 237.167969 242.964844 237.726562 242.328125 238.277344 241.84375 C 240.164062 240.199219 241.304688 238.003906 242.734375 236.019531 C 243.425781 235.0625 244.039062 234.042969 244.742188 233.09375 C 246.5625 230.628906 247.898438 227.90625 249.128906 225.117188 C 249.296875 224.730469 249.4375 224.328125 249.652344 223.964844 C 251.613281 220.628906 252.527344 216.917969 253.371094 213.214844 C 254.136719 209.84375 254.425781 206.367188 255.222656 203.007812 C 256.03125 199.601562 255.976562 196.128906 256.441406 192.699219 C 257.101562 187.832031 256.953125 182.949219 256.09375 178.0625 C 255 171.859375 253.101562 165.925781 250.882812 160.066406 C 250.417969 158.839844 249.578125 157.902344 248.859375 156.867188 C 248.589844 156.480469 248.675781 156.050781 248.960938 155.695312 C 249.273438 155.296875 249.953125 155.203125 250.332031 155.511719 C 250.589844 155.722656 250.859375 155.953125 251.039062 156.226562 C 251.867188 157.5 252.757812 158.746094 253.449219 160.089844 C 254.957031 163.027344 256.1875 166.089844 257.152344 169.253906 C 257.347656 169.902344 257.484375 170.582031 257.777344 171.183594 C 259.390625 174.507812 259.742188 178.160156 260.535156 181.695312 C 260.742188 182.605469 260.851562 183.523438 260.835938 184.464844 C 260.824219 185.304688 260.875 186.164062 261.03125 186.992188 C 261.511719 189.566406 262.019531 192.136719 261.726562 194.777344 C 262.339844 199.734375 261.675781 204.546875 260.238281 209.304688 C 259.0625 213.195312 257.855469 217.074219 256.121094 220.757812 C 255.4375 222.207031 254.644531 223.609375 253.902344 225.03125 " fill-opacity="1" fill-rule="nonzero"/></g></g></g><g clip-path="url(#340cb7608a)"><g clip-path="url(#63ca18f96e)"><g clip-path="url(#21b9f6135c)"><path fill="#060b37" d="M 222.003906 127.511719 C 226.136719 129.492188 229.777344 131.761719 233.027344 134.652344 C 234.539062 136 236.226562 137.148438 237.804688 138.421875 C 239.394531 139.703125 240.785156 141.179688 241.914062 142.886719 C 242.191406 143.3125 242.484375 143.746094 242.847656 144.089844 C 244.832031 145.960938 246.210938 148.300781 247.839844 150.449219 C 248.535156 151.363281 248.871094 152.378906 249.117188 153.449219 C 249.160156 153.648438 249.035156 153.976562 248.875 154.101562 C 248.71875 154.226562 248.339844 154.28125 248.191406 154.175781 C 247.230469 153.492188 246.128906 152.921875 245.511719 151.886719 C 244.800781 150.699219 243.769531 149.832031 242.839844 148.859375 C 240.390625 146.300781 237.957031 143.726562 235.515625 141.15625 C 235.398438 141.035156 235.289062 140.890625 235.140625 140.816406 C 232.457031 139.453125 230.703125 136.917969 228.199219 135.324219 C 227.542969 134.90625 226.988281 134.382812 226.589844 133.726562 C 225.941406 132.660156 224.960938 132.023438 223.863281 131.550781 C 222.769531 131.078125 221.777344 130.457031 220.773438 129.824219 C 219.199219 128.835938 217.574219 127.914062 215.726562 127.488281 C 215.398438 127.410156 215.0625 127.304688 214.773438 127.140625 C 212.238281 125.722656 209.40625 125.03125 206.683594 124.199219 C 202 122.765625 197.226562 121.363281 192.289062 121.320312 C 189.265625 121.292969 186.214844 121.167969 183.179688 121.519531 C 181.171875 121.753906 179.140625 121.789062 177.125 121.910156 C 176.621094 121.941406 176.101562 121.90625 175.613281 122.011719 C 170.066406 123.191406 164.546875 124.464844 159.207031 126.429688 C 157.996094 126.875 156.867188 127.410156 155.929688 128.296875 C 154.566406 129.589844 152.8125 129.925781 151.066406 130.273438 C 150.824219 130.320312 150.558594 130.296875 150.308594 130.273438 C 149.652344 130.210938 149.121094 129.773438 149.015625 129.234375 C 148.910156 128.683594 149.214844 128.046875 149.8125 127.785156 C 150.582031 127.445312 151.40625 127.21875 152.175781 126.871094 C 154.710938 125.726562 157.21875 124.515625 159.769531 123.398438 C 161.78125 122.519531 163.800781 121.632812 165.886719 120.949219 C 167.566406 120.394531 169.328125 120.054688 171.078125 119.769531 C 174.164062 119.269531 177.207031 118.539062 180.351562 118.359375 C 182.792969 118.21875 185.265625 118.394531 187.675781 117.820312 C 187.992188 117.746094 188.355469 117.804688 188.683594 117.871094 C 193.074219 118.75 197.625 118.753906 201.910156 120.25 C 202.378906 120.414062 202.90625 120.488281 203.40625 120.484375 C 205.402344 120.457031 207.246094 121.078125 209.054688 121.808594 C 211.246094 122.691406 213.40625 123.664062 215.582031 124.59375 C 216.050781 124.796875 216.503906 125.078125 216.992188 125.160156 C 218.023438 125.339844 218.882812 125.824219 219.738281 126.394531 C 220.511719 126.90625 221.292969 127.441406 222.003906 127.511719 " fill-opacity="1" fill-rule="nonzero"/></g></g></g><g clip-path="url(#f9af1713be)"><g clip-path="url(#0cdac0b222)"><g clip-path="url(#11cd110820)"><path fill="#060b37" d="M 121.359375 157.484375 C 121.414062 157.382812 121.5625 157.171875 121.644531 156.933594 C 123.039062 152.757812 126.082031 149.585938 128.359375 145.945312 C 128.621094 145.527344 129.050781 145.210938 129.410156 144.859375 C 129.953125 144.324219 130.5625 143.84375 131.042969 143.257812 C 133.132812 140.695312 135.679688 138.570312 137.890625 136.125 C 138.285156 135.691406 138.714844 135.238281 139.21875 134.957031 C 140.777344 134.082031 142.136719 132.941406 143.554688 131.871094 C 144.585938 131.09375 145.738281 130.582031 147.070312 130.597656 C 148.277344 130.613281 148.914062 131.675781 148.28125 132.703125 C 148.023438 133.121094 147.65625 133.503906 147.265625 133.804688 C 146.257812 134.570312 145.222656 135.304688 144.195312 136.039062 C 142.488281 137.261719 140.976562 138.761719 139.378906 140.140625 C 135.90625 143.152344 132.992188 146.671875 130.246094 150.324219 C 128.878906 152.144531 127.675781 154.101562 126.546875 156.082031 C 124.996094 158.796875 123.601562 161.601562 122.113281 164.355469 C 120.289062 167.722656 119.039062 171.308594 117.964844 174.964844 C 117.511719 176.503906 117.082031 178.046875 116.601562 179.582031 C 116.175781 180.925781 116.171875 182.410156 116.003906 183.832031 C 115.941406 184.347656 115.824219 184.824219 115.476562 185.230469 C 115.082031 185.695312 114.210938 185.628906 113.980469 185.066406 C 113.792969 184.605469 113.625 184.101562 113.617188 183.613281 C 113.59375 182 113.699219 180.386719 114.378906 178.886719 C 114.734375 178.101562 114.914062 177.304688 114.949219 176.441406 C 115.015625 174.832031 115.234375 173.226562 115.769531 171.707031 C 117.003906 168.214844 117.628906 164.5 119.578125 161.261719 C 120.269531 160.109375 120.34375 158.652344 121.359375 157.484375 " fill-opacity="1" fill-rule="nonzero"/></g></g></g><g clip-path="url(#f01c5d4a24)"><g clip-path="url(#eebc7b1543)"><g clip-path="url(#97142d1b02)"><path fill="#060b37" d="M 220.882812 255.3125 C 221.101562 255.113281 221.492188 254.660156 221.96875 254.332031 C 223.425781 253.332031 224.902344 252.367188 226.390625 251.414062 C 227.738281 250.550781 229.089844 249.703125 230.464844 248.890625 C 231.355469 248.363281 232.015625 247.605469 232.722656 246.886719 C 233.375 246.222656 234.101562 245.628906 235.078125 245.515625 C 235.398438 245.480469 235.742188 245.542969 236.066406 245.613281 C 236.449219 245.699219 236.703125 246.328125 236.480469 246.644531 C 236.289062 246.917969 236.085938 247.191406 235.832031 247.410156 C 233.042969 249.828125 230.289062 252.3125 227.207031 254.351562 C 225.53125 255.453125 223.636719 256.226562 221.824219 257.109375 C 221.425781 257.300781 220.980469 257.171875 220.722656 256.757812 C 220.480469 256.371094 220.503906 255.960938 220.882812 255.3125 " fill-opacity="1" fill-rule="nonzero"/></g></g></g><g clip-path="url(#0c7f39d82c)"><g clip-path="url(#0b8128ae6a)"><g clip-path="url(#493195aef6)"><path fill="#060b37" d="M 117.617188 216.375 C 117.820312 216.316406 117.980469 216.222656 118.125 216.242188 C 118.273438 216.265625 118.492188 216.371094 118.535156 216.492188 C 119.398438 218.929688 121.550781 220.804688 121.636719 223.585938 C 121.65625 224.191406 122.085938 224.652344 122.351562 225.175781 C 123.070312 226.601562 123.699219 228.070312 124.34375 229.53125 C 124.441406 229.75 124.402344 230.046875 124.136719 230.164062 C 123.875 230.273438 123.625 230.117188 123.496094 229.902344 C 122.816406 228.757812 121.785156 227.789062 121.703125 226.335938 C 121.664062 225.625 121.15625 225.132812 120.785156 224.570312 C 119.527344 222.675781 118.34375 220.734375 117.71875 218.519531 C 117.582031 218.039062 117.46875 217.542969 117.417969 217.046875 C 117.394531 216.824219 117.550781 216.582031 117.617188 216.375 " fill-opacity="1" fill-rule="nonzero"/></g></g></g><g clip-path="url(#dcfb8e9ef6)"><g clip-path="url(#31b3fe605a)"><g clip-path="url(#4bf0198180)"><path fill="#060b37" d="M 136.476562 245.96875 C 135.453125 245.011719 134.40625 244.054688 133.398438 243.054688 C 133.117188 242.773438 132.921875 242.378906 132.761719 242.003906 C 132.632812 241.6875 132.6875 241.332031 132.96875 241.089844 C 133.257812 240.84375 133.597656 240.863281 133.882812 241.085938 C 135.351562 242.230469 136.59375 243.5625 137.332031 245.304688 C 137.429688 245.542969 137.503906 245.839844 137.234375 245.972656 C 137.046875 246.0625 136.777344 245.976562 136.476562 245.96875 " fill-opacity="1" fill-rule="nonzero"/></g></g></g><g clip-path="url(#25efd8570d)"><g clip-path="url(#b38e4dec41)"><g clip-path="url(#a212530ef3)"><path fill="#060b37" d="M 114.960938 206.378906 C 115.164062 206.363281 115.367188 206.285156 115.460938 206.351562 C 115.96875 206.714844 116.148438 207.289062 116.265625 207.859375 C 116.480469 208.925781 116.753906 209.953125 117.34375 210.898438 C 117.699219 211.472656 117.824219 212.15625 117.578125 212.824219 C 117.503906 213.03125 117.300781 213.273438 117.109375 213.332031 C 116.914062 213.394531 116.597656 213.308594 116.433594 213.171875 C 115.828125 212.675781 115.425781 212.019531 115.488281 211.21875 C 115.597656 209.78125 115.464844 208.402344 114.863281 207.074219 C 114.78125 206.890625 114.925781 206.605469 114.960938 206.378906 " fill-opacity="1" fill-rule="nonzero"/></g></g></g><g clip-path="url(#8863be1afa)"><g clip-path="url(#ddf3c6e4b0)"><g clip-path="url(#00753d05e7)"><path fill="#060b37" d="M 126.511719 233.527344 C 126.695312 233.484375 126.945312 233.34375 127.140625 233.398438 C 127.863281 233.585938 128.214844 234.117188 128.15625 234.878906 C 128.125 235.28125 127.816406 235.449219 127.460938 235.417969 C 126.761719 235.359375 126.339844 234.839844 126.328125 234.050781 C 126.324219 233.902344 126.429688 233.75 126.511719 233.527344 " fill-opacity="1" fill-rule="nonzero"/></g></g></g><g clip-path="url(#543a4b1ba7)"><g clip-path="url(#ae448ccf55)"><g clip-path="url(#9be0e11098)"><path fill="#060b37" d="M 114 194.542969 C 113.433594 194.285156 113.238281 193.765625 113.480469 193.109375 C 113.609375 192.761719 113.878906 192.585938 114.242188 192.679688 C 114.886719 192.847656 115.195312 193.648438 114.839844 194.261719 C 114.664062 194.570312 114.351562 194.664062 114 194.542969 " fill-opacity="1" fill-rule="nonzero"/></g></g></g><g clip-path="url(#0b2d77d24b)"><g clip-path="url(#fb8177fde8)"><g clip-path="url(#91cccf3c7a)"><path fill="#060b37" d="M 264.019531 194.707031 C 263.773438 195.011719 263.460938 195.054688 263.148438 194.859375 C 262.753906 194.613281 262.59375 194.238281 262.796875 193.800781 C 262.953125 193.46875 263.285156 193.351562 263.625 193.464844 C 264.097656 193.625 264.285156 194.277344 264.019531 194.707031 " fill-opacity="1" fill-rule="nonzero"/></g></g></g><g clip-path="url(#5816aab092)"><g clip-path="url(#a63c4be8b8)"><g clip-path="url(#2a99eac894)"><path fill="#060b37" d="M 130.117188 238.039062 C 130.359375 237.894531 130.585938 237.953125 130.777344 238.125 C 130.976562 238.304688 131.054688 238.5625 130.847656 238.761719 C 130.648438 238.957031 130.390625 238.859375 130.203125 238.683594 C 130.015625 238.503906 129.953125 238.28125 130.117188 238.039062 " fill-opacity="1" fill-rule="nonzero"/></g></g></g><g fill="#060b37" fill-opacity="1"><g transform="translate(100.199049, 160.661259)"><g><path d="M -11.15625 -13.9375 C -10.6875 -15.039062 -10.078125 -15.984375 -9.328125 -16.765625 C -8.578125 -17.546875 -7.734375 -18.140625 -6.796875 -18.546875 C -5.867188 -18.960938 -4.863281 -19.171875 -3.78125 -19.171875 C -2.707031 -19.179688 -1.617188 -18.957031 -0.515625 -18.5 C 0.109375 -18.238281 0.691406 -17.90625 1.234375 -17.5 C 1.773438 -17.09375 2.257812 -16.632812 2.6875 -16.125 C 3.113281 -15.625 3.472656 -15.070312 3.765625 -14.46875 C 4.054688 -13.875 4.253906 -13.242188 4.359375 -12.578125 C 4.472656 -11.910156 4.488281 -11.21875 4.40625 -10.5 C 4.332031 -9.789062 4.140625 -9.070312 3.828125 -8.34375 C 3.367188 -7.238281 2.769531 -6.289062 2.03125 -5.5 C 1.289062 -4.71875 0.453125 -4.117188 -0.484375 -3.703125 C -1.421875 -3.285156 -2.421875 -3.078125 -3.484375 -3.078125 C -4.546875 -3.078125 -5.632812 -3.3125 -6.75 -3.78125 C -7.375 -4.039062 -7.957031 -4.367188 -8.5 -4.765625 C -9.039062 -5.160156 -9.53125 -5.613281 -9.96875 -6.125 C -10.40625 -6.644531 -10.765625 -7.203125 -11.046875 -7.796875 C -11.335938 -8.390625 -11.539062 -9.019531 -11.65625 -9.6875 C -11.78125 -10.351562 -11.800781 -11.046875 -11.71875 -11.765625 C -11.644531 -12.484375 -11.457031 -13.207031 -11.15625 -13.9375 Z M 2.9375 -8.71875 C 3.25 -9.445312 3.398438 -10.171875 3.390625 -10.890625 C 3.378906 -11.609375 3.210938 -12.289062 2.890625 -12.9375 C 2.578125 -13.582031 2.109375 -14.175781 1.484375 -14.71875 C 0.859375 -15.269531 0.0859375 -15.738281 -0.828125 -16.125 C -1.835938 -16.550781 -2.828125 -16.828125 -3.796875 -16.953125 C -4.765625 -17.085938 -5.664062 -17.054688 -6.5 -16.859375 C -7.332031 -16.660156 -8.070312 -16.289062 -8.71875 -15.75 C -9.363281 -15.21875 -9.878906 -14.492188 -10.265625 -13.578125 C -10.566406 -12.847656 -10.710938 -12.117188 -10.703125 -11.390625 C -10.691406 -10.671875 -10.53125 -9.988281 -10.21875 -9.34375 C -9.90625 -8.695312 -9.441406 -8.097656 -8.828125 -7.546875 C -8.210938 -7.003906 -7.445312 -6.539062 -6.53125 -6.15625 C -5.519531 -5.738281 -4.523438 -5.460938 -3.546875 -5.328125 C -2.578125 -5.191406 -1.675781 -5.21875 -0.84375 -5.40625 C -0.0078125 -5.601562 0.734375 -5.972656 1.390625 -6.515625 C 2.046875 -7.066406 2.5625 -7.800781 2.9375 -8.71875 Z M 2.9375 -8.71875 "/></g></g></g><g fill="#060b37" fill-opacity="1"><g transform="translate(108.590824, 141.773848)"><g><path d="M -2.734375 -18.953125 L -2.734375 -18.84375 C -3.472656 -18.664062 -4.195312 -18.34375 -4.90625 -17.875 C -5.613281 -17.40625 -6.234375 -16.789062 -6.765625 -16.03125 C -7.273438 -15.289062 -7.625 -14.53125 -7.8125 -13.75 C -8.007812 -12.96875 -8.039062 -12.203125 -7.90625 -11.453125 C -7.78125 -10.703125 -7.484375 -9.976562 -7.015625 -9.28125 C -6.546875 -8.59375 -5.90625 -7.96875 -5.09375 -7.40625 C -4.1875 -6.78125 -3.257812 -6.3125 -2.3125 -6 C -1.375 -5.695312 -0.460938 -5.578125 0.421875 -5.640625 C 1.316406 -5.710938 2.164062 -5.976562 2.96875 -6.4375 C 3.78125 -6.90625 4.507812 -7.609375 5.15625 -8.546875 C 5.382812 -8.878906 5.582031 -9.238281 5.75 -9.625 C 5.925781 -10.019531 6.050781 -10.414062 6.125 -10.8125 C 6.207031 -11.21875 6.242188 -11.625 6.234375 -12.03125 C 6.222656 -12.4375 6.171875 -12.84375 6.078125 -13.25 L 6.203125 -13.296875 L 7.515625 -11.328125 C 7.367188 -10.773438 7.15625 -10.203125 6.875 -9.609375 C 6.59375 -9.015625 6.265625 -8.445312 5.890625 -7.90625 C 5.140625 -6.820312 4.289062 -5.9375 3.34375 -5.25 C 2.40625 -4.570312 1.421875 -4.109375 0.390625 -3.859375 C -0.640625 -3.609375 -1.679688 -3.582031 -2.734375 -3.78125 C -3.796875 -3.976562 -4.820312 -4.421875 -5.8125 -5.109375 C -6.363281 -5.492188 -6.859375 -5.945312 -7.296875 -6.46875 C -7.742188 -6.988281 -8.113281 -7.554688 -8.40625 -8.171875 C -8.707031 -8.785156 -8.914062 -9.4375 -9.03125 -10.125 C -9.15625 -10.820312 -9.1875 -11.535156 -9.125 -12.265625 C -9.070312 -12.992188 -8.910156 -13.726562 -8.640625 -14.46875 C -8.367188 -15.207031 -7.984375 -15.941406 -7.484375 -16.671875 C -6.691406 -17.804688 -5.785156 -18.738281 -4.765625 -19.46875 Z M -2.734375 -18.953125 "/></g></g></g><g fill="#060b37" fill-opacity="1"><g transform="translate(119.007779, 127.221614)"><g><path d="M 3.75 -13.75 C 3.539062 -13.550781 3.273438 -13.304688 2.953125 -13.015625 C 2.640625 -12.722656 2.296875 -12.398438 1.921875 -12.046875 C 1.554688 -11.703125 1.175781 -11.34375 0.78125 -10.96875 C 0.382812 -10.601562 0 -10.242188 -0.375 -9.890625 C -0.757812 -9.535156 -1.117188 -9.1875 -1.453125 -8.84375 C -1.796875 -8.507812 -2.09375 -8.222656 -2.34375 -7.984375 L -0.140625 -5.671875 C 0.273438 -5.222656 0.644531 -4.835938 0.96875 -4.515625 C 1.300781 -4.203125 1.59375 -3.9375 1.84375 -3.71875 C 2.09375 -3.5 2.304688 -3.320312 2.484375 -3.1875 C 2.660156 -3.050781 2.816406 -2.941406 2.953125 -2.859375 L 2.984375 -2.828125 L 1.109375 -1.0625 L 1.078125 -1.09375 C 1.003906 -1.21875 0.90625 -1.375 0.78125 -1.5625 C 0.664062 -1.757812 0.503906 -1.988281 0.296875 -2.25 C 0.0859375 -2.507812 -0.164062 -2.804688 -0.46875 -3.140625 C -0.78125 -3.472656 -1.144531 -3.863281 -1.5625 -4.3125 L -6.390625 -9.375 C -6.804688 -9.8125 -7.171875 -10.191406 -7.484375 -10.515625 C -7.804688 -10.835938 -8.09375 -11.109375 -8.34375 -11.328125 C -8.59375 -11.554688 -8.8125 -11.734375 -9 -11.859375 C -9.1875 -11.992188 -9.347656 -12.101562 -9.484375 -12.1875 L -9.515625 -12.21875 L -7.640625 -13.984375 L -7.609375 -13.953125 C -7.535156 -13.828125 -7.429688 -13.671875 -7.296875 -13.484375 C -7.171875 -13.296875 -7.003906 -13.066406 -6.796875 -12.796875 C -6.585938 -12.535156 -6.332031 -12.234375 -6.03125 -11.890625 C -5.738281 -11.554688 -5.382812 -11.171875 -4.96875 -10.734375 L -3.0625 -8.734375 C -2.789062 -8.972656 -2.476562 -9.253906 -2.125 -9.578125 C -1.78125 -9.910156 -1.421875 -10.253906 -1.046875 -10.609375 C -0.679688 -10.960938 -0.304688 -11.328125 0.078125 -11.703125 C 0.460938 -12.078125 0.828125 -12.441406 1.171875 -12.796875 C 1.523438 -13.148438 1.851562 -13.476562 2.15625 -13.78125 C 2.457031 -14.09375 2.71875 -14.363281 2.9375 -14.59375 L 1.109375 -16.515625 C 0.691406 -16.953125 0.320312 -17.328125 0 -17.640625 C -0.320312 -17.960938 -0.609375 -18.234375 -0.859375 -18.453125 C -1.109375 -18.679688 -1.320312 -18.863281 -1.5 -19 C -1.6875 -19.132812 -1.847656 -19.238281 -1.984375 -19.3125 L -2.015625 -19.34375 L -0.15625 -21.125 L -0.125 -21.09375 C -0.0507812 -20.957031 0.046875 -20.796875 0.171875 -20.609375 C 0.304688 -20.421875 0.476562 -20.191406 0.6875 -19.921875 C 0.894531 -19.660156 1.148438 -19.359375 1.453125 -19.015625 C 1.753906 -18.679688 2.113281 -18.296875 2.53125 -17.859375 L 7.359375 -12.796875 C 7.773438 -12.347656 8.144531 -11.960938 8.46875 -11.640625 C 8.789062 -11.328125 9.078125 -11.0625 9.328125 -10.84375 C 9.578125 -10.625 9.789062 -10.445312 9.96875 -10.3125 C 10.144531 -10.175781 10.300781 -10.070312 10.4375 -10 L 10.46875 -9.96875 L 8.609375 -8.1875 L 8.578125 -8.21875 C 8.503906 -8.351562 8.40625 -8.515625 8.28125 -8.703125 C 8.15625 -8.890625 7.988281 -9.113281 7.78125 -9.375 C 7.570312 -9.632812 7.316406 -9.929688 7.015625 -10.265625 C 6.710938 -10.609375 6.351562 -11.003906 5.9375 -11.453125 Z M 3.75 -13.75 "/></g></g></g><g fill="#060b37" fill-opacity="1"><g transform="translate(132.863177, 114.347199)"><g><path d="M -0.765625 -17.828125 C 0.265625 -18.453125 1.3125 -18.859375 2.375 -19.046875 C 3.445312 -19.234375 4.476562 -19.210938 5.46875 -18.984375 C 6.46875 -18.765625 7.398438 -18.335938 8.265625 -17.703125 C 9.140625 -17.078125 9.882812 -16.253906 10.5 -15.234375 C 10.851562 -14.648438 11.128906 -14.035156 11.328125 -13.390625 C 11.523438 -12.742188 11.644531 -12.09375 11.6875 -11.4375 C 11.726562 -10.78125 11.691406 -10.117188 11.578125 -9.453125 C 11.460938 -8.796875 11.253906 -8.164062 10.953125 -7.5625 C 10.648438 -6.957031 10.253906 -6.390625 9.765625 -5.859375 C 9.285156 -5.335938 8.703125 -4.867188 8.015625 -4.453125 C 6.992188 -3.835938 5.953125 -3.429688 4.890625 -3.234375 C 3.828125 -3.046875 2.796875 -3.054688 1.796875 -3.265625 C 0.796875 -3.484375 -0.128906 -3.90625 -0.984375 -4.53125 C -1.847656 -5.164062 -2.59375 -6 -3.21875 -7.03125 C -3.570312 -7.613281 -3.847656 -8.226562 -4.046875 -8.875 C -4.253906 -9.519531 -4.382812 -10.175781 -4.4375 -10.84375 C -4.488281 -11.507812 -4.453125 -12.164062 -4.328125 -12.8125 C -4.203125 -13.46875 -3.988281 -14.097656 -3.6875 -14.703125 C -3.394531 -15.304688 -3.003906 -15.875 -2.515625 -16.40625 C -2.023438 -16.945312 -1.441406 -17.421875 -0.765625 -17.828125 Z M 7.515625 -5.28125 C 8.203125 -5.695312 8.75 -6.195312 9.15625 -6.78125 C 9.570312 -7.363281 9.84375 -8.007812 9.96875 -8.71875 C 10.101562 -9.425781 10.082031 -10.1875 9.90625 -11 C 9.726562 -11.8125 9.378906 -12.644531 8.859375 -13.5 C 8.296875 -14.445312 7.660156 -15.253906 6.953125 -15.921875 C 6.242188 -16.585938 5.492188 -17.085938 4.703125 -17.421875 C 3.921875 -17.765625 3.109375 -17.910156 2.265625 -17.859375 C 1.429688 -17.804688 0.585938 -17.519531 -0.265625 -17 C -0.941406 -16.59375 -1.488281 -16.09375 -1.90625 -15.5 C -2.332031 -14.914062 -2.609375 -14.269531 -2.734375 -13.5625 C -2.867188 -12.863281 -2.84375 -12.113281 -2.65625 -11.3125 C -2.476562 -10.507812 -2.132812 -9.6875 -1.625 -8.84375 C -1.050781 -7.894531 -0.414062 -7.078125 0.28125 -6.390625 C 0.988281 -5.710938 1.734375 -5.203125 2.515625 -4.859375 C 3.304688 -4.523438 4.125 -4.382812 4.96875 -4.4375 C 5.820312 -4.488281 6.671875 -4.769531 7.515625 -5.28125 Z M 7.515625 -5.28125 "/></g></g></g><g fill="#060b37" fill-opacity="1"><g transform="translate(150.78714, 104.059854)"><g><path d="M 11.53125 -3.96875 L 11.515625 -4.015625 C 11.515625 -4.054688 11.503906 -4.109375 11.484375 -4.171875 C 11.460938 -4.242188 11.445312 -4.304688 11.4375 -4.359375 C 11.363281 -4.566406 11.253906 -4.785156 11.109375 -5.015625 C 10.960938 -5.253906 10.742188 -5.539062 10.453125 -5.875 L 8.28125 -8.203125 C 7.894531 -8.078125 7.382812 -7.90625 6.75 -7.6875 C 6.113281 -7.46875 5.4375 -7.234375 4.71875 -6.984375 C 4.175781 -6.804688 3.65625 -6.628906 3.15625 -6.453125 C 2.664062 -6.285156 2.222656 -6.125 1.828125 -5.96875 L 1.59375 -2.890625 C 1.570312 -2.617188 1.550781 -2.3125 1.53125 -1.96875 C 1.519531 -1.625 1.566406 -1.300781 1.671875 -1 C 1.691406 -0.914062 1.71875 -0.847656 1.75 -0.796875 C 1.789062 -0.742188 1.828125 -0.707031 1.859375 -0.6875 L 1.875 -0.640625 L -0.203125 0.078125 L -0.21875 0.03125 C -0.132812 -0.144531 -0.0625 -0.425781 0 -0.8125 C 0.0703125 -1.207031 0.132812 -1.691406 0.1875 -2.265625 L 1.546875 -17.171875 L 2.359375 -17.453125 L 12.15625 -6.921875 C 12.375 -6.691406 12.601562 -6.460938 12.84375 -6.234375 C 13.082031 -6.003906 13.296875 -5.800781 13.484375 -5.625 C 13.679688 -5.445312 13.851562 -5.300781 14 -5.1875 C 14.144531 -5.070312 14.242188 -5 14.296875 -4.96875 L 14.3125 -4.921875 Z M 3 -7.375 C 3.394531 -7.507812 3.796875 -7.648438 4.203125 -7.796875 C 4.617188 -7.941406 5.019531 -8.082031 5.40625 -8.21875 C 5.800781 -8.363281 6.179688 -8.5 6.546875 -8.625 C 6.910156 -8.757812 7.242188 -8.882812 7.546875 -9 L 2.453125 -14.453125 L 1.90625 -7 Z M 3 -7.375 "/></g></g></g><g fill="#060b37" fill-opacity="1"><g transform="translate(168.293871, 98.696806)"><g><path d="M 0.078125 -15.6875 C 0.0664062 -15.625 0.0546875 -15.546875 0.046875 -15.453125 C 0.0351562 -15.367188 0.03125 -15.238281 0.03125 -15.0625 C 0.0390625 -14.894531 0.0507812 -14.675781 0.0625 -14.40625 C 0.0820312 -14.132812 0.101562 -13.789062 0.125 -13.375 C 0.144531 -12.96875 0.175781 -12.472656 0.21875 -11.890625 C 0.257812 -11.316406 0.300781 -10.632812 0.34375 -9.84375 L -0.125 -9.75 C -0.375 -10.507812 -0.585938 -11.160156 -0.765625 -11.703125 C -0.953125 -12.253906 -1.109375 -12.722656 -1.234375 -13.109375 C -1.359375 -13.503906 -1.460938 -13.832031 -1.546875 -14.09375 C -1.640625 -14.351562 -1.71875 -14.5625 -1.78125 -14.71875 C -1.84375 -14.882812 -1.894531 -15.003906 -1.9375 -15.078125 C -1.976562 -15.160156 -2.015625 -15.226562 -2.046875 -15.28125 L -2.046875 -15.296875 L 0.078125 -15.703125 Z M 0.078125 -15.6875 "/></g></g></g><g fill="#060b37" fill-opacity="1"><g transform="translate(175.675145, 97.30729)"><g><path d="M 6.984375 -13.515625 L 6.75 -13.5 C 6.675781 -13.65625 6.566406 -13.832031 6.421875 -14.03125 C 6.285156 -14.226562 6.109375 -14.410156 5.890625 -14.578125 C 5.679688 -14.742188 5.425781 -14.875 5.125 -14.96875 C 4.820312 -15.0625 4.472656 -15.097656 4.078125 -15.078125 C 3.722656 -15.046875 3.414062 -14.96875 3.15625 -14.84375 C 2.894531 -14.71875 2.675781 -14.554688 2.5 -14.359375 C 2.332031 -14.160156 2.210938 -13.921875 2.140625 -13.640625 C 2.066406 -13.367188 2.039062 -13.070312 2.0625 -12.75 C 2.101562 -12.226562 2.285156 -11.742188 2.609375 -11.296875 C 2.941406 -10.847656 3.34375 -10.410156 3.8125 -9.984375 C 4.28125 -9.566406 4.785156 -9.148438 5.328125 -8.734375 C 5.867188 -8.316406 6.375 -7.875 6.84375 -7.40625 C 7.320312 -6.945312 7.722656 -6.457031 8.046875 -5.9375 C 8.378906 -5.414062 8.566406 -4.847656 8.609375 -4.234375 C 8.640625 -3.765625 8.59375 -3.289062 8.46875 -2.8125 C 8.351562 -2.34375 8.140625 -1.90625 7.828125 -1.5 C 7.515625 -1.101562 7.101562 -0.769531 6.59375 -0.5 C 6.09375 -0.238281 5.476562 -0.078125 4.75 -0.015625 C 4.332031 0.015625 3.9375 0.0078125 3.5625 -0.03125 C 3.195312 -0.0820312 2.851562 -0.148438 2.53125 -0.234375 C 2.21875 -0.328125 1.929688 -0.425781 1.671875 -0.53125 C 1.410156 -0.644531 1.195312 -0.753906 1.03125 -0.859375 L 1.109375 -3.21875 L 1.375 -3.25 C 1.476562 -2.925781 1.628906 -2.617188 1.828125 -2.328125 C 2.035156 -2.046875 2.273438 -1.796875 2.546875 -1.578125 C 2.816406 -1.359375 3.125 -1.191406 3.46875 -1.078125 C 3.820312 -0.960938 4.195312 -0.921875 4.59375 -0.953125 C 4.957031 -0.984375 5.28125 -1.066406 5.5625 -1.203125 C 5.84375 -1.335938 6.082031 -1.507812 6.28125 -1.71875 C 6.476562 -1.925781 6.617188 -2.171875 6.703125 -2.453125 C 6.796875 -2.734375 6.832031 -3.035156 6.8125 -3.359375 C 6.769531 -3.796875 6.65625 -4.195312 6.46875 -4.5625 C 6.28125 -4.9375 6.035156 -5.285156 5.734375 -5.609375 C 5.441406 -5.929688 5.113281 -6.238281 4.75 -6.53125 C 4.382812 -6.832031 4.007812 -7.132812 3.625 -7.4375 C 3.25 -7.738281 2.878906 -8.046875 2.515625 -8.359375 C 2.160156 -8.671875 1.832031 -9.015625 1.53125 -9.390625 C 1.226562 -9.765625 0.976562 -10.164062 0.78125 -10.59375 C 0.59375 -11.03125 0.476562 -11.515625 0.4375 -12.046875 C 0.394531 -12.617188 0.46875 -13.140625 0.65625 -13.609375 C 0.84375 -14.078125 1.097656 -14.484375 1.421875 -14.828125 C 1.753906 -15.179688 2.144531 -15.457031 2.59375 -15.65625 C 3.039062 -15.863281 3.507812 -15.988281 4 -16.03125 C 4.351562 -16.050781 4.679688 -16.039062 4.984375 -16 C 5.285156 -15.96875 5.5625 -15.921875 5.8125 -15.859375 C 6.0625 -15.804688 6.273438 -15.742188 6.453125 -15.671875 C 6.640625 -15.609375 6.789062 -15.554688 6.90625 -15.515625 Z M 6.984375 -13.515625 "/></g></g></g><g fill="#060b37" fill-opacity="1"><g transform="translate(189.151871, 96.64408)"><g/></g></g><g fill="#060b37" fill-opacity="1"><g transform="translate(199.039362, 97.071047)"><g><path d="M 5.421875 -14.578125 L 13.671875 -0.703125 L 15.296875 -8.078125 C 15.429688 -8.679688 15.539062 -9.203125 15.625 -9.640625 C 15.707031 -10.085938 15.769531 -10.472656 15.8125 -10.796875 C 15.863281 -11.128906 15.890625 -11.410156 15.890625 -11.640625 C 15.898438 -11.867188 15.90625 -12.0625 15.90625 -12.21875 L 15.921875 -12.265625 L 17.78125 -11.859375 L 17.765625 -11.8125 C 17.691406 -11.675781 17.613281 -11.5 17.53125 -11.28125 C 17.445312 -11.070312 17.351562 -10.804688 17.25 -10.484375 C 17.15625 -10.171875 17.050781 -9.796875 16.9375 -9.359375 C 16.820312 -8.921875 16.695312 -8.398438 16.5625 -7.796875 L 14.109375 3.34375 L 13.75 3.265625 L 5.46875 -10.625 L 3.890625 -3.453125 C 3.753906 -2.847656 3.644531 -2.320312 3.5625 -1.875 C 3.488281 -1.425781 3.425781 -1.039062 3.375 -0.71875 C 3.332031 -0.394531 3.304688 -0.117188 3.296875 0.109375 C 3.285156 0.335938 3.285156 0.523438 3.296875 0.671875 L 3.28125 0.71875 L 1.421875 0.3125 L 1.4375 0.265625 C 1.507812 0.128906 1.585938 -0.0390625 1.671875 -0.25 C 1.765625 -0.457031 1.859375 -0.71875 1.953125 -1.03125 C 2.046875 -1.34375 2.144531 -1.71875 2.25 -2.15625 C 2.363281 -2.601562 2.488281 -3.128906 2.625 -3.734375 L 4.125 -10.546875 C 4.257812 -11.148438 4.367188 -11.671875 4.453125 -12.109375 C 4.535156 -12.554688 4.601562 -12.941406 4.65625 -13.265625 C 4.707031 -13.597656 4.734375 -13.878906 4.734375 -14.109375 C 4.742188 -14.335938 4.742188 -14.53125 4.734375 -14.6875 L 4.75 -14.734375 Z M 5.421875 -14.578125 "/></g></g></g><g fill="#060b37" fill-opacity="1"><g transform="translate(217.698563, 101.434487)"><g><path d="M 14.375 -10.578125 C 15.457031 -10.066406 16.375 -9.421875 17.125 -8.640625 C 17.875 -7.859375 18.4375 -6.992188 18.8125 -6.046875 C 19.1875 -5.097656 19.351562 -4.085938 19.3125 -3.015625 C 19.269531 -1.941406 19 -0.859375 18.5 0.234375 C 18.207031 0.835938 17.847656 1.40625 17.421875 1.9375 C 17.003906 2.46875 16.53125 2.929688 16 3.328125 C 15.476562 3.734375 14.910156 4.066406 14.296875 4.328125 C 13.691406 4.597656 13.054688 4.773438 12.390625 4.859375 C 11.722656 4.953125 11.03125 4.941406 10.3125 4.828125 C 9.601562 4.722656 8.890625 4.503906 8.171875 4.171875 C 7.085938 3.660156 6.164062 3.019531 5.40625 2.25 C 4.65625 1.476562 4.09375 0.617188 3.71875 -0.328125 C 3.34375 -1.285156 3.175781 -2.296875 3.21875 -3.359375 C 3.257812 -4.421875 3.535156 -5.5 4.046875 -6.59375 C 4.328125 -7.207031 4.675781 -7.773438 5.09375 -8.296875 C 5.519531 -8.828125 5.992188 -9.300781 6.515625 -9.71875 C 7.046875 -10.132812 7.613281 -10.472656 8.21875 -10.734375 C 8.832031 -10.992188 9.472656 -11.171875 10.140625 -11.265625 C 10.816406 -11.359375 11.507812 -11.347656 12.21875 -11.234375 C 12.9375 -11.128906 13.65625 -10.910156 14.375 -10.578125 Z M 8.578125 3.296875 C 9.296875 3.628906 10.015625 3.804688 10.734375 3.828125 C 11.460938 3.847656 12.15625 3.710938 12.8125 3.421875 C 13.46875 3.128906 14.082031 2.679688 14.65625 2.078125 C 15.226562 1.484375 15.722656 0.738281 16.140625 -0.15625 C 16.609375 -1.15625 16.925781 -2.132812 17.09375 -3.09375 C 17.257812 -4.0625 17.257812 -4.96875 17.09375 -5.8125 C 16.9375 -6.65625 16.601562 -7.410156 16.09375 -8.078125 C 15.582031 -8.742188 14.875 -9.289062 13.96875 -9.71875 C 13.25 -10.050781 12.53125 -10.222656 11.8125 -10.234375 C 11.09375 -10.253906 10.40625 -10.125 9.75 -9.84375 C 9.09375 -9.5625 8.476562 -9.117188 7.90625 -8.515625 C 7.332031 -7.921875 6.835938 -7.175781 6.421875 -6.28125 C 5.953125 -5.28125 5.632812 -4.296875 5.46875 -3.328125 C 5.300781 -2.367188 5.296875 -1.46875 5.453125 -0.625 C 5.609375 0.21875 5.941406 0.976562 6.453125 1.65625 C 6.972656 2.332031 7.679688 2.878906 8.578125 3.296875 Z M 8.578125 3.296875 "/></g></g></g><g fill="#060b37" fill-opacity="1"><g transform="translate(236.245051, 110.669116)"><g><path d="M 13.09375 -8.28125 C 12.414062 -8.78125 11.78125 -9.203125 11.1875 -9.546875 C 10.601562 -9.890625 10.085938 -10.179688 9.640625 -10.421875 C 9.117188 -10.660156 8.640625 -10.867188 8.203125 -11.046875 L 9.484375 -12.25 C 9.546875 -12.195312 9.644531 -12.113281 9.78125 -12 C 9.914062 -11.894531 10.066406 -11.773438 10.234375 -11.640625 C 10.398438 -11.503906 10.570312 -11.363281 10.75 -11.21875 C 10.925781 -11.082031 11.097656 -10.953125 11.265625 -10.828125 C 11.429688 -10.703125 11.578125 -10.59375 11.703125 -10.5 C 11.835938 -10.40625 11.9375 -10.332031 12 -10.28125 L 16.921875 -6.625 C 16.984375 -6.582031 17.078125 -6.515625 17.203125 -6.421875 C 17.335938 -6.328125 17.484375 -6.21875 17.640625 -6.09375 C 17.804688 -5.96875 17.984375 -5.835938 18.171875 -5.703125 C 18.367188 -5.566406 18.554688 -5.4375 18.734375 -5.3125 C 18.910156 -5.195312 19.070312 -5.09375 19.21875 -5 C 19.363281 -4.90625 19.46875 -4.835938 19.53125 -4.796875 L 18.75 -3.21875 C 18.457031 -3.582031 18.113281 -3.984375 17.71875 -4.421875 C 17.363281 -4.773438 16.9375 -5.1875 16.4375 -5.65625 C 15.9375 -6.125 15.347656 -6.609375 14.671875 -7.109375 L 8.5625 1.125 C 8.195312 1.613281 7.882812 2.046875 7.625 2.421875 C 7.363281 2.796875 7.144531 3.125 6.96875 3.40625 C 6.800781 3.6875 6.664062 3.925781 6.5625 4.125 C 6.457031 4.320312 6.382812 4.5 6.34375 4.65625 L 6.3125 4.6875 L 4.234375 3.140625 L 4.265625 3.109375 C 4.390625 3.015625 4.53125 2.890625 4.6875 2.734375 C 4.851562 2.578125 5.046875 2.375 5.265625 2.125 C 5.484375 1.882812 5.734375 1.582031 6.015625 1.21875 C 6.296875 0.863281 6.617188 0.441406 6.984375 -0.046875 Z M 13.09375 -8.28125 "/></g></g></g><g fill="#060b37" fill-opacity="1"><g transform="translate(249.159311, 120.513017)"><g><path d="M 8.25 8.96875 L 8.28125 8.9375 C 8.3125 8.925781 8.359375 8.894531 8.421875 8.84375 C 8.484375 8.800781 8.53125 8.765625 8.5625 8.734375 C 8.738281 8.578125 8.898438 8.382812 9.046875 8.15625 C 9.203125 7.9375 9.375 7.628906 9.5625 7.234375 L 10.828125 4.3125 C 10.566406 4 10.207031 3.597656 9.75 3.109375 C 9.300781 2.617188 8.816406 2.085938 8.296875 1.515625 C 7.910156 1.097656 7.539062 0.695312 7.1875 0.3125 C 6.832031 -0.0703125 6.503906 -0.414062 6.203125 -0.71875 L 3.28125 0.296875 C 3.019531 0.390625 2.726562 0.5 2.40625 0.625 C 2.09375 0.75 1.816406 0.921875 1.578125 1.140625 C 1.523438 1.191406 1.476562 1.242188 1.4375 1.296875 C 1.40625 1.359375 1.382812 1.398438 1.375 1.421875 L 1.34375 1.453125 L -0.140625 -0.15625 L -0.109375 -0.1875 C 0.078125 -0.1875 0.363281 -0.234375 0.75 -0.328125 C 1.132812 -0.421875 1.597656 -0.554688 2.140625 -0.734375 L 16.359375 -5.453125 L 16.9375 -4.828125 L 11.21875 8.375 C 11.09375 8.664062 10.972656 8.960938 10.859375 9.265625 C 10.742188 9.578125 10.644531 9.859375 10.5625 10.109375 C 10.476562 10.359375 10.410156 10.570312 10.359375 10.75 C 10.304688 10.925781 10.28125 11.046875 10.28125 11.109375 L 10.25 11.140625 Z M 7.96875 -0.203125 C 8.25 0.0976562 8.535156 0.40625 8.828125 0.71875 C 9.128906 1.039062 9.421875 1.351562 9.703125 1.65625 C 9.992188 1.96875 10.269531 2.265625 10.53125 2.546875 C 10.789062 2.828125 11.035156 3.082031 11.265625 3.3125 L 14.234375 -3.546875 L 7.1875 -1.0625 Z M 7.96875 -0.203125 "/></g></g></g><g fill="#060b37" fill-opacity="1"><g transform="translate(261.070687, 134.028141)"><g><path d="M 5.5625 1 C 5.039062 1.320312 4.59375 1.613281 4.21875 1.875 C 3.84375 2.132812 3.523438 2.359375 3.265625 2.546875 C 3.003906 2.742188 2.785156 2.914062 2.609375 3.0625 C 2.441406 3.21875 2.3125 3.347656 2.21875 3.453125 L 2.171875 3.484375 L 0.8125 1.296875 L 0.859375 1.265625 C 0.992188 1.234375 1.164062 1.171875 1.375 1.078125 C 1.59375 0.992188 1.847656 0.878906 2.140625 0.734375 C 2.429688 0.585938 2.769531 0.398438 3.15625 0.171875 C 3.550781 -0.0546875 4.007812 -0.332031 4.53125 -0.65625 L 10.46875 -4.34375 C 10.988281 -4.664062 11.4375 -4.953125 11.8125 -5.203125 C 12.195312 -5.453125 12.519531 -5.675781 12.78125 -5.875 C 13.050781 -6.070312 13.269531 -6.25 13.4375 -6.40625 C 13.613281 -6.5625 13.753906 -6.695312 13.859375 -6.8125 L 13.890625 -6.84375 L 14.09375 -6.421875 C 14.15625 -6.296875 14.226562 -6.160156 14.3125 -6.015625 C 14.394531 -5.867188 14.484375 -5.722656 14.578125 -5.578125 C 14.734375 -5.335938 14.960938 -5.03125 15.265625 -4.65625 C 15.578125 -4.289062 15.925781 -3.796875 16.3125 -3.171875 C 16.675781 -2.585938 16.929688 -2 17.078125 -1.40625 C 17.234375 -0.8125 17.269531 -0.238281 17.1875 0.3125 C 17.113281 0.863281 16.921875 1.378906 16.609375 1.859375 C 16.296875 2.335938 15.859375 2.75 15.296875 3.09375 C 14.859375 3.375 14.414062 3.570312 13.96875 3.6875 C 13.53125 3.8125 13.09375 3.863281 12.65625 3.84375 C 12.226562 3.820312 11.804688 3.738281 11.390625 3.59375 C 10.984375 3.457031 10.59375 3.265625 10.21875 3.015625 L 7.703125 9.03125 C 7.585938 9.320312 7.488281 9.585938 7.40625 9.828125 C 7.320312 10.066406 7.257812 10.285156 7.21875 10.484375 C 7.175781 10.679688 7.15625 10.859375 7.15625 11.015625 C 7.15625 11.179688 7.171875 11.335938 7.203125 11.484375 L 7.15625 11.515625 L 5.515625 8.875 C 5.617188 8.78125 5.734375 8.625 5.859375 8.40625 C 5.992188 8.1875 6.113281 7.953125 6.21875 7.703125 L 8.78125 1.65625 C 8.664062 1.519531 8.554688 1.382812 8.453125 1.25 C 8.359375 1.113281 8.269531 0.972656 8.1875 0.828125 C 8.082031 0.660156 7.984375 0.484375 7.890625 0.296875 C 7.796875 0.109375 7.707031 -0.0820312 7.625 -0.28125 Z M 8.328125 -0.71875 C 8.398438 -0.519531 8.476562 -0.332031 8.5625 -0.15625 C 8.65625 0.0195312 8.753906 0.1875 8.859375 0.34375 C 9.140625 0.800781 9.460938 1.171875 9.828125 1.453125 C 10.203125 1.742188 10.613281 1.9375 11.0625 2.03125 C 11.507812 2.125 11.984375 2.113281 12.484375 2 C 12.992188 1.894531 13.523438 1.664062 14.078125 1.3125 C 14.535156 1.03125 14.921875 0.722656 15.234375 0.390625 C 15.546875 0.0664062 15.765625 -0.273438 15.890625 -0.640625 C 16.023438 -1.003906 16.0625 -1.390625 16 -1.796875 C 15.945312 -2.203125 15.796875 -2.609375 15.546875 -3.015625 C 15.285156 -3.429688 15.054688 -3.75 14.859375 -3.96875 C 14.671875 -4.195312 14.507812 -4.363281 14.375 -4.46875 Z M 8.328125 -0.71875 "/></g></g></g><g fill="#060b37" fill-opacity="1"><g transform="translate(269.375463, 147.868808)"><g><path d="M 9.734375 4.5625 L 6.765625 5.71875 C 6.191406 5.945312 5.695312 6.148438 5.28125 6.328125 C 4.863281 6.515625 4.507812 6.679688 4.21875 6.828125 C 3.925781 6.972656 3.679688 7.101562 3.484375 7.21875 C 3.296875 7.34375 3.140625 7.453125 3.015625 7.546875 L 2.96875 7.5625 L 2.03125 5.15625 L 2.078125 5.140625 C 2.222656 5.128906 2.40625 5.097656 2.625 5.046875 C 2.851562 5.003906 3.125 4.929688 3.4375 4.828125 C 3.75 4.734375 4.117188 4.613281 4.546875 4.46875 C 4.972656 4.320312 5.472656 4.132812 6.046875 3.90625 L 8.8125 2.828125 L 13.140625 -4.046875 C 13.296875 -4.273438 13.425781 -4.492188 13.53125 -4.703125 C 13.644531 -4.921875 13.738281 -5.125 13.8125 -5.3125 C 13.882812 -5.507812 13.941406 -5.675781 13.984375 -5.8125 C 14.035156 -5.957031 14.070312 -6.066406 14.09375 -6.140625 L 14.125 -6.15625 L 15.3125 -3.125 C 15.164062 -3.0625 14.941406 -2.894531 14.640625 -2.625 C 14.347656 -2.363281 14.03125 -1.96875 13.6875 -1.4375 L 10.484375 3.609375 L 16.4375 4.96875 C 16.65625 5.019531 16.867188 5.0625 17.078125 5.09375 C 17.296875 5.132812 17.503906 5.171875 17.703125 5.203125 C 17.910156 5.242188 18.085938 5.265625 18.234375 5.265625 C 18.390625 5.273438 18.515625 5.257812 18.609375 5.21875 L 19.375 7.171875 L 19.34375 7.1875 C 19.15625 7.09375 18.890625 6.96875 18.546875 6.8125 C 18.203125 6.65625 17.765625 6.519531 17.234375 6.40625 Z M 9.734375 4.5625 "/></g></g></g><g clip-path="url(#8a65d9a467)"><path fill="#d2a113" d="M 150.125 229.726562 C 151.683594 226.511719 153.027344 222.257812 153.757812 218.378906 C 153.933594 217.453125 153.570312 216.523438 152.816406 215.96875 C 151.960938 215.316406 150.730469 214.578125 149.371094 214.363281 C 149.371094 214.363281 151.117188 213.410156 153.304688 214.339844 C 149.8125 211.867188 150.816406 193.957031 157.289062 182.75 C 157.261719 183.703125 157.25 184.617188 157.226562 185.574219 C 158.871094 180.261719 162.453125 175.519531 167.1875 172.34375 C 165.054688 175.65625 163.882812 179.546875 163.847656 183.464844 C 164.863281 178.882812 166.8125 174.351562 170.117188 170.914062 C 177.84375 162.867188 190.976562 162.203125 199.796875 155.3125 C 199.644531 156.253906 198.992188 160.535156 198.839844 161.476562 C 200.523438 156.441406 208.464844 152.515625 211.84375 148.347656 C 211.78125 149.402344 211.707031 150.457031 211.667969 151.511719 C 212.285156 148.863281 214.671875 146.980469 216.746094 145.109375 C 218.808594 143.226562 220.792969 140.679688 220.1875 138.03125 C 221.960938 144.621094 218.707031 152.175781 214.886719 157.648438 C 211.945312 161.851562 201.917969 165.277344 196.765625 164.425781 C 197.824219 164.636719 204.15625 165.328125 205.199219 165.542969 C 196.453125 165.730469 179.539062 214.289062 159.171875 215.105469 C 162.628906 215.15625 165.429688 218.34375 165.429688 218.34375 C 165.429688 218.34375 160.066406 216.433594 157.753906 216.6875 C 157.175781 216.734375 162.890625 193.140625 184.804688 170.8125 C 161.433594 191.042969 156.207031 217.976562 156.03125 218.503906 C 154.148438 224.679688 152.023438 230.980469 148.039062 236.050781 C 147.488281 236.753906 146.207031 237.367188 145.902344 236.554688 C 147.5625 234.394531 148.996094 232.121094 150.152344 229.726562 Z M 150.125 229.726562 " fill-opacity="1" fill-rule="evenodd"/></g><g clip-path="url(#1d5e19e90d)"><path fill="#d2a113" d="M 202.371094 226.738281 C 202.371094 224.027344 195.824219 223.464844 192.671875 223.464844 L 191.878906 223.464844 C 183.710938 223.464844 172.804688 226.199219 166.722656 228.433594 C 162.953125 229.8125 159.324219 231.042969 155.703125 232.472656 C 154.597656 232.914062 151.03125 234.355469 148.367188 235.550781 C 148.242188 235.710938 148.128906 235.863281 148.003906 236.027344 C 147.925781 236.125 147.828125 236.226562 147.726562 236.328125 C 148.679688 235.976562 149.660156 235.585938 150.539062 235.285156 C 152.363281 234.683594 153.957031 234.195312 155.78125 233.578125 C 158.847656 232.550781 163.21875 231.105469 166.398438 230.441406 C 173.886719 228.871094 181.046875 226.460938 190.058594 226.460938 L 191.101562 226.460938 C 192.695312 226.460938 197.648438 226.675781 197.648438 227.90625 C 197.648438 229.210938 191.992188 233.078125 190.863281 234.21875 C 189.292969 235.800781 185.988281 239.425781 185.988281 242.300781 C 185.988281 245.0625 189.128906 244.835938 190.183594 245.578125 L 194.644531 245.578125 C 194.707031 245.539062 199.269531 244.648438 199.933594 244.449219 C 201.644531 243.933594 203.1875 243.355469 204.746094 242.839844 C 207.9375 241.800781 210.828125 240.320312 213.84375 239.113281 C 219.710938 236.753906 225.402344 233.238281 230.933594 230.527344 C 232.125 229.9375 233.632812 229.160156 235.128906 228.34375 C 224.648438 231.054688 207.257812 241.785156 194.78125 241.785156 L 193.992188 241.785156 C 192.996094 241.785156 190.710938 241.296875 190.710938 240.480469 L 190.710938 240.09375 C 190.710938 237.269531 202.371094 230.804688 202.371094 226.738281 Z M 202.371094 226.738281 " fill-opacity="1" fill-rule="evenodd"/></g><g clip-path="url(#22027f9c1d)"><g clip-path="url(#ddfccde482)"><path fill="#2e2f38" d="M 87.523438 196.484375 L 97.082031 196.484375 L 97.082031 206.042969 L 87.523438 206.042969 Z M 87.523438 196.484375 " fill-opacity="1" fill-rule="nonzero"/></g></g><g fill="#060b37" fill-opacity="1"><g transform="translate(114.967769, 260.934657)"><g><path d="M 0.40625 0.34375 C 0.5 0.3125 0.617188 0.257812 0.765625 0.1875 C 0.921875 0.125 1.09375 0.0234375 1.28125 -0.109375 C 1.5625 -0.328125 1.867188 -0.566406 2.203125 -0.828125 C 2.535156 -1.097656 2.890625 -1.378906 3.265625 -1.671875 C 3.640625 -1.972656 4.015625 -2.273438 4.390625 -2.578125 C 4.773438 -2.890625 5.15625 -3.203125 5.53125 -3.515625 C 5.90625 -3.828125 6.265625 -4.125 6.609375 -4.40625 C 6.953125 -4.6875 7.265625 -4.941406 7.546875 -5.171875 C 7.835938 -5.410156 8.085938 -5.617188 8.296875 -5.796875 C 8.503906 -5.972656 8.65625 -6.113281 8.75 -6.21875 L 9.4375 -5.578125 L 6.96875 3.875 L 16.1875 0.640625 L 16.6875 1.109375 L 11.65625 8.34375 C 11.5 8.5625 11.367188 8.753906 11.265625 8.921875 C 11.160156 9.085938 11.078125 9.234375 11.015625 9.359375 C 10.953125 9.492188 10.90625 9.601562 10.875 9.6875 C 10.84375 9.78125 10.816406 9.863281 10.796875 9.9375 L 10.78125 9.953125 L 9.421875 8.703125 L 9.4375 8.6875 C 9.5 8.65625 9.570312 8.601562 9.65625 8.53125 C 9.75 8.457031 9.859375 8.351562 9.984375 8.21875 C 10.023438 8.175781 10.066406 8.128906 10.109375 8.078125 C 10.160156 8.035156 10.207031 7.976562 10.25 7.90625 L 14.328125 2.140625 L 5.625 5.171875 L 5.3125 4.78125 L 7.640625 -4.15625 C 6.722656 -3.425781 5.890625 -2.742188 5.140625 -2.109375 C 4.816406 -1.828125 4.488281 -1.550781 4.15625 -1.28125 C 3.832031 -1.007812 3.535156 -0.753906 3.265625 -0.515625 C 2.992188 -0.285156 2.753906 -0.078125 2.546875 0.109375 C 2.347656 0.296875 2.203125 0.441406 2.109375 0.546875 C 1.992188 0.660156 1.894531 0.765625 1.8125 0.859375 C 1.738281 0.960938 1.675781 1.054688 1.625 1.140625 C 1.5625 1.210938 1.507812 1.285156 1.46875 1.359375 L 0.390625 0.359375 Z M 0.40625 0.34375 "/></g></g></g><g fill="#060b37" fill-opacity="1"><g transform="translate(129.304797, 273.528721)"><g><path d="M 10.65625 -5.859375 C 11.34375 -5.421875 11.90625 -4.898438 12.34375 -4.296875 C 12.789062 -3.703125 13.09375 -3.066406 13.25 -2.390625 C 13.414062 -1.722656 13.4375 -1.03125 13.3125 -0.3125 C 13.195312 0.394531 12.921875 1.097656 12.484375 1.796875 C 12.234375 2.179688 11.941406 2.535156 11.609375 2.859375 C 11.285156 3.179688 10.925781 3.457031 10.53125 3.6875 C 10.132812 3.914062 9.71875 4.085938 9.28125 4.203125 C 8.84375 4.328125 8.390625 4.390625 7.921875 4.390625 C 7.460938 4.390625 7 4.320312 6.53125 4.1875 C 6.0625 4.0625 5.597656 3.851562 5.140625 3.5625 C 4.453125 3.125 3.882812 2.609375 3.4375 2.015625 C 3 1.421875 2.695312 0.785156 2.53125 0.109375 C 2.375 -0.566406 2.351562 -1.265625 2.46875 -1.984375 C 2.59375 -2.703125 2.875 -3.40625 3.3125 -4.09375 C 3.5625 -4.488281 3.851562 -4.84375 4.1875 -5.15625 C 4.53125 -5.476562 4.894531 -5.753906 5.28125 -5.984375 C 5.675781 -6.222656 6.085938 -6.398438 6.515625 -6.515625 C 6.953125 -6.640625 7.398438 -6.703125 7.859375 -6.703125 C 8.328125 -6.710938 8.796875 -6.644531 9.265625 -6.5 C 9.734375 -6.363281 10.195312 -6.148438 10.65625 -5.859375 Z M 5.5 2.984375 C 5.957031 3.273438 6.425781 3.460938 6.90625 3.546875 C 7.394531 3.628906 7.875 3.597656 8.34375 3.453125 C 8.820312 3.316406 9.28125 3.070312 9.71875 2.71875 C 10.164062 2.363281 10.566406 1.90625 10.921875 1.34375 C 11.328125 0.707031 11.628906 0.0703125 11.828125 -0.5625 C 12.035156 -1.207031 12.117188 -1.816406 12.078125 -2.390625 C 12.046875 -2.960938 11.882812 -3.5 11.59375 -4 C 11.3125 -4.5 10.882812 -4.929688 10.3125 -5.296875 C 9.851562 -5.585938 9.378906 -5.773438 8.890625 -5.859375 C 8.410156 -5.941406 7.9375 -5.914062 7.46875 -5.78125 C 7 -5.644531 6.539062 -5.398438 6.09375 -5.046875 C 5.65625 -4.703125 5.253906 -4.242188 4.890625 -3.671875 C 4.492188 -3.046875 4.191406 -2.410156 3.984375 -1.765625 C 3.785156 -1.128906 3.703125 -0.519531 3.734375 0.0625 C 3.773438 0.644531 3.9375 1.1875 4.21875 1.6875 C 4.5 2.1875 4.925781 2.617188 5.5 2.984375 Z M 5.5 2.984375 "/></g></g></g><g fill="#060b37" fill-opacity="1"><g transform="translate(142.771453, 281.655818)"><g><path d="M 4.3125 -6.421875 C 4.476562 -6.804688 4.617188 -7.140625 4.734375 -7.421875 C 4.859375 -7.703125 4.957031 -7.953125 5.03125 -8.171875 C 5.101562 -8.390625 5.160156 -8.570312 5.203125 -8.71875 C 5.242188 -8.863281 5.269531 -8.988281 5.28125 -9.09375 L 5.296875 -9.125 C 5.378906 -9.09375 5.472656 -9.050781 5.578125 -9 C 5.648438 -8.945312 5.738281 -8.894531 5.84375 -8.84375 C 5.945312 -8.800781 6.050781 -8.757812 6.15625 -8.71875 C 6.320312 -8.644531 6.550781 -8.5625 6.84375 -8.46875 C 7.132812 -8.375 7.492188 -8.226562 7.921875 -8.03125 C 8.328125 -7.84375 8.675781 -7.617188 8.96875 -7.359375 C 9.257812 -7.109375 9.484375 -6.828125 9.640625 -6.515625 C 9.796875 -6.210938 9.875 -5.882812 9.875 -5.53125 C 9.882812 -5.175781 9.804688 -4.820312 9.640625 -4.46875 C 9.503906 -4.15625 9.34375 -3.894531 9.15625 -3.6875 C 8.96875 -3.476562 8.753906 -3.320312 8.515625 -3.21875 C 8.273438 -3.113281 8.019531 -3.046875 7.75 -3.015625 C 7.476562 -2.992188 7.195312 -3.007812 6.90625 -3.0625 C 7.257812 -2.832031 7.5625 -2.578125 7.8125 -2.296875 C 8.0625 -2.015625 8.25 -1.722656 8.375 -1.421875 C 8.507812 -1.117188 8.570312 -0.800781 8.5625 -0.46875 C 8.5625 -0.132812 8.488281 0.195312 8.34375 0.53125 C 7.914062 1.46875 7.285156 2.03125 6.453125 2.21875 C 5.628906 2.40625 4.601562 2.21875 3.375 1.65625 C 3.238281 1.59375 3.082031 1.515625 2.90625 1.421875 C 2.726562 1.335938 2.550781 1.242188 2.375 1.140625 C 2.207031 1.046875 2.035156 0.953125 1.859375 0.859375 C 1.679688 0.765625 1.523438 0.691406 1.390625 0.640625 L 0.953125 0.4375 L 0.96875 0.40625 C 1.039062 0.320312 1.117188 0.21875 1.203125 0.09375 C 1.285156 -0.03125 1.382812 -0.1875 1.5 -0.375 C 1.613281 -0.570312 1.738281 -0.8125 1.875 -1.09375 C 2.007812 -1.375 2.164062 -1.707031 2.34375 -2.09375 Z M 5.734375 -3.078125 C 5.429688 -3.222656 5.175781 -3.332031 4.96875 -3.40625 C 4.757812 -3.476562 4.585938 -3.523438 4.453125 -3.546875 L 3.546875 -1.53125 C 3.304688 -1.007812 3.117188 -0.578125 2.984375 -0.234375 C 2.859375 0.109375 2.757812 0.394531 2.6875 0.625 C 2.84375 0.726562 3 0.820312 3.15625 0.90625 C 3.320312 1 3.457031 1.070312 3.5625 1.125 C 4.394531 1.5 5.085938 1.585938 5.640625 1.390625 C 6.191406 1.203125 6.644531 0.722656 7 -0.046875 C 7.132812 -0.347656 7.210938 -0.644531 7.234375 -0.9375 C 7.253906 -1.238281 7.21875 -1.519531 7.125 -1.78125 C 7.03125 -2.039062 6.863281 -2.28125 6.625 -2.5 C 6.394531 -2.726562 6.097656 -2.921875 5.734375 -3.078125 Z M 4.734375 -4.15625 C 4.847656 -4.082031 4.953125 -4.019531 5.046875 -3.96875 C 5.148438 -3.925781 5.253906 -3.882812 5.359375 -3.84375 C 5.660156 -3.707031 5.957031 -3.625 6.25 -3.59375 C 6.550781 -3.570312 6.828125 -3.601562 7.078125 -3.6875 C 7.328125 -3.769531 7.554688 -3.921875 7.765625 -4.140625 C 7.972656 -4.359375 8.160156 -4.644531 8.328125 -5 C 8.453125 -5.289062 8.535156 -5.566406 8.578125 -5.828125 C 8.617188 -6.097656 8.601562 -6.347656 8.53125 -6.578125 C 8.46875 -6.804688 8.351562 -7.007812 8.1875 -7.1875 C 8.03125 -7.375 7.820312 -7.53125 7.5625 -7.65625 C 7.382812 -7.726562 7.234375 -7.785156 7.109375 -7.828125 C 6.984375 -7.867188 6.867188 -7.90625 6.765625 -7.9375 C 6.648438 -7.957031 6.550781 -7.972656 6.46875 -7.984375 Z M 4.734375 -4.15625 "/></g></g></g><g fill="#060b37" fill-opacity="1"><g transform="translate(153.677133, 286.303766)"><g><path d="M 1.0625 0.328125 C 1.125 0.242188 1.191406 0.132812 1.265625 0 C 1.335938 -0.144531 1.421875 -0.316406 1.515625 -0.515625 C 1.609375 -0.722656 1.707031 -0.96875 1.8125 -1.25 C 1.914062 -1.539062 2.035156 -1.882812 2.171875 -2.28125 L 3.703125 -6.796875 C 3.835938 -7.191406 3.953125 -7.535156 4.046875 -7.828125 C 4.140625 -8.128906 4.210938 -8.390625 4.265625 -8.609375 C 4.316406 -8.828125 4.351562 -9.007812 4.375 -9.15625 C 4.40625 -9.3125 4.421875 -9.441406 4.421875 -9.546875 L 4.4375 -9.578125 L 6.09375 -9.015625 L 6.078125 -8.984375 C 6.015625 -8.898438 5.945312 -8.789062 5.875 -8.65625 C 5.800781 -8.519531 5.71875 -8.347656 5.625 -8.140625 C 5.539062 -7.941406 5.441406 -7.691406 5.328125 -7.390625 C 5.222656 -7.097656 5.101562 -6.753906 4.96875 -6.359375 L 3.4375 -1.84375 C 3.300781 -1.445312 3.1875 -1.101562 3.09375 -0.8125 C 3.007812 -0.53125 2.9375 -0.28125 2.875 -0.0625 C 2.820312 0.15625 2.78125 0.34375 2.75 0.5 C 2.726562 0.65625 2.71875 0.785156 2.71875 0.890625 L 2.703125 0.921875 L 1.046875 0.359375 Z M 1.0625 0.328125 "/></g></g></g><g fill="#060b37" fill-opacity="1"><g transform="translate(160.695905, 288.600867)"><g><path d="M 2.671875 -0.015625 C 3.234375 0.117188 3.753906 0.21875 4.234375 0.28125 C 4.710938 0.34375 5.132812 0.390625 5.5 0.421875 C 5.925781 0.460938 6.316406 0.472656 6.671875 0.453125 L 6.1875 1.5625 C 6.132812 1.539062 6.050781 1.515625 5.9375 1.484375 C 5.832031 1.453125 5.707031 1.414062 5.5625 1.375 C 5.425781 1.332031 5.28125 1.289062 5.125 1.25 C 4.976562 1.21875 4.832031 1.179688 4.6875 1.140625 C 4.550781 1.109375 4.425781 1.078125 4.3125 1.046875 C 4.207031 1.023438 4.132812 1.007812 4.09375 1 L 1.015625 0.25 L 1.015625 0.21875 C 1.078125 0.125 1.140625 0.0078125 1.203125 -0.125 C 1.265625 -0.269531 1.332031 -0.445312 1.40625 -0.65625 C 1.476562 -0.875 1.554688 -1.128906 1.640625 -1.421875 C 1.722656 -1.722656 1.8125 -2.078125 1.90625 -2.484375 L 3.03125 -7.109375 C 3.125 -7.515625 3.203125 -7.867188 3.265625 -8.171875 C 3.335938 -8.472656 3.390625 -8.734375 3.421875 -8.953125 C 3.453125 -9.179688 3.472656 -9.367188 3.484375 -9.515625 C 3.492188 -9.671875 3.492188 -9.804688 3.484375 -9.921875 L 3.484375 -9.953125 L 5.203125 -9.546875 L 5.203125 -9.515625 C 5.148438 -9.410156 5.09375 -9.285156 5.03125 -9.140625 C 4.96875 -9.003906 4.898438 -8.828125 4.828125 -8.609375 C 4.753906 -8.398438 4.671875 -8.144531 4.578125 -7.84375 C 4.492188 -7.550781 4.40625 -7.203125 4.3125 -6.796875 Z M 2.671875 -0.015625 "/></g></g></g><g fill="#060b37" fill-opacity="1"><g transform="translate(170.8315, 290.877828)"><g><path d="M 2.390625 -10.265625 C 3.003906 -10.191406 3.609375 -10.117188 4.203125 -10.046875 C 4.796875 -9.972656 5.34375 -9.90625 5.84375 -9.84375 C 6.34375 -9.789062 6.769531 -9.742188 7.125 -9.703125 C 7.488281 -9.671875 7.734375 -9.664062 7.859375 -9.6875 L 7.390625 -8.765625 C 7.234375 -8.835938 7.050781 -8.898438 6.84375 -8.953125 C 6.65625 -9.015625 6.429688 -9.070312 6.171875 -9.125 C 5.921875 -9.1875 5.617188 -9.242188 5.265625 -9.296875 C 5.148438 -9.304688 5.007812 -9.316406 4.84375 -9.328125 C 4.6875 -9.335938 4.53125 -9.347656 4.375 -9.359375 C 4.195312 -9.378906 4.019531 -9.398438 3.84375 -9.421875 L 3.328125 -5.453125 C 3.816406 -5.378906 4.265625 -5.328125 4.671875 -5.296875 C 5.085938 -5.273438 5.429688 -5.257812 5.703125 -5.25 C 6.046875 -5.238281 6.34375 -5.234375 6.59375 -5.234375 L 6.234375 -4.203125 C 5.910156 -4.285156 5.578125 -4.375 5.234375 -4.46875 C 4.941406 -4.539062 4.613281 -4.609375 4.25 -4.671875 C 3.894531 -4.742188 3.5625 -4.804688 3.25 -4.859375 L 2.65625 -0.3125 C 3.21875 -0.226562 3.742188 -0.179688 4.234375 -0.171875 C 4.722656 -0.160156 5.148438 -0.164062 5.515625 -0.1875 C 5.941406 -0.1875 6.328125 -0.207031 6.671875 -0.25 L 6.328125 0.890625 C 6.273438 0.867188 6.191406 0.847656 6.078125 0.828125 C 5.960938 0.804688 5.832031 0.785156 5.6875 0.765625 C 5.539062 0.742188 5.390625 0.722656 5.234375 0.703125 C 5.078125 0.679688 4.925781 0.65625 4.78125 0.625 C 4.644531 0.601562 4.519531 0.582031 4.40625 0.5625 C 4.300781 0.550781 4.226562 0.546875 4.1875 0.546875 L 1.03125 0.140625 L 1.03125 0.109375 C 1.082031 0.00390625 1.128906 -0.117188 1.171875 -0.265625 C 1.210938 -0.410156 1.257812 -0.59375 1.3125 -0.8125 C 1.363281 -1.03125 1.414062 -1.289062 1.46875 -1.59375 C 1.519531 -1.90625 1.570312 -2.265625 1.625 -2.671875 L 2.234375 -7.40625 C 2.285156 -7.820312 2.328125 -8.179688 2.359375 -8.484375 C 2.390625 -8.796875 2.410156 -9.0625 2.421875 -9.28125 C 2.429688 -9.507812 2.429688 -9.695312 2.421875 -9.84375 C 2.410156 -10 2.398438 -10.128906 2.390625 -10.234375 Z M 2.390625 -10.265625 "/></g></g></g><g fill="#060b37" fill-opacity="1"><g transform="translate(181.549084, 292.044378)"><g/></g></g><g fill="#060b37" fill-opacity="1"><g transform="translate(189.57192, 292.308291)"><g><path d="M 0.609375 -10.578125 L 8.765625 -3.171875 L 8.359375 -8.3125 C 8.316406 -8.726562 8.28125 -9.09375 8.25 -9.40625 C 8.21875 -9.71875 8.179688 -9.984375 8.140625 -10.203125 C 8.097656 -10.429688 8.054688 -10.617188 8.015625 -10.765625 C 7.984375 -10.921875 7.953125 -11.046875 7.921875 -11.140625 L 7.921875 -11.171875 L 9.21875 -11.28125 L 9.21875 -11.25 C 9.195312 -11.144531 9.175781 -11.015625 9.15625 -10.859375 C 9.144531 -10.703125 9.140625 -10.507812 9.140625 -10.28125 C 9.148438 -10.0625 9.160156 -9.796875 9.171875 -9.484375 C 9.179688 -9.171875 9.207031 -8.804688 9.25 -8.390625 L 9.875 -0.65625 L 9.609375 -0.640625 L 1.453125 -8.015625 L 1.859375 -3.015625 C 1.890625 -2.609375 1.921875 -2.25 1.953125 -1.9375 C 1.984375 -1.632812 2.019531 -1.367188 2.0625 -1.140625 C 2.101562 -0.921875 2.140625 -0.738281 2.171875 -0.59375 C 2.210938 -0.445312 2.253906 -0.320312 2.296875 -0.21875 L 2.296875 -0.1875 L 0.984375 -0.078125 L 0.984375 -0.109375 C 1.003906 -0.210938 1.019531 -0.34375 1.03125 -0.5 C 1.050781 -0.65625 1.0625 -0.84375 1.0625 -1.0625 C 1.0625 -1.289062 1.050781 -1.554688 1.03125 -1.859375 C 1.019531 -2.171875 1 -2.53125 0.96875 -2.9375 L 0.59375 -7.6875 C 0.550781 -8.101562 0.515625 -8.46875 0.484375 -8.78125 C 0.453125 -9.09375 0.414062 -9.359375 0.375 -9.578125 C 0.332031 -9.804688 0.289062 -9.992188 0.25 -10.140625 C 0.21875 -10.285156 0.179688 -10.410156 0.140625 -10.515625 L 0.140625 -10.546875 Z M 0.609375 -10.578125 "/></g></g></g><g fill="#060b37" fill-opacity="1"><g transform="translate(204.297513, 290.867376)"><g><path d="M 3.1875 -11.75 C 3.96875 -11.9375 4.726562 -11.976562 5.46875 -11.875 C 6.207031 -11.78125 6.875 -11.554688 7.46875 -11.203125 C 8.070312 -10.859375 8.585938 -10.394531 9.015625 -9.8125 C 9.453125 -9.226562 9.765625 -8.535156 9.953125 -7.734375 C 10.066406 -7.285156 10.125 -6.828125 10.125 -6.359375 C 10.125 -5.898438 10.066406 -5.453125 9.953125 -5.015625 C 9.847656 -4.585938 9.6875 -4.171875 9.46875 -3.765625 C 9.257812 -3.359375 8.992188 -2.988281 8.671875 -2.65625 C 8.347656 -2.332031 7.972656 -2.046875 7.546875 -1.796875 C 7.128906 -1.546875 6.660156 -1.359375 6.140625 -1.234375 C 5.347656 -1.035156 4.582031 -0.984375 3.84375 -1.078125 C 3.113281 -1.179688 2.445312 -1.40625 1.84375 -1.75 C 1.238281 -2.101562 0.71875 -2.570312 0.28125 -3.15625 C -0.144531 -3.738281 -0.453125 -4.429688 -0.640625 -5.234375 C -0.753906 -5.679688 -0.8125 -6.132812 -0.8125 -6.59375 C -0.8125 -7.0625 -0.753906 -7.515625 -0.640625 -7.953125 C -0.535156 -8.398438 -0.375 -8.820312 -0.15625 -9.21875 C 0.0507812 -9.625 0.3125 -9.992188 0.625 -10.328125 C 0.945312 -10.660156 1.320312 -10.945312 1.75 -11.1875 C 2.175781 -11.425781 2.65625 -11.613281 3.1875 -11.75 Z M 5.96875 -1.890625 C 6.488281 -2.015625 6.945312 -2.222656 7.34375 -2.515625 C 7.75 -2.804688 8.0625 -3.171875 8.28125 -3.609375 C 8.507812 -4.046875 8.648438 -4.546875 8.703125 -5.109375 C 8.753906 -5.671875 8.703125 -6.285156 8.546875 -6.953125 C 8.367188 -7.679688 8.117188 -8.335938 7.796875 -8.921875 C 7.472656 -9.503906 7.09375 -9.984375 6.65625 -10.359375 C 6.21875 -10.742188 5.71875 -11.003906 5.15625 -11.140625 C 4.601562 -11.273438 4 -11.265625 3.34375 -11.109375 C 2.8125 -10.972656 2.347656 -10.757812 1.953125 -10.46875 C 1.554688 -10.175781 1.242188 -9.816406 1.015625 -9.390625 C 0.785156 -8.960938 0.644531 -8.46875 0.59375 -7.90625 C 0.539062 -7.34375 0.59375 -6.734375 0.75 -6.078125 C 0.925781 -5.347656 1.171875 -4.6875 1.484375 -4.09375 C 1.804688 -3.507812 2.1875 -3.023438 2.625 -2.640625 C 3.070312 -2.265625 3.578125 -2.003906 4.140625 -1.859375 C 4.703125 -1.710938 5.3125 -1.722656 5.96875 -1.890625 Z M 5.96875 -1.890625 "/></g></g></g><g fill="#060b37" fill-opacity="1"><g transform="translate(219.511314, 286.816191)"><g><path d="M -0.109375 -10.578125 C -0.648438 -10.359375 -1.128906 -10.140625 -1.546875 -9.921875 C -1.960938 -9.703125 -2.316406 -9.5 -2.609375 -9.3125 C -2.929688 -9.09375 -3.222656 -8.890625 -3.484375 -8.703125 L -3.71875 -9.890625 C -3.664062 -9.898438 -3.582031 -9.925781 -3.46875 -9.96875 C -3.363281 -10.019531 -3.242188 -10.066406 -3.109375 -10.109375 C -2.972656 -10.160156 -2.828125 -10.210938 -2.671875 -10.265625 C -2.523438 -10.316406 -2.382812 -10.367188 -2.25 -10.421875 C -2.125 -10.472656 -2.007812 -10.515625 -1.90625 -10.546875 C -1.8125 -10.585938 -1.738281 -10.617188 -1.6875 -10.640625 L 2.1875 -12.1875 C 2.238281 -12.207031 2.3125 -12.238281 2.40625 -12.28125 C 2.507812 -12.332031 2.625 -12.382812 2.75 -12.4375 C 2.882812 -12.488281 3.023438 -12.546875 3.171875 -12.609375 C 3.328125 -12.671875 3.46875 -12.734375 3.59375 -12.796875 C 3.726562 -12.859375 3.847656 -12.910156 3.953125 -12.953125 C 4.054688 -12.992188 4.140625 -13.03125 4.203125 -13.0625 L 4.828125 -12.03125 C 4.503906 -11.988281 4.148438 -11.929688 3.765625 -11.859375 C 3.421875 -11.796875 3.023438 -11.703125 2.578125 -11.578125 C 2.128906 -11.453125 1.640625 -11.28125 1.109375 -11.0625 L 3.703125 -4.5625 C 3.859375 -4.175781 4 -3.84375 4.125 -3.5625 C 4.25 -3.28125 4.363281 -3.035156 4.46875 -2.828125 C 4.570312 -2.628906 4.664062 -2.460938 4.75 -2.328125 C 4.832031 -2.203125 4.898438 -2.097656 4.953125 -2.015625 L 4.96875 -1.984375 L 3.34375 -1.34375 L 3.328125 -1.375 C 3.316406 -1.476562 3.296875 -1.601562 3.265625 -1.75 C 3.234375 -1.894531 3.1875 -2.078125 3.125 -2.296875 C 3.0625 -2.515625 2.976562 -2.769531 2.875 -3.0625 C 2.769531 -3.351562 2.640625 -3.691406 2.484375 -4.078125 Z M -0.109375 -10.578125 "/></g></g></g><g fill="#060b37" fill-opacity="1"><g transform="translate(231.104148, 281.959728)"><g><path d="M 7.234375 -4.09375 L 7.21875 -4.125 C 7.21875 -4.132812 7.207031 -4.164062 7.1875 -4.21875 C 7.164062 -4.269531 7.148438 -4.3125 7.140625 -4.34375 C 7.054688 -4.476562 6.953125 -4.613281 6.828125 -4.75 C 6.703125 -4.882812 6.519531 -5.046875 6.28125 -5.234375 L 4.53125 -6.53125 C 4.289062 -6.40625 3.972656 -6.226562 3.578125 -6 C 3.179688 -5.78125 2.753906 -5.539062 2.296875 -5.28125 C 1.960938 -5.09375 1.640625 -4.910156 1.328125 -4.734375 C 1.015625 -4.554688 0.726562 -4.390625 0.46875 -4.234375 L 0.6875 -2.125 C 0.71875 -1.945312 0.75 -1.738281 0.78125 -1.5 C 0.8125 -1.269531 0.882812 -1.0625 1 -0.875 C 1.03125 -0.820312 1.0625 -0.78125 1.09375 -0.75 C 1.125 -0.71875 1.144531 -0.695312 1.15625 -0.6875 L 1.171875 -0.65625 L -0.125 0.0625 L -0.140625 0.03125 C -0.109375 -0.09375 -0.09375 -0.285156 -0.09375 -0.546875 C -0.101562 -0.816406 -0.125 -1.140625 -0.15625 -1.515625 L -1.09375 -11.703125 L -0.59375 -11.984375 L 7.28125 -6.140625 C 7.46875 -6.015625 7.65625 -5.890625 7.84375 -5.765625 C 8.03125 -5.640625 8.195312 -5.53125 8.34375 -5.4375 C 8.5 -5.351562 8.632812 -5.28125 8.75 -5.21875 C 8.863281 -5.15625 8.929688 -5.117188 8.953125 -5.109375 L 8.96875 -5.078125 Z M 1.078125 -5.3125 C 1.328125 -5.457031 1.578125 -5.601562 1.828125 -5.75 C 2.085938 -5.90625 2.34375 -6.050781 2.59375 -6.1875 C 2.84375 -6.332031 3.082031 -6.46875 3.3125 -6.59375 C 3.539062 -6.726562 3.75 -6.851562 3.9375 -6.96875 L -0.15625 -10 L 0.40625 -4.9375 Z M 1.078125 -5.3125 "/></g></g></g><g fill="#060b37" fill-opacity="1"><g transform="translate(242.953124, 274.928103)"><g><path d="M 0.328125 -3.84375 C 0.585938 -3.507812 0.8125 -3.222656 1 -2.984375 C 1.195312 -2.742188 1.367188 -2.539062 1.515625 -2.375 C 1.671875 -2.21875 1.804688 -2.085938 1.921875 -1.984375 C 2.035156 -1.878906 2.132812 -1.796875 2.21875 -1.734375 L 2.234375 -1.703125 L 0.828125 -0.625 L 0.8125 -0.65625 C 0.78125 -0.757812 0.726562 -0.878906 0.65625 -1.015625 C 0.582031 -1.148438 0.484375 -1.3125 0.359375 -1.5 C 0.234375 -1.6875 0.0859375 -1.90625 -0.078125 -2.15625 C -0.242188 -2.414062 -0.457031 -2.710938 -0.71875 -3.046875 L -3.59375 -6.84375 C -3.84375 -7.175781 -4.066406 -7.460938 -4.265625 -7.703125 C -4.472656 -7.941406 -4.648438 -8.144531 -4.796875 -8.3125 C -4.941406 -8.476562 -5.070312 -8.613281 -5.1875 -8.71875 C -5.300781 -8.820312 -5.40625 -8.90625 -5.5 -8.96875 L -5.515625 -9 L -5.25 -9.171875 C -5.15625 -9.210938 -5.0625 -9.265625 -4.96875 -9.328125 C -4.882812 -9.398438 -4.796875 -9.472656 -4.703125 -9.546875 C -4.546875 -9.660156 -4.351562 -9.832031 -4.125 -10.0625 C -3.90625 -10.300781 -3.59375 -10.570312 -3.1875 -10.875 C -2.820312 -11.15625 -2.4375 -11.363281 -2.03125 -11.5 C -1.625 -11.644531 -1.234375 -11.707031 -0.859375 -11.6875 C -0.492188 -11.675781 -0.140625 -11.578125 0.203125 -11.390625 C 0.546875 -11.210938 0.859375 -10.9375 1.140625 -10.5625 C 1.347656 -10.289062 1.507812 -10.007812 1.625 -9.71875 C 1.738281 -9.425781 1.800781 -9.132812 1.8125 -8.84375 C 1.832031 -8.550781 1.804688 -8.257812 1.734375 -7.96875 C 1.671875 -7.6875 1.5625 -7.40625 1.40625 -7.125 L 5.640625 -5.796875 C 5.859375 -5.734375 6.046875 -5.679688 6.203125 -5.640625 C 6.367188 -5.597656 6.519531 -5.570312 6.65625 -5.5625 C 6.789062 -5.550781 6.914062 -5.546875 7.03125 -5.546875 C 7.144531 -5.554688 7.253906 -5.582031 7.359375 -5.625 L 7.375 -5.59375 L 5.671875 -4.296875 C 5.617188 -4.367188 5.507812 -4.4375 5.34375 -4.5 C 5.1875 -4.570312 5.019531 -4.640625 4.84375 -4.703125 L 0.578125 -6.0625 C 0.484375 -5.976562 0.394531 -5.898438 0.3125 -5.828125 C 0.226562 -5.765625 0.140625 -5.691406 0.046875 -5.609375 C -0.0664062 -5.523438 -0.179688 -5.445312 -0.296875 -5.375 C -0.410156 -5.300781 -0.535156 -5.226562 -0.671875 -5.15625 Z M -1 -5.609375 C -0.875 -5.671875 -0.753906 -5.738281 -0.640625 -5.8125 C -0.523438 -5.882812 -0.414062 -5.957031 -0.3125 -6.03125 C -0.0195312 -6.25 0.207031 -6.492188 0.375 -6.765625 C 0.550781 -7.035156 0.65625 -7.320312 0.6875 -7.625 C 0.726562 -7.9375 0.691406 -8.265625 0.578125 -8.609375 C 0.472656 -8.953125 0.285156 -9.300781 0.015625 -9.65625 C -0.203125 -9.945312 -0.4375 -10.179688 -0.6875 -10.359375 C -0.9375 -10.546875 -1.1875 -10.671875 -1.4375 -10.734375 C -1.695312 -10.804688 -1.957031 -10.8125 -2.21875 -10.75 C -2.488281 -10.695312 -2.753906 -10.570312 -3.015625 -10.375 C -3.285156 -10.164062 -3.488281 -9.984375 -3.625 -9.828125 C -3.769531 -9.679688 -3.875 -9.566406 -3.9375 -9.484375 Z M -1 -5.609375 "/></g></g></g><g fill="#060b37" fill-opacity="1"><g transform="translate(252.740634, 267.234219)"><g><path d="M 0.25 -7.328125 L 1.796875 -5.765625 C 2.085938 -5.472656 2.34375 -5.222656 2.5625 -5.015625 C 2.78125 -4.804688 2.972656 -4.625 3.140625 -4.46875 C 3.316406 -4.320312 3.46875 -4.207031 3.59375 -4.125 C 3.726562 -4.039062 3.835938 -3.960938 3.921875 -3.890625 L 3.9375 -3.875 L 2.6875 -2.65625 L 2.671875 -2.671875 C 2.628906 -2.773438 2.5625 -2.882812 2.46875 -3 C 2.375 -3.125 2.253906 -3.273438 2.109375 -3.453125 C 1.960938 -3.628906 1.785156 -3.828125 1.578125 -4.046875 C 1.378906 -4.273438 1.132812 -4.535156 0.84375 -4.828125 L -0.59375 -6.28125 L -6.046875 -7.15625 C -6.234375 -7.195312 -6.410156 -7.222656 -6.578125 -7.234375 C -6.742188 -7.242188 -6.894531 -7.242188 -7.03125 -7.234375 C -7.175781 -7.234375 -7.296875 -7.226562 -7.390625 -7.21875 C -7.492188 -7.21875 -7.566406 -7.207031 -7.609375 -7.1875 L -7.625 -7.21875 L -6.046875 -8.78125 C -5.972656 -8.695312 -5.8125 -8.59375 -5.5625 -8.46875 C -5.3125 -8.351562 -4.976562 -8.265625 -4.5625 -8.203125 L -0.53125 -7.53125 L -1.28125 -11.640625 C -1.300781 -11.796875 -1.328125 -11.941406 -1.359375 -12.078125 C -1.390625 -12.222656 -1.421875 -12.363281 -1.453125 -12.5 C -1.484375 -12.632812 -1.519531 -12.753906 -1.5625 -12.859375 C -1.601562 -12.960938 -1.644531 -13.035156 -1.6875 -13.078125 L -0.671875 -14.078125 L -0.65625 -14.046875 C -0.664062 -13.910156 -0.671875 -13.710938 -0.671875 -13.453125 C -0.671875 -13.191406 -0.640625 -12.878906 -0.578125 -12.515625 Z M 0.25 -7.328125 "/></g></g></g><g clip-path="url(#e0ba77417c)"><g clip-path="url(#4d3451d483)"><path fill="#2e2f38" d="M 277.917969 196.484375 L 287.476562 196.484375 L 287.476562 206.042969 L 277.917969 206.042969 Z M 277.917969 196.484375 " fill-opacity="1" fill-rule="nonzero"/></g></g></svg>