<svg xmlns="http://www.w3.org/2000/svg" xmlns:xlink="http://www.w3.org/1999/xlink" width="250" zoomAndPan="magnify" viewBox="0 0 187.5 187.499992" height="250" preserveAspectRatio="xMidYMid meet" version="1.0"><defs><g/><clipPath id="6aca6db4f3"><path d="M 14.257812 11.324219 L 173.433594 11.324219 L 173.433594 170.816406 L 14.257812 170.816406 Z M 14.257812 11.324219 " clip-rule="nonzero"/></clipPath><clipPath id="4ffcd2f998"><path d="M 93.75 170.625 C 72.527344 170.625 52.542969 162.363281 37.546875 147.335938 C 22.519531 132.339844 14.257812 112.355469 14.257812 91.132812 C 14.257812 69.910156 22.519531 49.925781 37.546875 34.929688 C 52.542969 19.902344 72.527344 11.644531 93.75 11.644531 C 114.972656 11.644531 134.957031 19.902344 149.953125 34.929688 C 164.980469 49.957031 173.242188 69.910156 173.242188 91.132812 C 173.242188 112.355469 164.980469 132.339844 149.953125 147.335938 C 134.957031 162.363281 114.972656 170.625 93.75 170.625 Z M 93.75 16.410156 C 73.796875 16.410156 55.019531 24.191406 40.914062 38.300781 C 26.808594 52.40625 19.023438 71.183594 19.023438 91.132812 C 19.023438 111.085938 26.808594 129.863281 40.914062 143.96875 C 55.019531 158.074219 73.796875 165.859375 93.75 165.859375 C 113.703125 165.859375 132.480469 158.074219 146.585938 143.96875 C 160.691406 129.863281 168.476562 111.085938 168.476562 91.132812 C 168.476562 71.183594 160.691406 52.40625 146.585938 38.300781 C 132.480469 24.191406 113.703125 16.410156 93.75 16.410156 Z M 93.75 16.410156 " clip-rule="nonzero"/></clipPath><clipPath id="dee31e2af8"><path d="M 22.257812 19.644531 L 165.507812 19.644531 L 165.507812 162.894531 L 22.257812 162.894531 Z M 22.257812 19.644531 " clip-rule="nonzero"/></clipPath><clipPath id="8820165c35"><path d="M 122 72 L 137 72 L 137 125 L 122 125 Z M 122 72 " clip-rule="nonzero"/></clipPath><clipPath id="2b0d4abfcd"><path d="M 112.921875 150.59375 L 35.792969 110.339844 L 74.660156 35.871094 L 151.789062 76.125 Z M 112.921875 150.59375 " clip-rule="nonzero"/></clipPath><clipPath id="7b65723c94"><path d="M 112.921875 150.59375 L 35.792969 110.339844 L 74.660156 35.871094 L 151.789062 76.125 Z M 112.921875 150.59375 " clip-rule="nonzero"/></clipPath><clipPath id="c0b77493d5"><path d="M 71 50 L 130 50 L 130 72 L 71 72 Z M 71 50 " clip-rule="nonzero"/></clipPath><clipPath id="e2980ec2c4"><path d="M 112.921875 150.59375 L 35.792969 110.339844 L 74.660156 35.871094 L 151.789062 76.125 Z M 112.921875 150.59375 " clip-rule="nonzero"/></clipPath><clipPath id="34307f452d"><path d="M 112.921875 150.59375 L 35.792969 110.339844 L 74.660156 35.871094 L 151.789062 76.125 Z M 112.921875 150.59375 " clip-rule="nonzero"/></clipPath><clipPath id="f5444271d9"><path d="M 50 58 L 72 58 L 72 91 L 50 91 Z M 50 58 " clip-rule="nonzero"/></clipPath><clipPath id="7ca2bb557e"><path d="M 112.921875 150.59375 L 35.792969 110.339844 L 74.660156 35.871094 L 151.789062 76.125 Z M 112.921875 150.59375 " clip-rule="nonzero"/></clipPath><clipPath id="8ba85287e3"><path d="M 112.921875 150.59375 L 35.792969 110.339844 L 74.660156 35.871094 L 151.789062 76.125 Z M 112.921875 150.59375 " clip-rule="nonzero"/></clipPath><clipPath id="95955b220e"><path d="M 112 124 L 123 124 L 123 132 L 112 132 Z M 112 124 " clip-rule="nonzero"/></clipPath><clipPath id="46bf14cb06"><path d="M 112.921875 150.59375 L 35.792969 110.339844 L 74.660156 35.871094 L 151.789062 76.125 Z M 112.921875 150.59375 " clip-rule="nonzero"/></clipPath><clipPath id="fc5e91c47b"><path d="M 112.921875 150.59375 L 35.792969 110.339844 L 74.660156 35.871094 L 151.789062 76.125 Z M 112.921875 150.59375 " clip-rule="nonzero"/></clipPath><clipPath id="aa3cf2330e"><path d="M 53 107 L 58 107 L 58 117 L 53 117 Z M 53 107 " clip-rule="nonzero"/></clipPath><clipPath id="c534bc66a7"><path d="M 112.921875 150.59375 L 35.792969 110.339844 L 74.660156 35.871094 L 151.789062 76.125 Z M 112.921875 150.59375 " clip-rule="nonzero"/></clipPath><clipPath id="ff69dded1b"><path d="M 112.921875 150.59375 L 35.792969 110.339844 L 74.660156 35.871094 L 151.789062 76.125 Z M 112.921875 150.59375 " clip-rule="nonzero"/></clipPath><clipPath id="7ff9037711"><path d="M 61 122 L 65 122 L 65 126 L 61 126 Z M 61 122 " clip-rule="nonzero"/></clipPath><clipPath id="9555276e8f"><path d="M 112.921875 150.59375 L 35.792969 110.339844 L 74.660156 35.871094 L 151.789062 76.125 Z M 112.921875 150.59375 " clip-rule="nonzero"/></clipPath><clipPath id="b6272f4e67"><path d="M 112.921875 150.59375 L 35.792969 110.339844 L 74.660156 35.871094 L 151.789062 76.125 Z M 112.921875 150.59375 " clip-rule="nonzero"/></clipPath><clipPath id="2b21a92e58"><path d="M 51 102 L 54 102 L 54 107 L 51 107 Z M 51 102 " clip-rule="nonzero"/></clipPath><clipPath id="0cef107a1a"><path d="M 112.921875 150.59375 L 35.792969 110.339844 L 74.660156 35.871094 L 151.789062 76.125 Z M 112.921875 150.59375 " clip-rule="nonzero"/></clipPath><clipPath id="0fc37f0ed0"><path d="M 112.921875 150.59375 L 35.792969 110.339844 L 74.660156 35.871094 L 151.789062 76.125 Z M 112.921875 150.59375 " clip-rule="nonzero"/></clipPath><clipPath id="d04ab579f9"><path d="M 58 117 L 60 117 L 60 120 L 58 120 Z M 58 117 " clip-rule="nonzero"/></clipPath><clipPath id="bdb1b9099f"><path d="M 112.921875 150.59375 L 35.792969 110.339844 L 74.660156 35.871094 L 151.789062 76.125 Z M 112.921875 150.59375 " clip-rule="nonzero"/></clipPath><clipPath id="3cd2d3877b"><path d="M 112.921875 150.59375 L 35.792969 110.339844 L 74.660156 35.871094 L 151.789062 76.125 Z M 112.921875 150.59375 " clip-rule="nonzero"/></clipPath><clipPath id="7de50e95ef"><path d="M 50 94 L 52 94 L 52 96 L 50 96 Z M 50 94 " clip-rule="nonzero"/></clipPath><clipPath id="17926876ed"><path d="M 112.921875 150.59375 L 35.792969 110.339844 L 74.660156 35.871094 L 151.789062 76.125 Z M 112.921875 150.59375 " clip-rule="nonzero"/></clipPath><clipPath id="c5d28a63fa"><path d="M 112.921875 150.59375 L 35.792969 110.339844 L 74.660156 35.871094 L 151.789062 76.125 Z M 112.921875 150.59375 " clip-rule="nonzero"/></clipPath><clipPath id="b246891c43"><path d="M 137 94 L 139 94 L 139 96 L 137 96 Z M 137 94 " clip-rule="nonzero"/></clipPath><clipPath id="dd1570ba3a"><path d="M 112.921875 150.59375 L 35.792969 110.339844 L 74.660156 35.871094 L 151.789062 76.125 Z M 112.921875 150.59375 " clip-rule="nonzero"/></clipPath><clipPath id="e4da7bbf97"><path d="M 112.921875 150.59375 L 35.792969 110.339844 L 74.660156 35.871094 L 151.789062 76.125 Z M 112.921875 150.59375 " clip-rule="nonzero"/></clipPath><clipPath id="71a4b38059"><path d="M 60 120 L 61 120 L 61 122 L 60 122 Z M 60 120 " clip-rule="nonzero"/></clipPath><clipPath id="8ee1570f70"><path d="M 112.921875 150.59375 L 35.792969 110.339844 L 74.660156 35.871094 L 151.789062 76.125 Z M 112.921875 150.59375 " clip-rule="nonzero"/></clipPath><clipPath id="148e43fcc6"><path d="M 112.921875 150.59375 L 35.792969 110.339844 L 74.660156 35.871094 L 151.789062 76.125 Z M 112.921875 150.59375 " clip-rule="nonzero"/></clipPath><clipPath id="0794877c2a"><path d="M 69.5625 62.257812 L 113 62.257812 L 113 121 L 69.5625 121 Z M 69.5625 62.257812 " clip-rule="nonzero"/></clipPath><clipPath id="4e2baf9ae3"><path d="M 70 112 L 121.3125 112 L 121.3125 125.257812 L 70 125.257812 Z M 70 112 " clip-rule="nonzero"/></clipPath><clipPath id="fa39e75cfa"><path d="M 35.648438 96.355469 L 41.203125 96.355469 L 41.203125 101.910156 L 35.648438 101.910156 Z M 35.648438 96.355469 " clip-rule="nonzero"/></clipPath><clipPath id="efc19bc0e8"><path d="M 38.425781 96.355469 L 41.203125 99.132812 L 38.425781 101.910156 L 35.648438 99.132812 L 38.425781 96.355469 " clip-rule="nonzero"/></clipPath><clipPath id="620d4d2cb6"><path d="M 146.296875 96.355469 L 151.851562 96.355469 L 151.851562 101.910156 L 146.296875 101.910156 Z M 146.296875 96.355469 " clip-rule="nonzero"/></clipPath><clipPath id="3778a809d2"><path d="M 149.074219 96.355469 L 151.851562 99.132812 L 149.074219 101.910156 L 146.296875 99.132812 L 149.074219 96.355469 " clip-rule="nonzero"/></clipPath></defs><g clip-path="url(#6aca6db4f3)"><g clip-path="url(#4ffcd2f998)"><path fill="#d2a113" d="M 14.257812 11.644531 L 173.113281 11.644531 L 173.113281 170.5 L 14.257812 170.5 Z M 14.257812 11.644531 " fill-opacity="1" fill-rule="nonzero"/></g></g><g clip-path="url(#dee31e2af8)"><path fill="#060b37" d="M 161.078125 110.367188 C 159.261719 116.546875 156.488281 122.414062 153.046875 127.816406 C 150.207031 132.214844 146.976562 136.34375 143.347656 140.105469 C 142.878906 140.617188 142.351562 141.078125 141.855469 141.5625 C 141.347656 142.039062 140.855469 142.527344 140.339844 142.992188 L 138.765625 144.363281 L 137.976562 145.046875 L 137.160156 145.695312 L 135.53125 146.996094 C 134.980469 147.417969 134.410156 147.816406 133.851562 148.230469 C 132.746094 149.078125 131.570312 149.820312 130.417969 150.605469 C 130.253906 150.714844 130.078125 150.832031 129.898438 150.953125 C 129.710938 151.066406 129.515625 151.183594 129.3125 151.308594 C 128.90625 151.550781 128.46875 151.8125 128.003906 152.089844 C 127.082031 152.667969 125.996094 153.210938 124.820312 153.835938 C 124.523438 153.988281 124.226562 154.15625 123.914062 154.304688 C 123.601562 154.449219 123.28125 154.597656 122.957031 154.75 C 122.300781 155.050781 121.625 155.363281 120.925781 155.6875 C 119.496094 156.246094 118.003906 156.917969 116.375 157.4375 C 109.949219 159.769531 101.933594 161.210938 93.882812 161.242188 C 85.835938 161.210938 77.816406 159.769531 71.390625 157.4375 C 69.765625 156.917969 68.273438 156.246094 66.839844 155.6875 C 66.140625 155.363281 65.464844 155.050781 64.8125 154.75 C 64.488281 154.597656 64.167969 154.449219 63.851562 154.304688 C 63.539062 154.15625 63.242188 153.988281 62.949219 153.835938 C 61.773438 153.210938 60.683594 152.667969 59.765625 152.089844 C 59.300781 151.8125 58.863281 151.550781 58.457031 151.308594 C 58.253906 151.183594 58.058594 151.066406 57.871094 150.953125 C 57.691406 150.832031 57.515625 150.714844 57.347656 150.605469 C 52.976562 147.738281 48.871094 144.484375 45.136719 140.828125 C 41.199219 136.894531 37.757812 132.488281 34.722656 127.816406 C 31.277344 122.414062 28.507812 116.546875 26.691406 110.367188 C 24.800781 104.203125 23.925781 97.734375 23.867188 91.269531 C 23.925781 84.800781 24.800781 78.332031 26.691406 72.171875 C 28.507812 65.988281 31.277344 60.121094 34.71875 54.71875 C 37.5625 50.324219 40.792969 46.191406 44.421875 42.433594 C 44.890625 41.917969 45.414062 41.457031 45.914062 40.972656 C 46.417969 40.5 46.914062 40.007812 47.429688 39.542969 L 49.003906 38.175781 L 49.789062 37.488281 L 50.605469 36.839844 L 52.234375 35.539062 C 52.789062 35.117188 53.355469 34.71875 53.917969 34.304688 C 55.019531 33.457031 56.195312 32.714844 57.347656 31.933594 C 57.515625 31.820312 57.6875 31.703125 57.871094 31.582031 C 58.058594 31.46875 58.253906 31.351562 58.457031 31.230469 C 58.863281 30.984375 59.300781 30.722656 59.765625 30.445312 C 60.683594 29.867188 61.773438 29.324219 62.949219 28.699219 C 63.242188 28.546875 63.539062 28.382812 63.851562 28.230469 C 64.167969 28.085938 64.484375 27.9375 64.8125 27.785156 C 65.464844 27.484375 66.140625 27.171875 66.839844 26.847656 C 68.269531 26.289062 69.765625 25.617188 71.390625 25.097656 C 77.816406 22.765625 85.835938 21.328125 93.882812 21.292969 C 101.929688 21.328125 109.949219 22.765625 116.375 25.097656 C 118.003906 25.617188 119.496094 26.289062 120.925781 26.847656 C 121.625 27.171875 122.300781 27.484375 122.953125 27.785156 C 123.28125 27.9375 123.601562 28.085938 123.914062 28.230469 C 124.226562 28.378906 124.523438 28.546875 124.820312 28.699219 C 125.992188 29.324219 127.082031 29.867188 128 30.445312 C 128.46875 30.722656 128.90625 30.984375 129.3125 31.230469 C 129.511719 31.351562 129.707031 31.46875 129.894531 31.582031 C 130.078125 31.703125 130.253906 31.820312 130.417969 31.929688 C 134.789062 34.796875 138.898438 38.050781 142.632812 41.707031 C 146.570312 45.640625 150.011719 50.046875 153.046875 54.71875 C 156.488281 60.121094 159.261719 65.988281 161.078125 72.171875 C 162.96875 78.332031 163.84375 84.800781 163.898438 91.269531 C 163.84375 97.734375 162.96875 104.203125 161.078125 110.367188 Z M 165.507812 91.21875 L 165.507812 91.214844 C 165.449219 84.609375 164.558594 78.003906 162.636719 71.703125 C 160.785156 65.382812 157.953125 59.382812 154.417969 53.871094 L 152.71875 51.320312 C 152.71875 51.320312 152.230469 50.632812 151.492188 49.601562 C 150.785156 48.550781 149.699219 47.257812 148.664062 45.925781 C 147.546875 44.660156 146.476562 43.355469 145.574219 42.464844 C 144.699219 41.550781 144.117188 40.941406 144.117188 40.941406 C 144.117188 40.941406 143.96875 40.792969 143.703125 40.535156 C 143.4375 40.28125 143.058594 39.914062 142.605469 39.472656 C 141.71875 38.570312 140.429688 37.480469 139.167969 36.363281 C 138.519531 35.824219 137.851562 35.308594 137.234375 34.8125 C 136.925781 34.566406 136.625 34.328125 136.34375 34.105469 C 136.050781 33.890625 135.769531 33.691406 135.515625 33.507812 C 134.488281 32.765625 133.804688 32.273438 133.804688 32.273438 C 133.804688 32.273438 133.65625 32.152344 133.414062 31.996094 C 133.175781 31.835938 132.859375 31.625 132.539062 31.410156 C 131.90625 30.984375 131.269531 30.558594 131.269531 30.558594 C 131.097656 30.445312 130.921875 30.324219 130.734375 30.199219 C 130.542969 30.082031 130.34375 29.960938 130.136719 29.835938 C 129.722656 29.585938 129.273438 29.320312 128.796875 29.03125 C 127.859375 28.441406 126.746094 27.882812 125.542969 27.242188 C 125.242188 27.085938 124.9375 26.914062 124.621094 26.761719 C 124.296875 26.609375 123.96875 26.457031 123.636719 26.300781 C 122.96875 25.992188 122.277344 25.671875 121.5625 25.339844 C 120.097656 24.765625 118.570312 24.078125 116.90625 23.542969 C 110.328125 21.15625 102.117188 19.675781 93.882812 19.644531 C 85.648438 19.675781 77.4375 21.15625 70.863281 23.542969 C 69.195312 24.078125 67.667969 24.765625 66.203125 25.34375 C 65.492188 25.671875 64.796875 25.992188 64.128906 26.304688 C 63.796875 26.457031 63.46875 26.609375 63.148438 26.761719 C 62.828125 26.914062 62.523438 27.085938 62.222656 27.242188 C 61.019531 27.882812 59.910156 28.441406 58.96875 29.03125 C 58.492188 29.320312 58.046875 29.585938 57.632812 29.835938 C 57.425781 29.960938 57.222656 30.082031 57.03125 30.199219 C 56.847656 30.324219 56.667969 30.445312 56.5 30.558594 C 56.5 30.558594 55.863281 30.984375 55.226562 31.410156 C 54.910156 31.625 54.589844 31.835938 54.351562 31.996094 C 54.113281 32.152344 53.960938 32.273438 53.960938 32.273438 C 53.960938 32.273438 53.277344 32.765625 52.253906 33.507812 C 51.996094 33.691406 51.71875 33.890625 51.425781 34.105469 C 51.140625 34.328125 50.84375 34.566406 50.53125 34.8125 C 49.917969 35.308594 49.25 35.824219 48.601562 36.363281 C 47.339844 37.480469 46.050781 38.570312 45.164062 39.472656 C 44.707031 39.914062 44.328125 40.28125 44.0625 40.535156 C 43.796875 40.792969 43.652344 40.941406 43.652344 40.941406 C 43.652344 40.941406 43.066406 41.550781 42.191406 42.464844 C 41.292969 43.355469 40.222656 44.660156 39.105469 45.925781 C 38.070312 47.257812 36.984375 48.550781 36.273438 49.601562 C 35.539062 50.632812 35.046875 51.320312 35.046875 51.320312 L 33.347656 53.871094 C 29.816406 59.382812 26.980469 65.382812 25.132812 71.703125 C 23.207031 78.003906 22.320312 84.609375 22.261719 91.214844 L 22.257812 91.21875 L 22.257812 91.316406 L 22.261719 91.320312 C 22.320312 97.925781 23.207031 104.535156 25.132812 110.835938 C 26.980469 117.15625 29.816406 123.152344 33.347656 128.664062 L 35.046875 131.214844 C 35.046875 131.214844 35.539062 131.902344 36.273438 132.933594 C 36.984375 133.984375 38.070312 135.28125 39.105469 136.613281 C 40.222656 137.875 41.292969 139.179688 42.191406 140.070312 C 43.066406 140.984375 43.652344 141.59375 43.652344 141.59375 C 43.652344 141.59375 43.796875 141.746094 44.0625 142 C 44.328125 142.257812 44.707031 142.621094 45.164062 143.0625 C 46.050781 143.964844 47.339844 145.054688 48.601562 146.171875 C 49.25 146.710938 49.917969 147.226562 50.53125 147.722656 C 50.84375 147.96875 51.140625 148.207031 51.425781 148.429688 C 51.71875 148.644531 51.996094 148.84375 52.253906 149.027344 C 53.277344 149.769531 53.960938 150.261719 53.960938 150.261719 C 53.960938 150.261719 54.113281 150.382812 54.351562 150.539062 C 54.589844 150.699219 54.910156 150.910156 55.226562 151.125 C 55.863281 151.550781 56.5 151.976562 56.5 151.976562 C 56.667969 152.089844 56.847656 152.210938 57.03125 152.335938 C 57.226562 152.453125 57.425781 152.574219 57.632812 152.699219 C 58.046875 152.949219 58.492188 153.21875 58.96875 153.503906 C 59.910156 154.09375 61.023438 154.65625 62.222656 155.292969 C 62.527344 155.453125 62.828125 155.621094 63.148438 155.773438 C 63.46875 155.925781 63.796875 156.078125 64.128906 156.234375 C 64.796875 156.542969 65.492188 156.863281 66.207031 157.195312 C 67.667969 157.769531 69.195312 158.457031 70.863281 158.992188 C 77.4375 161.378906 85.648438 162.859375 93.882812 162.894531 C 102.117188 162.859375 110.328125 161.378906 116.90625 158.992188 C 118.570312 158.457031 120.097656 157.769531 121.5625 157.195312 C 122.277344 156.863281 122.96875 156.542969 123.636719 156.234375 C 123.972656 156.078125 124.296875 155.925781 124.621094 155.773438 C 124.9375 155.621094 125.242188 155.453125 125.546875 155.292969 C 126.746094 154.65625 127.859375 154.09375 128.800781 153.503906 C 129.273438 153.21875 129.722656 152.949219 130.136719 152.699219 C 130.34375 152.574219 130.542969 152.453125 130.734375 152.335938 C 130.921875 152.210938 131.097656 152.089844 131.269531 151.976562 C 131.269531 151.976562 131.90625 151.550781 132.539062 151.125 C 132.859375 150.910156 133.175781 150.699219 133.414062 150.539062 C 133.65625 150.382812 133.804688 150.261719 133.804688 150.261719 C 133.804688 150.261719 134.488281 149.769531 135.515625 149.027344 C 135.769531 148.84375 136.050781 148.644531 136.34375 148.429688 C 136.625 148.207031 136.925781 147.96875 137.234375 147.722656 C 137.851562 147.226562 138.519531 146.710938 139.167969 146.171875 C 140.429688 145.054688 141.71875 143.964844 142.605469 143.0625 C 143.058594 142.621094 143.4375 142.257812 143.703125 142 C 143.96875 141.746094 144.117188 141.59375 144.117188 141.59375 C 144.117188 141.59375 144.699219 140.984375 145.574219 140.070312 C 146.476562 139.179688 147.546875 137.875 148.664062 136.613281 C 149.699219 135.28125 150.785156 133.984375 151.492188 132.933594 C 152.230469 131.902344 152.71875 131.214844 152.71875 131.214844 L 154.417969 128.664062 C 157.953125 123.152344 160.785156 117.152344 162.636719 110.835938 C 164.558594 104.53125 165.449219 97.925781 165.507812 91.320312 L 165.507812 91.21875 " fill-opacity="1" fill-rule="nonzero"/></g><g clip-path="url(#8820165c35)"><g clip-path="url(#2b0d4abfcd)"><g clip-path="url(#7b65723c94)"><path fill="#060b37" d="M 132.308594 112.996094 C 131.304688 114.671875 130.601562 116.546875 129.148438 117.941406 C 129.042969 118.042969 128.945312 118.160156 128.882812 118.289062 C 127.804688 120.535156 125.78125 121.925781 124.078125 123.597656 C 123.554688 124.117188 122.945312 124.222656 122.8125 123.90625 C 122.597656 123.402344 122.921875 123.03125 123.242188 122.753906 C 124.335938 121.796875 124.996094 120.523438 125.828125 119.371094 C 126.230469 118.816406 126.582031 118.226562 126.992188 117.671875 C 128.046875 116.242188 128.824219 114.664062 129.535156 113.046875 C 129.636719 112.820312 129.71875 112.585938 129.839844 112.375 C 130.980469 110.441406 131.511719 108.285156 132 106.136719 C 132.445312 104.183594 132.613281 102.164062 133.074219 100.214844 C 133.542969 98.238281 133.511719 96.222656 133.78125 94.234375 C 134.167969 91.410156 134.082031 88.578125 133.582031 85.742188 C 132.949219 82.140625 131.851562 78.699219 130.5625 75.296875 C 130.292969 74.585938 129.808594 74.042969 129.390625 73.441406 C 129.234375 73.21875 129.28125 72.96875 129.445312 72.761719 C 129.628906 72.53125 130.023438 72.476562 130.242188 72.65625 C 130.394531 72.777344 130.550781 72.910156 130.652344 73.070312 C 131.132812 73.8125 131.652344 74.53125 132.050781 75.3125 C 132.925781 77.015625 133.640625 78.792969 134.199219 80.628906 C 134.3125 81.003906 134.390625 81.398438 134.558594 81.75 C 135.496094 83.679688 135.699219 85.796875 136.160156 87.847656 C 136.277344 88.375 136.34375 88.90625 136.332031 89.453125 C 136.324219 89.945312 136.355469 90.441406 136.445312 90.921875 C 136.722656 92.417969 137.019531 93.90625 136.847656 95.4375 C 137.203125 98.316406 136.816406 101.109375 135.984375 103.867188 C 135.300781 106.125 134.601562 108.375 133.59375 110.515625 C 133.199219 111.355469 132.738281 112.167969 132.308594 112.996094 " fill-opacity="1" fill-rule="nonzero"/></g></g></g><g clip-path="url(#c0b77493d5)"><g clip-path="url(#e2980ec2c4)"><g clip-path="url(#34307f452d)"><path fill="#060b37" d="M 113.8125 56.410156 C 116.210938 57.5625 118.324219 58.878906 120.207031 60.554688 C 121.085938 61.335938 122.0625 62.003906 122.980469 62.742188 C 123.902344 63.484375 124.707031 64.339844 125.363281 65.332031 C 125.523438 65.578125 125.691406 65.828125 125.902344 66.027344 C 127.054688 67.117188 127.851562 68.472656 128.796875 69.71875 C 129.203125 70.25 129.394531 70.839844 129.539062 71.460938 C 129.5625 71.574219 129.492188 71.765625 129.398438 71.839844 C 129.308594 71.910156 129.085938 71.941406 129.003906 71.882812 C 128.445312 71.484375 127.804688 71.152344 127.449219 70.554688 C 127.035156 69.863281 126.4375 69.363281 125.898438 68.796875 C 124.476562 67.3125 123.066406 65.820312 121.648438 64.328125 C 121.582031 64.257812 121.519531 64.171875 121.433594 64.132812 C 119.875 63.339844 118.859375 61.867188 117.40625 60.945312 C 117.027344 60.703125 116.703125 60.398438 116.472656 60.019531 C 116.097656 59.398438 115.527344 59.03125 114.890625 58.753906 C 114.257812 58.480469 113.683594 58.121094 113.101562 57.753906 C 112.1875 57.183594 111.242188 56.644531 110.171875 56.398438 C 109.980469 56.355469 109.789062 56.292969 109.617188 56.199219 C 108.148438 55.375 106.507812 54.976562 104.925781 54.492188 C 102.210938 53.660156 99.441406 52.847656 96.578125 52.824219 C 94.824219 52.808594 93.054688 52.734375 91.292969 52.941406 C 90.128906 53.078125 88.953125 53.097656 87.78125 53.167969 C 87.488281 53.1875 87.1875 53.164062 86.902344 53.226562 C 83.6875 53.910156 80.484375 54.652344 77.386719 55.792969 C 76.683594 56.050781 76.03125 56.359375 75.484375 56.875 C 74.691406 57.625 73.675781 57.820312 72.664062 58.023438 C 72.523438 58.050781 72.371094 58.035156 72.222656 58.023438 C 71.84375 57.988281 71.535156 57.734375 71.472656 57.421875 C 71.414062 57.101562 71.589844 56.730469 71.933594 56.582031 C 72.382812 56.382812 72.859375 56.25 73.308594 56.046875 C 74.78125 55.382812 76.234375 54.679688 77.710938 54.035156 C 78.878906 53.523438 80.054688 53.007812 81.261719 52.609375 C 82.234375 52.289062 83.257812 52.089844 84.273438 51.925781 C 86.0625 51.632812 87.828125 51.210938 89.652344 51.105469 C 91.070312 51.023438 92.503906 51.128906 93.902344 50.792969 C 94.085938 50.75 94.296875 50.785156 94.484375 50.820312 C 97.035156 51.332031 99.671875 51.332031 102.15625 52.199219 C 102.429688 52.296875 102.738281 52.339844 103.027344 52.335938 C 104.183594 52.320312 105.253906 52.683594 106.300781 53.105469 C 107.574219 53.617188 108.828125 54.179688 110.089844 54.722656 C 110.359375 54.835938 110.625 55 110.90625 55.050781 C 111.507812 55.152344 112.003906 55.433594 112.5 55.765625 C 112.945312 56.0625 113.402344 56.371094 113.8125 56.410156 " fill-opacity="1" fill-rule="nonzero"/></g></g></g><g clip-path="url(#f5444271d9)"><g clip-path="url(#7ca2bb557e)"><g clip-path="url(#8ba85287e3)"><path fill="#060b37" d="M 55.429688 73.816406 C 55.457031 73.757812 55.546875 73.632812 55.59375 73.496094 C 56.402344 71.074219 58.167969 69.230469 59.488281 67.121094 C 59.640625 66.878906 59.890625 66.695312 60.101562 66.488281 C 60.414062 66.179688 60.769531 65.898438 61.046875 65.558594 C 62.257812 64.070312 63.734375 62.839844 65.019531 61.421875 C 65.25 61.167969 65.496094 60.90625 65.789062 60.742188 C 66.695312 60.234375 67.484375 59.570312 68.304688 58.953125 C 68.90625 58.5 69.570312 58.203125 70.34375 58.210938 C 71.046875 58.222656 71.414062 58.839844 71.046875 59.433594 C 70.898438 59.675781 70.6875 59.898438 70.457031 60.074219 C 69.875 60.515625 69.273438 60.941406 68.679688 61.371094 C 67.6875 62.078125 66.808594 62.949219 65.882812 63.75 C 63.867188 65.496094 62.175781 67.539062 60.582031 69.660156 C 59.789062 70.714844 59.09375 71.851562 58.4375 73 C 57.539062 74.578125 56.726562 76.207031 55.863281 77.800781 C 54.804688 79.753906 54.082031 81.835938 53.457031 83.957031 C 53.195312 84.851562 52.945312 85.75 52.664062 86.636719 C 52.417969 87.417969 52.414062 88.277344 52.316406 89.105469 C 52.28125 89.40625 52.214844 89.679688 52.011719 89.917969 C 51.785156 90.183594 51.277344 90.148438 51.144531 89.820312 C 51.035156 89.554688 50.9375 89.261719 50.933594 88.976562 C 50.917969 88.042969 50.980469 87.105469 51.375 86.234375 C 51.582031 85.78125 51.6875 85.320312 51.707031 84.816406 C 51.746094 83.882812 51.875 82.949219 52.183594 82.070312 C 52.898438 80.042969 53.261719 77.886719 54.394531 76.007812 C 54.796875 75.339844 54.835938 74.492188 55.429688 73.816406 " fill-opacity="1" fill-rule="nonzero"/></g></g></g><g clip-path="url(#95955b220e)"><g clip-path="url(#46bf14cb06)"><g clip-path="url(#fc5e91c47b)"><path fill="#060b37" d="M 113.148438 130.570312 C 113.277344 130.453125 113.503906 130.191406 113.777344 130 C 114.625 129.421875 115.480469 128.859375 116.34375 128.304688 C 117.125 127.804688 117.910156 127.3125 118.707031 126.839844 C 119.226562 126.535156 119.605469 126.097656 120.015625 125.679688 C 120.394531 125.292969 120.816406 124.949219 121.382812 124.882812 C 121.570312 124.863281 121.769531 124.898438 121.957031 124.9375 C 122.179688 124.988281 122.324219 125.355469 122.199219 125.535156 C 122.085938 125.695312 121.96875 125.855469 121.824219 125.980469 C 120.203125 127.386719 118.605469 128.828125 116.816406 130.011719 C 115.84375 130.652344 114.746094 131.097656 113.695312 131.613281 C 113.464844 131.722656 113.207031 131.648438 113.054688 131.410156 C 112.914062 131.183594 112.929688 130.945312 113.148438 130.570312 " fill-opacity="1" fill-rule="nonzero"/></g></g></g><g clip-path="url(#aa3cf2330e)"><g clip-path="url(#c534bc66a7)"><g clip-path="url(#ff69dded1b)"><path fill="#060b37" d="M 53.25 107.988281 C 53.367188 107.953125 53.460938 107.898438 53.542969 107.910156 C 53.632812 107.925781 53.757812 107.984375 53.78125 108.054688 C 54.285156 109.46875 55.53125 110.558594 55.582031 112.171875 C 55.59375 112.523438 55.84375 112.789062 55.996094 113.09375 C 56.410156 113.921875 56.777344 114.773438 57.152344 115.621094 C 57.207031 115.746094 57.183594 115.921875 57.03125 115.988281 C 56.878906 116.050781 56.734375 115.960938 56.660156 115.835938 C 56.265625 115.171875 55.667969 114.609375 55.617188 113.765625 C 55.597656 113.355469 55.300781 113.066406 55.085938 112.742188 C 54.355469 111.644531 53.671875 110.519531 53.308594 109.230469 C 53.230469 108.953125 53.164062 108.664062 53.132812 108.378906 C 53.121094 108.25 53.210938 108.105469 53.25 107.988281 " fill-opacity="1" fill-rule="nonzero"/></g></g></g><g clip-path="url(#7ff9037711)"><g clip-path="url(#9555276e8f)"><g clip-path="url(#b6272f4e67)"><path fill="#060b37" d="M 64.1875 125.15625 C 63.59375 124.601562 62.984375 124.046875 62.402344 123.46875 C 62.238281 123.304688 62.125 123.074219 62.035156 122.855469 C 61.957031 122.675781 61.988281 122.464844 62.152344 122.328125 C 62.320312 122.183594 62.515625 122.195312 62.683594 122.324219 C 63.535156 122.988281 64.257812 123.761719 64.683594 124.773438 C 64.738281 124.910156 64.785156 125.082031 64.625 125.160156 C 64.519531 125.210938 64.363281 125.164062 64.1875 125.15625 " fill-opacity="1" fill-rule="nonzero"/></g></g></g><g clip-path="url(#2b21a92e58)"><g clip-path="url(#0cef107a1a)"><g clip-path="url(#0fc37f0ed0)"><path fill="#060b37" d="M 51.710938 102.1875 C 51.828125 102.175781 51.945312 102.132812 52 102.171875 C 52.292969 102.382812 52.398438 102.714844 52.46875 103.046875 C 52.59375 103.664062 52.75 104.261719 53.089844 104.808594 C 53.300781 105.144531 53.371094 105.539062 53.230469 105.929688 C 53.183594 106.046875 53.066406 106.1875 52.957031 106.222656 C 52.84375 106.257812 52.660156 106.210938 52.5625 106.128906 C 52.210938 105.839844 51.980469 105.460938 52.015625 104.996094 C 52.078125 104.160156 52.003906 103.363281 51.65625 102.589844 C 51.605469 102.484375 51.691406 102.320312 51.710938 102.1875 " fill-opacity="1" fill-rule="nonzero"/></g></g></g><g clip-path="url(#d04ab579f9)"><g clip-path="url(#bdb1b9099f)"><g clip-path="url(#3cd2d3877b)"><path fill="#060b37" d="M 58.40625 117.9375 C 58.515625 117.914062 58.660156 117.832031 58.773438 117.863281 C 59.191406 117.972656 59.394531 118.28125 59.359375 118.722656 C 59.34375 118.957031 59.164062 119.054688 58.957031 119.039062 C 58.554688 119.003906 58.308594 118.699219 58.300781 118.242188 C 58.300781 118.15625 58.359375 118.070312 58.40625 117.9375 " fill-opacity="1" fill-rule="nonzero"/></g></g></g><g clip-path="url(#7de50e95ef)"><g clip-path="url(#17926876ed)"><g clip-path="url(#c5d28a63fa)"><path fill="#060b37" d="M 51.152344 95.320312 C 50.824219 95.171875 50.710938 94.867188 50.855469 94.488281 C 50.929688 94.285156 51.085938 94.183594 51.296875 94.238281 C 51.667969 94.335938 51.847656 94.800781 51.640625 95.15625 C 51.539062 95.335938 51.359375 95.390625 51.152344 95.320312 " fill-opacity="1" fill-rule="nonzero"/></g></g></g><g clip-path="url(#b246891c43)"><g clip-path="url(#dd1570ba3a)"><g clip-path="url(#e4da7bbf97)"><path fill="#060b37" d="M 138.179688 95.398438 C 138.035156 95.574219 137.855469 95.601562 137.675781 95.488281 C 137.445312 95.34375 137.351562 95.125 137.46875 94.875 C 137.558594 94.679688 137.753906 94.609375 137.949219 94.675781 C 138.222656 94.769531 138.332031 95.148438 138.179688 95.398438 " fill-opacity="1" fill-rule="nonzero"/></g></g></g><g clip-path="url(#71a4b38059)"><g clip-path="url(#8ee1570f70)"><g clip-path="url(#148e43fcc6)"><path fill="#060b37" d="M 60.5 120.558594 C 60.640625 120.472656 60.773438 120.507812 60.882812 120.605469 C 60.996094 120.710938 61.042969 120.859375 60.921875 120.976562 C 60.804688 121.089844 60.65625 121.035156 60.550781 120.929688 C 60.4375 120.824219 60.402344 120.695312 60.5 120.558594 " fill-opacity="1" fill-rule="nonzero"/></g></g></g><g fill="#060b37" fill-opacity="1"><g transform="translate(43.014889, 75.536667)"><g><path d="M -6.46875 -8.078125 C -6.207031 -8.722656 -5.859375 -9.273438 -5.421875 -9.734375 C -4.984375 -10.191406 -4.488281 -10.535156 -3.9375 -10.765625 C -3.394531 -11.003906 -2.8125 -11.128906 -2.1875 -11.140625 C -1.570312 -11.148438 -0.941406 -11.019531 -0.296875 -10.75 C 0.0664062 -10.59375 0.40625 -10.394531 0.71875 -10.15625 C 1.03125 -9.925781 1.3125 -9.664062 1.5625 -9.375 C 1.8125 -9.082031 2.019531 -8.757812 2.1875 -8.40625 C 2.351562 -8.0625 2.46875 -7.691406 2.53125 -7.296875 C 2.601562 -6.910156 2.613281 -6.507812 2.5625 -6.09375 C 2.507812 -5.675781 2.394531 -5.257812 2.21875 -4.84375 C 1.957031 -4.195312 1.609375 -3.644531 1.171875 -3.1875 C 0.742188 -2.738281 0.257812 -2.394531 -0.28125 -2.15625 C -0.832031 -1.914062 -1.410156 -1.789062 -2.015625 -1.78125 C -2.628906 -1.78125 -3.265625 -1.914062 -3.921875 -2.1875 C -4.285156 -2.34375 -4.625 -2.535156 -4.9375 -2.765625 C -5.257812 -2.992188 -5.546875 -3.257812 -5.796875 -3.5625 C -6.046875 -3.863281 -6.253906 -4.1875 -6.421875 -4.53125 C -6.597656 -4.875 -6.71875 -5.238281 -6.78125 -5.625 C -6.851562 -6.019531 -6.863281 -6.421875 -6.8125 -6.828125 C -6.757812 -7.242188 -6.644531 -7.660156 -6.46875 -8.078125 Z M 1.703125 -5.0625 C 1.878906 -5.476562 1.960938 -5.898438 1.953125 -6.328125 C 1.953125 -6.753906 1.859375 -7.148438 1.671875 -7.515625 C 1.492188 -7.890625 1.222656 -8.238281 0.859375 -8.5625 C 0.503906 -8.882812 0.0625 -9.15625 -0.46875 -9.375 C -1.0625 -9.625 -1.640625 -9.78125 -2.203125 -9.84375 C -2.765625 -9.914062 -3.285156 -9.894531 -3.765625 -9.78125 C -4.253906 -9.675781 -4.6875 -9.46875 -5.0625 -9.15625 C -5.4375 -8.84375 -5.734375 -8.414062 -5.953125 -7.875 C -6.128906 -7.457031 -6.21875 -7.039062 -6.21875 -6.625 C -6.21875 -6.207031 -6.125 -5.804688 -5.9375 -5.421875 C -5.757812 -5.046875 -5.492188 -4.703125 -5.140625 -4.390625 C -4.785156 -4.078125 -4.335938 -3.804688 -3.796875 -3.578125 C -3.210938 -3.335938 -2.632812 -3.175781 -2.0625 -3.09375 C -1.5 -3.019531 -0.972656 -3.035156 -0.484375 -3.140625 C -0.00390625 -3.253906 0.421875 -3.46875 0.796875 -3.78125 C 1.179688 -4.101562 1.484375 -4.53125 1.703125 -5.0625 Z M 1.703125 -5.0625 "/></g></g></g><g fill="#060b37" fill-opacity="1"><g transform="translate(47.891789, 64.560204)"><g><path d="M -1.578125 -11 L -1.59375 -10.953125 C -2.019531 -10.847656 -2.4375 -10.660156 -2.84375 -10.390625 C -3.25 -10.117188 -3.609375 -9.757812 -3.921875 -9.3125 C -4.210938 -8.882812 -4.414062 -8.441406 -4.53125 -7.984375 C -4.65625 -7.535156 -4.679688 -7.09375 -4.609375 -6.65625 C -4.535156 -6.21875 -4.359375 -5.796875 -4.078125 -5.390625 C -3.804688 -4.992188 -3.429688 -4.628906 -2.953125 -4.296875 C -2.429688 -3.929688 -1.894531 -3.660156 -1.34375 -3.484375 C -0.789062 -3.304688 -0.257812 -3.238281 0.25 -3.28125 C 0.769531 -3.320312 1.265625 -3.476562 1.734375 -3.75 C 2.203125 -4.03125 2.625 -4.441406 3 -4.984375 C 3.125 -5.171875 3.238281 -5.375 3.34375 -5.59375 C 3.445312 -5.8125 3.519531 -6.039062 3.5625 -6.28125 C 3.601562 -6.519531 3.617188 -6.753906 3.609375 -6.984375 C 3.609375 -7.222656 3.578125 -7.460938 3.515625 -7.703125 L 3.609375 -7.734375 L 4.359375 -6.59375 C 4.285156 -6.269531 4.164062 -5.929688 4 -5.578125 C 3.832031 -5.234375 3.640625 -4.90625 3.421875 -4.59375 C 2.984375 -3.96875 2.488281 -3.453125 1.9375 -3.046875 C 1.394531 -2.648438 0.828125 -2.378906 0.234375 -2.234375 C -0.359375 -2.085938 -0.960938 -2.070312 -1.578125 -2.1875 C -2.191406 -2.300781 -2.789062 -2.5625 -3.375 -2.96875 C -3.695312 -3.195312 -3.984375 -3.460938 -4.234375 -3.765625 C -4.492188 -4.066406 -4.707031 -4.394531 -4.875 -4.75 C -5.050781 -5.101562 -5.175781 -5.476562 -5.25 -5.875 C -5.320312 -6.28125 -5.34375 -6.695312 -5.3125 -7.125 C -5.28125 -7.550781 -5.179688 -7.976562 -5.015625 -8.40625 C -4.859375 -8.832031 -4.632812 -9.253906 -4.34375 -9.671875 C -3.882812 -10.335938 -3.363281 -10.882812 -2.78125 -11.3125 Z M -1.578125 -11 "/></g></g></g><g fill="#060b37" fill-opacity="1"><g transform="translate(53.945621, 56.103154)"><g><path d="M 2.171875 -7.96875 C 2.054688 -7.851562 1.90625 -7.710938 1.71875 -7.546875 C 1.53125 -7.378906 1.328125 -7.195312 1.109375 -7 C 0.898438 -6.8125 0.679688 -6.609375 0.453125 -6.390625 C 0.222656 -6.171875 0 -5.957031 -0.21875 -5.75 C -0.4375 -5.539062 -0.644531 -5.335938 -0.84375 -5.140625 C -1.039062 -4.953125 -1.21875 -4.78125 -1.375 -4.625 L -0.09375 -3.28125 C 0.15625 -3.019531 0.375 -2.796875 0.5625 -2.609375 C 0.757812 -2.429688 0.925781 -2.28125 1.0625 -2.15625 C 1.207031 -2.03125 1.332031 -1.925781 1.4375 -1.84375 C 1.539062 -1.769531 1.632812 -1.707031 1.71875 -1.65625 L 1.734375 -1.640625 L 0.640625 -0.609375 L 0.625 -0.625 C 0.582031 -0.707031 0.523438 -0.800781 0.453125 -0.90625 C 0.378906 -1.019531 0.285156 -1.148438 0.171875 -1.296875 C 0.0546875 -1.441406 -0.0859375 -1.613281 -0.265625 -1.8125 C -0.441406 -2.019531 -0.65625 -2.253906 -0.90625 -2.515625 L -3.703125 -5.453125 C -3.941406 -5.710938 -4.15625 -5.929688 -4.34375 -6.109375 C -4.53125 -6.296875 -4.695312 -6.453125 -4.84375 -6.578125 C -5 -6.710938 -5.128906 -6.816406 -5.234375 -6.890625 C -5.335938 -6.972656 -5.429688 -7.035156 -5.515625 -7.078125 L -5.53125 -7.09375 L -4.4375 -8.125 L -4.421875 -8.109375 C -4.378906 -8.035156 -4.320312 -7.941406 -4.25 -7.828125 C -4.175781 -7.722656 -4.078125 -7.59375 -3.953125 -7.4375 C -3.828125 -7.289062 -3.675781 -7.113281 -3.5 -6.90625 C -3.332031 -6.707031 -3.128906 -6.476562 -2.890625 -6.21875 L -1.78125 -5.0625 C -1.625 -5.21875 -1.441406 -5.390625 -1.234375 -5.578125 C -1.035156 -5.765625 -0.828125 -5.960938 -0.609375 -6.171875 C -0.398438 -6.378906 -0.179688 -6.585938 0.046875 -6.796875 C 0.273438 -7.015625 0.488281 -7.222656 0.6875 -7.421875 C 0.882812 -7.628906 1.070312 -7.828125 1.25 -8.015625 C 1.425781 -8.203125 1.578125 -8.351562 1.703125 -8.46875 L 0.640625 -9.578125 C 0.398438 -9.835938 0.1875 -10.0625 0 -10.25 C -0.1875 -10.4375 -0.351562 -10.597656 -0.5 -10.734375 C -0.644531 -10.867188 -0.769531 -10.972656 -0.875 -11.046875 C -0.976562 -11.117188 -1.070312 -11.179688 -1.15625 -11.234375 L -1.171875 -11.25 L -0.078125 -12.28125 L -0.0625 -12.265625 C -0.0195312 -12.179688 0.0351562 -12.082031 0.109375 -11.96875 C 0.179688 -11.863281 0.273438 -11.734375 0.390625 -11.578125 C 0.515625 -11.429688 0.664062 -11.257812 0.84375 -11.0625 C 1.019531 -10.863281 1.226562 -10.632812 1.46875 -10.375 L 4.265625 -7.4375 C 4.515625 -7.175781 4.734375 -6.953125 4.921875 -6.765625 C 5.109375 -6.578125 5.273438 -6.421875 5.421875 -6.296875 C 5.566406 -6.171875 5.691406 -6.066406 5.796875 -5.984375 C 5.898438 -5.910156 5.992188 -5.851562 6.078125 -5.8125 L 6.09375 -5.796875 L 5 -4.765625 L 4.984375 -4.78125 C 4.941406 -4.851562 4.882812 -4.945312 4.8125 -5.0625 C 4.738281 -5.175781 4.640625 -5.300781 4.515625 -5.4375 C 4.398438 -5.582031 4.253906 -5.753906 4.078125 -5.953125 C 3.898438 -6.148438 3.6875 -6.378906 3.4375 -6.640625 Z M 2.171875 -7.96875 "/></g></g></g><g fill="#060b37" fill-opacity="1"><g transform="translate(61.997704, 48.621169)"><g><path d="M -0.453125 -10.34375 C 0.148438 -10.707031 0.757812 -10.941406 1.375 -11.046875 C 1.988281 -11.160156 2.582031 -11.15625 3.15625 -11.03125 C 3.738281 -10.90625 4.285156 -10.660156 4.796875 -10.296875 C 5.304688 -9.929688 5.742188 -9.445312 6.109375 -8.84375 C 6.304688 -8.507812 6.460938 -8.15625 6.578125 -7.78125 C 6.691406 -7.40625 6.757812 -7.023438 6.78125 -6.640625 C 6.8125 -6.253906 6.789062 -5.875 6.71875 -5.5 C 6.65625 -5.125 6.535156 -4.757812 6.359375 -4.40625 C 6.179688 -4.050781 5.953125 -3.71875 5.671875 -3.40625 C 5.390625 -3.101562 5.050781 -2.832031 4.65625 -2.59375 C 4.0625 -2.238281 3.453125 -2 2.828125 -1.875 C 2.210938 -1.757812 1.617188 -1.765625 1.046875 -1.890625 C 0.472656 -2.023438 -0.0625 -2.273438 -0.5625 -2.640625 C -1.070312 -3.003906 -1.507812 -3.488281 -1.875 -4.09375 C -2.070312 -4.425781 -2.226562 -4.78125 -2.34375 -5.15625 C -2.46875 -5.53125 -2.539062 -5.90625 -2.5625 -6.28125 C -2.59375 -6.664062 -2.570312 -7.050781 -2.5 -7.4375 C -2.4375 -7.820312 -2.316406 -8.191406 -2.140625 -8.546875 C -1.960938 -8.898438 -1.734375 -9.226562 -1.453125 -9.53125 C -1.171875 -9.84375 -0.835938 -10.113281 -0.453125 -10.34375 Z M 4.375 -3.078125 C 4.769531 -3.316406 5.085938 -3.601562 5.328125 -3.9375 C 5.566406 -4.28125 5.722656 -4.65625 5.796875 -5.0625 C 5.867188 -5.476562 5.851562 -5.921875 5.75 -6.390625 C 5.65625 -6.867188 5.457031 -7.351562 5.15625 -7.84375 C 4.820312 -8.394531 4.445312 -8.863281 4.03125 -9.25 C 3.625 -9.644531 3.191406 -9.9375 2.734375 -10.125 C 2.273438 -10.320312 1.800781 -10.398438 1.3125 -10.359375 C 0.832031 -10.328125 0.34375 -10.160156 -0.15625 -9.859375 C -0.539062 -9.628906 -0.851562 -9.347656 -1.09375 -9.015625 C -1.34375 -8.679688 -1.503906 -8.304688 -1.578125 -7.890625 C -1.660156 -7.472656 -1.648438 -7.03125 -1.546875 -6.5625 C -1.441406 -6.101562 -1.238281 -5.625 -0.9375 -5.125 C -0.613281 -4.582031 -0.25 -4.109375 0.15625 -3.703125 C 0.570312 -3.304688 1.007812 -3.007812 1.46875 -2.8125 C 1.925781 -2.625 2.398438 -2.546875 2.890625 -2.578125 C 3.390625 -2.617188 3.882812 -2.785156 4.375 -3.078125 Z M 4.375 -3.078125 "/></g></g></g><g fill="#060b37" fill-opacity="1"><g transform="translate(72.414251, 42.642657)"><g><path d="M 6.6875 -2.296875 L 6.671875 -2.328125 C 6.679688 -2.359375 6.679688 -2.390625 6.671875 -2.421875 C 6.660156 -2.460938 6.648438 -2.5 6.640625 -2.53125 C 6.597656 -2.65625 6.535156 -2.785156 6.453125 -2.921875 C 6.367188 -3.054688 6.242188 -3.21875 6.078125 -3.40625 L 4.8125 -4.765625 C 4.582031 -4.703125 4.285156 -4.609375 3.921875 -4.484375 C 3.554688 -4.359375 3.15625 -4.21875 2.71875 -4.0625 C 2.414062 -3.957031 2.117188 -3.851562 1.828125 -3.75 C 1.535156 -3.65625 1.285156 -3.566406 1.078125 -3.484375 L 0.921875 -1.6875 C 0.910156 -1.519531 0.898438 -1.335938 0.890625 -1.140625 C 0.878906 -0.941406 0.90625 -0.753906 0.96875 -0.578125 C 0.988281 -0.523438 1.007812 -0.484375 1.03125 -0.453125 C 1.050781 -0.429688 1.0625 -0.414062 1.0625 -0.40625 L 1.078125 -0.375 L -0.125 0.046875 L -0.140625 0.015625 C -0.0859375 -0.0859375 -0.0390625 -0.25 0 -0.46875 C 0.0390625 -0.695312 0.078125 -0.976562 0.109375 -1.3125 L 0.90625 -9.96875 L 1.375 -10.140625 L 7.046875 -4.03125 C 7.191406 -3.882812 7.332031 -3.742188 7.46875 -3.609375 C 7.601562 -3.472656 7.726562 -3.359375 7.84375 -3.265625 C 7.957031 -3.171875 8.054688 -3.085938 8.140625 -3.015625 C 8.222656 -2.953125 8.273438 -2.910156 8.296875 -2.890625 L 8.3125 -2.859375 Z M 1.734375 -4.28125 C 1.960938 -4.363281 2.195312 -4.445312 2.4375 -4.53125 C 2.675781 -4.625 2.910156 -4.707031 3.140625 -4.78125 C 3.367188 -4.863281 3.585938 -4.941406 3.796875 -5.015625 C 4.015625 -5.085938 4.210938 -5.160156 4.390625 -5.234375 L 1.4375 -8.390625 L 1.09375 -4.0625 Z M 1.734375 -4.28125 "/></g></g></g><g fill="#060b37" fill-opacity="1"><g transform="translate(82.588327, 39.52591)"><g><path d="M 0.046875 -9.109375 C 0.0234375 -9.078125 0.015625 -9.035156 0.015625 -8.984375 C 0.015625 -8.941406 0.015625 -8.867188 0.015625 -8.765625 C 0.015625 -8.660156 0.015625 -8.53125 0.015625 -8.375 C 0.0234375 -8.21875 0.0351562 -8.019531 0.046875 -7.78125 C 0.0664062 -7.539062 0.0859375 -7.25 0.109375 -6.90625 C 0.128906 -6.5625 0.160156 -6.171875 0.203125 -5.734375 L -0.078125 -5.671875 C -0.222656 -6.109375 -0.347656 -6.484375 -0.453125 -6.796875 C -0.554688 -7.117188 -0.644531 -7.394531 -0.71875 -7.625 C -0.800781 -7.851562 -0.863281 -8.039062 -0.90625 -8.1875 C -0.957031 -8.34375 -1 -8.46875 -1.03125 -8.5625 C -1.070312 -8.65625 -1.101562 -8.722656 -1.125 -8.765625 C -1.15625 -8.804688 -1.175781 -8.84375 -1.1875 -8.875 L -1.1875 -8.890625 L 0.046875 -9.125 Z M 0.046875 -9.109375 "/></g></g></g><g fill="#060b37" fill-opacity="1"><g transform="translate(86.877955, 38.718388)"><g><path d="M 4.046875 -7.859375 L 3.90625 -7.84375 C 3.875 -7.9375 3.816406 -8.039062 3.734375 -8.15625 C 3.648438 -8.269531 3.539062 -8.375 3.40625 -8.46875 C 3.28125 -8.5625 3.128906 -8.632812 2.953125 -8.6875 C 2.785156 -8.75 2.585938 -8.769531 2.359375 -8.75 C 2.160156 -8.738281 1.984375 -8.695312 1.828125 -8.625 C 1.679688 -8.5625 1.5625 -8.46875 1.46875 -8.34375 C 1.375 -8.21875 1.300781 -8.078125 1.25 -7.921875 C 1.207031 -7.765625 1.191406 -7.59375 1.203125 -7.40625 C 1.234375 -7.101562 1.34375 -6.820312 1.53125 -6.5625 C 1.71875 -6.3125 1.941406 -6.0625 2.203125 -5.8125 C 2.472656 -5.5625 2.765625 -5.316406 3.078125 -5.078125 C 3.398438 -4.835938 3.695312 -4.578125 3.96875 -4.296875 C 4.25 -4.023438 4.484375 -3.742188 4.671875 -3.453125 C 4.867188 -3.160156 4.976562 -2.832031 5 -2.46875 C 5.019531 -2.195312 4.992188 -1.921875 4.921875 -1.640625 C 4.847656 -1.359375 4.722656 -1.101562 4.546875 -0.875 C 4.367188 -0.644531 4.128906 -0.453125 3.828125 -0.296875 C 3.523438 -0.140625 3.171875 -0.046875 2.765625 -0.015625 C 2.523438 0.00390625 2.296875 0.00390625 2.078125 -0.015625 C 1.859375 -0.046875 1.65625 -0.0859375 1.46875 -0.140625 C 1.28125 -0.191406 1.113281 -0.25 0.96875 -0.3125 C 0.820312 -0.382812 0.703125 -0.445312 0.609375 -0.5 L 0.640625 -1.890625 L 0.796875 -1.890625 C 0.859375 -1.703125 0.945312 -1.519531 1.0625 -1.34375 C 1.175781 -1.175781 1.3125 -1.03125 1.46875 -0.90625 C 1.632812 -0.78125 1.816406 -0.6875 2.015625 -0.625 C 2.222656 -0.5625 2.441406 -0.539062 2.671875 -0.5625 C 2.878906 -0.570312 3.0625 -0.613281 3.21875 -0.6875 C 3.382812 -0.769531 3.523438 -0.867188 3.640625 -0.984375 C 3.753906 -1.109375 3.835938 -1.25 3.890625 -1.40625 C 3.953125 -1.570312 3.972656 -1.75 3.953125 -1.9375 C 3.929688 -2.207031 3.863281 -2.445312 3.75 -2.65625 C 3.632812 -2.875 3.488281 -3.078125 3.3125 -3.265625 C 3.144531 -3.453125 2.957031 -3.628906 2.75 -3.796875 C 2.550781 -3.972656 2.335938 -4.144531 2.109375 -4.3125 C 1.890625 -4.488281 1.671875 -4.664062 1.453125 -4.84375 C 1.242188 -5.03125 1.054688 -5.234375 0.890625 -5.453125 C 0.722656 -5.671875 0.578125 -5.90625 0.453125 -6.15625 C 0.335938 -6.414062 0.269531 -6.703125 0.25 -7.015625 C 0.226562 -7.335938 0.269531 -7.632812 0.375 -7.90625 C 0.476562 -8.175781 0.628906 -8.410156 0.828125 -8.609375 C 1.023438 -8.804688 1.253906 -8.960938 1.515625 -9.078125 C 1.773438 -9.203125 2.039062 -9.273438 2.3125 -9.296875 C 2.519531 -9.316406 2.710938 -9.316406 2.890625 -9.296875 C 3.066406 -9.273438 3.222656 -9.242188 3.359375 -9.203125 C 3.503906 -9.171875 3.628906 -9.132812 3.734375 -9.09375 C 3.847656 -9.0625 3.941406 -9.03125 4.015625 -9 Z M 4.046875 -7.859375 "/></g></g></g><g fill="#060b37" fill-opacity="1"><g transform="translate(94.709991, 38.332962)"><g/></g></g><g fill="#060b37" fill-opacity="1"><g transform="translate(100.456104, 38.581094)"><g><path d="M 3.140625 -8.484375 L 7.9375 -0.40625 L 8.890625 -4.6875 C 8.960938 -5.03125 9.019531 -5.332031 9.0625 -5.59375 C 9.113281 -5.863281 9.15625 -6.09375 9.1875 -6.28125 C 9.21875 -6.46875 9.234375 -6.628906 9.234375 -6.765625 C 9.242188 -6.898438 9.242188 -7.015625 9.234375 -7.109375 L 9.25 -7.140625 L 10.328125 -6.890625 L 10.3125 -6.859375 C 10.269531 -6.785156 10.222656 -6.6875 10.171875 -6.5625 C 10.128906 -6.4375 10.078125 -6.28125 10.015625 -6.09375 C 9.960938 -5.90625 9.898438 -5.679688 9.828125 -5.421875 C 9.765625 -5.171875 9.695312 -4.875 9.625 -4.53125 L 8.1875 1.9375 L 7.984375 1.890625 L 3.1875 -6.15625 L 2.265625 -1.984375 C 2.179688 -1.640625 2.113281 -1.335938 2.0625 -1.078125 C 2.007812 -0.816406 1.972656 -0.59375 1.953125 -0.40625 C 1.941406 -0.21875 1.929688 -0.0625 1.921875 0.0625 C 1.910156 0.195312 1.90625 0.304688 1.90625 0.390625 L 1.90625 0.421875 L 0.828125 0.1875 L 0.828125 0.15625 C 0.867188 0.0703125 0.914062 -0.0234375 0.96875 -0.140625 C 1.03125 -0.265625 1.082031 -0.414062 1.125 -0.59375 C 1.175781 -0.769531 1.234375 -0.988281 1.296875 -1.25 C 1.367188 -1.507812 1.445312 -1.8125 1.53125 -2.15625 L 2.40625 -6.125 C 2.476562 -6.46875 2.535156 -6.769531 2.578125 -7.03125 C 2.628906 -7.289062 2.671875 -7.515625 2.703125 -7.703125 C 2.734375 -7.898438 2.75 -8.066406 2.75 -8.203125 C 2.75 -8.335938 2.75 -8.445312 2.75 -8.53125 L 2.765625 -8.5625 Z M 3.140625 -8.484375 "/></g></g></g><g fill="#060b37" fill-opacity="1"><g transform="translate(111.299949, 41.116913)"><g><path d="M 8.34375 -6.15625 C 8.976562 -5.851562 9.515625 -5.476562 9.953125 -5.03125 C 10.390625 -4.582031 10.710938 -4.078125 10.921875 -3.515625 C 11.140625 -2.960938 11.238281 -2.375 11.21875 -1.75 C 11.195312 -1.125 11.039062 -0.5 10.75 0.125 C 10.570312 0.488281 10.363281 0.820312 10.125 1.125 C 9.882812 1.425781 9.609375 1.695312 9.296875 1.9375 C 8.992188 2.175781 8.664062 2.367188 8.3125 2.515625 C 7.96875 2.671875 7.597656 2.773438 7.203125 2.828125 C 6.804688 2.878906 6.398438 2.875 5.984375 2.8125 C 5.578125 2.75 5.164062 2.617188 4.75 2.421875 C 4.113281 2.128906 3.578125 1.757812 3.140625 1.3125 C 2.703125 0.863281 2.375 0.363281 2.15625 -0.1875 C 1.945312 -0.75 1.851562 -1.335938 1.875 -1.953125 C 1.894531 -2.566406 2.054688 -3.191406 2.359375 -3.828125 C 2.523438 -4.191406 2.726562 -4.523438 2.96875 -4.828125 C 3.207031 -5.140625 3.476562 -5.414062 3.78125 -5.65625 C 4.09375 -5.894531 4.425781 -6.085938 4.78125 -6.234375 C 5.132812 -6.390625 5.503906 -6.492188 5.890625 -6.546875 C 6.285156 -6.609375 6.6875 -6.601562 7.09375 -6.53125 C 7.507812 -6.46875 7.925781 -6.34375 8.34375 -6.15625 Z M 4.984375 1.90625 C 5.398438 2.101562 5.816406 2.207031 6.234375 2.21875 C 6.660156 2.226562 7.0625 2.148438 7.4375 1.984375 C 7.820312 1.816406 8.179688 1.554688 8.515625 1.203125 C 8.847656 0.859375 9.132812 0.425781 9.375 -0.09375 C 9.65625 -0.675781 9.84375 -1.242188 9.9375 -1.796875 C 10.03125 -2.359375 10.023438 -2.882812 9.921875 -3.375 C 9.828125 -3.863281 9.632812 -4.300781 9.34375 -4.6875 C 9.050781 -5.070312 8.640625 -5.390625 8.109375 -5.640625 C 7.691406 -5.828125 7.273438 -5.925781 6.859375 -5.9375 C 6.441406 -5.957031 6.039062 -5.882812 5.65625 -5.71875 C 5.269531 -5.550781 4.910156 -5.296875 4.578125 -4.953125 C 4.253906 -4.609375 3.972656 -4.171875 3.734375 -3.640625 C 3.460938 -3.066406 3.273438 -2.492188 3.171875 -1.921875 C 3.066406 -1.359375 3.0625 -0.835938 3.15625 -0.359375 C 3.257812 0.117188 3.457031 0.554688 3.75 0.953125 C 4.050781 1.347656 4.460938 1.664062 4.984375 1.90625 Z M 4.984375 1.90625 "/></g></g></g><g fill="#060b37" fill-opacity="1"><g transform="translate(122.078281, 46.483637)"><g><path d="M 7.625 -4.8125 C 7.226562 -5.101562 6.851562 -5.347656 6.5 -5.546875 C 6.15625 -5.742188 5.851562 -5.910156 5.59375 -6.046875 C 5.289062 -6.191406 5.015625 -6.3125 4.765625 -6.40625 L 5.515625 -7.109375 C 5.546875 -7.078125 5.601562 -7.03125 5.6875 -6.96875 C 5.769531 -6.914062 5.851562 -6.847656 5.9375 -6.765625 C 6.03125 -6.691406 6.128906 -6.613281 6.234375 -6.53125 C 6.347656 -6.445312 6.453125 -6.367188 6.546875 -6.296875 C 6.648438 -6.222656 6.738281 -6.15625 6.8125 -6.09375 C 6.882812 -6.039062 6.9375 -6.003906 6.96875 -5.984375 L 9.828125 -3.859375 C 9.867188 -3.828125 9.925781 -3.78125 10 -3.71875 C 10.070312 -3.664062 10.15625 -3.609375 10.25 -3.546875 C 10.351562 -3.484375 10.457031 -3.410156 10.5625 -3.328125 C 10.664062 -3.242188 10.769531 -3.164062 10.875 -3.09375 C 10.988281 -3.03125 11.082031 -2.96875 11.15625 -2.90625 C 11.238281 -2.851562 11.300781 -2.8125 11.34375 -2.78125 L 10.890625 -1.859375 C 10.722656 -2.078125 10.519531 -2.3125 10.28125 -2.5625 C 10.082031 -2.78125 9.835938 -3.019531 9.546875 -3.28125 C 9.265625 -3.550781 8.925781 -3.835938 8.53125 -4.140625 L 4.96875 0.65625 C 4.757812 0.9375 4.578125 1.1875 4.421875 1.40625 C 4.265625 1.625 4.140625 1.8125 4.046875 1.96875 C 3.953125 2.132812 3.875 2.273438 3.8125 2.390625 C 3.757812 2.515625 3.710938 2.613281 3.671875 2.6875 L 3.65625 2.71875 L 2.46875 1.828125 L 2.484375 1.796875 C 2.554688 1.753906 2.640625 1.6875 2.734375 1.59375 C 2.828125 1.5 2.929688 1.378906 3.046875 1.234375 C 3.171875 1.097656 3.316406 0.925781 3.484375 0.71875 C 3.660156 0.507812 3.851562 0.265625 4.0625 -0.015625 Z M 7.625 -4.8125 "/></g></g></g><g fill="#060b37" fill-opacity="1"><g transform="translate(129.583435, 52.204442)"><g><path d="M 4.796875 5.203125 L 4.8125 5.1875 C 4.832031 5.175781 4.859375 5.160156 4.890625 5.140625 C 4.929688 5.117188 4.960938 5.097656 4.984375 5.078125 C 5.078125 4.992188 5.164062 4.882812 5.25 4.75 C 5.34375 4.613281 5.441406 4.4375 5.546875 4.21875 L 6.28125 2.5 C 6.132812 2.320312 5.929688 2.085938 5.671875 1.796875 C 5.410156 1.515625 5.125 1.207031 4.8125 0.875 C 4.59375 0.632812 4.378906 0.398438 4.171875 0.171875 C 3.960938 -0.046875 3.773438 -0.238281 3.609375 -0.40625 L 1.921875 0.171875 C 1.765625 0.234375 1.59375 0.296875 1.40625 0.359375 C 1.21875 0.429688 1.054688 0.53125 0.921875 0.65625 C 0.878906 0.6875 0.847656 0.71875 0.828125 0.75 C 0.804688 0.789062 0.789062 0.816406 0.78125 0.828125 L 0.765625 0.84375 L -0.078125 -0.09375 L -0.0625 -0.109375 C 0.0390625 -0.109375 0.203125 -0.132812 0.421875 -0.1875 C 0.648438 -0.238281 0.925781 -0.316406 1.25 -0.421875 L 9.5 -3.171875 L 9.84375 -2.8125 L 6.515625 4.84375 C 6.429688 5.039062 6.359375 5.222656 6.296875 5.390625 C 6.234375 5.566406 6.175781 5.726562 6.125 5.875 C 6.082031 6.019531 6.046875 6.144531 6.015625 6.25 C 5.992188 6.351562 5.976562 6.421875 5.96875 6.453125 L 5.953125 6.46875 Z M 4.625 -0.109375 C 4.789062 0.0546875 4.957031 0.226562 5.125 0.40625 C 5.300781 0.59375 5.472656 0.773438 5.640625 0.953125 C 5.804688 1.128906 5.960938 1.300781 6.109375 1.46875 C 6.265625 1.632812 6.410156 1.785156 6.546875 1.921875 L 8.265625 -2.046875 L 4.15625 -0.625 Z M 4.625 -0.109375 "/></g></g></g><g fill="#060b37" fill-opacity="1"><g transform="translate(136.50573, 60.058775)"><g><path d="M 3.21875 0.59375 C 2.925781 0.78125 2.664062 0.945312 2.4375 1.09375 C 2.21875 1.238281 2.035156 1.367188 1.890625 1.484375 C 1.742188 1.597656 1.617188 1.695312 1.515625 1.78125 C 1.421875 1.875 1.347656 1.953125 1.296875 2.015625 L 1.265625 2.03125 L 0.46875 0.75 L 0.5 0.734375 C 0.582031 0.722656 0.6875 0.691406 0.8125 0.640625 C 0.9375 0.585938 1.078125 0.519531 1.234375 0.4375 C 1.398438 0.351562 1.597656 0.242188 1.828125 0.109375 C 2.066406 -0.015625 2.332031 -0.171875 2.625 -0.359375 L 6.078125 -2.515625 C 6.378906 -2.703125 6.640625 -2.867188 6.859375 -3.015625 C 7.078125 -3.171875 7.265625 -3.304688 7.421875 -3.421875 C 7.585938 -3.535156 7.71875 -3.632812 7.8125 -3.71875 C 7.914062 -3.800781 7.992188 -3.878906 8.046875 -3.953125 L 8.078125 -3.984375 L 8.1875 -3.71875 C 8.21875 -3.65625 8.257812 -3.582031 8.3125 -3.5 C 8.363281 -3.414062 8.414062 -3.332031 8.46875 -3.25 C 8.5625 -3.101562 8.695312 -2.921875 8.875 -2.703125 C 9.0625 -2.492188 9.265625 -2.207031 9.484375 -1.84375 C 9.691406 -1.507812 9.835938 -1.164062 9.921875 -0.8125 C 10.015625 -0.46875 10.035156 -0.140625 9.984375 0.171875 C 9.941406 0.492188 9.828125 0.796875 9.640625 1.078125 C 9.460938 1.359375 9.207031 1.597656 8.875 1.796875 C 8.625 1.960938 8.367188 2.078125 8.109375 2.140625 C 7.847656 2.203125 7.59375 2.234375 7.34375 2.234375 C 7.09375 2.234375 6.847656 2.1875 6.609375 2.09375 C 6.378906 2.007812 6.148438 1.894531 5.921875 1.75 L 4.46875 5.234375 C 4.40625 5.421875 4.347656 5.582031 4.296875 5.71875 C 4.242188 5.851562 4.207031 5.976562 4.1875 6.09375 C 4.164062 6.207031 4.148438 6.3125 4.140625 6.40625 C 4.140625 6.5 4.15625 6.585938 4.1875 6.671875 L 4.15625 6.6875 L 3.203125 5.15625 C 3.265625 5.101562 3.332031 5.015625 3.40625 4.890625 C 3.476562 4.765625 3.546875 4.625 3.609375 4.46875 L 5.078125 0.953125 C 5.035156 0.878906 4.984375 0.800781 4.921875 0.71875 C 4.867188 0.644531 4.816406 0.566406 4.765625 0.484375 C 4.703125 0.378906 4.640625 0.273438 4.578125 0.171875 C 4.523438 0.0664062 4.472656 -0.0390625 4.421875 -0.15625 Z M 4.828125 -0.40625 C 4.878906 -0.300781 4.929688 -0.191406 4.984375 -0.078125 C 5.035156 0.0234375 5.09375 0.117188 5.15625 0.203125 C 5.320312 0.472656 5.507812 0.6875 5.71875 0.84375 C 5.925781 1.007812 6.160156 1.117188 6.421875 1.171875 C 6.691406 1.234375 6.96875 1.226562 7.25 1.15625 C 7.539062 1.09375 7.851562 0.960938 8.1875 0.765625 C 8.445312 0.597656 8.664062 0.414062 8.84375 0.21875 C 9.03125 0.03125 9.160156 -0.164062 9.234375 -0.375 C 9.316406 -0.59375 9.335938 -0.816406 9.296875 -1.046875 C 9.265625 -1.273438 9.175781 -1.507812 9.03125 -1.75 C 8.882812 -1.988281 8.753906 -2.175781 8.640625 -2.3125 C 8.523438 -2.445312 8.425781 -2.539062 8.34375 -2.59375 Z M 4.828125 -0.40625 "/></g></g></g><g fill="#060b37" fill-opacity="1"><g transform="translate(141.33207, 68.102298)"><g><path d="M 5.65625 2.640625 L 3.921875 3.328125 C 3.597656 3.453125 3.3125 3.566406 3.0625 3.671875 C 2.820312 3.785156 2.617188 3.878906 2.453125 3.953125 C 2.285156 4.035156 2.144531 4.113281 2.03125 4.1875 C 1.914062 4.257812 1.828125 4.320312 1.765625 4.375 L 1.734375 4.390625 L 1.171875 3 L 1.203125 2.984375 C 1.285156 2.972656 1.394531 2.953125 1.53125 2.921875 C 1.664062 2.898438 1.820312 2.863281 2 2.8125 C 2.175781 2.757812 2.390625 2.6875 2.640625 2.59375 C 2.898438 2.507812 3.191406 2.40625 3.515625 2.28125 L 5.125 1.640625 L 7.640625 -2.359375 C 7.722656 -2.484375 7.796875 -2.609375 7.859375 -2.734375 C 7.921875 -2.867188 7.972656 -2.988281 8.015625 -3.09375 C 8.066406 -3.195312 8.101562 -3.289062 8.125 -3.375 C 8.15625 -3.457031 8.175781 -3.519531 8.1875 -3.5625 L 8.21875 -3.578125 L 8.90625 -1.8125 C 8.820312 -1.78125 8.691406 -1.6875 8.515625 -1.53125 C 8.335938 -1.375 8.148438 -1.144531 7.953125 -0.84375 L 6.09375 2.09375 L 9.546875 2.875 C 9.671875 2.914062 9.796875 2.945312 9.921875 2.96875 C 10.046875 2.988281 10.164062 3.003906 10.28125 3.015625 C 10.394531 3.035156 10.5 3.046875 10.59375 3.046875 C 10.6875 3.054688 10.757812 3.050781 10.8125 3.03125 L 11.265625 4.15625 L 11.234375 4.171875 C 11.128906 4.109375 10.976562 4.035156 10.78125 3.953125 C 10.582031 3.867188 10.328125 3.796875 10.015625 3.734375 Z M 5.65625 2.640625 "/></g></g></g><g clip-path="url(#0794877c2a)"><path fill="#d2a113" d="M 72.023438 115.875 C 72.929688 114 73.707031 111.519531 74.128906 109.253906 C 74.230469 108.714844 74.019531 108.171875 73.582031 107.851562 C 73.089844 107.46875 72.375 107.039062 71.585938 106.914062 C 71.585938 106.914062 72.601562 106.355469 73.867188 106.898438 C 71.84375 105.457031 72.425781 95.007812 76.175781 88.472656 C 76.164062 89.027344 76.15625 89.5625 76.140625 90.117188 C 77.09375 87.019531 79.171875 84.253906 81.917969 82.402344 C 80.679688 84.335938 80.003906 86.605469 79.980469 88.886719 C 80.570312 86.214844 81.699219 83.574219 83.617188 81.566406 C 88.097656 76.875 95.710938 76.484375 100.824219 72.46875 C 100.738281 73.015625 100.359375 75.511719 100.269531 76.0625 C 101.246094 73.125 105.851562 70.835938 107.8125 68.402344 C 107.773438 69.019531 107.730469 69.632812 107.710938 70.25 C 108.066406 68.703125 109.449219 67.605469 110.652344 66.515625 C 111.847656 65.417969 113 63.929688 112.648438 62.386719 C 113.675781 66.230469 111.789062 70.636719 109.574219 73.828125 C 107.871094 76.28125 102.054688 78.28125 99.070312 77.78125 C 99.679688 77.90625 103.351562 78.308594 103.957031 78.433594 C 98.886719 78.542969 89.078125 106.867188 77.269531 107.34375 C 79.273438 107.375 80.898438 109.234375 80.898438 109.234375 C 80.898438 109.234375 77.789062 108.121094 76.445312 108.265625 C 76.113281 108.296875 79.425781 94.53125 92.132812 81.507812 C 78.582031 93.308594 75.550781 109.019531 75.449219 109.328125 C 74.355469 112.929688 73.125 116.605469 70.816406 119.5625 C 70.496094 119.972656 69.75 120.332031 69.578125 119.855469 C 70.539062 118.597656 71.367188 117.273438 72.039062 115.875 Z M 72.023438 115.875 " fill-opacity="1" fill-rule="evenodd"/></g><g clip-path="url(#4e2baf9ae3)"><path fill="#d2a113" d="M 102.316406 114.132812 C 102.316406 112.550781 98.523438 112.21875 96.695312 112.21875 L 96.234375 112.21875 C 91.5 112.21875 85.175781 113.816406 81.648438 115.121094 C 79.464844 115.925781 77.355469 116.640625 75.257812 117.476562 C 74.617188 117.734375 72.550781 118.574219 71.003906 119.269531 C 70.929688 119.367188 70.867188 119.453125 70.792969 119.550781 C 70.75 119.609375 70.691406 119.667969 70.632812 119.726562 C 71.1875 119.519531 71.753906 119.292969 72.265625 119.117188 C 73.320312 118.765625 74.246094 118.480469 75.304688 118.121094 C 77.082031 117.519531 79.617188 116.679688 81.460938 116.292969 C 85.800781 115.375 89.953125 113.96875 95.179688 113.96875 L 95.78125 113.96875 C 96.707031 113.96875 99.578125 114.09375 99.578125 114.8125 C 99.578125 115.574219 96.300781 117.828125 95.644531 118.496094 C 94.734375 119.417969 92.816406 121.53125 92.816406 123.210938 C 92.816406 124.820312 94.640625 124.6875 95.25 125.121094 L 97.835938 125.121094 C 97.875 125.097656 100.519531 124.578125 100.90625 124.460938 C 101.894531 124.160156 102.792969 123.824219 103.695312 123.523438 C 105.546875 122.917969 107.222656 122.054688 108.96875 121.351562 C 112.371094 119.972656 115.671875 117.921875 118.878906 116.34375 C 119.570312 116 120.445312 115.542969 121.3125 115.070312 C 115.234375 116.648438 105.152344 122.910156 97.917969 122.910156 L 97.457031 122.910156 C 96.882812 122.910156 95.558594 122.625 95.558594 122.148438 L 95.558594 121.921875 C 95.558594 120.273438 102.316406 116.503906 102.316406 114.132812 Z M 102.316406 114.132812 " fill-opacity="1" fill-rule="evenodd"/></g><g clip-path="url(#fa39e75cfa)"><g clip-path="url(#efc19bc0e8)"><path fill="#2e2f38" d="M 35.648438 96.355469 L 41.203125 96.355469 L 41.203125 101.910156 L 35.648438 101.910156 Z M 35.648438 96.355469 " fill-opacity="1" fill-rule="nonzero"/></g></g><g fill="#060b37" fill-opacity="1"><g transform="translate(51.597755, 133.810736)"><g><path d="M 0.25 0.203125 C 0.289062 0.191406 0.359375 0.160156 0.453125 0.109375 C 0.546875 0.0664062 0.644531 0.0078125 0.75 -0.0625 C 0.90625 -0.1875 1.082031 -0.328125 1.28125 -0.484375 C 1.476562 -0.640625 1.679688 -0.800781 1.890625 -0.96875 C 2.109375 -1.144531 2.332031 -1.320312 2.5625 -1.5 C 2.789062 -1.6875 3.007812 -1.867188 3.21875 -2.046875 C 3.425781 -2.222656 3.632812 -2.390625 3.84375 -2.546875 C 4.050781 -2.710938 4.234375 -2.863281 4.390625 -3 C 4.554688 -3.144531 4.695312 -3.265625 4.8125 -3.359375 C 4.9375 -3.460938 5.03125 -3.546875 5.09375 -3.609375 L 5.484375 -3.25 L 4.0625 2.265625 L 9.40625 0.375 L 9.703125 0.640625 L 6.78125 4.84375 C 6.6875 4.96875 6.609375 5.078125 6.546875 5.171875 C 6.484375 5.273438 6.4375 5.363281 6.40625 5.4375 C 6.375 5.519531 6.347656 5.585938 6.328125 5.640625 C 6.304688 5.691406 6.289062 5.738281 6.28125 5.78125 L 6.265625 5.796875 L 5.46875 5.0625 L 5.484375 5.046875 C 5.515625 5.023438 5.554688 4.992188 5.609375 4.953125 C 5.671875 4.910156 5.734375 4.851562 5.796875 4.78125 C 5.828125 4.75 5.851562 4.71875 5.875 4.6875 C 5.90625 4.664062 5.9375 4.632812 5.96875 4.59375 L 8.328125 1.234375 L 3.28125 3 L 3.078125 2.796875 L 4.4375 -2.40625 C 3.90625 -1.988281 3.421875 -1.59375 2.984375 -1.21875 C 2.796875 -1.0625 2.601562 -0.90625 2.40625 -0.75 C 2.21875 -0.59375 2.046875 -0.445312 1.890625 -0.3125 C 1.734375 -0.175781 1.59375 -0.0546875 1.46875 0.046875 C 1.351562 0.160156 1.269531 0.25 1.21875 0.3125 C 1.15625 0.382812 1.097656 0.445312 1.046875 0.5 C 1.003906 0.5625 0.96875 0.613281 0.9375 0.65625 C 0.90625 0.707031 0.875 0.75 0.84375 0.78125 L 0.234375 0.21875 Z M 0.25 0.203125 "/></g></g></g><g fill="#060b37" fill-opacity="1"><g transform="translate(59.929747, 141.129789)"><g><path d="M 6.1875 -3.40625 C 6.59375 -3.15625 6.925781 -2.851562 7.1875 -2.5 C 7.445312 -2.15625 7.625 -1.785156 7.71875 -1.390625 C 7.8125 -1.003906 7.820312 -0.601562 7.75 -0.1875 C 7.675781 0.226562 7.507812 0.640625 7.25 1.046875 C 7.101562 1.273438 6.9375 1.484375 6.75 1.671875 C 6.5625 1.859375 6.347656 2.015625 6.109375 2.140625 C 5.878906 2.273438 5.640625 2.375 5.390625 2.4375 C 5.148438 2.507812 4.894531 2.546875 4.625 2.546875 C 4.351562 2.546875 4.082031 2.503906 3.8125 2.421875 C 3.539062 2.347656 3.269531 2.226562 3 2.0625 C 2.601562 1.8125 2.273438 1.507812 2.015625 1.15625 C 1.753906 0.8125 1.578125 0.445312 1.484375 0.0625 C 1.390625 -0.320312 1.375 -0.722656 1.4375 -1.140625 C 1.507812 -1.566406 1.675781 -1.976562 1.9375 -2.375 C 2.082031 -2.601562 2.25 -2.8125 2.4375 -3 C 2.632812 -3.1875 2.84375 -3.34375 3.0625 -3.46875 C 3.289062 -3.601562 3.53125 -3.707031 3.78125 -3.78125 C 4.039062 -3.851562 4.300781 -3.890625 4.5625 -3.890625 C 4.832031 -3.898438 5.101562 -3.863281 5.375 -3.78125 C 5.65625 -3.695312 5.925781 -3.570312 6.1875 -3.40625 Z M 3.203125 1.75 C 3.472656 1.914062 3.742188 2.019531 4.015625 2.0625 C 4.296875 2.101562 4.570312 2.082031 4.84375 2 C 5.113281 1.925781 5.378906 1.785156 5.640625 1.578125 C 5.898438 1.367188 6.132812 1.097656 6.34375 0.765625 C 6.582031 0.390625 6.757812 0.0195312 6.875 -0.34375 C 6.988281 -0.707031 7.035156 -1.054688 7.015625 -1.390625 C 6.992188 -1.722656 6.898438 -2.035156 6.734375 -2.328125 C 6.578125 -2.617188 6.332031 -2.867188 6 -3.078125 C 5.738281 -3.242188 5.46875 -3.347656 5.1875 -3.390625 C 4.90625 -3.441406 4.625 -3.425781 4.34375 -3.34375 C 4.070312 -3.269531 3.804688 -3.132812 3.546875 -2.9375 C 3.285156 -2.738281 3.050781 -2.472656 2.84375 -2.140625 C 2.601562 -1.765625 2.421875 -1.390625 2.296875 -1.015625 C 2.179688 -0.648438 2.132812 -0.300781 2.15625 0.03125 C 2.1875 0.375 2.285156 0.691406 2.453125 0.984375 C 2.617188 1.285156 2.867188 1.539062 3.203125 1.75 Z M 3.203125 1.75 "/></g></g></g><g fill="#060b37" fill-opacity="1"><g transform="translate(67.755918, 145.852884)"><g><path d="M 2.5 -3.75 C 2.601562 -3.96875 2.6875 -4.15625 2.75 -4.3125 C 2.820312 -4.476562 2.878906 -4.625 2.921875 -4.75 C 2.972656 -4.875 3.007812 -4.976562 3.03125 -5.0625 C 3.050781 -5.15625 3.066406 -5.234375 3.078125 -5.296875 L 3.09375 -5.3125 C 3.125 -5.28125 3.171875 -5.25 3.234375 -5.21875 C 3.285156 -5.195312 3.335938 -5.171875 3.390625 -5.140625 C 3.453125 -5.117188 3.515625 -5.09375 3.578125 -5.0625 C 3.671875 -5.019531 3.800781 -4.972656 3.96875 -4.921875 C 4.144531 -4.867188 4.359375 -4.785156 4.609375 -4.671875 C 4.835938 -4.566406 5.035156 -4.4375 5.203125 -4.28125 C 5.378906 -4.132812 5.507812 -3.96875 5.59375 -3.78125 C 5.6875 -3.601562 5.734375 -3.410156 5.734375 -3.203125 C 5.742188 -3.003906 5.703125 -2.800781 5.609375 -2.59375 C 5.523438 -2.414062 5.425781 -2.265625 5.3125 -2.140625 C 5.207031 -2.023438 5.085938 -1.9375 4.953125 -1.875 C 4.816406 -1.8125 4.664062 -1.769531 4.5 -1.75 C 4.34375 -1.738281 4.179688 -1.75 4.015625 -1.78125 C 4.210938 -1.644531 4.382812 -1.492188 4.53125 -1.328125 C 4.6875 -1.171875 4.800781 -1.003906 4.875 -0.828125 C 4.945312 -0.648438 4.984375 -0.460938 4.984375 -0.265625 C 4.984375 -0.078125 4.941406 0.109375 4.859375 0.296875 C 4.609375 0.847656 4.238281 1.175781 3.75 1.28125 C 3.269531 1.394531 2.671875 1.289062 1.953125 0.96875 C 1.867188 0.925781 1.78125 0.878906 1.6875 0.828125 C 1.59375 0.773438 1.492188 0.71875 1.390625 0.65625 C 1.285156 0.601562 1.179688 0.550781 1.078125 0.5 C 0.972656 0.445312 0.882812 0.40625 0.8125 0.375 L 0.5625 0.25 L 0.5625 0.234375 C 0.601562 0.191406 0.648438 0.128906 0.703125 0.046875 C 0.753906 -0.0234375 0.8125 -0.117188 0.875 -0.234375 C 0.9375 -0.347656 1.003906 -0.484375 1.078125 -0.640625 C 1.160156 -0.804688 1.253906 -1 1.359375 -1.21875 Z M 3.34375 -1.796875 C 3.164062 -1.878906 3.015625 -1.9375 2.890625 -1.96875 C 2.765625 -2.007812 2.660156 -2.039062 2.578125 -2.0625 L 2.046875 -0.890625 C 1.910156 -0.585938 1.804688 -0.332031 1.734375 -0.125 C 1.660156 0.0703125 1.601562 0.238281 1.5625 0.375 C 1.65625 0.425781 1.75 0.476562 1.84375 0.53125 C 1.9375 0.59375 2.015625 0.632812 2.078125 0.65625 C 2.554688 0.875 2.957031 0.925781 3.28125 0.8125 C 3.601562 0.707031 3.863281 0.429688 4.0625 -0.015625 C 4.144531 -0.203125 4.191406 -0.378906 4.203125 -0.546875 C 4.222656 -0.722656 4.203125 -0.882812 4.140625 -1.03125 C 4.085938 -1.1875 3.992188 -1.328125 3.859375 -1.453125 C 3.722656 -1.585938 3.550781 -1.703125 3.34375 -1.796875 Z M 2.734375 -2.421875 C 2.816406 -2.378906 2.882812 -2.34375 2.9375 -2.3125 C 3 -2.289062 3.0625 -2.265625 3.125 -2.234375 C 3.289062 -2.160156 3.457031 -2.113281 3.625 -2.09375 C 3.800781 -2.070312 3.960938 -2.085938 4.109375 -2.140625 C 4.253906 -2.191406 4.390625 -2.28125 4.515625 -2.40625 C 4.640625 -2.53125 4.75 -2.695312 4.84375 -2.90625 C 4.914062 -3.070312 4.960938 -3.234375 4.984375 -3.390625 C 5.003906 -3.546875 5 -3.691406 4.96875 -3.828125 C 4.9375 -3.960938 4.867188 -4.078125 4.765625 -4.171875 C 4.660156 -4.273438 4.535156 -4.363281 4.390625 -4.4375 C 4.296875 -4.476562 4.210938 -4.515625 4.140625 -4.546875 C 4.066406 -4.578125 3.992188 -4.601562 3.921875 -4.625 C 3.867188 -4.632812 3.8125 -4.640625 3.75 -4.640625 Z M 2.734375 -2.421875 "/></g></g></g><g fill="#060b37" fill-opacity="1"><g transform="translate(74.093772, 148.554042)"><g><path d="M 0.609375 0.1875 C 0.648438 0.132812 0.691406 0.0703125 0.734375 0 C 0.785156 -0.0820312 0.832031 -0.179688 0.875 -0.296875 C 0.925781 -0.421875 0.984375 -0.566406 1.046875 -0.734375 C 1.109375 -0.898438 1.175781 -1.097656 1.25 -1.328125 L 2.15625 -3.953125 C 2.226562 -4.179688 2.289062 -4.382812 2.34375 -4.5625 C 2.394531 -4.738281 2.4375 -4.882812 2.46875 -5 C 2.507812 -5.125 2.535156 -5.234375 2.546875 -5.328125 C 2.566406 -5.421875 2.578125 -5.5 2.578125 -5.5625 L 2.578125 -5.578125 L 3.546875 -5.25 L 3.546875 -5.234375 C 3.503906 -5.179688 3.460938 -5.113281 3.421875 -5.03125 C 3.378906 -4.945312 3.332031 -4.847656 3.28125 -4.734375 C 3.226562 -4.617188 3.171875 -4.472656 3.109375 -4.296875 C 3.046875 -4.128906 2.976562 -3.929688 2.90625 -3.703125 L 2 -1.078125 C 1.925781 -0.847656 1.863281 -0.644531 1.8125 -0.46875 C 1.757812 -0.300781 1.71875 -0.15625 1.6875 -0.03125 C 1.65625 0.09375 1.628906 0.195312 1.609375 0.28125 C 1.585938 0.375 1.578125 0.453125 1.578125 0.515625 L 1.578125 0.53125 L 0.609375 0.203125 Z M 0.609375 0.1875 "/></g></g></g><g fill="#060b37" fill-opacity="1"><g transform="translate(78.172747, 149.889006)"><g><path d="M 1.546875 0 C 1.878906 0.0703125 2.1875 0.128906 2.46875 0.171875 C 2.75 0.210938 2.992188 0.238281 3.203125 0.25 C 3.453125 0.257812 3.675781 0.265625 3.875 0.265625 L 3.609375 0.90625 C 3.566406 0.894531 3.515625 0.878906 3.453125 0.859375 C 3.390625 0.835938 3.316406 0.816406 3.234375 0.796875 C 3.148438 0.773438 3.0625 0.753906 2.96875 0.734375 C 2.882812 0.710938 2.800781 0.691406 2.71875 0.671875 C 2.644531 0.648438 2.578125 0.628906 2.515625 0.609375 C 2.453125 0.585938 2.410156 0.578125 2.390625 0.578125 L 0.59375 0.140625 L 0.59375 0.125 C 0.632812 0.0703125 0.671875 0.00390625 0.703125 -0.078125 C 0.742188 -0.160156 0.785156 -0.265625 0.828125 -0.390625 C 0.867188 -0.515625 0.910156 -0.660156 0.953125 -0.828125 C 1.003906 -1.003906 1.054688 -1.210938 1.109375 -1.453125 L 1.765625 -4.140625 C 1.816406 -4.367188 1.863281 -4.570312 1.90625 -4.75 C 1.945312 -4.925781 1.976562 -5.082031 2 -5.21875 C 2.019531 -5.351562 2.03125 -5.460938 2.03125 -5.546875 C 2.039062 -5.628906 2.039062 -5.707031 2.03125 -5.78125 L 2.03125 -5.796875 L 3.015625 -5.546875 L 3.015625 -5.53125 C 2.992188 -5.476562 2.960938 -5.410156 2.921875 -5.328125 C 2.890625 -5.242188 2.851562 -5.140625 2.8125 -5.015625 C 2.769531 -4.890625 2.71875 -4.738281 2.65625 -4.5625 C 2.601562 -4.382812 2.550781 -4.179688 2.5 -3.953125 Z M 1.546875 0 "/></g></g></g><g fill="#060b37" fill-opacity="1"><g transform="translate(84.063069, 151.212267)"><g><path d="M 1.40625 -5.984375 C 1.75 -5.941406 2.09375 -5.894531 2.4375 -5.84375 C 2.789062 -5.800781 3.109375 -5.765625 3.390625 -5.734375 C 3.679688 -5.703125 3.929688 -5.675781 4.140625 -5.65625 C 4.347656 -5.632812 4.488281 -5.628906 4.5625 -5.640625 L 4.28125 -5.09375 C 4.195312 -5.125 4.09375 -5.160156 3.96875 -5.203125 C 3.863281 -5.234375 3.738281 -5.265625 3.59375 -5.296875 C 3.445312 -5.335938 3.273438 -5.375 3.078125 -5.40625 C 3.003906 -5.40625 2.921875 -5.410156 2.828125 -5.421875 C 2.734375 -5.429688 2.632812 -5.4375 2.53125 -5.4375 C 2.4375 -5.445312 2.332031 -5.457031 2.21875 -5.46875 L 1.921875 -3.171875 C 2.222656 -3.128906 2.488281 -3.097656 2.71875 -3.078125 C 2.957031 -3.066406 3.160156 -3.054688 3.328125 -3.046875 C 3.515625 -3.046875 3.679688 -3.046875 3.828125 -3.046875 L 3.625 -2.4375 C 3.425781 -2.488281 3.234375 -2.539062 3.046875 -2.59375 C 2.867188 -2.632812 2.675781 -2.675781 2.46875 -2.71875 C 2.269531 -2.757812 2.070312 -2.796875 1.875 -2.828125 L 1.53125 -0.1875 C 1.875 -0.132812 2.1875 -0.101562 2.46875 -0.09375 C 2.75 -0.0820312 2.992188 -0.0859375 3.203125 -0.109375 C 3.453125 -0.117188 3.675781 -0.132812 3.875 -0.15625 L 3.6875 0.515625 C 3.644531 0.503906 3.585938 0.492188 3.515625 0.484375 C 3.453125 0.472656 3.378906 0.460938 3.296875 0.453125 C 3.210938 0.441406 3.125 0.425781 3.03125 0.40625 C 2.9375 0.394531 2.851562 0.378906 2.78125 0.359375 C 2.707031 0.347656 2.632812 0.335938 2.5625 0.328125 C 2.5 0.328125 2.457031 0.320312 2.4375 0.3125 L 0.609375 0.078125 L 0.609375 0.0625 C 0.640625 0 0.664062 -0.0703125 0.6875 -0.15625 C 0.71875 -0.238281 0.742188 -0.34375 0.765625 -0.46875 C 0.796875 -0.601562 0.828125 -0.753906 0.859375 -0.921875 C 0.890625 -1.097656 0.921875 -1.3125 0.953125 -1.5625 L 1.3125 -4.3125 C 1.34375 -4.539062 1.363281 -4.742188 1.375 -4.921875 C 1.394531 -5.109375 1.410156 -5.265625 1.421875 -5.390625 C 1.429688 -5.523438 1.429688 -5.640625 1.421875 -5.734375 C 1.421875 -5.828125 1.410156 -5.90625 1.390625 -5.96875 Z M 1.40625 -5.984375 "/></g></g></g><g fill="#060b37" fill-opacity="1"><g transform="translate(90.291606, 151.89021)"><g/></g></g><g fill="#060b37" fill-opacity="1"><g transform="translate(94.954099, 152.043582)"><g><path d="M 0.359375 -6.15625 L 5.109375 -1.859375 L 4.859375 -4.84375 C 4.835938 -5.082031 4.816406 -5.289062 4.796875 -5.46875 C 4.773438 -5.65625 4.753906 -5.8125 4.734375 -5.9375 C 4.710938 -6.070312 4.691406 -6.179688 4.671875 -6.265625 C 4.648438 -6.347656 4.628906 -6.421875 4.609375 -6.484375 L 4.609375 -6.5 L 5.359375 -6.5625 L 5.359375 -6.546875 C 5.347656 -6.484375 5.335938 -6.40625 5.328125 -6.3125 C 5.316406 -6.226562 5.3125 -6.117188 5.3125 -5.984375 C 5.3125 -5.859375 5.316406 -5.703125 5.328125 -5.515625 C 5.335938 -5.335938 5.351562 -5.128906 5.375 -4.890625 L 5.734375 -0.390625 L 5.578125 -0.375 L 0.84375 -4.65625 L 1.078125 -1.765625 C 1.097656 -1.515625 1.117188 -1.300781 1.140625 -1.125 C 1.160156 -0.945312 1.179688 -0.796875 1.203125 -0.671875 C 1.222656 -0.546875 1.242188 -0.4375 1.265625 -0.34375 C 1.285156 -0.257812 1.304688 -0.1875 1.328125 -0.125 L 1.328125 -0.109375 L 0.578125 -0.046875 L 0.578125 -0.0625 C 0.578125 -0.125 0.582031 -0.195312 0.59375 -0.28125 C 0.601562 -0.375 0.609375 -0.488281 0.609375 -0.625 C 0.617188 -0.757812 0.617188 -0.914062 0.609375 -1.09375 C 0.597656 -1.269531 0.582031 -1.484375 0.5625 -1.734375 L 0.34375 -4.484375 C 0.320312 -4.722656 0.300781 -4.929688 0.28125 -5.109375 C 0.257812 -5.296875 0.234375 -5.453125 0.203125 -5.578125 C 0.179688 -5.703125 0.160156 -5.804688 0.140625 -5.890625 C 0.117188 -5.984375 0.101562 -6.0625 0.09375 -6.125 L 0.09375 -6.140625 Z M 0.359375 -6.15625 "/></g></g></g><g fill="#060b37" fill-opacity="1"><g transform="translate(103.511904, 151.206186)"><g><path d="M 1.84375 -6.828125 C 2.3125 -6.941406 2.757812 -6.972656 3.1875 -6.921875 C 3.613281 -6.867188 4 -6.738281 4.34375 -6.53125 C 4.6875 -6.320312 4.984375 -6.046875 5.234375 -5.703125 C 5.484375 -5.359375 5.664062 -4.957031 5.78125 -4.5 C 5.84375 -4.226562 5.875 -3.957031 5.875 -3.6875 C 5.882812 -3.425781 5.851562 -3.164062 5.78125 -2.90625 C 5.71875 -2.65625 5.625 -2.414062 5.5 -2.1875 C 5.382812 -1.957031 5.226562 -1.742188 5.03125 -1.546875 C 4.84375 -1.359375 4.628906 -1.191406 4.390625 -1.046875 C 4.148438 -0.910156 3.878906 -0.804688 3.578125 -0.734375 C 3.109375 -0.617188 2.660156 -0.585938 2.234375 -0.640625 C 1.804688 -0.691406 1.414062 -0.816406 1.0625 -1.015625 C 0.71875 -1.222656 0.414062 -1.492188 0.15625 -1.828125 C -0.09375 -2.171875 -0.273438 -2.578125 -0.390625 -3.046875 C -0.453125 -3.304688 -0.476562 -3.566406 -0.46875 -3.828125 C -0.46875 -4.097656 -0.4375 -4.359375 -0.375 -4.609375 C -0.320312 -4.867188 -0.234375 -5.113281 -0.109375 -5.34375 C 0.015625 -5.582031 0.171875 -5.796875 0.359375 -5.984375 C 0.546875 -6.179688 0.765625 -6.351562 1.015625 -6.5 C 1.265625 -6.644531 1.539062 -6.753906 1.84375 -6.828125 Z M 3.484375 -1.109375 C 3.785156 -1.179688 4.046875 -1.300781 4.265625 -1.46875 C 4.492188 -1.632812 4.675781 -1.84375 4.8125 -2.09375 C 4.945312 -2.351562 5.023438 -2.644531 5.046875 -2.96875 C 5.078125 -3.289062 5.050781 -3.644531 4.96875 -4.03125 C 4.863281 -4.457031 4.71875 -4.835938 4.53125 -5.171875 C 4.34375 -5.515625 4.117188 -5.796875 3.859375 -6.015625 C 3.609375 -6.234375 3.320312 -6.382812 3 -6.46875 C 2.675781 -6.5625 2.320312 -6.5625 1.9375 -6.46875 C 1.632812 -6.394531 1.367188 -6.269531 1.140625 -6.09375 C 0.910156 -5.914062 0.726562 -5.703125 0.59375 -5.453125 C 0.457031 -5.203125 0.375 -4.914062 0.34375 -4.59375 C 0.3125 -4.269531 0.34375 -3.914062 0.4375 -3.53125 C 0.539062 -3.101562 0.679688 -2.71875 0.859375 -2.375 C 1.046875 -2.03125 1.269531 -1.75 1.53125 -1.53125 C 1.789062 -1.3125 2.082031 -1.160156 2.40625 -1.078125 C 2.738281 -1.003906 3.097656 -1.015625 3.484375 -1.109375 Z M 3.484375 -1.109375 "/></g></g></g><g fill="#060b37" fill-opacity="1"><g transform="translate(112.353416, 148.85184)"><g><path d="M -0.0625 -6.15625 C -0.375 -6.03125 -0.648438 -5.898438 -0.890625 -5.765625 C -1.128906 -5.640625 -1.335938 -5.519531 -1.515625 -5.40625 C -1.710938 -5.289062 -1.882812 -5.175781 -2.03125 -5.0625 L -2.171875 -5.75 C -2.140625 -5.757812 -2.09375 -5.773438 -2.03125 -5.796875 C -1.96875 -5.816406 -1.894531 -5.84375 -1.8125 -5.875 C -1.738281 -5.90625 -1.65625 -5.9375 -1.5625 -5.96875 C -1.46875 -6 -1.378906 -6.03125 -1.296875 -6.0625 C -1.222656 -6.09375 -1.15625 -6.117188 -1.09375 -6.140625 C -1.039062 -6.160156 -1 -6.175781 -0.96875 -6.1875 L 1.28125 -7.09375 C 1.300781 -7.101562 1.335938 -7.117188 1.390625 -7.140625 C 1.453125 -7.160156 1.519531 -7.1875 1.59375 -7.21875 C 1.675781 -7.25 1.757812 -7.285156 1.84375 -7.328125 C 1.925781 -7.367188 2.003906 -7.40625 2.078125 -7.4375 C 2.160156 -7.46875 2.234375 -7.5 2.296875 -7.53125 C 2.359375 -7.5625 2.40625 -7.582031 2.4375 -7.59375 L 2.796875 -7 C 2.609375 -6.976562 2.40625 -6.941406 2.1875 -6.890625 C 1.988281 -6.847656 1.757812 -6.789062 1.5 -6.71875 C 1.238281 -6.65625 0.953125 -6.5625 0.640625 -6.4375 L 2.140625 -2.65625 C 2.234375 -2.425781 2.316406 -2.226562 2.390625 -2.0625 C 2.472656 -1.90625 2.539062 -1.765625 2.59375 -1.640625 C 2.65625 -1.523438 2.707031 -1.429688 2.75 -1.359375 C 2.800781 -1.285156 2.847656 -1.222656 2.890625 -1.171875 L 2.890625 -1.15625 L 1.9375 -0.78125 L 1.9375 -0.796875 C 1.925781 -0.859375 1.910156 -0.929688 1.890625 -1.015625 C 1.867188 -1.097656 1.84375 -1.203125 1.8125 -1.328125 C 1.78125 -1.453125 1.734375 -1.597656 1.671875 -1.765625 C 1.609375 -1.941406 1.53125 -2.144531 1.4375 -2.375 Z M -0.0625 -6.15625 "/></g></g></g><g fill="#060b37" fill-opacity="1"><g transform="translate(119.090624, 146.029485)"><g><path d="M 4.203125 -2.375 L 4.203125 -2.390625 C 4.203125 -2.410156 4.191406 -2.429688 4.171875 -2.453125 C 4.160156 -2.484375 4.148438 -2.507812 4.140625 -2.53125 C 4.097656 -2.613281 4.039062 -2.691406 3.96875 -2.765625 C 3.894531 -2.847656 3.785156 -2.9375 3.640625 -3.03125 L 2.640625 -3.78125 C 2.484375 -3.71875 2.289062 -3.617188 2.0625 -3.484375 C 1.832031 -3.347656 1.585938 -3.207031 1.328125 -3.0625 C 1.128906 -2.945312 0.9375 -2.835938 0.75 -2.734375 C 0.570312 -2.640625 0.414062 -2.546875 0.28125 -2.453125 L 0.40625 -1.25 C 0.414062 -1.132812 0.429688 -1.007812 0.453125 -0.875 C 0.472656 -0.738281 0.515625 -0.617188 0.578125 -0.515625 C 0.597656 -0.484375 0.617188 -0.457031 0.640625 -0.4375 C 0.660156 -0.425781 0.675781 -0.414062 0.6875 -0.40625 L 0.6875 -0.390625 L -0.0625 0.03125 L -0.0625 0.015625 C -0.0625 -0.046875 -0.0625 -0.15625 -0.0625 -0.3125 C -0.0625 -0.476562 -0.0703125 -0.671875 -0.09375 -0.890625 L -0.625 -6.796875 L -0.328125 -6.96875 L 4.234375 -3.578125 C 4.335938 -3.492188 4.441406 -3.414062 4.546875 -3.34375 C 4.660156 -3.28125 4.757812 -3.222656 4.84375 -3.171875 C 4.9375 -3.117188 5.015625 -3.078125 5.078125 -3.046875 C 5.148438 -3.015625 5.195312 -2.988281 5.21875 -2.96875 L 5.21875 -2.953125 Z M 0.640625 -3.078125 C 0.773438 -3.160156 0.914062 -3.25 1.0625 -3.34375 C 1.21875 -3.4375 1.367188 -3.519531 1.515625 -3.59375 C 1.660156 -3.675781 1.796875 -3.753906 1.921875 -3.828125 C 2.054688 -3.910156 2.179688 -3.984375 2.296875 -4.046875 L -0.09375 -5.8125 L 0.234375 -2.859375 Z M 0.640625 -3.078125 "/></g></g></g><g fill="#060b37" fill-opacity="1"><g transform="translate(125.976683, 141.943045)"><g><path d="M 0.1875 -2.234375 C 0.34375 -2.035156 0.472656 -1.867188 0.578125 -1.734375 C 0.691406 -1.597656 0.796875 -1.476562 0.890625 -1.375 C 0.984375 -1.28125 1.0625 -1.203125 1.125 -1.140625 C 1.1875 -1.085938 1.238281 -1.039062 1.28125 -1 L 1.296875 -0.984375 L 0.484375 -0.375 L 0.46875 -0.390625 C 0.457031 -0.453125 0.429688 -0.519531 0.390625 -0.59375 C 0.347656 -0.675781 0.289062 -0.769531 0.21875 -0.875 C 0.144531 -0.988281 0.0546875 -1.113281 -0.046875 -1.25 C -0.148438 -1.394531 -0.28125 -1.566406 -0.4375 -1.765625 L -2.109375 -3.96875 C -2.242188 -4.164062 -2.367188 -4.335938 -2.484375 -4.484375 C -2.597656 -4.628906 -2.695312 -4.75 -2.78125 -4.84375 C -2.875 -4.9375 -2.953125 -5.015625 -3.015625 -5.078125 C -3.078125 -5.140625 -3.140625 -5.191406 -3.203125 -5.234375 L -3.203125 -5.25 L -3.0625 -5.328125 C -3 -5.359375 -2.941406 -5.390625 -2.890625 -5.421875 C -2.847656 -5.460938 -2.796875 -5.503906 -2.734375 -5.546875 C -2.640625 -5.617188 -2.523438 -5.722656 -2.390625 -5.859375 C -2.265625 -5.992188 -2.082031 -6.148438 -1.84375 -6.328125 C -1.632812 -6.484375 -1.414062 -6.601562 -1.1875 -6.6875 C -0.957031 -6.769531 -0.726562 -6.804688 -0.5 -6.796875 C -0.28125 -6.785156 -0.0703125 -6.722656 0.125 -6.609375 C 0.332031 -6.503906 0.515625 -6.351562 0.671875 -6.15625 C 0.796875 -5.988281 0.890625 -5.816406 0.953125 -5.640625 C 1.015625 -5.472656 1.046875 -5.304688 1.046875 -5.140625 C 1.054688 -4.972656 1.039062 -4.804688 1 -4.640625 C 0.96875 -4.472656 0.90625 -4.304688 0.8125 -4.140625 L 3.28125 -3.375 C 3.40625 -3.332031 3.515625 -3.296875 3.609375 -3.265625 C 3.710938 -3.242188 3.800781 -3.226562 3.875 -3.21875 C 3.945312 -3.21875 4.015625 -3.21875 4.078125 -3.21875 C 4.140625 -3.21875 4.203125 -3.234375 4.265625 -3.265625 L 4.28125 -3.25 L 3.296875 -2.5 C 3.253906 -2.53125 3.1875 -2.566406 3.09375 -2.609375 C 3.007812 -2.660156 2.910156 -2.703125 2.796875 -2.734375 L 0.328125 -3.515625 C 0.285156 -3.472656 0.238281 -3.425781 0.1875 -3.375 C 0.132812 -3.332031 0.0820312 -3.289062 0.03125 -3.25 C -0.03125 -3.195312 -0.09375 -3.148438 -0.15625 -3.109375 C -0.226562 -3.066406 -0.300781 -3.03125 -0.375 -3 Z M -0.578125 -3.265625 C -0.503906 -3.296875 -0.429688 -3.332031 -0.359375 -3.375 C -0.296875 -3.414062 -0.238281 -3.457031 -0.1875 -3.5 C -0.0078125 -3.632812 0.125 -3.78125 0.21875 -3.9375 C 0.3125 -4.09375 0.367188 -4.257812 0.390625 -4.4375 C 0.421875 -4.613281 0.398438 -4.800781 0.328125 -5 C 0.265625 -5.195312 0.15625 -5.398438 0 -5.609375 C -0.125 -5.773438 -0.253906 -5.910156 -0.390625 -6.015625 C -0.535156 -6.128906 -0.679688 -6.207031 -0.828125 -6.25 C -0.984375 -6.289062 -1.140625 -6.289062 -1.296875 -6.25 C -1.453125 -6.21875 -1.609375 -6.140625 -1.765625 -6.015625 C -1.910156 -5.910156 -2.023438 -5.8125 -2.109375 -5.71875 C -2.203125 -5.632812 -2.257812 -5.5625 -2.28125 -5.5 Z M -0.578125 -3.265625 "/></g></g></g><g fill="#060b37" fill-opacity="1"><g transform="translate(131.664716, 137.471728)"><g><path d="M 0.15625 -4.25 L 1.03125 -3.359375 C 1.207031 -3.179688 1.359375 -3.03125 1.484375 -2.90625 C 1.617188 -2.789062 1.734375 -2.6875 1.828125 -2.59375 C 1.921875 -2.507812 2.003906 -2.441406 2.078125 -2.390625 C 2.148438 -2.335938 2.21875 -2.300781 2.28125 -2.28125 L 2.296875 -2.265625 L 1.5625 -1.546875 L 1.546875 -1.5625 C 1.515625 -1.613281 1.472656 -1.675781 1.421875 -1.75 C 1.367188 -1.820312 1.300781 -1.90625 1.21875 -2 C 1.144531 -2.101562 1.046875 -2.21875 0.921875 -2.34375 C 0.796875 -2.476562 0.644531 -2.632812 0.46875 -2.8125 L -0.359375 -3.65625 L -3.515625 -4.171875 C -3.628906 -4.179688 -3.734375 -4.191406 -3.828125 -4.203125 C -3.921875 -4.210938 -4.003906 -4.210938 -4.078125 -4.203125 C -4.160156 -4.203125 -4.226562 -4.195312 -4.28125 -4.1875 C -4.34375 -4.1875 -4.394531 -4.1875 -4.4375 -4.1875 L -4.4375 -4.203125 L -3.515625 -5.109375 C -3.460938 -5.054688 -3.367188 -4.992188 -3.234375 -4.921875 C -3.097656 -4.859375 -2.90625 -4.800781 -2.65625 -4.75 L -0.3125 -4.375 L -0.75 -6.765625 C -0.757812 -6.859375 -0.773438 -6.945312 -0.796875 -7.03125 C -0.816406 -7.113281 -0.832031 -7.191406 -0.84375 -7.265625 C -0.863281 -7.347656 -0.882812 -7.414062 -0.90625 -7.46875 C -0.9375 -7.53125 -0.960938 -7.578125 -0.984375 -7.609375 L -0.390625 -8.1875 L -0.390625 -8.171875 C -0.390625 -8.085938 -0.390625 -7.96875 -0.390625 -7.8125 C -0.390625 -7.664062 -0.367188 -7.484375 -0.328125 -7.265625 Z M 0.15625 -4.25 "/></g></g></g><g clip-path="url(#620d4d2cb6)"><g clip-path="url(#3778a809d2)"><path fill="#2e2f38" d="M 146.296875 96.355469 L 151.851562 96.355469 L 151.851562 101.910156 L 146.296875 101.910156 Z M 146.296875 96.355469 " fill-opacity="1" fill-rule="nonzero"/></g></g></svg>